<svg width="32" height="36" viewBox="0 0 32 36" fill="none" xmlns="http://www.w3.org/2000/svg">
<rect x="22.1538" y="36" width="30" height="9.84615" transform="rotate(-90 22.1538 36)" fill="#4B9C60"/>
<rect x="11.077" y="36" width="24" height="9.84615" transform="rotate(-90 11.077 36)" fill="#FFC107"/>
<rect y="36" width="36" height="9.84615" transform="rotate(-90 0 36)" fill="#007BFF"/>
<path d="M27.1439 10.8001C27.1439 10.8001 20.3361 10.3738 17.4516 12.9001C13.6207 16.2552 20.6593 23.2224 17.4516 27.15C14.5521 30.7002 4.83617 30.3 4.83617 30.3" stroke="#00448E" stroke-width="2" stroke-linecap="round" stroke-dasharray="4 4"/>
<rect x="25.7592" y="9.60001" width="2.46154" height="2.4" rx="1.2" fill="#00448E"/>
<rect x="25.7592" y="9.60001" width="2.46154" height="2.4" rx="1.2" fill="#00448E"/>
<rect x="25.7592" y="9.60001" width="2.46154" height="2.4" rx="1.2" fill="#00448E"/>
<rect x="16.923" y="23.7" width="2.46154" height="2.4" rx="1.2" fill="#00448E"/>
<rect x="16.923" y="23.7" width="2.46154" height="2.4" rx="1.2" fill="#00448E"/>
<rect x="16.923" y="23.7" width="2.46154" height="2.4" rx="1.2" fill="#00448E"/>
<rect x="4.22076" y="29.1" width="2.46154" height="2.4" rx="1.2" fill="#00448E"/>
<rect x="4.22076" y="29.1" width="2.46154" height="2.4" rx="1.2" fill="#00448E"/>
<rect x="4.22076" y="29.1" width="2.46154" height="2.4" rx="1.2" fill="#00448E"/>
</svg>
