<svg width="105" height="63" viewBox="0 0 105 63" fill="none" xmlns="http://www.w3.org/2000/svg">
<path d="M15.893 50.6153C16.1672 50.7164 16.4608 50.754 16.7516 50.7252C17.0424 50.6965 17.3229 50.6021 17.572 50.4493L17.461 49.2723C17.4506 49.1404 17.4099 49.0128 17.342 48.8993L13.908 43.1553C13.567 43.5623 13.199 43.9553 12.854 44.3453L15.444 48.7583C15.5532 48.9716 15.6268 49.2012 15.662 49.4383L15.835 50.6023C15.855 50.603 15.8746 50.6074 15.893 50.6153Z" fill="#0BB3E7"/>
<path d="M32.0811 61.0356C32.0263 61.0475 31.9703 61.0536 31.9141 61.0536C31.7584 61.0534 31.6064 61.0059 31.4781 60.9175L24.8311 56.6096C24.6591 56.6266 24.4881 56.6355 24.3241 56.6415C23.8014 56.6586 23.2783 56.6315 22.7601 56.5605C22.6721 56.5795 22.5841 56.5966 22.4961 56.6086L27.9191 60.0776C27.9539 60.0984 27.9873 60.1214 28.0191 60.1466L30.0901 61.8335C30.2282 61.9467 30.3979 62.0142 30.576 62.0267C30.754 62.0393 30.9316 61.9962 31.0841 61.9035C32.1891 61.2335 32.4231 60.9215 32.5841 60.6705C32.5303 60.763 32.4578 60.8433 32.3712 60.9061C32.2845 60.969 32.1857 61.0131 32.0811 61.0356Z" fill="#0BB3E7"/>
<path d="M9.43106 35.6446L7.80105 32.9176L6.43503 33.0536C6.29428 33.0678 6.1524 33.0423 6.02536 32.9801C5.89831 32.9179 5.79117 32.8215 5.71603 32.7016L5.01602 31.6336C4.95552 31.5397 4.91636 31.4337 4.90133 31.323C4.88631 31.2123 4.89582 31.0996 4.92911 30.993C4.96239 30.8864 5.0187 30.7883 5.09402 30.7059C5.16935 30.6234 5.26184 30.5584 5.36502 30.5156L5.96506 30.2656C5.87106 30.1336 5.77604 29.9946 5.68204 29.8566C5.37943 29.5184 5.15219 29.1197 5.01547 28.6869C4.87875 28.2542 4.83564 27.7973 4.88901 27.3466C4.90773 27.2373 4.93824 27.1303 4.98001 27.0276C5.03135 26.9103 5.09544 26.799 5.17105 26.6956C5.66723 26.0419 6.24412 25.4535 6.88803 24.9446C7.07666 24.7693 7.28665 24.6184 7.51303 24.4956C7.71161 24.405 7.91907 24.3353 8.13205 24.2876L8.38003 24.2246L6.61001 24.3376C6.11001 24.3636 5.94206 24.5486 5.43106 25.1036L3.82303 27.0486C3.66009 27.3642 3.61878 27.7286 3.707 28.0726L4.14004 30.3136C4.16441 30.4099 4.17879 30.5084 4.18301 30.6076L4.07205 31.9296C4.22798 32.6555 4.63924 33.3013 5.23105 33.7496L6.28702 33.9976C6.67549 34.2075 7.01604 34.496 7.28702 34.8446L8.28702 36.5446C8.6862 36.268 9.06828 35.9675 9.43106 35.6446Z" fill="#0BB3E7"/>
<path d="M12.6721 33.6288C11.1478 33.9755 9.73688 34.7044 8.57208 35.7468C7.30908 36.7585 6.15393 37.8978 5.12506 39.1468C4.12979 40.3263 3.25042 41.5988 2.49908 42.9468C1.70951 44.2014 1.19831 45.6108 1.00006 47.0798C0.829055 49.6538 2.50805 52.0798 4.43005 53.6198C6.24908 55.0135 8.37776 55.9473 10.6351 56.3418C11.7663 56.5625 12.9126 56.6982 14.0641 56.7478C14.8161 56.7858 15.5641 56.7878 16.3221 56.7818C17.4141 56.8505 18.5104 56.7813 19.5851 56.5758C19.8231 56.5108 19.8041 55.8958 19.5671 55.8398C18.0177 55.6282 16.4519 55.5612 14.8901 55.6398C13.8901 55.6008 12.8901 55.5538 11.8981 55.4238C10.0221 55.2156 8.198 54.6755 6.51104 53.8288C4.25504 52.6368 2.11106 50.6868 1.57006 48.0898C1.28306 46.7018 2.04504 45.2838 2.67004 44.0898C3.31492 42.8931 4.06912 41.7586 4.92303 40.7008C5.99155 39.3427 7.19803 38.0991 8.52307 36.9898C9.83956 35.9575 11.2432 35.0414 12.7181 34.2518C12.8451 34.1788 12.8451 33.6008 12.6681 33.6268L12.6721 33.6288Z" fill="#0BB3E7"/>
<path d="M9.52404 47.8C9.74204 47.549 9.80304 47.219 10.05 46.972C10.3565 46.7034 10.6762 46.4505 11.0081 46.214C11.7771 45.592 12.508 44.924 13.217 44.237C13.9137 43.5774 14.5667 42.8732 15.1721 42.129C15.3591 41.894 16.353 40.77 15.93 40.395C15.653 40.148 14.4131 41.816 14.1681 42.078C13.3921 42.902 12.576 43.685 11.73 44.436C10.818 45.245 8.94807 46.279 9.45507 47.766C9.46507 47.795 9.49404 47.834 9.52404 47.8Z" fill="#0BB3E7"/>
<path d="M11.288 30.0343C11.288 30.0343 13.11 31.5522 13.261 31.7042C13.4498 32.0416 13.6027 32.3979 13.717 32.7672L14.324 33.2222L15.387 36.4102C15.8187 36.5538 16.2275 36.7586 16.601 37.0183C16.753 37.3183 18.271 40.6612 18.271 40.6612C18.756 41.023 19.2069 41.4283 19.618 41.8723C19.7944 42.4419 20.0038 43.0009 20.245 43.5463C20.399 43.5863 20.572 43.6293 20.694 43.6593C20.7983 43.6849 20.8948 43.7357 20.975 43.8072L22.218 44.9073L22.067 45.5142L24.192 48.3992L24.799 48.5512L25.255 47.4882L27.228 47.0323L29.86 48.5002C29.931 48.5397 29.9957 48.5896 30.052 48.6482L30.479 49.0922L30.76 49.0813C30.9311 49.0382 31.1116 49.0523 31.274 49.1212L33.908 50.2292L34.608 47.3852L35.655 45.9713L33.2 42.7922L31.278 42.7693L31.14 39.7693L30.571 39.7232L29.65 40.5782L28.465 40.7292L27.39 40.6873L27.379 39.4373L25.279 39.3702L25.009 38.8972L25.436 37.9042L23.35 35.3752L26.497 29.3212L31.383 28.0582L32.701 28.1023L33.091 27.7022L32.484 26.0702L30.847 25.9213L32.122 24.1562L31.969 23.5893L28.589 22.0502L27.458 22.9622L25.258 22.8783L22.109 18.4473L20.409 17.2812L19.2 17.5993L19.906 18.8612V19.8913L18.464 21.5072L16.8 23.3352L13.18 25.2003L11.468 28.8852L11.041 28.9223L11.288 30.0343Z" fill="#1CA05A"/>
<path d="M34.6722 54.8256L33.3722 53.6256L33.9032 50.2256L31.2692 49.1176C31.1068 49.0486 30.9263 49.0346 30.7552 49.0776L30.4742 49.0886L30.0472 48.6446C29.9909 48.586 29.9262 48.5361 29.8552 48.4966L27.2232 47.0376L25.2502 47.4936L24.7942 48.5566L24.1872 48.4046L22.0622 45.5196L22.2132 44.9126L20.9702 43.8126C20.89 43.7411 20.7936 43.6902 20.6892 43.6646C20.5672 43.6346 20.3942 43.5916 20.2402 43.5516C19.999 43.0062 19.7896 42.4473 19.6132 41.8776C19.202 41.4337 18.7512 41.0283 18.2662 40.6666C18.2662 40.6666 16.7482 37.3266 16.5962 37.0236C16.2227 36.7639 15.8139 36.5592 15.3822 36.4156L14.3192 33.2276L13.7122 32.7726C13.5979 32.4033 13.445 32.047 13.2562 31.7096C13.1052 31.5576 11.2832 30.0396 11.2832 30.0396L10.9832 28.6736L10.6712 28.8736L10.0002 27.9336C10.0782 28.3726 9.32916 28.9126 9.46216 29.5796C9.61116 30.3256 9.31021 30.9456 9.91821 31.7046C10.3025 32.1887 10.6571 32.6957 10.9802 33.2226C11.3525 34.0962 11.6077 35.0151 11.7392 35.9556L13.8652 39.7556L16.4492 44.0006C16.4492 44.0006 17.9752 46.7306 18.9822 48.5116C19.2636 48.1528 19.5747 47.8183 19.9122 47.5116C20.1034 47.3536 20.3211 47.2307 20.5552 47.1486C20.752 47.0667 20.9558 47.0027 21.1642 46.9576C21.239 46.9152 21.3232 46.8921 21.4092 46.8906C21.4378 46.857 21.4762 46.833 21.5189 46.8219C21.5617 46.8108 21.6068 46.8131 21.6482 46.8286C21.7099 46.8508 21.7663 46.8854 21.8141 46.9303C21.862 46.9751 21.9001 47.0293 21.9262 47.0894C21.9523 47.1495 21.9659 47.2143 21.9661 47.2799C21.9662 47.3454 21.953 47.4103 21.9272 47.4706C21.9227 47.687 21.8867 47.9016 21.8202 48.1076C21.6064 48.6139 21.272 49.0602 20.8462 49.4076C20.7332 49.5256 20.4562 49.8226 20.6372 49.9786C20.6965 50.025 20.7645 50.059 20.8372 50.0786C20.8549 50.0723 20.8734 50.0686 20.8922 50.0676C20.9622 50.0606 21.0312 50.0516 21.1012 50.0436C21.4574 49.6986 21.9004 49.4567 22.3832 49.3436C23.6887 48.8487 25.0404 48.4856 26.4182 48.2596C26.7662 48.2026 27.1182 48.1596 27.4662 48.1326C27.6856 48.0712 27.9198 48.0892 28.1272 48.1836C28.2211 48.2675 28.2869 48.3781 28.3159 48.5006C28.3448 48.6231 28.3355 48.7516 28.2892 48.8686C28.24 48.995 28.1616 49.108 28.0605 49.1983C27.9593 49.2887 27.8383 49.3539 27.7072 49.3886C27.6565 49.403 27.6023 49.3969 27.5562 49.3716C27.2218 49.538 26.8722 49.6719 26.5122 49.7716C26.0985 49.8901 25.6935 50.0372 25.3002 50.2116C25.0252 50.3366 24.7482 50.4656 24.4812 50.6116C24.4775 50.6508 24.463 50.6882 24.4392 50.7196C24.4022 50.7666 24.3702 50.8196 24.3392 50.8656C24.4292 50.8426 24.5182 50.8246 24.5992 50.8086C25.1773 50.6512 25.7708 50.5573 26.3692 50.5286C26.404 50.5289 26.4383 50.5374 26.4692 50.5536L26.6952 50.4856C27.3022 50.3046 27.9032 50.0786 28.5192 49.9296C28.9462 49.8296 29.6472 49.7206 29.9942 50.0816C30.3412 50.4426 30.0222 50.8636 29.6942 51.0676C29.3308 51.2622 28.9472 51.4165 28.5502 51.5276C27.9142 51.7496 27.2612 51.9156 26.6272 52.1436C26.1272 52.3236 25.6452 52.5606 25.1442 52.7436C25.3625 52.8466 25.6032 52.8934 25.8442 52.8796C26.2272 52.8316 26.6112 52.7966 26.9962 52.7546C27.4432 52.7056 27.8812 52.5976 28.3292 52.5546C28.6646 52.507 29.0048 52.5033 29.3412 52.5436C29.6492 52.5996 29.9912 52.8236 29.9332 53.1816C29.8752 53.5396 29.4882 53.7046 29.2022 53.8256C28.4219 54.1315 27.6109 54.3524 26.7832 54.4846C26.6892 54.5026 26.5932 54.5166 26.4982 54.5326C26.6162 54.6206 26.7302 54.7096 26.8342 54.7936H26.8782C27.1678 54.7529 27.4629 54.8003 27.7252 54.9296C27.745 54.8979 27.7717 54.8709 27.803 54.8506C27.8344 54.8302 27.8699 54.8169 27.9069 54.8117C27.944 54.8065 27.9817 54.8094 28.0175 54.8202C28.0533 54.8311 28.0863 54.8497 28.1142 54.8746C28.1665 54.894 28.2094 54.9326 28.2342 54.9826C28.2955 54.9735 28.358 54.987 28.4102 55.0206C28.4425 55.0054 28.4785 54.9997 28.514 55.0043C28.5494 55.0089 28.5828 55.0236 28.6102 55.0466L28.6432 55.0736C28.6818 55.0873 28.7162 55.1107 28.7433 55.1415C28.7703 55.1722 28.7891 55.2094 28.7978 55.2494C28.8066 55.2895 28.8049 55.3311 28.7931 55.3703C28.7812 55.4095 28.7596 55.4451 28.7302 55.4736C28.5386 55.6214 28.3297 55.7453 28.1082 55.8426L30.4082 57.7196L33.1792 58.8856L34.6212 56.5996L35.3212 55.9426L34.6722 54.8256Z" fill="#C67036"/>
<path d="M25.7499 54.8663C26.1089 54.8433 26.4679 54.8143 26.8279 54.7903C26.7229 54.7063 26.6089 54.6173 26.4909 54.5293C26.1299 54.5913 25.7679 54.6453 25.4049 54.6993C25.2599 54.7213 25.1169 54.7253 24.9709 54.7363C24.9599 54.7363 24.9259 54.7433 24.8929 54.7493C24.8879 54.7744 24.8879 54.8002 24.8929 54.8253C24.9552 54.8443 25.0187 54.8593 25.0829 54.8703C25.3049 54.8884 25.5281 54.8871 25.7499 54.8663Z" fill="#FFE045"/>
<path d="M17.8881 50.1772C18.2681 49.7772 18.5761 49.3053 18.9281 48.8773C18.8932 48.8303 18.8758 48.7728 18.8787 48.7144C18.8816 48.656 18.9047 48.6005 18.9441 48.5573L18.9821 48.5133C17.9751 46.7313 16.4491 44.0003 16.4491 44.0003L13.8691 39.7493L11.7431 35.9493C11.6116 35.0088 11.3564 34.0898 10.9841 33.2163C10.661 32.6893 10.3064 32.1824 9.92212 31.6983C9.31412 30.9393 9.61513 30.3193 9.46613 29.5733C9.31713 28.8273 10.3061 28.2193 9.92212 27.7513L8.52911 27.4613L7.84711 27.4373L8.71112 25.6693L8.21912 24.6562L6.38812 25.9003L5.22412 27.9383L6.10211 30.6323L5.50214 30.8833L6.03314 32.5093L7.7641 32.5513L9.52411 34.7703L17.8441 49.2383L17.8881 50.1772Z" fill="#FFE045"/>
<path d="M30.4001 57.7159L28.1001 55.8389C27.9563 55.9037 27.8083 55.9589 27.6571 56.0039C27.5851 56.0441 27.5076 56.0737 27.4271 56.0919C27.3913 56.1005 27.3539 56.1005 27.3181 56.0919C26.8492 56.1786 26.3739 56.2261 25.8971 56.2339C25.5631 56.2459 25.2271 56.2579 24.8911 56.2669L31.9661 60.7319L33.1731 58.8849L30.4001 57.7159Z" fill="#FFE045"/>
<path d="M35.2231 54.9051C35.1816 54.7684 35.0992 54.6477 34.987 54.5591C34.9407 54.5262 34.8907 54.4987 34.8381 54.4771C34.7697 54.4292 34.7093 54.3708 34.659 54.3041L34.6301 54.2701C34.3819 53.9859 34.0994 53.7337 33.789 53.5191L34.899 47.6341L35.4991 46.9341C35.6878 46.7168 35.7972 46.4418 35.8092 46.1542C35.8212 45.8666 35.7351 45.5834 35.5651 45.3511L33.9321 43.1001C33.7942 42.911 33.6136 42.7571 33.4051 42.6508C33.1967 42.5445 32.9661 42.4887 32.732 42.4881L31.5961 42.4951V40.0001C31.5961 39.8514 31.5528 39.7059 31.4713 39.5814C31.3898 39.457 31.2738 39.359 31.1375 39.2996C31.0012 39.2401 30.8504 39.2217 30.7038 39.2467C30.5572 39.2717 30.421 39.3389 30.3121 39.4401L29.3951 40.2931L27.7281 40.3011V39.7491C27.7281 39.5464 27.6476 39.352 27.5043 39.2085C27.3611 39.0651 27.1668 38.9844 26.964 38.9841H25.423L25.5491 38.8101L25.738 38.5761C25.8337 38.4491 25.8875 38.2954 25.8918 38.1365C25.8961 37.9775 25.8508 37.8211 25.7621 37.6891L23.8 35.3391L26.5931 29.6911L29.7411 28.8651L30.206 28.7431C30.927 28.5541 31.2811 28.4611 31.3791 28.4431L32.6871 28.4861C32.7926 28.4897 32.8977 28.4714 32.9958 28.4323C33.0939 28.3932 33.1827 28.3342 33.2569 28.259C33.331 28.1839 33.3888 28.0942 33.4265 27.9956C33.4642 27.8969 33.4811 27.7916 33.4761 27.6861L33.2101 26.3771C33.1919 26.2004 33.1129 26.0354 32.9867 25.9103C32.8606 25.7852 32.6949 25.7078 32.5181 25.6911L31.548 25.6141L32.4341 24.3871C32.5005 24.295 32.5456 24.1892 32.566 24.0774C32.5864 23.9657 32.5817 23.8508 32.552 23.7411C32.5224 23.6314 32.4688 23.5297 32.3949 23.4434C32.321 23.3571 32.2288 23.2883 32.125 23.2421L28.9061 21.8001C28.7742 21.7418 28.6286 21.7217 28.4859 21.7422C28.3432 21.7627 28.2091 21.823 28.099 21.9161L27.217 22.6681L25.5881 22.5231L22.514 18.3101C22.4632 18.2402 22.4006 18.1797 22.329 18.1311L20.6291 16.9651C20.5317 16.8984 20.4201 16.855 20.3032 16.8385C20.1863 16.8221 20.0671 16.8329 19.9551 16.8701L19.3691 17.0701C19.2558 17.1078 19.1529 17.1715 19.0687 17.2561C18.9844 17.3408 18.9212 17.4439 18.8841 17.5574C18.8469 17.6709 18.8369 17.7915 18.8548 17.9095C18.8727 18.0275 18.918 18.1398 18.987 18.2371L19.522 18.9911V19.7511L16.6221 22.9991L13 24.8601C12.8434 24.9406 12.7194 25.0727 12.649 25.2341L11.2161 28.5391L10.7161 28.4891L10.6161 27.8371C10.594 27.6875 10.5277 27.5478 10.4258 27.4359C10.3239 27.324 10.191 27.2451 10.0441 27.2091L9.47203 27.0661C9.42703 27.0551 9.37202 27.0461 9.32402 27.0371C9.27912 27.0308 9.23469 27.0214 9.19103 27.0091C9.14848 26.9827 9.10833 26.9526 9.07103 26.9191C8.98936 26.8462 8.8994 26.7831 8.80303 26.7311L8.77605 26.7171L8.90605 26.5821C8.97221 26.5177 9.02284 26.439 9.05406 26.3521C9.08409 26.2549 9.08888 26.1517 9.06804 26.0521C8.97604 25.509 8.80384 24.9826 8.55706 24.4901L8.41808 24.2121L8.11803 24.2891C7.64623 24.3783 7.21214 24.6072 6.87206 24.9461C6.22722 25.4558 5.64962 26.0452 5.15306 26.7001C5.07745 26.8031 5.01336 26.9141 4.96202 27.0311C4.92039 27.1343 4.88988 27.2415 4.87102 27.3511C4.81735 27.8024 4.86046 28.2599 4.99736 28.6932C5.13427 29.1265 5.36184 29.5256 5.66503 29.8641C5.75903 30.0021 5.85405 30.1411 5.94805 30.2731L5.34807 30.5231C5.2448 30.5661 5.15222 30.6313 5.07689 30.714C5.00156 30.7967 4.94529 30.8949 4.9121 31.0017C4.8789 31.1086 4.86962 31.2214 4.88481 31.3322C4.90001 31.443 4.93933 31.5492 5.00005 31.6431L5.70006 32.7121C5.77532 32.8322 5.88255 32.9288 6.00975 32.9912C6.13696 33.0535 6.27906 33.0791 6.42003 33.0651L7.78704 32.9281L17.334 48.8981C17.4019 49.0116 17.4427 49.1393 17.4531 49.2711L17.563 50.4401C17.618 50.4021 17.673 50.3651 17.73 50.3301C17.9251 50.1408 18.106 49.9372 18.271 49.7211L18.222 49.2021C18.2003 48.9548 18.1231 48.7155 17.996 48.5021L8.44902 32.5331C8.38098 32.4199 8.28484 32.3261 8.16991 32.2609C8.05498 32.1958 7.9252 32.1614 7.79308 32.1611C7.76877 32.1596 7.74433 32.1596 7.72002 32.1611L6.34905 32.2911L5.64305 31.2331L6.24303 30.9831C6.34553 30.9401 6.43745 30.8753 6.51238 30.7932C6.58731 30.7111 6.6435 30.6136 6.67699 30.5076C6.71048 30.4016 6.72049 30.2896 6.70635 30.1794C6.6922 30.0691 6.65419 29.9632 6.59502 29.8691C6.50002 29.7191 6.40007 29.5691 6.30107 29.4261C6.06025 29.1681 5.87595 28.8626 5.76006 28.5292C5.64417 28.1958 5.5992 27.8419 5.62804 27.4901C5.63717 27.4337 5.65224 27.3784 5.67302 27.3251C5.7035 27.2595 5.74072 27.1971 5.78404 27.1391C6.24469 26.5385 6.77847 25.9976 7.37303 25.5291C7.51381 25.3962 7.67031 25.281 7.83904 25.1861C7.89049 25.1609 7.94362 25.1391 7.99803 25.1211C8.13253 25.4369 8.23308 25.7661 8.29802 26.1031L7.75206 26.6721C7.35206 27.0871 7.39602 27.4161 7.50102 27.6191L7.69603 27.9931L8.52605 27.4651L8.58104 27.5101C8.65891 27.5792 8.74411 27.6396 8.83507 27.6901C8.94947 27.7441 9.07161 27.7799 9.19707 27.7961C9.2284 27.8003 9.25941 27.8063 9.29003 27.8141L9.85704 27.9501L9.95702 28.6021C9.98237 28.7687 10.062 28.9223 10.1835 29.0391C10.3049 29.1559 10.4616 29.2294 10.6291 29.2481L11.1291 29.3041C11.2915 29.3229 11.4556 29.2889 11.5972 29.2071C11.7387 29.1254 11.8502 29.0002 11.915 28.8501L13.3531 25.5431L16.9791 23.6741C17.0622 23.631 17.1367 23.5731 17.199 23.5031L20.2991 20.0351V18.7351L19.618 17.7921L20.1971 17.5921L21.891 18.7561L24.9661 22.9691C25.0301 23.0568 25.1122 23.1298 25.2067 23.1832C25.3011 23.2367 25.4059 23.2694 25.514 23.2791L27.149 23.4281C27.2502 23.437 27.3522 23.4258 27.449 23.3951C27.5458 23.3643 27.6355 23.3147 27.7131 23.2491L28.592 22.4961L31.8141 23.9231L30.928 25.1501C30.8491 25.2594 30.8006 25.3877 30.7873 25.5218C30.774 25.6559 30.7964 25.7912 30.8522 25.9139C30.9081 26.0366 30.9954 26.1423 31.1053 26.2203C31.2152 26.2983 31.3438 26.3459 31.4781 26.3581L32.448 26.4401L32.7051 27.7071L31.412 27.6641C30.9337 27.7151 30.4635 27.825 30.0121 27.9911L29.547 28.1141L26.4001 28.9391C26.2942 28.9668 26.1955 29.0168 26.1106 29.0858C26.0258 29.1548 25.9567 29.2412 25.9081 29.3391L23.11 35.0001C23.0505 35.1209 23.0239 35.2552 23.0328 35.3895C23.0418 35.5238 23.086 35.6534 23.1611 35.7651L25.115 38.1101L24.9341 38.3341L24.7151 38.6341C24.6997 38.6564 24.686 38.6798 24.6741 38.7041L24.6271 38.7841V39.3121L24.68 39.4021C24.741 39.5073 24.8285 39.5946 24.9338 39.6553C25.0391 39.7161 25.1585 39.7481 25.2801 39.7481L26.951 39.7411V40.3001C26.9513 40.5029 27.032 40.6972 27.1755 40.8404C27.3189 40.9837 27.5133 41.0641 27.7161 41.0641H29.3901C29.5825 41.0659 29.7684 40.9944 29.91 40.8641L30.373 40.4351L30.819 40.0031V42.5031C30.819 42.7058 30.8995 42.9003 31.0428 43.0437C31.186 43.1872 31.3803 43.2679 31.5831 43.2681H32.727C32.8397 43.2683 32.9508 43.295 33.0512 43.3461C33.1516 43.3971 33.2386 43.4712 33.305 43.5621L34.941 45.8111C35.0084 45.9027 35.0426 46.0146 35.0378 46.1282C35.0331 46.2418 34.9898 46.3504 34.915 46.4361L34.3151 47.1361C34.2275 47.2384 34.1682 47.3618 34.1431 47.4941L33 53.5511C32.9897 53.6082 32.986 53.6662 32.9891 53.7241L32.9971 53.9241L33.248 54.0831C33.546 54.275 33.8153 54.508 34.048 54.7751L34.0751 54.8071C34.1354 54.8775 34.1999 54.9443 34.2681 55.0071L34.3771 55.4491C34.4037 55.551 34.4537 55.6453 34.5231 55.7244C34.5926 55.8036 34.6795 55.8655 34.777 55.9051C34.7021 55.9448 34.6375 56.0013 34.5881 56.0701L34.5021 56.1831L31.91 60.2831L25.6631 56.2341C25.2091 56.2511 24.752 56.2651 24.295 56.2671L31.48 60.9231C31.6083 61.0124 31.7608 61.0602 31.917 61.0601C31.9733 61.0603 32.0293 61.0539 32.084 61.0411C32.1882 61.0188 32.2865 60.9748 32.3727 60.9121C32.4588 60.8494 32.5308 60.7694 32.584 60.6771L34.6561 57.0771C34.7802 57.0437 34.8885 56.9676 34.962 56.8621L35.151 56.6161C35.3044 56.5848 35.4426 56.5022 35.5427 56.3818C35.6429 56.2615 35.6991 56.1107 35.7021 55.9541C35.7006 55.7462 35.6451 55.5422 35.5411 55.3621L35.2231 54.9051Z" fill="#0866AE"/>
<path d="M8.72892 45.9519C8.81979 46.7664 9.10564 47.5471 9.56224 48.2277C10.0188 48.9083 10.6327 49.4689 11.3519 49.8619C12.8011 50.586 14.3826 51.0073 15.9999 51.0999C16.5616 51.2077 17.143 51.1338 17.6599 50.8889C17.9224 50.6639 18.1333 50.3849 18.2779 50.0709C18.532 49.6598 18.8115 49.2651 19.1149 48.8889C19.6229 48.2439 20.5049 47.1349 21.4399 47.1389C22.1149 47.1389 21.4889 48.0059 21.2659 48.2789C20.9409 48.6789 20.5819 49.0339 20.2659 49.4439C20.1569 49.5869 20.2229 50.2619 20.4369 50.0439C21.1212 49.4969 21.6621 48.7916 22.0129 47.9889C22.1479 47.5629 22.3289 46.6429 21.8129 46.3559C21.0989 45.9559 19.9809 46.9839 19.5559 47.4259C18.9389 48.1338 18.3766 48.8876 17.8739 49.6809C17.3739 50.3879 16.5849 50.3189 15.8029 50.2559C14.8615 50.1792 13.9313 49.9998 13.0289 49.7209C12.1681 49.4875 11.3576 49.0977 10.6379 48.5709C9.80847 47.8365 9.16868 46.9127 8.77293 45.8779C8.74193 45.8059 8.71589 45.9279 8.71989 45.9539L8.72892 45.9519Z" fill="#0BB3E7"/>
<path d="M20.327 50.0763C21.046 50.2853 21.8149 50.2409 22.505 49.9503C23.512 49.6503 24.483 49.2503 25.492 48.9613C25.993 48.8118 26.5039 48.6978 27.021 48.6203C27.2925 48.564 27.5699 48.5418 27.847 48.5543C28.147 48.5913 28.21 48.5283 28.008 48.8143C27.708 49.2383 26.833 49.4783 26.378 49.6903C25.613 50.0473 24.861 50.3993 24.117 50.7963C24.01 50.8533 24.0329 51.3373 24.1569 51.3073C25 51.0943 25.826 50.8185 26.628 50.4823C27.3396 50.2853 27.9782 49.8845 28.465 49.3293C28.5787 49.1585 28.6541 48.9652 28.686 48.7625C28.7179 48.5599 28.7057 48.3527 28.65 48.1553C28.485 47.6273 28.005 47.6163 27.52 47.6443C24.958 47.7953 22.7679 49.2863 20.3319 49.8763C20.2809 49.8893 20.2829 50.0563 20.3319 50.0763H20.327Z" fill="#0BB3E7"/>
<path d="M24.2419 51.2517C25.1169 50.9987 26.0419 50.8517 26.9279 50.6357C27.6649 50.4557 29.7709 49.6727 30.2419 50.6357L30.1719 50.2067C30.1509 50.8677 28.5079 51.2907 28.0279 51.4747C27.0579 51.8467 26.0539 52.1387 25.0699 52.4747C24.9019 52.5317 24.9139 53.1337 25.0859 53.1117C26.3378 52.947 27.5615 52.6137 28.7239 52.1207C29.4899 51.7987 30.5149 51.2827 30.4239 50.3027C30.2349 48.1437 25.2749 50.7447 24.2329 51.0877C24.1869 51.1027 24.2059 51.2607 24.2329 51.2517H24.2419Z" fill="#0BB3E7"/>
<path d="M25.0801 53.1224C25.8451 53.0514 26.607 53.0224 27.37 52.9224C27.654 52.8864 30.0351 52.8044 29.9111 53.0844C29.7991 53.3404 29.0201 53.4984 28.7521 53.5844C28.3521 53.7144 27.943 53.8374 27.531 53.9374C26.6466 54.144 25.7482 54.2851 24.8431 54.3594C24.6641 54.3764 24.677 54.9734 24.858 54.9874C26.0955 55.0951 27.3424 54.9758 28.537 54.6354C29.374 54.4004 30.4101 54.0684 30.4111 53.0234C30.4111 50.9364 26.044 52.8714 25.076 52.9614C25.033 52.9614 25.041 53.1294 25.076 53.1254L25.0801 53.1224Z" fill="#0BB3E7"/>
<path d="M25.3549 54.9262C26.0369 54.9622 26.71 54.9812 27.393 54.9842C27.7263 54.9628 28.0607 55.0039 28.379 55.1052C28.695 55.2312 28.672 55.2642 28.411 55.4422C27.411 56.1262 25.673 56.1422 24.511 56.1422C22.092 56.1252 19.647 55.5052 17.232 55.8502C17.062 55.8742 17.08 56.4882 17.247 56.4882C20.327 56.4882 23.437 57.5062 26.505 56.9262C27.464 56.7442 29.225 56.4522 28.978 55.1132C28.678 53.4932 26.3179 54.8132 25.3549 54.7672C25.3199 54.7672 25.3179 54.9292 25.3549 54.9312V54.9262Z" fill="#0BB3E7"/>
<path d="M42.3169 13.8927C41.3479 13.3377 39.8099 13.1347 37.8919 15.1837C37.7224 15.0177 37.5113 14.9004 37.2808 14.8441C37.0503 14.7878 36.8088 14.7946 36.5819 14.8637C36.2532 15.0023 35.9718 15.2333 35.7718 15.5287C35.5718 15.824 35.4617 16.171 35.4549 16.5277C35.4469 16.6457 35.3189 36.0937 35.5419 38.8487C35.5419 39.1671 35.6567 39.4748 35.8654 39.7153C36.0741 39.9558 36.3626 40.1129 36.6779 40.1577C36.7234 40.1629 36.7691 40.1655 36.8149 40.1657C37.1596 40.1516 37.4907 40.0274 37.7597 39.8115C38.0288 39.5956 38.2215 39.2991 38.3099 38.9657C38.4473 37.7035 38.4644 36.4311 38.3609 35.1657C38.3309 34.1177 38.2929 32.7447 38.3329 32.1657C41.3809 32.4427 43.6799 30.7597 44.8239 27.3937C46.4999 22.4897 45.2059 15.5457 42.3169 13.8927ZM40.6779 17.0467C41.5439 17.2047 42.5349 19.2787 42.5659 21.8187C42.6089 25.4187 42.0729 27.5857 40.9269 28.4447C40.5414 28.6934 40.1032 28.8486 39.6471 28.898C39.191 28.9473 38.7296 28.8893 38.2999 28.7287C38.2999 21.5387 38.2999 20.9417 39.1379 18.8047C39.6099 17.5997 40.1709 16.9537 40.6779 17.0467Z" fill="#E30613"/>
<path d="M54 33.3316C53.7005 29.6477 53.5933 25.9507 53.679 22.2556C53.715 20.0796 53.732 19.0856 53.307 18.5556C53.2174 18.4406 53.102 18.3483 52.9701 18.2861C52.8383 18.2239 52.6937 18.1936 52.548 18.1976C51.311 18.2096 51.236 19.4256 51.087 21.8496C51.034 22.7096 50.969 23.7796 50.847 25.0906C50.633 27.6658 50.148 30.2112 49.4 32.6846C49.022 30.5944 48.8385 28.4737 48.852 26.3496C48.852 26.1306 48.842 25.9276 48.837 25.7496C48.7998 24.3407 48.8366 22.9307 48.947 21.5256C49.026 20.3786 49.07 19.7466 48.76 19.3166C48.6676 19.1924 48.5467 19.0921 48.4075 19.0244C48.2682 18.9567 48.1148 18.9235 47.96 18.9276C47.6 18.9651 47.2662 19.1334 47.0221 19.4007C46.7781 19.668 46.6407 20.0157 46.636 20.3776C46.624 20.5166 45.514 34.3316 48.598 35.8776C48.8323 35.9996 49.0919 36.0654 49.356 36.0696C49.6169 36.0688 49.8727 35.998 50.097 35.8646C50.8286 35.2878 51.3512 34.4874 51.585 33.5856C51.592 33.6982 51.592 33.8111 51.585 33.9236C51.5353 34.1774 51.55 34.4396 51.6277 34.6863C51.7055 34.9329 51.8438 35.1562 52.03 35.3356C52.2097 35.4956 52.4391 35.5887 52.6795 35.5989C52.9199 35.6091 53.1564 35.5358 53.349 35.3916C53.6218 35.1306 53.8245 34.805 53.9383 34.445C54.0521 34.0849 54.0733 33.702 54 33.3316Z" fill="#E30613"/>
<path d="M63.685 16.8068C63.6371 16.5862 63.5451 16.3774 63.4145 16.1932C63.2839 16.009 63.1174 15.8531 62.925 15.7348C62.744 15.6266 62.5429 15.5562 62.3339 15.5278C62.1249 15.4995 61.9123 15.5138 61.709 15.5698C61.213 15.7426 60.8001 16.0957 60.5525 16.5588C60.3048 17.022 60.2404 17.5614 60.372 18.0698C60.598 20.0811 60.6725 22.1064 60.595 24.1289C60.095 22.8289 59.41 21.0508 58.447 18.5848C58.3321 18.2154 58.0945 17.8962 57.7736 17.68C57.4527 17.4638 57.0676 17.3636 56.682 17.3958C56.2768 17.4644 55.9037 17.6595 55.6162 17.9533C55.3288 18.247 55.1417 18.6242 55.082 19.0308C54.613 21.4478 55.049 32.7018 55.672 34.2738C55.7805 34.5755 55.9788 34.8367 56.2401 35.0223C56.5015 35.2078 56.8134 35.3089 57.134 35.3118C57.3315 35.3112 57.5273 35.2749 57.712 35.2049C58.1537 35.0148 58.5161 34.678 58.7379 34.2513C58.9597 33.8247 59.0272 33.3345 58.929 32.8638C58.708 31.3828 58.563 29.9148 58.47 28.5908C59.0416 30.0545 59.7097 31.4787 60.47 32.8538C60.6643 33.083 60.9192 33.2529 61.2055 33.344C61.4919 33.4351 61.798 33.4437 62.089 33.3688C62.409 33.2751 62.7005 33.1029 62.937 32.8678C63.1734 32.6328 63.3474 32.3423 63.443 32.0228C63.8 30.9778 64.42 19.9308 63.685 16.8068ZM62.65 31.7568C62.5983 31.9434 62.5009 32.1141 62.3669 32.2537C62.2329 32.3933 62.0663 32.4975 61.882 32.5568C61.741 32.5932 61.5925 32.5884 61.4541 32.543C61.3157 32.4976 61.1932 32.4136 61.101 32.3008C60.4005 30.9651 59.7712 29.5932 59.216 28.1909C59.008 27.6409 58.81 27.1018 58.616 26.5848C58.201 25.4548 57.832 24.4528 57.488 23.6608C57.4498 26.7813 57.6541 29.9 58.099 32.9888C58.1668 33.2696 58.136 33.565 58.0119 33.8258C57.8877 34.0865 57.6777 34.2966 57.417 34.4209C57.3266 34.4552 57.2307 34.4732 57.134 34.4738C56.9815 34.4705 56.8339 34.4198 56.7115 34.3288C56.5891 34.2378 56.4981 34.1109 56.451 33.9658C55.936 32.6658 55.4191 21.6968 55.9051 19.1918C55.9342 18.9608 56.0337 18.7444 56.1903 18.5721C56.3469 18.3997 56.5529 18.2799 56.7801 18.2288C56.9808 18.22 57.1784 18.2811 57.3392 18.4016C57.5 18.5221 57.6141 18.6947 57.662 18.8898C59.455 23.4838 60.292 25.6898 60.741 26.8808C61.025 27.6318 61.136 27.9258 61.222 28.1138C61.5212 24.7324 61.5132 21.3308 61.198 17.9508C61.065 17.0338 61.466 16.5008 61.921 16.3798C62.0239 16.3523 62.1313 16.3469 62.2363 16.3637C62.3414 16.3806 62.4418 16.4195 62.5308 16.4779C62.6198 16.5362 62.6955 16.6127 62.753 16.7023C62.8104 16.7919 62.8482 16.8926 62.864 16.9978C63.6 20.0908 62.917 30.9638 62.65 31.7568Z" fill="#E30613"/>
<path d="M70.907 25.4003C70.664 25.3845 70.4202 25.4169 70.1897 25.4954C69.9592 25.574 69.7463 25.6972 69.5635 25.8581C69.3806 26.0189 69.2313 26.2143 69.124 26.4329C69.0166 26.6515 68.9534 26.8892 68.938 27.1323C68.8995 27.4091 68.82 27.6788 68.7021 27.9323C67.9622 26.4497 67.6571 24.788 67.8221 23.1393C67.8333 21.5815 68.1263 20.0386 68.6871 18.5853C68.7844 18.9163 68.9837 19.2082 69.2566 19.4193C69.5295 19.6304 69.862 19.7501 70.2069 19.7612C70.5518 19.7722 70.8913 19.6742 71.1772 19.481C71.4631 19.2878 71.6807 19.0094 71.7991 18.6853C72.0108 18.1349 72.0739 17.5385 71.9819 16.956C71.8899 16.3735 71.6462 15.8256 71.2751 15.3673C70.97 14.8739 70.504 14.501 69.9558 14.3113C69.4076 14.1217 68.8108 14.127 68.266 14.3263C67.272 14.6723 64.91 16.1523 64.446 22.4263C64.153 26.3883 64.8601 29.3183 66.5461 31.1323C66.7851 31.4051 67.0791 31.6245 67.4088 31.7759C67.7384 31.9274 68.0963 32.0076 68.459 32.0113C68.9125 32.0062 69.3581 31.8931 69.759 31.6813C70.535 31.2193 71.1801 30.5667 71.633 29.7855C72.0859 29.0042 72.3317 28.1202 72.347 27.2173C72.3887 26.7869 72.2619 26.3572 71.9934 26.0184C71.7249 25.6796 71.3355 25.458 70.907 25.4003ZM69.3771 30.9333C69.0942 31.084 68.7796 31.1656 68.459 31.1713C68.2115 31.1675 67.9676 31.1112 67.7435 31.006C67.5193 30.9008 67.3202 30.7492 67.1591 30.5613C65.6371 28.9243 65.0051 26.2073 65.2801 22.4873C65.7191 16.5473 67.8861 15.3443 68.5391 15.1173C68.9071 14.9792 69.3119 14.9745 69.6831 15.1038C70.0543 15.2331 70.3684 15.4884 70.571 15.8253C70.8603 16.165 71.0556 16.5745 71.1373 17.0131C71.2191 17.4518 71.1845 17.9042 71.037 18.3253C70.9716 18.5018 70.8525 18.6534 70.6965 18.7587C70.5404 18.864 70.3552 18.9177 70.1671 18.9123C69.8141 18.8713 69.5361 18.5703 69.4041 18.0863C69.3881 18.0253 69.3711 17.9593 69.3541 17.8863C69.2801 17.5863 69.188 17.2053 69.009 17.1263C68.909 17.0823 68.774 17.1263 68.602 17.2583C67.762 17.8973 67.0651 20.4103 66.9821 23.1043C66.8961 25.8543 67.4501 28.0353 68.4631 28.9373C68.515 28.9922 68.5834 29.0286 68.658 29.0411C68.7325 29.0535 68.8091 29.0413 68.876 29.0063C69.1351 28.7858 69.3473 28.5157 69.5002 28.2119C69.653 27.908 69.7434 27.5766 69.766 27.2373C69.7721 26.9641 69.8861 26.7044 70.083 26.5149C70.2799 26.3255 70.5439 26.2217 70.8171 26.2263C71.2451 26.2723 71.5171 26.6513 71.5051 27.1923C71.4923 27.9437 71.2906 28.6797 70.9188 29.3328C70.5469 29.9858 70.0167 30.5348 69.3771 30.9293V30.9333Z" fill="#E30613"/>
<path d="M79.9 18.7374C79.893 17.5374 79.938 15.2144 79.956 14.2704C79.956 14.0204 79.964 13.8584 79.964 13.8254C79.9991 13.5243 79.9264 13.2205 79.7587 12.968C79.591 12.7156 79.3391 12.5307 79.048 12.4464C78.7196 12.3938 78.3834 12.4662 78.1058 12.6493C77.8281 12.8324 77.6291 13.1129 77.548 13.4354C77.3876 14.7998 77.3374 16.1749 77.398 17.5474C77.398 18.1574 77.392 18.7034 77.385 19.0944C76.485 19.2444 75.942 19.3654 75.603 19.4514C75.592 18.7124 75.621 17.5174 75.646 16.5154C75.656 16.1024 75.665 15.7154 75.671 15.4104C75.6919 15.1777 75.6565 14.9435 75.5679 14.7273C75.4794 14.5112 75.3401 14.3195 75.162 14.1684C74.984 14.0382 74.7709 13.9648 74.5505 13.9578C74.3302 13.9509 74.1128 14.0107 73.927 14.1294C73.127 14.6054 73.122 15.1024 73.116 18.3394C73.116 18.8254 73.116 19.3794 73.116 20.0134V20.0274C72.7068 20.108 72.3459 20.347 72.112 20.6924C71.8781 21.0377 71.7901 21.4615 71.867 21.8714C71.8852 22.0387 71.9381 22.2003 72.0223 22.346C72.1065 22.4916 72.2202 22.6181 72.356 22.7174C72.6042 22.8664 72.899 22.9177 73.183 22.8614C73.232 24.1614 73.223 25.2234 73.216 26.0224C73.202 27.6044 73.196 28.3224 73.594 28.7844C73.7013 28.9043 73.8354 28.9972 73.9854 29.0555C74.1353 29.1139 74.2968 29.1361 74.457 29.1204C74.7313 29.0892 74.9908 28.979 75.2038 28.8033C75.4168 28.6276 75.5742 28.3938 75.657 28.1304C75.7936 27.0975 75.8107 26.0522 75.708 25.0154C75.684 23.9774 75.659 22.9094 75.679 22.3024C76.2524 22.1523 76.8336 22.0338 77.42 21.9474C77.545 23.9094 77.508 25.5224 77.481 26.7214C77.441 28.4544 77.42 29.4094 77.881 29.9314C77.9774 30.0424 78.0974 30.1306 78.2321 30.1896C78.3668 30.2486 78.513 30.2769 78.66 30.2724C78.693 30.2724 78.728 30.2724 78.76 30.2724C79.0771 30.2245 79.3698 30.0743 79.5937 29.8447C79.8175 29.6151 79.9602 29.3186 80 29.0004C80.043 28.7764 80.031 27.7334 79.968 24.4954C79.946 23.3714 79.923 22.2164 79.92 21.5954C80.527 21.5054 81.42 21.3054 81.51 20.1134C81.5353 19.934 81.5234 19.7513 81.4751 19.5767C81.4268 19.402 81.343 19.2392 81.229 19.0984C81.0539 18.9341 80.8412 18.8152 80.6095 18.7523C80.3778 18.6893 80.1342 18.6842 79.9 18.7374Z" fill="#E30613"/>
<path d="M88.1061 25.7839C87.4331 25.1619 86.8861 25.6009 86.4061 25.9839C86.1416 26.2025 85.8644 26.4051 85.5761 26.5909C85.2211 26.8159 85.1061 26.7229 85.0571 26.6839C84.4891 26.2249 84.3361 23.8369 84.4341 22.1309C84.7431 22.0679 85.0421 22.0309 85.3141 21.9969C86.2511 21.8789 87.3141 21.7459 87.3511 20.3849C87.3674 20.2105 87.3482 20.0345 87.2947 19.8677C87.2413 19.7008 87.1546 19.5465 87.04 19.4139C86.57 18.9139 85.7861 19.0539 84.8741 19.2139C84.7421 19.2369 84.6071 19.2609 84.4741 19.2829C84.4861 18.1829 84.544 15.8449 84.584 14.9209C85.1877 14.7991 85.7987 14.717 86.4131 14.6749C86.6604 14.7437 86.9227 14.7358 87.1655 14.6525C87.4083 14.5691 87.6201 14.4141 87.7731 14.2079C87.9475 13.9954 88.0719 13.7464 88.1372 13.4793C88.2024 13.2123 88.2069 12.934 88.1501 12.6649C88.1037 12.4575 88.0014 12.2668 87.8544 12.1133C87.7074 11.9597 87.5212 11.8493 87.316 11.7939C85.9422 11.8147 84.5762 12.0051 83.2491 12.3609C82.0491 12.6989 82.0491 13.5059 82.0251 16.1819C82.0251 16.8019 82.0151 17.5739 81.9951 18.4819C81.9861 18.8749 81.9711 19.3109 81.9551 19.7749C81.8281 23.4219 81.6711 27.9599 83.6331 29.2579C83.9777 29.4862 84.3828 29.606 84.7961 29.6019C85.9632 29.4726 87.0551 28.9623 87.9031 28.1499C88.0931 27.988 88.2467 27.7878 88.3541 27.5624C88.4614 27.337 88.52 27.0915 88.5261 26.8419C88.5363 26.6458 88.504 26.4497 88.4315 26.2671C88.359 26.0845 88.248 25.9197 88.1061 25.7839Z" fill="#E30613"/>
<path d="M103.324 14.5196C103.234 13.8986 103.164 13.4086 103.13 13.1036C103.057 12.2552 102.806 11.4315 102.396 10.6855C101.985 9.93946 101.423 9.28756 100.745 8.77165C100.559 8.60065 100.396 8.44765 100.245 8.30965C99.452 7.48169 98.4861 6.83876 97.4161 6.42665C96.2161 5.88365 93.9161 5.52665 93.2041 6.13765C92.8408 6.41743 92.5469 6.7771 92.345 7.18879C92.1432 7.60049 92.0388 8.05313 92.0401 8.51165C92.0071 8.86465 91.9921 9.36965 91.9951 9.92665C91.9841 10.0816 91.9751 10.2366 91.9671 10.3916C91.6443 10.8717 91.3915 11.3953 91.2161 11.9467C91.0867 12.2198 91.0231 12.5196 91.0306 12.8218C91.038 13.124 91.1163 13.4202 91.2591 13.6866C91.493 13.9956 91.7939 14.2476 92.1391 14.4236C92.5403 14.6483 92.967 14.8239 93.4101 14.9466C93.8991 15.0906 94.4064 15.1627 94.9161 15.1606C95.0092 15.1585 95.1012 15.1402 95.1881 15.1066C95.2284 15.3493 95.3488 15.5715 95.5302 15.7376C95.6652 15.8276 95.8205 15.8823 95.9821 15.8968C96.1436 15.9113 96.3063 15.8851 96.4551 15.8206C96.4836 16.1112 96.6148 16.3821 96.8251 16.5846C97.0197 16.6913 97.2398 16.7424 97.4615 16.7325C97.6831 16.7227 97.8978 16.6521 98.0821 16.5286C98.1141 16.5128 98.1441 16.493 98.1711 16.4696C98.1551 16.5526 98.1381 16.6366 98.1211 16.7226C97.5942 19.3582 97.2166 22.0215 96.9901 24.6996C96.8063 26.5346 96.8325 28.3846 97.0681 30.2136C95.9006 29.0481 94.4431 28.2154 92.8461 27.8016C91.9655 27.5277 91.0541 27.3651 90.1331 27.3176L89.8091 27.3237L89.4191 28.2236L90.3121 28.2346C92.8714 28.4692 95.2977 29.4811 97.2651 31.1346C97.4132 31.8541 97.7787 32.5107 98.3121 33.0156L98.5551 32.6646C98.5381 32.6456 96.8552 30.6796 97.9182 21.7016C98.0352 21.1456 98.5241 17.4186 98.8111 15.2086C98.9731 14.1836 99.0191 13.6017 99.0211 13.5677L98.6211 13.4936C98.6211 13.5156 98.5341 14.1706 98.4141 15.0996C98.3621 15.4276 98.2981 15.7996 98.2201 16.2186C98.1271 16.1326 97.9301 16.1916 97.8441 16.2336C97.7368 16.2992 97.6128 16.3322 97.4871 16.3286C97.3191 16.3056 97.2071 16.1376 97.1481 15.9626C97.0205 15.4995 96.949 15.0228 96.9351 14.5426C96.8659 13.5314 96.9437 12.5155 97.1661 11.5266C97.2241 11.2676 96.6191 11.3706 96.5661 11.6156C96.3084 12.7734 96.2432 13.9657 96.3731 15.1446C96.3831 15.2366 96.3921 15.3356 96.4041 15.4446C96.3367 15.4722 96.2637 15.4835 96.1911 15.4776C96.1071 15.4544 96.0312 15.4083 95.9717 15.3446C95.9123 15.2809 95.8716 15.202 95.8541 15.1166C95.7261 14.654 95.6546 14.1775 95.6411 13.6976C95.5719 12.6868 95.6497 11.6712 95.8721 10.6827C95.9321 10.4147 95.3261 10.5156 95.2721 10.7676C95.0141 11.926 94.9486 13.119 95.0781 14.2986L95.0861 14.3686C94.8121 14.4966 94.5441 14.5046 94.4171 14.1296C94.2876 13.667 94.216 13.19 94.2041 12.7096C94.1365 11.7036 94.215 10.6931 94.4371 9.70965C94.4751 9.54065 94.2601 9.49365 94.1651 9.50365C94.088 9.50883 94.0145 9.53776 93.9545 9.58646C93.8945 9.63517 93.851 9.70126 93.8301 9.77565C93.5958 10.8349 93.522 11.9234 93.6111 13.0046C93.5754 13.0156 93.5403 13.0286 93.5061 13.0437C93.4387 13.0926 93.3589 13.1216 93.2758 13.1273C93.1926 13.133 93.1096 13.1151 93.0361 13.0756C92.8594 12.9129 92.752 12.6884 92.7361 12.4486C92.7001 12.262 92.6668 12.0733 92.6361 11.8826C92.5551 10.5835 92.635 9.27922 92.8741 7.99965C93.2841 6.74465 93.8801 6.56165 94.4631 6.55065C95.7826 6.57416 97.0739 6.93642 98.2131 7.60265C99.6496 8.58423 100.904 9.80893 101.919 11.2216C102.376 12.0576 104.054 21.2116 103.81 28.2286C103.574 35.0336 101.224 38.5146 99.2641 39.4456C95.7203 38.9411 92.2158 38.1906 88.7761 37.1996L88.5961 37.1446L88.3271 37.9907L88.5531 38.0576C91.4021 38.9006 96.3981 40.1576 98.9361 40.1576C99.1361 40.1576 99.3311 40.1516 99.5161 40.1396H99.5451L99.5731 40.1276C99.6941 40.0766 102.563 38.8096 103.925 32.3496C105.091 26.8216 103.852 18.1996 103.324 14.5196ZM95.1481 14.8846C95.0931 14.8846 95.0381 14.8846 94.9821 14.8846C95.0361 14.8686 95.0881 14.8506 95.1401 14.8316L95.1481 14.8846ZM93.6361 13.2716V13.3046C93.6225 13.8133 93.7702 14.3131 94.0581 14.7326C93.6305 14.6212 93.2174 14.4601 92.8271 14.2526C92.4932 14.0889 92.1925 13.8648 91.9401 13.5916C91.7714 13.3931 91.6637 13.15 91.6301 12.8916C91.611 12.576 91.6569 12.2598 91.7651 11.9626C91.8222 11.7684 91.8889 11.5772 91.9651 11.3896C91.9721 11.5066 91.9811 11.6236 91.9931 11.7406C92.0161 11.9536 92.0481 12.1656 92.0831 12.3756C92.1063 12.6404 92.1807 12.8982 92.3021 13.1346C92.6001 13.6096 93.2201 13.4586 93.6361 13.2716Z" fill="#0BB3E7"/>
<path d="M49.4 4.60518C54.208 -0.367818 56.582 13.4892 49.484 13.0702C49.309 13.2582 49.591 16.3812 49.432 16.8182C49.192 17.4752 48.222 17.5672 48.155 16.8692C48.02 15.4692 48.088 5.27418 48.1 5.11318C48.0982 4.96164 48.1428 4.81317 48.2275 4.68753C48.3123 4.5619 48.4333 4.46506 48.5745 4.4099C48.7156 4.35474 48.8702 4.34388 49.0177 4.37876C49.1652 4.41365 49.2985 4.49263 49.4 4.60518ZM49.415 11.6182C51.966 12.1322 52.588 10.2922 52.55 7.64218C52.52 5.54218 51.019 3.76918 49.95 6.12718C49.406 7.33618 49.411 7.67718 49.411 11.6182H49.415Z" fill="#E30613"/>
<path d="M54.7059 13.6213C53.7229 11.5963 54.7959 5.80732 57.7189 7.72132C58.4809 8.22132 58.7439 9.55132 58.7609 10.5523C58.8319 14.6073 55.7289 15.7293 54.7059 13.6213ZM56.45 8.89132C55.895 9.29132 55.45 12.5523 56.283 13.0423C57.459 13.7363 57.7 9.07232 56.45 8.89132Z" fill="#E30613"/>
<path d="M64.1429 13.1681C63.9429 12.6391 64.0679 8.67711 63.0619 8.24211C62.9368 8.34326 62.8331 8.46837 62.7569 8.61011C61.3329 10.8311 61.5509 13.8681 60.2449 13.7931C59.5579 13.7531 59.6629 13.5931 59.3389 8.14011C59.2779 7.11611 60.6579 6.80511 60.7779 7.65611C60.8219 7.96511 60.8579 8.74711 60.8829 9.18711C61.1579 9.18711 61.8179 6.32111 63.7219 6.79511C65.3739 7.20711 65.3539 10.4191 65.5479 12.4471C65.6489 13.5001 64.4149 13.8921 64.1429 13.1681Z" fill="#E30613"/>
<path d="M67.212 12.4579C67.1154 12.5213 67.0029 12.556 66.8874 12.558C66.7719 12.56 66.6583 12.5292 66.5596 12.4692C66.4609 12.4092 66.3811 12.3225 66.3297 12.2191C66.2783 12.1157 66.2572 11.9998 66.269 11.8849C66.252 11.4449 66.233 6.76391 66.233 6.60591C66.233 1.43391 66.01 1.45791 66.223 1.02691C66.542 0.382914 67.56 0.202913 67.597 1.26391C67.716 4.75491 67.679 3.01091 67.725 10.8709C67.728 11.3169 67.947 12.0909 67.212 12.4579Z" fill="#E30613"/>
<path d="M73.085 11.4204C72.374 11.7994 68.97 12.2204 68.449 9.42041C67.855 6.23141 71.094 2.88341 72.754 4.53441C72.9124 4.70836 73.0001 4.93517 73 5.17041C73.054 6.23341 72.43 8.07041 69.878 8.57041C69.8431 8.90282 69.9282 9.23677 70.1181 9.51188C70.3079 9.78699 70.5899 9.9851 70.913 10.0704C71.4447 10.2069 72.0023 10.2069 72.534 10.0704C73.478 9.63041 74.073 10.9004 73.085 11.4204ZM70.134 7.04141C70.5639 6.9484 70.9586 6.73511 71.272 6.42641C72.1 5.16241 70.783 5.46641 70.134 7.04141Z" fill="#E30613"/>
<path d="M39.168 48.1112C39.09 48.1752 38.9977 48.2194 38.8989 48.2402C38.3629 48.3512 38.3249 47.5672 38.8429 47.3262C39.2788 46.9892 39.6184 46.5437 39.8279 46.0342C40.1101 45.3978 40.2195 44.6983 40.1449 44.0062C39.8929 44.2562 39.6709 44.8062 39.0059 45.0822C37.7969 45.5822 37.62 43.5502 37.835 42.2962C37.992 41.3762 38.7039 41.4961 38.7349 41.9051C38.7349 41.9051 38.4409 44.0052 38.8639 44.2522C39.5989 43.9382 39.9819 42.1262 40.0999 41.6152C40.2239 41.0762 40.9359 40.9482 40.9539 41.5602C41.0219 43.7312 41.516 46.2242 39.168 48.1112Z" fill="#4D4D4D"/>
<path d="M44.264 47.2C43.679 47.319 42.991 46.823 43.488 46.346C44.037 45.82 44.0231 46.846 45.0881 45.895C45.5475 45.4175 45.8842 44.8356 46.0691 44.1993C46.2541 43.563 46.2819 42.8913 46.1501 42.242C44.2091 45.819 42.2051 43.098 44.6031 40.83C45.6581 39.83 46.5031 40.222 46.6501 40.501C46.8512 41.0812 46.988 41.6818 47.058 42.292C47.311 44.476 46.052 46.833 44.264 47.2ZM45.68 41.087C45.056 41.109 44.022 42.787 44.462 43.087C45.108 42.855 45.639 41.469 45.68 41.084V41.087Z" fill="#4D4D4D"/>
<path d="M50.5339 43.7917C49.9709 43.9627 50.0068 43.2607 49.7848 42.4237C49.3258 43.1237 48.8849 43.8237 48.1899 43.6307C46.5829 43.1917 47.7159 40.1367 48.9549 39.6307C49.1758 39.5192 49.4239 39.473 49.6701 39.4977C49.9163 39.5223 50.1504 39.6167 50.3448 39.7697C50.9528 39.8817 50.3449 40.8357 50.6869 42.3467C50.8169 42.9237 51.1409 43.6067 50.5339 43.7917ZM49.6969 40.4917C48.9679 39.6967 47.6778 42.5217 48.5478 42.7697C49.0909 42.1049 49.4839 41.3306 49.6999 40.4997L49.6969 40.4917Z" fill="#4D4D4D"/>
<path d="M54.0319 42.6279C53.9149 42.3169 53.9879 39.9889 53.3969 39.7279C53.3231 39.7876 53.262 39.8613 53.2169 39.9449C52.3799 41.2449 52.508 43.0349 51.741 42.9909C51.341 42.9669 51.399 42.8759 51.208 39.6679C51.172 39.0679 51.983 38.8829 52.054 39.3839C52.08 39.5649 52.101 40.0249 52.116 40.2839C52.278 40.2839 52.6649 38.5989 53.7839 38.8779C54.7549 39.1199 54.7439 41.0079 54.8579 42.1989C54.9169 42.8249 54.1919 43.0539 54.0319 42.6279Z" fill="#4D4D4D"/>
<path d="M58.252 42.2804C57.689 42.4524 57.725 41.7504 57.503 40.9134C57.044 41.6134 56.603 42.3074 55.903 42.1194C54.296 41.6814 55.429 38.6264 56.668 38.1194C56.8892 38.0083 57.1374 37.9623 57.3837 37.9869C57.63 38.0115 57.8642 38.1057 58.059 38.2584C58.666 38.3704 58.059 39.3244 58.4 40.8354C58.535 41.4124 58.859 42.1004 58.252 42.2804ZM57.415 38.9804C56.686 38.1804 55.396 41.0094 56.266 41.2574C56.8083 40.5914 57.2002 39.816 57.415 38.9844V38.9804Z" fill="#4D4D4D"/>
<path d="M64.2571 40.3942C64.0681 40.8552 63.466 40.8612 63.433 40.4172C63.378 39.6922 63.5701 37.7082 62.9921 37.3832C62.9233 37.4539 62.8687 37.537 62.831 37.6282C61.905 39.4842 62.518 41.1712 61.594 41.1782C60.808 41.1852 61.6171 39.1782 60.8461 37.8922C60.3739 38.9003 60.0818 39.9833 59.983 41.0922C59.919 41.6562 59.1251 41.9432 59.1111 41.0632C59.0571 37.7632 58.6541 37.4632 59.2911 37.2802C59.7631 37.1432 59.778 37.6052 59.829 38.0112C59.868 38.0232 59.8781 37.9922 59.8921 37.9662C60.0286 37.6528 60.2245 37.3689 60.469 37.1302C61.234 36.5112 61.6961 37.4942 61.8691 37.8162C61.9963 37.4426 62.1969 37.0982 62.459 36.8032C63.049 36.2312 64.235 36.2712 64.271 38.6622C64.2777 39.0842 64.2851 39.5062 64.2931 39.9282C64.3241 40.0838 64.3117 40.2451 64.2571 40.3942Z" fill="#4D4D4D"/>
<path d="M64.866 39.6869C64.289 38.4969 64.919 35.0939 66.637 36.2159C66.8523 36.4332 67.0184 36.6943 67.1241 36.9813C67.2299 37.2684 67.2728 37.5748 67.25 37.8799C67.291 40.2659 65.468 40.9259 64.866 39.6869ZM65.891 36.9059C65.565 37.1399 65.305 39.0579 65.791 39.3459C66.484 39.7539 66.626 37.0119 65.891 36.9059Z" fill="#4D4D4D"/>
<path d="M69.135 35.1003C68.86 35.5133 68.641 35.1693 68.414 35.2143C68.232 35.2493 68.214 35.5413 68.252 35.7353C68.443 36.7233 71.552 38.3593 67.814 40.7753C67.114 41.2303 66.876 40.0903 67.72 39.8543C67.941 39.7933 69.185 39.0183 68.62 37.9193C68.231 37.1563 67.63 36.9523 67.42 36.1613C67.3217 35.7991 67.3701 35.4128 67.5546 35.086C67.7392 34.7592 68.0451 34.5182 68.406 34.4153C68.885 34.3083 69.416 34.7003 69.135 35.1003Z" fill="#4D4D4D"/>
<path d="M75.9001 37.2665C74.8411 40.1135 72.9641 40.0805 72.7261 37.8215C72.6842 37.1258 72.6842 36.4282 72.7261 35.7325C72.3871 35.7655 72.3071 35.8915 72.0751 35.8085C71.7051 35.6755 71.8171 35.0965 72.2311 34.9775C72.4421 34.9165 72.5311 34.9125 72.7881 34.8415C72.8701 34.4275 72.7001 33.7815 73.2701 33.6805C73.8041 33.5855 73.67 34.2135 73.67 34.6575C74.37 34.5925 74.979 34.3335 75.048 34.8295C75.0504 34.9154 75.0344 35.0007 75.001 35.0799C74.9675 35.159 74.9175 35.23 74.8543 35.2881C74.7911 35.3462 74.7161 35.3901 74.6345 35.4167C74.5528 35.4433 74.4664 35.4522 74.381 35.4425C74.257 35.4195 74.348 35.4115 73.608 35.5565C73.464 36.2565 73.464 38.9565 74.238 38.5015C75.093 38.0015 74.8581 36.6685 75.5961 36.7015C75.6599 36.7061 75.7215 36.7268 75.7752 36.7616C75.8289 36.7964 75.873 36.8441 75.9033 36.9005C75.9336 36.9568 75.9492 37.0199 75.9487 37.0839C75.9481 37.1479 75.9314 37.2107 75.9001 37.2665Z" fill="#4D4D4D"/>
<path d="M76.3309 37.4408C75.7529 36.2508 76.3829 32.8488 78.1009 33.9708C78.3166 34.1879 78.483 34.4489 78.5887 34.736C78.6945 35.0232 78.7372 35.3297 78.7139 35.6348C78.7559 38.0208 76.9319 38.6798 76.3309 37.4408ZM77.3559 34.6608C77.0299 34.8948 76.7689 36.8128 77.2559 37.1008C77.9479 37.5088 78.0899 34.7668 77.3559 34.6608Z" fill="#4D4D4D"/>
<path d="M81.3 37.3339C81.282 37.1159 81.287 36.9649 81.267 36.8099C81.126 36.8739 80.998 36.9419 80.867 36.9899C78.28 37.9429 78.267 33.5069 81.277 33.4159C81.296 33.3159 81.301 33.4159 81.294 32.7789C81.261 30.1739 81.2 30.1939 81.438 29.9629C81.698 29.7109 82.121 29.7729 82.126 30.2019C82.198 37.4519 82.076 36.5559 82.18 37.0229C82.306 37.5999 81.346 37.9739 81.3 37.3339ZM81.277 35.0779C81.277 34.4059 81.316 34.3489 81.167 34.3159C79.736 33.9949 79.296 36.5899 80.648 36.1929C81.4 35.9709 81.272 35.6419 81.272 35.0779H81.277Z" fill="#4D4D4D"/>
<path d="M82.8252 36.1693C82.2472 34.9793 82.8782 31.5773 84.5962 32.6993C84.8114 32.9167 84.9775 33.1777 85.0833 33.4648C85.189 33.7518 85.232 34.0583 85.2091 34.3633C85.2501 36.7493 83.4272 37.4083 82.8252 36.1693ZM83.8501 33.3893C83.5241 33.6233 83.2641 35.5413 83.7501 35.8293C84.4431 36.2373 84.5851 33.5003 83.8501 33.3893Z" fill="#4D4D4D"/>
<path d="M87.094 31.5853C86.82 31.9983 86.6 31.6543 86.373 31.6993C86.191 31.7343 86.1731 32.0263 86.2111 32.2193C86.4021 33.2083 89.5111 34.8443 85.7731 37.2603C85.0731 37.7143 84.835 36.5743 85.68 36.3393C85.9 36.2773 87.1431 35.5033 86.5801 34.4043C86.1911 33.6403 85.5901 33.4363 85.3801 32.6463C85.2818 32.284 85.3301 31.8975 85.5146 31.5705C85.6992 31.2435 86.0051 31.0024 86.3661 30.8993C86.8431 30.7903 87.375 31.1833 87.094 31.5853Z" fill="#4D4D4D"/>
<path d="M73.958 42.6427C74.1185 42.7007 74.2873 42.7321 74.458 42.7357H74.528C74.6013 42.7421 74.6752 42.7339 74.7454 42.7116C74.8156 42.6893 74.8807 42.6533 74.937 42.6057L76.265 41.2057C76.3009 41.1715 76.3272 41.1285 76.3412 41.0809C76.3552 41.0333 76.3565 40.9829 76.3449 40.9347C76.2899 40.7127 75.966 40.5887 75.867 40.5557C75.6934 40.4921 75.5097 40.4609 75.325 40.4637H75.2999C75.1516 40.4519 75.0045 40.4986 74.89 40.5937L73.5629 41.9937C73.5271 42.0278 73.5008 42.0706 73.4866 42.1179C73.4724 42.1653 73.4708 42.2155 73.4819 42.2637C73.5359 42.4857 73.86 42.6097 73.958 42.6427Z" fill="#E30613"/>
<path d="M54.7701 46.383C54.1421 46.013 53.1281 45.854 51.8211 47.139C51.7068 47.0437 51.5694 46.9804 51.4228 46.9553C51.2762 46.9302 51.1256 46.9442 50.9861 46.996C50.8115 47.0703 50.6607 47.1911 50.5499 47.3452C50.4392 47.4993 50.3728 47.6808 50.3581 47.87C50.3581 47.933 50.2731 58.212 50.4131 59.656C50.4211 59.8158 50.4859 59.9676 50.5959 60.0839C50.7059 60.2001 50.8539 60.2732 51.0131 60.29C51.0463 60.294 51.0796 60.296 51.1131 60.296C51.3131 60.2932 51.5076 60.2298 51.6708 60.114C51.834 59.9983 51.9582 59.8358 52.0271 59.648C52.1122 58.9822 52.123 58.3091 52.0591 57.641C52.0391 57.063 52.0141 56.299 52.0451 56.019C53.0073 56.075 53.9583 55.7886 54.7296 55.2106C55.5009 54.6326 56.0427 53.8002 56.2591 52.861C57.0141 50.374 56.3051 47.286 54.7701 46.383ZM53.6481 47.959C54.2591 48.086 54.7901 49.211 54.8071 50.415C54.8331 52.247 54.5381 53.356 53.8771 53.905C53.612 54.0959 53.3077 54.2254 52.9863 54.284C52.6649 54.3426 52.3345 54.329 52.0191 54.244C52.0191 50.444 52.0191 50.128 52.5431 48.968C52.8731 48.238 53.2651 47.879 53.6481 47.959Z" fill="#E30613"/>
<path d="M63.107 55.9819C62.652 55.6519 62.338 55.8819 61.863 56.2299C61.5909 56.4346 61.3082 56.6249 61.016 56.7999C60.64 57.0219 60.3441 57.0569 60.1161 56.9059C59.2601 56.3509 59.3471 53.5399 59.4161 52.7459C59.7932 52.6503 60.175 52.5742 60.56 52.5179C61.46 52.3719 62.239 52.2459 62.269 51.3529C62.2821 51.2414 62.2691 51.1284 62.2309 51.0229C62.1927 50.9173 62.1305 50.8222 62.049 50.7449C61.705 50.4549 61.078 50.5829 60.212 50.7599C59.961 50.8109 59.7031 50.8599 59.4341 50.9099C59.4341 50.1579 59.517 47.3359 59.557 46.7449C60.2805 46.5689 61.0158 46.4456 61.7571 46.3759C61.9446 46.4113 62.1382 46.395 62.3172 46.3287C62.4961 46.2625 62.6537 46.1488 62.773 45.9999C62.9056 45.8592 63.0001 45.687 63.0475 45.4995C63.0949 45.3121 63.0937 45.1157 63.044 44.9289C62.9982 44.8046 62.9189 44.6953 62.815 44.6131C62.7111 44.5309 62.5866 44.4789 62.4551 44.4629C61.1625 44.5693 59.883 44.7987 58.634 45.1479C57.701 45.4219 57.6961 45.9909 57.6761 48.1079C57.6761 48.6239 57.665 49.2659 57.646 50.0239C57.637 50.3519 57.623 50.7159 57.607 51.1039C57.492 53.8939 57.335 57.7159 59.082 58.6489C59.3506 58.7906 59.6504 58.8628 59.954 58.8589C61.055 58.7341 62.0924 58.2784 62.9291 57.5519C63.0769 57.443 63.1977 57.3016 63.2823 57.1386C63.3669 56.9757 63.413 56.7955 63.417 56.6119C63.4197 56.4897 63.3929 56.3687 63.3389 56.2591C63.285 56.1494 63.2054 56.0543 63.107 55.9819Z" fill="#E30613"/>
<path d="M69.2111 43.2179C68.2491 42.8179 67.1031 43.4049 66.0911 44.7929C66.099 44.6267 66.0719 44.4608 66.0117 44.3057C65.9514 44.1507 65.8592 44.0101 65.7411 43.8929C65.647 43.8352 65.5411 43.7995 65.4313 43.7886C65.3215 43.7777 65.2106 43.7918 65.1071 43.8299L65.0301 43.8489C64.2881 44.0309 64.2881 44.0309 64.5021 55.1759L64.5181 55.9949C64.5186 56.0864 64.5142 56.1779 64.5051 56.2689C64.4596 56.5146 64.5062 56.7684 64.636 56.9819C64.6995 57.083 64.7882 57.1659 64.8934 57.2223C64.9986 57.2788 65.1167 57.3069 65.2361 57.3039C65.2816 57.3041 65.3271 57.3004 65.3721 57.2929C65.5662 57.2581 65.7461 57.1678 65.89 57.0329C66.0339 56.8981 66.1357 56.7244 66.183 56.5329C66.2403 55.8413 66.2453 55.1463 66.1981 54.4539C66.1851 53.9989 66.173 53.5329 66.175 53.2229C66.8057 53.7148 67.3722 54.2839 67.8611 54.9169C68.3191 55.4839 68.6221 55.8599 69.2491 55.5439C69.3939 55.4874 69.5217 55.3947 69.6203 55.2746C69.7189 55.1544 69.7849 55.0109 69.8121 54.8579C69.9121 54.0849 68.8041 53.1189 67.8281 52.2669C67.5281 52.0059 67.2441 51.7569 67.0281 51.5389C68.6444 50.1217 69.7886 48.2441 70.3071 46.1579C70.4954 45.6169 70.489 45.0271 70.2889 44.4904C70.0888 43.9536 69.7076 43.5036 69.2111 43.2179ZM68.311 44.8109C68.322 44.8098 68.3331 44.8098 68.3441 44.8109C68.4871 44.8349 68.5601 45.0289 68.5911 45.1419C68.8481 46.0999 68.2331 48.3209 66.1371 50.1849C66.0963 48.5404 66.5608 46.923 67.4681 45.5509C67.8401 44.9999 68.141 44.8109 68.311 44.8109Z" fill="#E30613"/>
<path d="M78.124 53.7591C77.8279 50.8451 77.7223 47.9149 77.808 44.9871C77.841 43.3801 77.858 42.5731 77.508 42.2421C77.4412 42.1809 77.3619 42.1349 77.2755 42.1074C77.1892 42.08 77.0979 42.0717 77.008 42.0831C76.108 42.1411 76.047 42.9111 75.908 44.7721C75.856 45.4581 75.791 46.3111 75.671 47.3581C75.314 50.4731 74.383 53.5581 73.937 54.0431C73.201 53.4931 73.099 50.0171 73.055 48.5021C73.055 48.3281 73.0449 48.1681 73.0399 48.0241C73.0032 46.8983 73.0396 45.7712 73.149 44.6501C73.224 43.7721 73.262 43.3321 73.024 43.0821C72.9515 43.0165 72.8658 42.9672 72.7726 42.9376C72.6795 42.9079 72.581 42.8985 72.484 42.9101C72.239 42.9321 72.0093 43.0385 71.8341 43.211C71.6588 43.3836 71.5489 43.6116 71.523 43.8561C71.276 46.1561 70.851 54.9211 73.278 55.7561C73.4471 55.817 73.6252 55.8488 73.805 55.8501C74.02 55.8498 74.232 55.7992 74.424 55.7021C75.304 55.2611 75.842 53.8861 76.262 52.6091C76.3474 53.1718 76.3902 53.74 76.39 54.3091C76.3516 54.4645 76.3602 54.6279 76.4149 54.7783C76.4696 54.9288 76.5678 55.0596 76.697 55.1541C76.8283 55.2415 76.9818 55.2896 77.1395 55.2926C77.2972 55.2956 77.4524 55.2535 77.5869 55.1711C77.808 55.017 77.9774 54.7998 78.0732 54.5479C78.169 54.2961 78.1867 54.0212 78.124 53.7591Z" fill="#E30613"/>
<path d="M73.958 42.6427C74.1185 42.7007 74.2873 42.7321 74.458 42.7357H74.528C74.6013 42.7421 74.6752 42.7339 74.7454 42.7116C74.8156 42.6893 74.8807 42.6533 74.937 42.6057L76.265 41.2057C76.3009 41.1715 76.3272 41.1285 76.3412 41.0809C76.3552 41.0333 76.3565 40.9829 76.3449 40.9347C76.2899 40.7127 75.966 40.5887 75.867 40.5557C75.6934 40.4921 75.5097 40.4609 75.325 40.4637H75.2999C75.1516 40.4519 75.0045 40.4986 74.89 40.5937L73.5629 41.9937C73.5271 42.0278 73.5008 42.0706 73.4866 42.1179C73.4724 42.1653 73.4708 42.2155 73.4819 42.2637C73.5359 42.4857 73.86 42.6097 73.958 42.6427Z" fill="#E30613"/>
</svg>
