<svg width="133" height="62" viewBox="0 0 133 62" fill="none" xmlns="http://www.w3.org/2000/svg">
<path d="M39.593 32.3054L42.162 33.2834C42.2577 33.3411 42.3648 33.3769 42.476 33.3884C42.677 33.4047 42.8764 33.3416 43.0314 33.2124C43.1863 33.0833 43.2844 32.8986 43.3046 32.6979C43.3247 32.4973 43.2654 32.2967 43.1393 32.1393C43.0131 31.982 42.8303 31.8804 42.63 31.8564C42.5526 31.8496 42.4747 31.855 42.399 31.8724L39.593 32.3054Z" fill="#FF0000"/>
<path d="M43.3909 35.4763C43.4596 35.2636 43.4414 35.0323 43.34 34.8331C43.2386 34.6338 43.0623 34.4829 42.8499 34.4133C42.7529 34.3828 42.6513 34.3703 42.5499 34.3763L39.2129 34.1123L42.0599 35.8713C42.1397 35.9378 42.2312 35.9887 42.3298 36.0213C42.5425 36.0904 42.774 36.0722 42.9733 35.9707C43.1726 35.8693 43.3235 35.6929 43.3928 35.4803" fill="#FF0000"/>
<path d="M42.912 38.3998C42.9712 38.295 43.0092 38.1796 43.0238 38.0601C43.0384 37.9407 43.0293 37.8195 42.9969 37.7036C42.9646 37.5877 42.9097 37.4792 42.8354 37.3846C42.7612 37.2899 42.6689 37.2108 42.564 37.1518C42.4887 37.1113 42.4083 37.0814 42.325 37.0628L38.458 35.8008L41.434 38.5678C41.4986 38.6417 41.5751 38.7045 41.66 38.7538C41.8717 38.8729 42.122 38.9031 42.356 38.8379C42.5899 38.7727 42.7884 38.6172 42.908 38.4058" fill="#FF0000"/>
<path d="M41.8931 41.3721C41.9812 41.2763 42.0496 41.1639 42.0941 41.0415C42.1387 40.9191 42.1587 40.7891 42.1528 40.659C42.147 40.5289 42.1154 40.4012 42.0601 40.2834C42.0047 40.1655 41.9265 40.0597 41.8301 39.9721C41.7627 39.9128 41.6878 39.8627 41.6072 39.8231L37.3721 37.2861L40.3322 41.2451C40.3769 41.3159 40.4302 41.3807 40.4911 41.4381C40.5873 41.5258 40.6998 41.5936 40.8223 41.6378C40.9447 41.682 41.0746 41.7016 41.2046 41.6956C41.3346 41.6896 41.4622 41.658 41.58 41.6026C41.6978 41.5473 41.8035 41.4693 41.8911 41.3731" fill="#FF0000"/>
<path d="M40.285 42.6995L36 38.5195L38.587 43.8985C38.6454 44.0362 38.7322 44.16 38.8417 44.2617C38.9512 44.3635 39.081 44.441 39.2225 44.4891C39.3641 44.5372 39.5142 44.5549 39.6631 44.5409C39.8119 44.5269 39.9562 44.4816 40.0863 44.408C40.2164 44.3344 40.3295 44.2341 40.4182 44.1137C40.5069 43.9934 40.5691 43.8556 40.6008 43.7095C40.6325 43.5634 40.633 43.4122 40.6022 43.2659C40.5714 43.1196 40.5099 42.9815 40.422 42.8605C40.3796 42.803 40.3318 42.7497 40.2791 42.7015" fill="#FF0000"/>
<path d="M38.2568 45.488C38.2448 45.468 38.2338 45.449 38.2208 45.431L34.6519 40L36.2518 46.308C36.2578 46.337 36.2669 46.365 36.2739 46.394L36.2799 46.416C36.2949 46.462 36.3069 46.508 36.3259 46.553C36.4466 46.821 36.6688 47.0301 36.9436 47.1343C37.2184 47.2384 37.5234 47.2292 37.7914 47.1085C38.0594 46.9878 38.2685 46.7656 38.3727 46.4908C38.4769 46.216 38.4676 45.911 38.3469 45.643C38.325 45.5997 38.3006 45.5576 38.2739 45.517L38.2568 45.488Z" fill="#FF0000"/>
<path d="M33.2529 48.4107V48.4387C33.254 48.4884 33.2589 48.5379 33.2678 48.5867C33.2957 48.7358 33.3532 48.8778 33.4368 49.0044C33.5204 49.131 33.6284 49.2395 33.7546 49.3236C33.8809 49.4077 34.0226 49.4657 34.1716 49.4941C34.3206 49.5225 34.4739 49.5208 34.6222 49.4891C34.7705 49.4574 34.9109 49.3963 35.0353 49.3094C35.1596 49.2225 35.2653 49.1116 35.3461 48.9832C35.4269 48.8549 35.4811 48.7116 35.5056 48.5619C35.5301 48.4122 35.5245 48.2592 35.4889 48.1117C35.4769 48.0634 35.4615 48.0159 35.4429 47.9697L35.4309 47.9357C35.4249 47.9177 35.4179 47.9 35.4099 47.8827L32.9028 41.2197L33.2439 48.3357C33.2439 48.3617 33.2439 48.3867 33.2439 48.4127" fill="#FF0000"/>
<path d="M30.7889 51.1536C30.9476 51.1533 31.1046 51.1218 31.2511 51.0609C31.3976 50.9999 31.5306 50.9107 31.6426 50.7983C31.7546 50.686 31.8433 50.5527 31.9038 50.406C31.9643 50.2593 31.9953 50.1022 31.995 49.9436C31.9928 49.8906 31.9875 49.8379 31.979 49.7856L31.972 49.7476C31.972 49.7266 31.972 49.7046 31.963 49.6846L30.816 42.1846L29.608 49.6846C29.602 49.7106 29.599 49.7366 29.594 49.7636L29.589 49.7936C29.5801 49.8458 29.5748 49.8986 29.573 49.9516C29.5733 50.1103 29.6048 50.2674 29.6658 50.4139C29.7268 50.5605 29.8161 50.6935 29.9286 50.8055C30.0411 50.9175 30.1745 51.0063 30.3213 51.0667C30.4681 51.1271 30.6253 51.158 30.7841 51.1576" fill="#FF0000"/>
<path d="M25.5599 50.0543C25.515 50.1441 25.4813 50.2392 25.4598 50.3373C25.425 50.5019 25.423 50.6718 25.4538 50.8372C25.4847 51.0026 25.5478 51.1603 25.6396 51.3013C25.7314 51.4423 25.8501 51.5638 25.9889 51.659C26.1276 51.7541 26.2837 51.821 26.4484 51.8558C26.613 51.8906 26.7828 51.8927 26.9482 51.8618C27.1136 51.831 27.2713 51.7678 27.4123 51.6761C27.5533 51.5843 27.6749 51.4656 27.77 51.3268C27.8652 51.1881 27.9321 51.0319 27.9669 50.8673C27.9864 50.7719 27.9951 50.6746 27.9929 50.5773L28.4089 42.6953L25.5599 50.0543Z" fill="#FF0000"/>
<path d="M23.574 50.9077C23.6168 50.8117 23.648 50.711 23.667 50.6077L25.787 42.6807L21.265 49.5277C21.1485 49.6792 21.0654 49.8537 21.0211 50.0397C20.9769 50.2257 20.9725 50.4189 21.0083 50.6067C21.0441 50.7944 21.1193 50.9725 21.2289 51.1292C21.3385 51.2858 21.4801 51.4175 21.6442 51.5155C21.8083 51.6135 21.9913 51.6756 22.1812 51.6978C22.3711 51.72 22.5635 51.7018 22.7458 51.6443C22.9281 51.5868 23.0962 51.4913 23.2389 51.3642C23.3817 51.237 23.4958 51.0821 23.574 50.9077Z" fill="#FF0000"/>
<path d="M16.5922 48.5002C16.4738 48.6507 16.3869 48.8234 16.3366 49.0082C16.2864 49.1929 16.2739 49.3859 16.2997 49.5756C16.3256 49.7653 16.3893 49.9479 16.4872 50.1124C16.5851 50.2769 16.7152 50.4201 16.8696 50.5333C17.0239 50.6466 17.1996 50.7276 17.3859 50.7716C17.5723 50.8155 17.7656 50.8215 17.9543 50.7892C18.143 50.7569 18.3233 50.687 18.4844 50.5836C18.6456 50.4801 18.7842 50.3453 18.8921 50.1872C18.9575 50.0984 19.0119 50.0021 19.0541 49.9002L23.0801 42.0332L16.8102 48.2622C16.7276 48.3327 16.6533 48.4126 16.5892 48.5002" fill="#FF0000"/>
<path d="M6.40492 47.1152L18.0689 38.7432L4.93886 44.5542C4.84635 44.5855 4.75748 44.6267 4.67385 44.6772C4.33158 44.8802 4.08407 45.2109 3.98561 45.5964C3.88716 45.982 3.94592 46.3909 4.14894 46.7332C4.35197 47.0754 4.68256 47.323 5.06813 47.4215C5.45371 47.5199 5.86259 47.4612 6.20485 47.2582C6.27545 47.2163 6.34244 47.1684 6.40492 47.1152Z" fill="#FF0000"/>
<path d="M12.1391 46.162C11.9838 46.3039 11.86 46.4769 11.7759 46.6697C11.6918 46.8626 11.6493 47.0709 11.6509 47.2813C11.6526 47.4916 11.6985 47.6993 11.7857 47.8908C11.8728 48.0822 11.9992 48.2532 12.1568 48.3926C12.3143 48.5321 12.4995 48.6368 12.7001 48.7C12.9008 48.7632 13.1125 48.7835 13.3215 48.7596C13.5305 48.7357 13.7321 48.6681 13.9133 48.5612C14.0944 48.4542 14.2511 48.3104 14.3731 48.139L20.5081 40.666L12.418 45.966C12.3175 46.0215 12.2239 46.0887 12.1391 46.166" fill="#FF0000"/>
<path d="M2.56316 38.9152C2.16653 39.0455 1.83799 39.3281 1.64971 39.7007C1.46142 40.0734 1.42878 40.5055 1.55913 40.9022C1.68949 41.2988 1.97214 41.6274 2.34478 41.8157C2.71741 42.004 3.14956 42.0365 3.54619 41.9062C3.63915 41.8748 3.72908 41.8353 3.81511 41.7882L15.8582 36.2432L2.86614 38.8432C2.76429 38.8567 2.66395 38.8795 2.56621 38.9112" fill="#FF0000"/>
<path d="M2.01693 36.0471C2.13115 36.0355 2.24386 36.0117 2.35299 35.9761L14 33.1511L2.01791 32.7731C1.90224 32.7605 1.78567 32.7605 1.67 32.7731C1.23558 32.8189 0.83708 33.0355 0.562339 33.3751C0.287598 33.7148 0.159035 34.1496 0.204917 34.5841C0.2508 35.0185 0.467462 35.4169 0.80709 35.6916C1.14672 35.9664 1.58153 36.0949 2.01595 36.0491" fill="#FF0000"/>
<path d="M1.5821 29.8551C1.69414 29.8666 1.80698 29.8666 1.91902 29.8551L12.741 29.4841L2.24104 26.8431C2.13725 26.8077 2.03003 26.7836 1.92109 26.7711C1.51213 26.726 1.10202 26.8452 0.780955 27.1025C0.459893 27.3598 0.254142 27.7341 0.209056 28.1431C0.163969 28.552 0.283177 28.9622 0.540477 29.2832C0.797776 29.6043 1.17314 29.81 1.5821 29.8551Z" fill="#FF0000"/>
<path d="M2.65597 24.0422C2.79783 24.0878 2.94511 24.1143 3.09396 24.1212L12.239 25.3462L4.12301 20.9652C3.91777 20.8321 3.68642 20.7443 3.44454 20.7078C3.20267 20.6712 2.95583 20.6867 2.72042 20.7532C2.48502 20.8197 2.26655 20.9357 2.07955 21.0934C1.89256 21.2511 1.74134 21.4469 1.63607 21.6677C1.5308 21.8885 1.47387 22.1292 1.46908 22.3738C1.46429 22.6184 1.5117 22.8612 1.60824 23.0859C1.70478 23.3107 1.84822 23.5122 2.02889 23.6771C2.20957 23.8421 2.42335 23.9665 2.65597 24.0422Z" fill="#FF0000"/>
<path d="M4.74611 18.2454C4.88852 18.3274 5.04267 18.3871 5.20314 18.4224L12.7442 20.9484L6.74416 15.7204C6.58411 15.5494 6.38905 15.4149 6.17226 15.3262C5.95547 15.2375 5.72208 15.1967 5.48805 15.2065C5.25403 15.2163 5.02479 15.2765 4.81618 15.3831C4.60757 15.4896 4.42448 15.6399 4.27931 15.8237C4.13415 16.0076 4.03038 16.2206 3.97511 16.4482C3.91985 16.6758 3.91442 16.9127 3.95912 17.1426C4.00383 17.3725 4.09762 17.5901 4.23415 17.7804C4.37068 17.9707 4.54667 18.1293 4.75014 18.2454" fill="#FF0000"/>
<path d="M17.7929 6.04655L20.7259 8.71655L20.6359 4.82855C20.6358 4.55037 20.5667 4.27656 20.4348 4.03166C20.3028 3.78676 20.1121 3.5784 19.8798 3.42526C19.6476 3.27212 19.381 3.17898 19.104 3.15416C18.8269 3.12935 18.5479 3.17365 18.2922 3.28309C18.0364 3.39254 17.8119 3.5637 17.6385 3.78127C17.4651 3.99883 17.3485 4.25599 17.2989 4.52973C17.2493 4.80346 17.2684 5.08522 17.3544 5.34976C17.4405 5.6143 17.5908 5.85337 17.7919 6.04555" fill="#FF0000"/>
<path d="M12.842 9.73325L17.1 12.5002L15.748 7.66625C15.6923 7.40356 15.5818 7.15553 15.4239 6.93825C15.1187 6.52962 14.6649 6.25762 14.1606 6.18113C13.6564 6.10464 13.1423 6.22981 12.7296 6.52955C12.3169 6.82929 12.0389 7.27948 11.9557 7.78268C11.8725 8.28589 11.9908 8.80162 12.285 9.21825C12.4346 9.42502 12.6239 9.60078 12.842 9.73325Z" fill="#FF0000"/>
<path d="M8.60005 13.8063L14.382 16.5843L11.054 11.2433C10.9488 11.0251 10.802 10.8295 10.622 10.6673C10.2501 10.3301 9.75936 10.1545 9.25789 10.179C8.75641 10.2036 8.28529 10.4264 7.94807 10.7983C7.61085 11.1703 7.43522 11.661 7.45979 12.1625C7.48436 12.6639 7.70709 13.1351 8.07905 13.4723C8.23288 13.6119 8.40898 13.7248 8.60005 13.8063Z" fill="#FF0000"/>
<path d="M23.7059 3.75985L25.3059 5.42985L26.0339 3.20585C26.1254 2.96144 26.1485 2.69676 26.1011 2.44015C26.0536 2.18355 25.9374 1.94467 25.7646 1.74908C25.5919 1.55349 25.3691 1.40856 25.1204 1.3298C24.8716 1.25104 24.6061 1.24141 24.3523 1.30195C24.0985 1.36249 23.8658 1.49091 23.6793 1.67347C23.4929 1.85603 23.3596 2.08586 23.2937 2.33836C23.2278 2.59085 23.2318 2.85652 23.3053 3.10691C23.3788 3.3573 23.519 3.583 23.7109 3.75985" fill="#FF0000"/>
<path d="M27.228 23.3218L26.6639 20.2678C26.6532 20.2077 26.6359 20.149 26.6121 20.0928C26.5745 19.9948 26.5171 19.9055 26.4437 19.8304C26.3704 19.7554 26.2824 19.6961 26.1853 19.6563C26.0882 19.6164 25.984 19.5968 25.879 19.5988C25.7741 19.6007 25.6707 19.624 25.5751 19.6674C25.4795 19.7108 25.3937 19.7732 25.3231 19.8509C25.2525 19.9286 25.1986 20.0199 25.1646 20.1192C25.1306 20.2185 25.1172 20.3238 25.1254 20.4284C25.1335 20.5331 25.1631 20.635 25.212 20.7278C25.2405 20.7895 25.2772 20.847 25.321 20.8988L27.228 23.3218Z" fill="#FF0000"/>
<path d="M27.3279 19.208C27.3413 19.2683 27.361 19.327 27.3869 19.383L28.987 22.752L28.999 19.036V18.988C28.9974 18.9437 28.9923 18.8996 28.984 18.856C28.9315 18.6434 28.7984 18.4595 28.6127 18.3433C28.4271 18.2271 28.2035 18.1877 27.9893 18.2334C27.7752 18.2792 27.5872 18.4065 27.4653 18.5884C27.3433 18.7703 27.297 18.9925 27.336 19.208" fill="#FF0000"/>
<path d="M30.8002 17.043C30.5573 17.0446 30.325 17.1424 30.1542 17.3151C29.9834 17.4877 29.8881 17.7211 29.8892 17.964C29.8898 18.0405 29.9008 18.1165 29.9221 18.19L30.8222 22.558L31.7072 18.139V18.125C31.7176 18.0689 31.723 18.012 31.7232 17.955C31.7216 17.7122 31.6236 17.48 31.4509 17.3094C31.2782 17.1387 31.0449 17.0436 30.8021 17.045" fill="#FF0000"/>
<path d="M32.6519 22.751L34.6638 17.767C34.7263 17.6328 34.7579 17.4862 34.756 17.3382C34.7541 17.1902 34.7189 17.0445 34.653 16.9119C34.5871 16.7793 34.4921 16.6633 34.3752 16.5724C34.2584 16.4816 34.1226 16.4182 33.9779 16.387C33.7214 16.3311 33.4532 16.3793 33.2323 16.5211C33.0114 16.6628 32.8559 16.8865 32.7999 17.143C32.7863 17.2138 32.7796 17.2858 32.7799 17.358L32.6519 22.751Z" fill="#FF0000"/>
<path d="M37.4861 16.3521C37.2291 16.2379 36.9373 16.2305 36.6748 16.3314C36.4123 16.4322 36.2006 16.6332 36.0862 16.8901C36.0575 16.9543 36.0357 17.0214 36.0211 17.0901L34.4092 23.3221L37.9302 17.9281C37.9686 17.8736 38.0021 17.8157 38.0302 17.7551C38.087 17.6279 38.1181 17.4907 38.1218 17.3514C38.1255 17.2122 38.1016 17.0735 38.0516 16.9435C38.0017 16.8134 37.9266 16.6945 37.8306 16.5935C37.7345 16.4926 37.6194 16.4116 37.4921 16.3551" fill="#FF0000"/>
<path d="M41.181 17.0855C41.0631 17.0004 40.9296 16.9393 40.7881 16.9058C40.6466 16.8723 40.4998 16.867 40.3562 16.8902C40.2126 16.9134 40.075 16.9647 39.9513 17.0411C39.8275 17.1175 39.7201 17.2176 39.635 17.3355C39.6082 17.3757 39.5839 17.4175 39.562 17.4605L39.549 17.4835C39.537 17.5065 39.525 17.5295 39.515 17.5525L36.624 23.3925L41.261 18.8155C41.28 18.7985 41.299 18.7795 41.317 18.7615L41.3361 18.7415C41.372 18.7077 41.4054 18.6713 41.436 18.6325C41.5214 18.5146 41.5827 18.3811 41.6163 18.2395C41.65 18.0979 41.6555 17.9511 41.6323 17.8074C41.6092 17.6637 41.558 17.526 41.4816 17.4021C41.4052 17.2782 41.305 17.1707 41.187 17.0855" fill="#FF0000"/>
<path d="M43.271 18.6159C43.2351 18.6505 43.2017 18.6876 43.171 18.7269L43.152 18.7519C43.1368 18.7682 43.1225 18.7852 43.109 18.8029L38.627 24.3539L44.595 20.4439L44.652 20.4079L44.678 20.3899C44.7197 20.3635 44.7595 20.3341 44.797 20.3019C44.9075 20.2019 44.9972 20.081 45.061 19.9463C45.1248 19.8115 45.1614 19.6655 45.1688 19.5166C45.1762 19.3677 45.1542 19.2189 45.104 19.0785C45.0538 18.9381 44.9765 18.8089 44.8765 18.6984C44.7764 18.5879 44.6556 18.4982 44.5209 18.4344C44.3861 18.3706 44.2401 18.334 44.0912 18.3266C43.9423 18.3192 43.7935 18.3412 43.6531 18.3914C43.5127 18.4415 43.3835 18.5189 43.2729 18.6189" fill="#FF0000"/>
<path d="M48.2902 21.2783C48.1289 21.0014 47.8643 20.7999 47.5546 20.7179C47.2448 20.636 46.9151 20.6804 46.6381 20.8413C46.5927 20.869 46.5497 20.9 46.5092 20.9343L46.4822 20.9583C46.4633 20.9712 46.4452 20.9852 46.4281 21.0003L40.5171 25.7863L47.6111 23.0393L47.6791 23.0113L47.7112 23.0003C47.7605 22.9818 47.8085 22.96 47.8551 22.9353C48.1318 22.7739 48.3331 22.5093 48.415 22.1996C48.497 21.89 48.4528 21.5604 48.2921 21.2833" fill="#FF0000"/>
<path d="M50.269 26.4004C50.5919 26.2943 50.8594 26.0643 51.0127 25.761C51.166 25.4576 51.1926 25.1058 51.0865 24.7829C50.9805 24.46 50.7504 24.1925 50.447 24.0391C50.1437 23.8858 49.7919 23.8593 49.469 23.9654C49.3755 23.9957 49.2859 24.037 49.202 24.0884L42.175 27.6944L49.975 26.4584C50.0736 26.4503 50.1709 26.4308 50.265 26.4004" fill="#FF0000"/>
<path d="M51.942 30.5275C52.1189 30.509 52.2904 30.4559 52.4468 30.3712C52.6031 30.2864 52.7412 30.1717 52.8533 30.0336C52.9653 29.8955 53.0491 29.7366 53.0997 29.5661C53.1504 29.3957 53.167 29.2169 53.1486 29.04C53.1301 28.8631 53.0769 28.6916 52.9922 28.5352C52.9074 28.3788 52.7928 28.2407 52.6547 28.1287C52.5165 28.0166 52.3576 27.9329 52.1871 27.8822C52.0166 27.8316 51.8379 27.815 51.661 27.8335C51.5564 27.8451 51.4533 27.8686 51.354 27.9035L43.4351 30.0565L51.627 30.5235C51.7316 30.5355 51.8374 30.5355 51.942 30.5235" fill="#FF0000"/>
<path d="M52.9731 35.1564C53.1606 35.1784 53.3506 35.1629 53.5321 35.111C53.7136 35.059 53.8829 34.9716 54.0304 34.8537C54.1778 34.7359 54.3005 34.5899 54.3911 34.4243C54.4818 34.2588 54.5386 34.0768 54.5585 33.8891C54.5783 33.7014 54.5607 33.5116 54.5067 33.3307C54.4527 33.1498 54.3633 32.9815 54.2438 32.8354C54.1242 32.6893 53.9769 32.5683 53.8103 32.4796C53.6437 32.3909 53.461 32.3361 53.2731 32.3184C53.1641 32.3053 53.054 32.3053 52.9451 32.3184L44.1191 32.7804L52.6521 35.0804C52.7544 35.1175 52.8609 35.142 52.9691 35.1534" fill="#FF0000"/>
<path d="M57.4052 46.7538C57.5019 46.5821 57.5639 46.3929 57.5875 46.1972C57.6111 46.0015 57.596 45.8031 57.5428 45.6132C57.4897 45.4234 57.3996 45.2459 57.2778 45.0909C57.1561 44.9359 57.005 44.8064 56.8331 44.7098C56.7605 44.6706 56.685 44.6371 56.6072 44.6098L43.6641 38.7998L55.1241 47.1598C55.1977 47.2225 55.277 47.2781 55.3611 47.3258C55.5328 47.4226 55.722 47.4845 55.9177 47.5082C56.1134 47.5318 56.3119 47.5166 56.5017 47.4635C56.6915 47.4103 56.869 47.3203 57.024 47.1986C57.1791 47.0768 57.3086 46.9257 57.4052 46.7538Z" fill="#FF0000"/>
<path d="M53.1249 40.1997C53.504 40.3207 53.9157 40.286 54.2693 40.1035C54.6229 39.9209 54.8894 39.6054 55.0104 39.2262C55.1313 38.8471 55.0968 38.4355 54.9142 38.0819C54.7316 37.7283 54.416 37.4617 54.0369 37.3407C53.9316 37.307 53.823 37.2852 53.7129 37.2757L44.1729 35.7197L52.8119 40.0577C52.9103 40.1171 53.0154 40.1647 53.1249 40.1997Z" fill="#FF0000"/>
<path d="M53.4819 49.7338C53.4089 49.6694 53.3306 49.6112 53.2479 49.5598L42.5249 41.9248L51.1649 51.8418C51.2281 51.9266 51.2994 52.005 51.3779 52.0758C51.53 52.2232 51.7103 52.3385 51.908 52.4146C52.1057 52.4907 52.3167 52.5261 52.5284 52.5186C52.7402 52.5112 52.9482 52.4611 53.1401 52.3714C53.332 52.2817 53.5038 52.1541 53.6453 51.9964C53.7867 51.8387 53.8948 51.654 53.9631 51.4535C54.0315 51.253 54.0587 51.0407 54.0431 50.8295C54.0275 50.6182 53.9693 50.4123 53.8722 50.224C53.7751 50.0357 53.641 49.869 53.4779 49.7338" fill="#FF0000"/>
<path d="M49.1998 53.9148C49.132 53.822 49.0549 53.7362 48.9698 53.6588L40.7119 45.0068L46.3629 55.5508C46.4101 55.6565 46.4681 55.7571 46.5359 55.8508C46.6619 56.0286 46.822 56.1797 47.0068 56.2952C47.1917 56.4106 47.3976 56.4883 47.6127 56.5236C47.8277 56.5589 48.0477 56.5512 48.2598 56.5009C48.4718 56.4505 48.6719 56.3586 48.8481 56.2305C49.0244 56.1023 49.1735 55.9404 49.2867 55.7542C49.4 55.568 49.4751 55.3611 49.5078 55.1456C49.5405 54.9301 49.5302 54.7103 49.4773 54.4989C49.4244 54.2874 49.3301 54.0896 49.1998 53.9148Z" fill="#FF0000"/>
<path d="M41.2692 58.6698C41.3575 58.869 41.4866 59.0473 41.6484 59.1932C41.8103 59.3391 42.001 59.4493 42.2083 59.5165C42.4155 59.5838 42.6345 59.6066 42.8512 59.5836C43.0678 59.5605 43.2773 59.4921 43.4657 59.3827C43.6541 59.2733 43.8173 59.1255 43.9448 58.9488C44.0723 58.7721 44.1612 58.5706 44.2056 58.3573C44.25 58.144 44.2489 57.9237 44.2025 57.7108C44.1561 57.4979 44.0653 57.2972 43.9362 57.1218L38.1631 47.8838L41.1631 58.3538C41.1853 58.4623 41.2188 58.5682 41.2631 58.6698" fill="#FF0000"/>
<path d="M35.1489 60.1139C35.2503 60.5546 35.5212 60.9377 35.903 61.1802C36.2847 61.4227 36.7465 61.5051 37.1886 61.4095C37.6307 61.3139 38.0173 61.0481 38.2648 60.6695C38.5122 60.2909 38.6007 59.8301 38.5109 59.3869C38.4807 59.2481 38.433 59.1136 38.3689 58.9869L34.8369 50.2969L35.1129 59.6609C35.1047 59.8138 35.1168 59.9671 35.1489 60.1169" fill="#FF0000"/>
<path d="M30.8238 61.8892C31.0765 61.8885 31.3256 61.829 31.5512 61.7152C31.7769 61.6014 31.9728 61.4365 32.1235 61.2337C32.2742 61.0308 32.3755 60.7956 32.4193 60.5468C32.4631 60.2979 32.4482 60.0423 32.3758 59.8002L30.8248 51.9512L29.2639 59.7782C29.1883 60.0222 29.1711 60.2807 29.2138 60.5326C29.2566 60.7845 29.358 61.0228 29.5099 61.2283C29.6617 61.4338 29.8597 61.6007 30.088 61.7155C30.3163 61.8303 30.5683 61.8898 30.8238 61.8892Z" fill="#FF0000"/>
<path d="M12.7099 56.2525C12.9334 56.4157 13.1938 56.5213 13.4678 56.5599C13.7419 56.5985 14.0211 56.569 14.2811 56.474C14.541 56.379 14.7734 56.2214 14.958 56.0152C15.1425 55.8089 15.2733 55.5603 15.3389 55.2915L16.461 51.1465L12.8609 53.4465C12.6189 53.5867 12.4157 53.785 12.2696 54.0235C12.1235 54.262 12.0392 54.5331 12.0244 54.8124C12.0095 55.0916 12.0645 55.3702 12.1844 55.6229C12.3043 55.8756 12.4853 56.0944 12.711 56.2595" fill="#FF0000"/>
<path d="M20.8531 58.4685C20.9572 58.235 21.0136 57.9831 21.0191 57.7275L21.481 52.3535L17.773 56.2535C17.5599 56.4479 17.3928 56.6873 17.284 56.9544C17.1751 57.2216 17.1273 57.5096 17.1438 57.7975C17.1604 58.0855 17.241 58.3661 17.3798 58.619C17.5186 58.8719 17.712 59.0906 17.946 59.2592C18.18 59.4279 18.4487 59.5422 18.7325 59.5938C19.0162 59.6455 19.3079 59.6332 19.5863 59.5578C19.8647 59.4824 20.1229 59.3459 20.3418 59.1582C20.5608 58.9704 20.7351 58.7362 20.8521 58.4725" fill="#FF0000"/>
<path d="M26.6788 60C26.7199 59.8051 26.7303 59.6051 26.7098 59.407L26.2928 52.667L23.2518 58.554C23.0976 58.7859 22.9964 59.049 22.9556 59.3245C22.9147 59.6 22.9351 59.8811 23.0154 60.1478C23.0956 60.4145 23.2338 60.6602 23.4199 60.8674C23.606 61.0745 23.8355 61.2381 24.0921 61.3464C24.3487 61.4546 24.6261 61.505 24.9044 61.4937C25.1827 61.4825 25.4551 61.41 25.7021 61.2814C25.9492 61.1528 26.1648 60.9713 26.3336 60.7498C26.5024 60.5283 26.6203 60.2723 26.6788 60Z" fill="#FF0000"/>
<path d="M7.93713 51.9444C8.10272 52.1314 8.3141 52.272 8.55053 52.3524C8.78696 52.4328 9.04029 52.4502 9.28552 52.403C9.53074 52.3558 9.75944 52.2455 9.94909 52.083C10.1387 51.9206 10.2827 51.7115 10.3671 51.4764L11.3671 48.8984L8.73107 49.5814C8.48294 49.6307 8.25224 49.7448 8.06237 49.9119C7.8725 50.0791 7.7302 50.2935 7.6499 50.5334C7.56959 50.7733 7.55414 51.0302 7.6051 51.278C7.65605 51.5258 7.77161 51.7557 7.94006 51.9444" fill="#FF0000"/>
<path d="M23.3799 40.2665C23.2605 40.4325 23.212 40.6391 23.245 40.8409C23.278 41.0427 23.3899 41.2231 23.5559 41.3425C23.7219 41.4618 23.9286 41.5103 24.1303 41.4773C24.3321 41.4443 24.5125 41.3325 24.6318 41.1665C24.6666 41.1161 24.6952 41.0617 24.7169 41.0045L25.6299 38.5225L23.6008 40.0585C23.5133 40.113 23.4376 40.1844 23.3779 40.2685" fill="#FF0000"/>
<path d="M21.3739 38.7832C21.2964 38.818 21.2244 38.8638 21.1599 38.9192C20.9936 39.0686 20.8935 39.278 20.8816 39.5013C20.8697 39.7245 20.947 39.9434 21.0964 40.1097C21.2459 40.2759 21.4552 40.3761 21.6784 40.388C21.9017 40.3999 22.1206 40.3226 22.2868 40.1732C22.3382 40.1265 22.3832 40.0734 22.4209 40.0152L24.2589 37.2852L21.3698 38.7782L21.3739 38.7832Z" fill="#FF0000"/>
<path d="M18.788 38.317C18.9105 38.5267 19.1113 38.6793 19.3462 38.7412C19.5811 38.803 19.831 38.7692 20.041 38.647C20.122 38.5995 20.1944 38.5386 20.255 38.467L23.173 35.793L19.373 36.961C19.2836 36.9817 19.1977 37.0154 19.118 37.061C19.014 37.1216 18.9228 37.2021 18.8498 37.2979C18.7769 37.3937 18.7235 37.503 18.6927 37.6194C18.662 37.7359 18.6545 37.8572 18.6706 37.9766C18.6868 38.0959 18.7264 38.2109 18.787 38.315" fill="#FF0000"/>
<path d="M17.9 36.6224C17.973 36.5975 18.0429 36.564 18.108 36.5224L22.42 34.1064L17.5479 34.6894C17.4617 34.6913 17.3761 34.7054 17.2939 34.7314C17.1686 34.7698 17.0522 34.8326 16.9514 34.9164C16.8505 35.0001 16.7674 35.103 16.7067 35.2191C16.646 35.3353 16.609 35.4623 16.5978 35.5929C16.5867 35.7235 16.6016 35.855 16.6417 35.9797C16.6817 36.1045 16.7462 36.22 16.8314 36.3197C16.9165 36.4193 17.0205 36.501 17.1375 36.5601C17.2545 36.6191 17.382 36.6543 17.5128 36.6637C17.6435 36.673 17.7748 36.6563 17.899 36.6144" fill="#FF0000"/>
<path d="M16.275 33.9417L22.043 32.3027L16.074 31.8927C15.9842 31.8773 15.8927 31.8739 15.802 31.8827C15.5234 31.9143 15.2686 32.0548 15.0931 32.2736C14.9177 32.4923 14.8359 32.7716 14.8656 33.0504C14.8953 33.3293 15.0341 33.585 15.2517 33.7619C15.4693 33.9388 15.7479 34.0225 16.027 33.9947C16.1117 33.9845 16.195 33.9644 16.275 33.9347" fill="#FF0000"/>
<path d="M14.568 30.7923C14.6166 30.7958 14.6654 30.7958 14.714 30.7923H14.739C14.766 30.7923 14.793 30.7923 14.818 30.7923L21.263 30.3823L15.042 28.6503C15.018 28.6413 14.9921 28.6353 14.9671 28.6283L14.9411 28.6223C14.6529 28.5729 14.3569 28.6399 14.1182 28.8087C14 28.8923 13.8993 28.9983 13.822 29.1207C13.7448 29.2432 13.6925 29.3797 13.668 29.5223C13.6435 29.665 13.6474 29.8111 13.6793 29.9523C13.7113 30.0935 13.7708 30.227 13.8544 30.3452C14.0232 30.584 14.2798 30.7459 14.568 30.7953" fill="#FF0000"/>
<path d="M13.037 25.6149C12.991 25.7568 12.9735 25.9063 12.9853 26.0549C12.997 26.2035 13.0379 26.3484 13.1057 26.4812C13.1735 26.614 13.2668 26.7321 13.3803 26.8288C13.4937 26.9256 13.6251 26.999 13.767 27.0449C13.8148 27.059 13.8636 27.0693 13.913 27.0759H13.945C13.9674 27.0811 13.9901 27.0847 14.013 27.0869L21.013 28.1869L14.6961 24.9789C14.6771 24.9679 14.656 24.9579 14.636 24.9489L14.6081 24.9339C14.5642 24.9111 14.5187 24.8914 14.4721 24.8749C14.3303 24.8288 14.1809 24.8111 14.0322 24.8229C13.8836 24.8346 13.7387 24.8756 13.606 24.9434C13.4732 25.0112 13.3552 25.1045 13.2586 25.2181C13.162 25.3316 13.0887 25.463 13.043 25.6049" fill="#FF0000"/>
<path d="M13.4459 21.3775C13.3666 21.515 13.315 21.6667 13.2944 21.8241C13.2738 21.9815 13.2844 22.1414 13.3257 22.2946C13.3669 22.4479 13.438 22.5915 13.5348 22.7173C13.6316 22.843 13.7523 22.9485 13.8899 23.0275C13.9365 23.0529 13.985 23.0746 14.0349 23.0925L14.0648 23.1055C14.0898 23.1135 14.1109 23.1245 14.1349 23.1315L21.2059 25.8315L15.3059 21.0895C15.2889 21.0735 15.2688 21.0605 15.2508 21.0455L15.2229 21.0235C15.1823 20.9893 15.1392 20.9582 15.0938 20.9305C14.9564 20.8514 14.8046 20.8001 14.6473 20.7796C14.49 20.7592 14.3303 20.7699 14.1771 20.8112C14.024 20.8525 13.8805 20.9237 13.7549 21.0205C13.6292 21.1173 13.5238 21.238 13.4448 21.3755" fill="#FF0000"/>
<path d="M16.9111 17.1882L16.8901 17.1602C16.8554 17.1162 16.8176 17.0748 16.7771 17.0362C16.6527 16.9191 16.5062 16.828 16.3462 16.7683C16.1861 16.7086 16.0157 16.6815 15.8451 16.6886C15.6744 16.6957 15.5068 16.7368 15.3523 16.8096C15.1977 16.8823 15.0591 16.9852 14.9449 17.1123C14.8307 17.2393 14.7431 17.3879 14.6871 17.5493C14.6311 17.7107 14.6079 17.8816 14.6189 18.0521C14.6299 18.2226 14.6749 18.3891 14.7512 18.542C14.8275 18.6948 14.9335 18.8309 15.0631 18.9422C15.1064 18.9782 15.1518 19.0116 15.1991 19.0422L15.2271 19.0602C15.2501 19.0752 15.2721 19.0912 15.2961 19.1042L21.9551 23.3992L16.9641 17.2452C16.9491 17.2252 16.9311 17.2052 16.9151 17.1862" fill="#FF0000"/>
<path d="M19.5581 13.6632L19.5412 13.6292C19.5152 13.5758 19.4855 13.5243 19.4522 13.4752C19.2419 13.1834 18.9243 12.9872 18.5693 12.9296C18.2142 12.872 17.8509 12.9578 17.5591 13.1682C17.2674 13.3785 17.0712 13.6961 17.0136 14.0511C16.956 14.4061 17.0418 14.7694 17.2521 15.0612C17.2883 15.1085 17.3277 15.1533 17.3702 15.1952L17.3921 15.2172C17.4151 15.2402 17.4382 15.2642 17.4622 15.2852L23.2991 21.0332L19.5992 13.7332C19.5882 13.7082 19.5752 13.6852 19.5632 13.6612" fill="#FF0000"/>
<path d="M20.33 11.3564C20.3743 11.4535 20.4294 11.5454 20.494 11.6304L25.283 18.9534L23.031 10.4994C23.0106 10.3868 22.9771 10.2771 22.9311 10.1724C22.7741 9.82761 22.4864 9.55932 22.1316 9.42654C21.7768 9.29376 21.3837 9.30738 21.039 9.46439C20.6942 9.62139 20.426 9.90894 20.2932 10.2638C20.1605 10.6186 20.1741 11.0116 20.3311 11.3564" fill="#FF0000"/>
<path d="M30.8179 16.2399L32.2919 2.41294C32.3075 2.32445 32.3156 2.23479 32.3159 2.14494C32.315 1.74712 32.156 1.36595 31.874 1.08531C31.5921 0.804658 31.2102 0.647513 30.8124 0.648442C30.4146 0.64937 30.0333 0.808295 29.7527 1.09026C29.472 1.37222 29.315 1.75412 29.3159 2.15194C29.3167 2.23945 29.3247 2.32675 29.3398 2.41294L30.8179 16.2399Z" fill="#FF0000"/>
<path d="M25.4411 6.22543C25.2483 6.26695 25.0656 6.34608 24.9034 6.4583C24.7412 6.57053 24.6027 6.71363 24.4959 6.87943C24.3891 7.04523 24.316 7.23046 24.2808 7.42453C24.2457 7.6186 24.2492 7.8177 24.2911 8.01043C24.3156 8.11934 24.3518 8.22529 24.3991 8.32643L27.8381 17.3664L27.2581 7.71143C27.2605 7.59852 27.2493 7.48572 27.225 7.37543C27.1835 7.18272 27.1044 7.00009 26.9923 6.83798C26.8801 6.67587 26.7372 6.53745 26.5715 6.43065C26.4058 6.32385 26.2206 6.25075 26.0267 6.21553C25.8327 6.18032 25.6338 6.18368 25.4411 6.22543Z" fill="#FF0000"/>
<path d="M38.3 3.45982C38.3401 3.367 38.3712 3.27056 38.3929 3.17182C38.4802 2.76352 38.4017 2.33728 38.1747 1.98687C37.9477 1.63646 37.5908 1.39058 37.1825 1.30332C36.7742 1.21607 36.348 1.29458 35.9976 1.52159C35.6471 1.74861 35.4012 2.10552 35.314 2.51382C35.2917 2.61875 35.2797 2.72558 35.278 2.83282L34.178 15.5818L38.3 3.45982Z" fill="#FF0000"/>
<path d="M37.8389 15.6076L43.9509 5.76956C44.0197 5.67621 44.078 5.57561 44.1249 5.46956C44.2166 5.2716 44.2682 5.05738 44.2765 4.83934C44.2848 4.62131 44.2496 4.4038 44.1731 4.19946C44.0966 3.99511 43.9802 3.80801 43.8308 3.649C43.6814 3.49 43.5019 3.36227 43.3027 3.27324C43.1035 3.18421 42.8885 3.13564 42.6704 3.13036C42.4523 3.12509 42.2353 3.16321 42.032 3.24251C41.8287 3.3218 41.6433 3.4407 41.4863 3.59229C41.3294 3.74389 41.2042 3.92515 41.1179 4.12556C41.0693 4.23416 41.0331 4.34787 41.0099 4.46456L37.8389 15.6076Z" fill="#FF0000"/>
<path d="M41.6851 16.4244L48.976 8.92441C49.0603 8.85146 49.1359 8.7689 49.201 8.67841C49.321 8.5138 49.4074 8.32717 49.4552 8.12918C49.503 7.93119 49.5114 7.72572 49.4799 7.5245C49.4483 7.32327 49.3773 7.13024 49.2711 6.95641C49.1649 6.78259 49.0256 6.63138 48.861 6.51141C48.6963 6.39145 48.5098 6.30509 48.3118 6.25725C48.1138 6.20941 47.9083 6.20104 47.707 6.23261C47.5058 6.26418 47.3129 6.33508 47.139 6.44126C46.9652 6.54743 46.8139 6.6868 46.694 6.85141C46.6265 6.94472 46.5699 7.04536 46.525 7.15141L41.6851 16.4244Z" fill="#FF0000"/>
<path d="M45.509 18.1549L53.129 13.5099C53.3498 13.4014 53.5448 13.2468 53.7007 13.0565C53.8566 12.8662 53.9699 12.6447 54.0328 12.4068C54.0958 12.169 54.1069 11.9204 54.0656 11.6779C54.0242 11.4354 53.9312 11.2046 53.793 11.0011C53.6547 10.7976 53.4744 10.6261 53.2642 10.4983C53.054 10.3705 52.8188 10.2892 52.5745 10.2601C52.3302 10.231 52.0825 10.2547 51.8481 10.3295C51.6138 10.4043 51.3982 10.5286 51.2159 10.6939C51.1048 10.7963 51.0074 10.9126 50.926 11.0399L45.509 18.1549Z" fill="#FF0000"/>
<path d="M49.0181 20.8751L56.3601 18.4141C56.5879 18.3619 56.8018 18.2613 56.9872 18.119C57.1726 17.9768 57.3252 17.7963 57.4346 17.5898C57.544 17.3833 57.6076 17.1557 57.6211 16.9224C57.6346 16.6891 57.5977 16.4556 57.5129 16.2379C57.4282 16.0201 57.2975 15.8232 57.1298 15.6605C56.9621 15.4978 56.7612 15.3731 56.541 15.2949C56.3208 15.2167 56.0864 15.1869 55.8536 15.2075C55.6209 15.2281 55.3952 15.2985 55.1921 15.4141C55.0484 15.4976 54.9183 15.6024 54.8062 15.7251L49.0181 20.8751Z" fill="#FF0000"/>
<path d="M57.0851 20.9417L51.8691 24.5417L58.0862 24.3417C58.3649 24.3617 58.6445 24.3197 58.905 24.2189C59.1656 24.118 59.4007 23.9607 59.5933 23.7582C59.7858 23.5557 59.9312 23.3131 60.0189 23.0478C60.1066 22.7825 60.1345 22.5011 60.1006 22.2238C60.0667 21.9464 59.9718 21.68 59.8228 21.4437C59.6737 21.2073 59.4741 21.0069 59.2384 20.8568C59.0027 20.7067 58.7368 20.6107 58.4596 20.5756C58.1824 20.5404 57.9008 20.5671 57.6351 20.6537C57.4375 20.7191 57.2518 20.817 57.0851 20.9417Z" fill="#FF0000"/>
<path d="M61.428 34.5999C61.4768 34.1564 61.3475 33.7116 61.0685 33.3634C60.7894 33.0151 60.3835 32.792 59.9399 32.743C59.7196 32.7197 59.497 32.739 59.2841 32.7999L55.365 33.963L58.916 35.873C59.1174 35.9901 59.3413 36.0633 59.573 36.088C60.0166 36.1368 60.4613 36.0075 60.8096 35.7284C61.1578 35.4494 61.381 35.0435 61.4301 34.5999" fill="#FF0000"/>
<path d="M59.236 26.44C58.9818 26.4666 58.7355 26.543 58.511 26.665L53.957 28.952L58.847 30.216C59.1217 30.3036 59.4123 30.3289 59.698 30.2899C59.9836 30.251 60.2571 30.1488 60.4983 29.9909C60.7395 29.833 60.9424 29.6232 61.0923 29.377C61.2422 29.1307 61.3353 28.8542 61.3649 28.5674C61.3944 28.2806 61.3596 27.9909 61.2631 27.7192C61.1665 27.4476 61.0106 27.2009 60.8066 26.9971C60.6027 26.7933 60.3559 26.6376 60.0842 26.5412C59.8125 26.4449 59.5227 26.4103 59.236 26.44Z" fill="#FF0000"/>
<path d="M59.1001 39.0713C58.8651 38.995 58.6143 38.9805 58.3721 39.0293L55.8721 39.5293L57.5581 41.3663C57.7022 41.5354 57.8836 41.6688 58.0879 41.756C58.2922 41.8432 58.5139 41.882 58.7357 41.8691C58.9575 41.8562 59.1733 41.7922 59.3662 41.6819C59.5591 41.5716 59.7238 41.4182 59.8474 41.2336C59.971 41.049 60.0503 40.8382 60.0787 40.6179C60.1072 40.3975 60.0842 40.1736 60.0116 39.9636C59.939 39.7536 59.8188 39.5633 59.6603 39.4077C59.5018 39.252 59.3094 39.1351 59.0981 39.0663" fill="#FF0000"/>
<path d="M71.333 18.5178C71.1211 18.3764 70.8832 18.2788 70.6331 18.2308V18.1998C70.8223 18.1515 70.9974 18.0589 71.144 17.9298C71.2999 17.7968 71.4297 17.6361 71.527 17.4558C71.6218 17.2825 71.672 17.0883 71.673 16.8908C71.6788 16.6087 71.5963 16.3318 71.437 16.0988C71.257 15.8572 71.0107 15.6731 70.728 15.5688C70.341 15.4282 69.9306 15.363 69.519 15.3768H67.78C67.573 15.3768 67.468 15.4708 67.468 15.6588V21.0798C67.468 21.2688 67.573 21.3618 67.78 21.3618H69.509C69.962 21.3729 70.4136 21.3093 70.8459 21.1738C71.1731 21.0734 71.4606 20.873 71.668 20.6008C71.8622 20.3168 71.9598 19.9777 71.946 19.6338C71.9483 19.4138 71.8931 19.197 71.786 19.0048C71.6751 18.809 71.5205 18.6422 71.333 18.5178ZM68.498 16.1608H69.434C69.7492 16.1343 70.0651 16.204 70.34 16.3608C70.437 16.4358 70.5138 16.5337 70.5634 16.6458C70.6129 16.7579 70.6338 16.8806 70.624 17.0028C70.6236 17.1268 70.5949 17.2491 70.5402 17.3603C70.4854 17.4715 70.406 17.5688 70.308 17.6448C70.0664 17.8309 69.7666 17.9248 69.462 17.9098H68.498V16.1608ZM70.598 20.3228C70.3492 20.5039 70.0453 20.5933 69.738 20.5758H68.5V18.6998H69.5861C69.9325 18.6769 70.2775 18.7607 70.575 18.9398C70.6832 19.017 70.7706 19.12 70.8291 19.2394C70.8876 19.3588 70.9154 19.4909 70.91 19.6238C70.9166 19.7568 70.8919 19.8895 70.8376 20.0111C70.7834 20.1327 70.7013 20.2388 70.598 20.3228Z" fill="black"/>
<path d="M74.192 15.4122C74.0824 15.3675 73.964 15.3484 73.8459 15.3562H73.696C73.5829 15.3497 73.4697 15.3688 73.365 15.4122C73.3342 15.4257 73.3078 15.4477 73.2892 15.4757C73.2706 15.5038 73.2605 15.5366 73.26 15.5702V21.1702C73.2603 21.2039 73.2704 21.2367 73.2891 21.2648C73.3077 21.2928 73.3341 21.3148 73.365 21.3282C73.4696 21.372 73.5829 21.3912 73.696 21.3842H73.8459C73.9641 21.3925 74.0826 21.3734 74.192 21.3282C74.2219 21.314 74.2472 21.2916 74.2649 21.2637C74.2826 21.2357 74.292 21.2033 74.292 21.1702V15.5702C74.2919 15.5371 74.2825 15.5048 74.2648 15.4768C74.2471 15.4489 74.2218 15.4265 74.192 15.4122Z" fill="black"/>
<path d="M80.772 20.4722C80.7424 20.4182 80.7061 20.3682 80.6639 20.3232C80.6482 20.3043 80.6287 20.2888 80.6067 20.2778C80.5846 20.2668 80.5606 20.2605 80.536 20.2592C80.47 20.2677 80.4061 20.2876 80.347 20.3182C80.2348 20.3674 80.1199 20.4104 80.003 20.4472C79.8387 20.4985 79.6718 20.5412 79.503 20.5752C79.2917 20.6174 79.0765 20.6375 78.861 20.6352C78.4681 20.6495 78.0781 20.5642 77.727 20.3872C77.4246 20.2217 77.1879 19.9578 77.056 19.6392C76.764 18.8116 76.764 17.9089 77.056 17.0812C77.1889 16.7645 77.4279 16.5039 77.732 16.3442C78.0924 16.1759 78.4875 16.0957 78.885 16.1102C79.1327 16.1063 79.3802 16.1291 79.623 16.1782C79.7904 16.2135 79.9546 16.2623 80.114 16.3242C80.2 16.3649 80.2923 16.3906 80.387 16.4002C80.4352 16.3987 80.4811 16.3787 80.515 16.3442C80.5591 16.3029 80.5957 16.2542 80.623 16.2002C80.6534 16.1418 80.6804 16.0817 80.704 16.0202C80.7234 15.9725 80.7346 15.9218 80.7371 15.8702C80.7349 15.8467 80.7278 15.8238 80.7163 15.8031C80.7048 15.7825 80.689 15.7644 80.67 15.7502C80.6181 15.7042 80.561 15.6643 80.5 15.6312C80.3642 15.5596 80.2201 15.5049 80.071 15.4682C79.8841 15.4197 79.6944 15.3823 79.503 15.3562C79.2949 15.328 79.085 15.3139 78.875 15.3142C78.0384 15.2526 77.2114 15.5248 76.5749 16.0712C76.2961 16.3797 76.0833 16.7418 75.9493 17.1354C75.8154 17.529 75.7632 17.9458 75.796 18.3602C75.7606 18.7768 75.8083 19.1962 75.9364 19.5941C76.0645 19.992 76.2703 20.3606 76.542 20.6782C76.8596 20.9489 77.2278 21.1541 77.6251 21.2818C78.0224 21.4094 78.4412 21.4572 78.857 21.4222C79.072 21.4226 79.2865 21.4066 79.499 21.3742C79.6937 21.3468 79.8864 21.3071 80.076 21.2552C80.2319 21.2143 80.3836 21.1588 80.529 21.0892C80.6148 21.0466 80.6956 20.9946 80.77 20.9342C80.7956 20.9139 80.8162 20.8878 80.8301 20.8581C80.8439 20.8285 80.8507 20.796 80.85 20.7632C80.8475 20.7231 80.8412 20.6832 80.831 20.6442C80.8177 20.5839 80.7954 20.526 80.765 20.4722" fill="black"/>
<path d="M85.7891 20.5155H83.1891V18.6345H85.5051C85.6491 18.6345 85.7222 18.5345 85.7222 18.3255V18.1555C85.7222 17.9495 85.6491 17.8465 85.5051 17.8465H83.1891V16.1005H85.7781C85.9231 16.1005 85.9961 16.0005 85.9961 15.7935V15.6215C85.9961 15.4215 85.9231 15.3145 85.7781 15.3145H82.4722C82.2642 15.3145 82.1592 15.4075 82.1592 15.5965V21.0205C82.1592 21.2085 82.2642 21.3025 82.4722 21.3025H85.7881C85.9331 21.3025 86.0051 21.2025 86.0051 20.9945V20.8235C86.0051 20.6175 85.9341 20.5155 85.7891 20.5155Z" fill="black"/>
<path d="M92.6342 15.3692C92.5279 15.3253 92.4128 15.3065 92.2981 15.3142H92.1762C92.0631 15.3074 91.9499 15.3262 91.8451 15.3692C91.815 15.3833 91.7896 15.4058 91.7719 15.434C91.7541 15.4622 91.7448 15.4949 91.7451 15.5282V19.1722C91.7451 19.2982 91.7451 19.4062 91.7451 19.4982C91.7451 19.5902 91.7541 19.6822 91.7601 19.7802L91.7222 19.7882C91.6765 19.6947 91.6261 19.6036 91.5712 19.5152C91.5142 19.4232 91.4551 19.3352 91.3921 19.2502L88.6921 15.5112C88.6593 15.4639 88.6179 15.4232 88.5701 15.3912C88.5239 15.3619 88.4727 15.3416 88.4191 15.3312C88.3504 15.319 88.2809 15.3133 88.2112 15.3142H87.9462C87.8331 15.3075 87.72 15.3263 87.6151 15.3692C87.5851 15.3834 87.5597 15.406 87.542 15.4341C87.5243 15.4623 87.515 15.4949 87.5151 15.5282V21.1282C87.5149 21.1613 87.5243 21.1938 87.542 21.2218C87.5597 21.2499 87.5851 21.2722 87.6151 21.2862C87.7196 21.3304 87.833 21.3496 87.9462 21.3422H88.0691C88.1836 21.3506 88.2986 21.3314 88.4042 21.2862C88.4342 21.2722 88.4596 21.2499 88.4773 21.2218C88.495 21.1938 88.5044 21.1613 88.5042 21.1282V17.1002C88.5041 17.0059 88.4977 16.9116 88.4851 16.8182L88.5231 16.8092C88.5731 16.9005 88.6251 16.9905 88.6791 17.0792C88.7321 17.1672 88.7911 17.2542 88.8541 17.3392L91.6311 21.1802C91.6562 21.2208 91.6904 21.2551 91.7311 21.2802C91.7738 21.3041 91.8207 21.3197 91.8691 21.3262C91.9296 21.3359 91.9908 21.3406 92.0521 21.3402H92.3071C92.422 21.3486 92.5372 21.3294 92.6431 21.2842C92.6729 21.2699 92.6981 21.2475 92.7158 21.2195C92.7335 21.1916 92.743 21.1592 92.7432 21.1262V15.5262C92.743 15.493 92.7335 15.4605 92.7158 15.4324C92.6982 15.4043 92.6729 15.3817 92.6431 15.3672" fill="black"/>
<path d="M98.4769 15.3145H94.0269C93.8889 15.3145 93.8188 15.4145 93.8188 15.6215V15.7935C93.8188 15.9985 93.8889 16.1005 94.0269 16.1005H95.7468V21.1065C95.7468 21.1396 95.7563 21.172 95.774 21.1999C95.7917 21.2279 95.817 21.2503 95.8469 21.2645C95.95 21.3087 96.0619 21.3279 96.1738 21.3205H96.3619C96.4702 21.3276 96.5786 21.3084 96.6779 21.2645C96.7078 21.2504 96.7331 21.228 96.7509 21.2C96.7686 21.172 96.7779 21.1396 96.7778 21.1065V16.1005H98.4779C98.6169 16.1005 98.6859 16.0005 98.6859 15.7935V15.6215C98.6859 15.4215 98.6159 15.3145 98.4769 15.3145Z" fill="black"/>
<path d="M103.494 20.5155H100.894V18.6345H103.21C103.355 18.6345 103.428 18.5345 103.428 18.3255V18.1555C103.428 17.9495 103.355 17.8465 103.21 17.8465H100.9V16.1005H103.49C103.634 16.1005 103.707 16.0005 103.707 15.7935V15.6215C103.707 15.4215 103.634 15.3145 103.49 15.3145H100.183C99.9751 15.3145 99.8711 15.4075 99.8711 15.5965V21.0205C99.8711 21.2085 99.9751 21.3025 100.183 21.3025H103.499C103.644 21.3025 103.717 21.2025 103.717 20.9945V20.8235C103.717 20.6175 103.644 20.5155 103.499 20.5155" fill="black"/>
<path d="M110.339 15.3692C110.233 15.3252 110.118 15.3064 110.004 15.3142H109.881C109.768 15.3076 109.655 15.3264 109.55 15.3692C109.52 15.3834 109.494 15.4059 109.477 15.4341C109.459 15.4623 109.45 15.4949 109.45 15.5282V19.1722C109.45 19.2982 109.45 19.4062 109.45 19.4982C109.45 19.5902 109.458 19.6822 109.464 19.7802L109.427 19.7882C109.381 19.6947 109.331 19.6036 109.276 19.5152C109.219 19.4232 109.159 19.3352 109.096 19.2502L106.396 15.5112C106.363 15.4639 106.321 15.4232 106.273 15.3912C106.227 15.362 106.175 15.3416 106.122 15.3312C106.053 15.319 105.984 15.3133 105.914 15.3142H105.65C105.537 15.3075 105.424 15.3263 105.319 15.3692C105.288 15.3828 105.262 15.4051 105.243 15.4333C105.224 15.4615 105.214 15.4944 105.214 15.5282V21.1282C105.214 21.1619 105.224 21.1947 105.243 21.2228C105.262 21.2508 105.288 21.2729 105.319 21.2862C105.423 21.3306 105.537 21.3497 105.65 21.3422H105.772C105.887 21.3506 106.002 21.3314 106.108 21.2862C106.138 21.2721 106.163 21.2498 106.181 21.2218C106.199 21.1938 106.208 21.1613 106.208 21.1282V17.1002C106.208 17.0059 106.202 16.9118 106.19 16.8182L106.228 16.8092C106.277 16.9002 106.328 16.9902 106.383 17.0792C106.438 17.1682 106.495 17.2542 106.558 17.3392L109.336 21.1802C109.36 21.2213 109.395 21.2557 109.436 21.2802C109.478 21.3042 109.525 21.3198 109.573 21.3262C109.634 21.336 109.695 21.3407 109.757 21.3402H110C110.114 21.3488 110.229 21.3296 110.335 21.2842C110.365 21.2701 110.39 21.2478 110.408 21.2198C110.426 21.1918 110.435 21.1593 110.435 21.1262V15.5262C110.435 15.493 110.426 15.4604 110.408 15.4323C110.39 15.4041 110.365 15.3816 110.335 15.3672" fill="black"/>
<path d="M117.043 21.0552L114.851 15.4552C114.838 15.4291 114.819 15.4062 114.796 15.3878C114.774 15.3694 114.747 15.3559 114.719 15.3482C114.624 15.3194 114.525 15.3066 114.426 15.3102H114.095C113.998 15.3071 113.9 15.32 113.807 15.3482C113.778 15.3553 113.751 15.3685 113.727 15.387C113.703 15.4054 113.684 15.4286 113.67 15.4552L111.478 21.0422C111.472 21.0702 111.465 21.0942 111.459 21.1142C111.452 21.1348 111.449 21.1564 111.449 21.1782C111.449 21.2252 111.485 21.2612 111.558 21.2902C111.67 21.324 111.786 21.3386 111.903 21.3332H112.044C112.131 21.3348 112.217 21.3233 112.3 21.2992C112.33 21.2909 112.358 21.2768 112.382 21.2576C112.407 21.2383 112.427 21.2144 112.442 21.1872L112.949 19.8612H115.549L116.049 21.1872C116.065 21.2155 116.086 21.2401 116.112 21.2594C116.138 21.2788 116.168 21.2923 116.2 21.2992C116.289 21.3233 116.381 21.3348 116.473 21.3332H116.643C116.754 21.3399 116.865 21.3236 116.97 21.2852C117.036 21.2542 117.07 21.2182 117.07 21.1782C117.072 21.1569 117.072 21.1354 117.07 21.1142C117.066 21.0919 117.059 21.0705 117.047 21.0512M113.241 19.1082L114.109 16.8412C114.14 16.7588 114.165 16.6742 114.184 16.5882C114.202 16.5012 114.222 16.4132 114.24 16.3282H114.269C114.282 16.4159 114.301 16.5028 114.325 16.5882C114.351 16.6772 114.379 16.7612 114.41 16.8412L115.269 19.1082H113.241Z" fill="black"/>
<path d="M122.9 20.9942L122.154 19.3012C122.073 19.1007 121.963 18.9131 121.828 18.7442C121.716 18.6035 121.562 18.502 121.388 18.4542V18.4192C121.618 18.3775 121.836 18.2857 122.026 18.1502C122.198 18.0253 122.335 17.8592 122.426 17.6672C122.521 17.4578 122.568 17.2299 122.563 17.0002C122.578 16.762 122.537 16.5236 122.441 16.3048C122.346 16.086 122.2 15.8931 122.015 15.7422C121.523 15.4205 120.938 15.2701 120.352 15.3142H118.491C118.283 15.3142 118.18 15.4082 118.18 15.5962V21.1062C118.18 21.1393 118.189 21.1718 118.207 21.1998C118.225 21.2278 118.25 21.2502 118.28 21.2642C118.385 21.3075 118.498 21.3267 118.611 21.3202H118.762C118.88 21.3279 118.998 21.3087 119.107 21.2642C119.137 21.25 119.162 21.2276 119.18 21.1996C119.198 21.1717 119.207 21.1393 119.207 21.1062V18.7612H120.029C120.207 18.7572 120.385 18.7777 120.558 18.8222C120.688 18.8563 120.805 18.9255 120.898 19.0222C120.997 19.1323 121.077 19.258 121.135 19.3942L121.89 21.1482C121.926 21.2091 121.983 21.2546 122.05 21.2762C122.138 21.3073 122.232 21.3222 122.325 21.3202H122.505C122.619 21.3252 122.734 21.312 122.844 21.2812C122.913 21.2552 122.949 21.2172 122.949 21.1652C122.948 21.1409 122.944 21.1168 122.939 21.0932C122.932 21.0578 122.92 21.024 122.901 20.9932M120.368 18.0002H119.206V16.1002H120.368C120.681 16.0723 120.993 16.154 121.252 16.3312C121.349 16.4278 121.423 16.5446 121.47 16.6732C121.516 16.8018 121.534 16.939 121.521 17.0752C121.533 17.2057 121.515 17.3373 121.468 17.4598C121.422 17.5823 121.348 17.6926 121.252 17.7822C120.989 17.9494 120.679 18.0266 120.368 18.0002Z" fill="black"/>
<path d="M125.059 15.3693C124.949 15.3251 124.832 15.3063 124.714 15.3143H124.563C124.45 15.3077 124.337 15.3265 124.232 15.3693C124.202 15.3836 124.176 15.4061 124.159 15.4343C124.141 15.4624 124.132 15.4951 124.132 15.5283V21.1283C124.132 21.1615 124.141 21.194 124.159 21.222C124.176 21.25 124.202 21.2723 124.232 21.2863C124.336 21.3306 124.45 21.3497 124.563 21.3423H124.714C124.832 21.3512 124.95 21.332 125.059 21.2863C125.089 21.2722 125.114 21.2499 125.132 21.2219C125.15 21.1939 125.159 21.1614 125.159 21.1283V15.5283C125.159 15.4951 125.15 15.4625 125.132 15.4344C125.114 15.4062 125.089 15.3837 125.059 15.3693Z" fill="black"/>
<path d="M131.8 16.0826C131.18 15.5848 130.408 15.3135 129.613 15.3135C128.818 15.3135 128.046 15.5848 127.426 16.0826C127.156 16.3936 126.951 16.7549 126.821 17.1456C126.691 17.5364 126.64 17.949 126.67 18.3596C126.613 19.1881 126.885 20.0056 127.426 20.6356C128.042 21.1436 128.815 21.4215 129.613 21.4215C130.411 21.4215 131.184 21.1436 131.8 20.6356C132.341 20.0056 132.613 19.1881 132.556 18.3596C132.586 17.949 132.535 17.5364 132.405 17.1456C132.276 16.7549 132.07 16.3936 131.8 16.0826ZM131.03 20.0526C130.653 20.426 130.143 20.6355 129.613 20.6355C129.082 20.6355 128.572 20.426 128.195 20.0526C127.839 19.5604 127.667 18.9587 127.709 18.3526C127.666 17.7519 127.838 17.1555 128.195 16.6706C128.576 16.3054 129.084 16.1015 129.613 16.1015C130.141 16.1015 130.648 16.3054 131.03 16.6706C131.387 17.1553 131.56 17.7519 131.516 18.3526C131.559 18.9587 131.387 19.5606 131.03 20.0526Z" fill="black"/>
<path d="M89.0189 45.0838H85.8188L88.4049 42.1458C88.6121 41.9024 88.8025 41.6451 88.9748 41.3758C89.1374 41.1204 89.2639 40.8438 89.3508 40.5538C89.4384 40.2619 89.4819 39.9586 89.4798 39.6538C89.4899 39.2646 89.4121 38.8782 89.2522 38.5232C89.0922 38.1683 88.8542 37.854 88.5559 37.6038C87.7964 37.024 86.8522 36.7397 85.8989 36.8038C85.513 36.804 85.128 36.8429 84.7498 36.9198C84.3944 36.9918 84.0453 37.0921 83.7059 37.2198C83.4348 37.3184 83.1781 37.4529 82.9428 37.6198C82.866 37.6637 82.8001 37.7246 82.7502 37.7977C82.7003 37.8708 82.6678 37.9543 82.6549 38.0418C82.6633 38.2218 82.7096 38.398 82.7909 38.5588C82.8768 38.7507 82.9932 38.9273 83.1358 39.0818C83.1857 39.1464 83.2486 39.1998 83.3204 39.2386C83.3922 39.2774 83.4714 39.3006 83.5528 39.3068C83.7131 39.2895 83.8673 39.235 84.0029 39.1478C84.2258 39.0272 84.457 38.9226 84.6948 38.8348C84.983 38.7298 85.2881 38.6783 85.5948 38.6828C85.9063 38.6697 86.2129 38.7643 86.4629 38.9508C86.5754 39.0426 86.6646 39.1596 86.7233 39.2923C86.7821 39.4251 86.8086 39.5699 86.8009 39.7148C86.799 39.8687 86.7712 40.0211 86.7188 40.1658C86.6624 40.3291 86.5869 40.4852 86.4939 40.6308C86.3929 40.7938 86.2805 40.9495 86.1578 41.0968L82.3028 45.5318C82.2587 45.578 82.2247 45.6328 82.2028 45.6928C82.1853 45.7491 82.1768 45.8079 82.1778 45.8668C82.1813 46.0302 82.1977 46.193 82.2269 46.3538C82.253 46.5347 82.3041 46.7111 82.3789 46.8778C82.4489 47.0278 82.5369 47.1028 82.6439 47.1028H89.0208C89.4062 47.1028 89.5988 46.8362 89.5988 46.3028V45.8998C89.5988 45.3558 89.4062 45.0842 89.0208 45.0848" fill="black"/>
<path d="M97.4429 37.4276C96.8066 37.0233 96.0682 36.8086 95.3143 36.8086C94.5604 36.8086 93.8222 37.0233 93.1859 37.4276C92.5647 37.8746 92.0875 38.4932 91.8129 39.2076C91.1704 41.0217 91.1704 43.0015 91.8129 44.8156C92.086 45.533 92.5633 46.1546 93.1859 46.6036C93.8222 47.0079 94.5604 47.2226 95.3143 47.2226C96.0682 47.2226 96.8066 47.0079 97.4429 46.6036C98.066 46.1552 98.5435 45.5334 98.8159 44.8156C99.4584 43.0015 99.4584 41.0217 98.8159 39.2076C98.5421 38.4928 98.0647 37.874 97.4429 37.4276ZM96.4789 43.8406C96.4197 44.2175 96.2648 44.5728 96.0289 44.8726C95.9405 44.9755 95.8308 45.0581 95.7075 45.1148C95.5842 45.1714 95.45 45.2007 95.3143 45.2007C95.1786 45.2007 95.0446 45.1714 94.9213 45.1148C94.798 45.0581 94.6883 44.9755 94.5999 44.8726C94.3644 44.5726 94.2095 44.2173 94.1499 43.8406C93.9459 42.6298 93.9459 41.3934 94.1499 40.1826C94.2102 39.8085 94.365 39.456 94.5999 39.1586C94.6881 39.0554 94.7977 38.9725 94.921 38.9157C95.0444 38.8588 95.1785 38.8294 95.3143 38.8294C95.4501 38.8294 95.5844 38.8588 95.7078 38.9157C95.8311 38.9725 95.9407 39.0554 96.0289 39.1586C96.2641 39.4558 96.419 39.8084 96.4789 40.1826C96.6816 41.3935 96.6816 42.6297 96.4789 43.8406Z" fill="black"/>
<path d="M107.489 45.0838H104.294L106.879 42.1458C107.087 41.9029 107.277 41.6456 107.449 41.3758C107.612 41.1205 107.739 40.8439 107.827 40.5538C107.913 40.2617 107.957 39.9585 107.955 39.6538C107.965 39.2647 107.887 38.8783 107.727 38.5234C107.567 38.1685 107.329 37.8542 107.031 37.6038C106.272 37.024 105.328 36.7397 104.374 36.8038C103.988 36.8041 103.603 36.8429 103.225 36.9198C102.87 36.9918 102.521 37.0921 102.181 37.2198C101.91 37.3184 101.653 37.4529 101.418 37.6198C101.225 37.7658 101.128 37.9065 101.129 38.0418C101.137 38.2219 101.184 38.3982 101.266 38.5588C101.352 38.7507 101.469 38.9273 101.611 39.0818C101.661 39.1466 101.724 39.2001 101.796 39.2388C101.868 39.2776 101.947 39.3008 102.028 39.3068C102.188 39.2893 102.342 39.2349 102.478 39.1478C102.701 39.0274 102.932 38.9228 103.169 38.8348C103.457 38.7301 103.762 38.6786 104.069 38.6828C104.38 38.6699 104.686 38.7646 104.935 38.9508C105.048 39.0426 105.137 39.1596 105.196 39.2923C105.254 39.4251 105.281 39.5699 105.273 39.7148C105.271 39.8686 105.244 40.021 105.192 40.1658C105.135 40.3286 105.06 40.4845 104.968 40.6308C104.866 40.7936 104.753 40.9493 104.63 41.0968L100.776 45.5318C100.73 45.5776 100.695 45.6324 100.671 45.6928C100.654 45.7492 100.646 45.8079 100.647 45.8668C100.651 46.0301 100.667 46.193 100.695 46.3538C100.722 46.5345 100.773 46.7107 100.847 46.8778C100.918 47.0278 101.005 47.1028 101.112 47.1028H107.489C107.875 47.1028 108.068 46.8362 108.068 46.3028V45.8998C108.068 45.3558 107.875 45.0832 107.489 45.0838Z" fill="black"/>
<path d="M117.367 43.2672H116.837V37.3612C116.836 37.2836 116.81 37.2084 116.764 37.1459C116.718 37.0834 116.654 37.0367 116.58 37.0122C116.328 36.9227 116.06 36.8836 115.793 36.8972H115.119C114.826 36.8896 114.533 36.9087 114.243 36.9542C114.157 36.9689 114.075 37.001 114.002 37.0487C113.929 37.0963 113.866 37.1584 113.818 37.2312L109.625 43.4992C109.602 43.5224 109.588 43.5533 109.585 43.5862C109.579 43.6249 109.577 43.664 109.577 43.7032C109.582 43.8767 109.601 44.0497 109.634 44.2202C109.665 44.4186 109.724 44.6116 109.81 44.7932C109.89 44.9592 109.973 45.0402 110.059 45.0402H114.284V46.6692C114.284 46.7461 114.308 46.821 114.353 46.8837C114.398 46.9464 114.461 46.9937 114.533 47.0192C114.793 47.1122 115.069 47.1517 115.344 47.1352H115.793C116.065 47.1513 116.337 47.1119 116.593 47.0192C116.666 46.9935 116.728 46.9461 116.773 46.8835C116.817 46.8208 116.842 46.746 116.842 46.6692V45.0402H117.372C117.444 45.0465 117.516 45.0337 117.581 45.0031C117.646 44.9726 117.701 44.9253 117.742 44.8662C117.829 44.6954 117.868 44.5042 117.854 44.3132V43.9942C117.854 43.5095 117.693 43.2672 117.372 43.2672M114.344 40.3672C114.309 40.6079 114.29 40.8508 114.289 41.0942V43.2622H112.089L114.41 39.7292L114.463 39.7432C114.41 39.9485 114.37 40.1569 114.342 40.3672" fill="black"/>
<path d="M86.2559 32.9616C86.1091 32.9705 85.9624 32.9455 85.8269 32.8886C85.7868 32.8711 85.7526 32.8423 85.7286 32.8057C85.7047 32.7691 85.6919 32.7263 85.6919 32.6826V25.5206C85.6919 25.2766 85.8269 25.1536 86.0919 25.1536H88.5359C89.2934 25.0977 90.0472 25.302 90.6729 25.7326C90.8989 25.9579 91.0783 26.2257 91.2007 26.5205C91.3231 26.8153 91.386 27.1314 91.386 27.4506C91.386 27.7698 91.3231 28.0858 91.2007 28.3806C91.0783 28.6754 90.8989 28.9432 90.6729 29.1686C90.047 29.5987 89.2933 29.8029 88.5359 29.7476H87.0249V32.6826C87.0255 32.7255 87.0137 32.7678 86.991 32.8043C86.9683 32.8408 86.9356 32.87 86.8969 32.8886C86.7548 32.9471 86.6012 32.972 86.4479 32.9616H86.2559ZM87.0299 28.7236H88.5409C88.9471 28.7599 89.3532 28.6538 89.6898 28.4236C89.8162 28.2959 89.913 28.142 89.9735 27.9729C90.034 27.8037 90.0567 27.6234 90.0399 27.4446C90.0563 27.2676 90.0333 27.0891 89.9728 26.922C89.9123 26.7548 89.8157 26.6031 89.6898 26.4776C89.3534 26.2469 88.9471 26.1408 88.5409 26.1776H87.0299V28.7236Z" fill="black"/>
<path d="M93.3429 32.9393C93.0739 32.9393 92.9429 32.8163 92.9429 32.5723V25.5223C92.9429 25.2763 93.0779 25.1553 93.3429 25.1553H97.6428C97.8298 25.1553 97.9249 25.2873 97.9249 25.5553V25.7783C97.9249 26.0453 97.8248 26.1783 97.6428 26.1783H94.2769V28.4473H97.2859C97.4739 28.4473 97.5688 28.5813 97.5688 28.8473V29.0703C97.5688 29.3373 97.4689 29.4703 97.2859 29.4703H94.2769V31.9173H97.6549C97.8419 31.9173 97.9369 32.0503 97.9369 32.3173V32.5393C97.9369 32.8053 97.8419 32.9393 97.6549 32.9393H93.3429Z" fill="black"/>
<path d="M100.454 32.962C100.307 32.9708 100.161 32.9458 100.025 32.889C99.9851 32.8715 99.9509 32.8427 99.9269 32.8061C99.9029 32.7695 99.8902 32.7267 99.8901 32.683V25.521C99.8901 25.277 100.025 25.154 100.29 25.154H102.71C103.472 25.0978 104.232 25.2935 104.872 25.711C105.112 25.907 105.303 26.1577 105.426 26.4421C105.55 26.7265 105.604 27.0364 105.584 27.346C105.59 27.6444 105.529 27.9403 105.405 28.212C105.289 28.4617 105.112 28.6781 104.89 28.841C104.643 29.0166 104.36 29.1361 104.061 29.191V29.236C104.287 29.298 104.487 29.4304 104.632 29.614C104.807 29.8336 104.949 30.077 105.055 30.337L106.026 32.537C106.064 32.6049 106.085 32.6811 106.087 32.759C106.087 32.826 106.042 32.876 105.952 32.91C105.808 32.9501 105.659 32.967 105.51 32.96H105.276C105.155 32.9626 105.035 32.9436 104.92 32.904C104.833 32.8754 104.759 32.8161 104.712 32.737L103.729 30.457C103.654 30.2802 103.551 30.1167 103.423 29.973C103.302 29.8475 103.149 29.7573 102.98 29.712C102.755 29.6546 102.524 29.6283 102.292 29.634H101.224V32.681C101.224 32.724 101.213 32.7663 101.19 32.8028C101.167 32.8393 101.134 32.8685 101.095 32.887C100.953 32.9457 100.799 32.9707 100.646 32.96L100.454 32.962ZM101.229 28.646H102.74C103.143 28.6806 103.547 28.5811 103.888 28.363C104.013 28.2469 104.109 28.1038 104.17 27.9447C104.231 27.7855 104.254 27.6146 104.238 27.445C104.255 27.2679 104.232 27.0895 104.171 26.9223C104.111 26.7551 104.014 26.6034 103.888 26.478C103.552 26.2474 103.146 26.1413 102.74 26.178H101.229V28.646Z" fill="black"/>
<path d="M110.919 33.0169C110.033 33.0655 109.157 32.8193 108.426 32.3169C108.131 32.0967 107.894 31.8078 107.736 31.4754C107.577 31.1429 107.502 30.7769 107.517 30.4089V25.4089C107.517 25.3652 107.53 25.3225 107.554 25.2859C107.578 25.2494 107.612 25.2205 107.652 25.2029C107.792 25.1458 107.943 25.1212 108.094 25.1309H108.279C108.432 25.12 108.585 25.1446 108.727 25.2029C108.766 25.2216 108.798 25.2509 108.821 25.2873C108.844 25.3238 108.856 25.3659 108.856 25.4089V30.3809C108.846 30.6081 108.891 30.8343 108.987 31.0404C109.083 31.2465 109.228 31.4264 109.408 31.5649C109.865 31.8442 110.39 31.992 110.925 31.992C111.46 31.992 111.985 31.8442 112.442 31.5649C112.623 31.4265 112.767 31.2466 112.863 31.0405C112.96 30.8345 113.005 30.6082 112.995 30.3809V25.4099C112.995 25.3662 113.008 25.3235 113.032 25.2869C113.056 25.2504 113.09 25.2215 113.13 25.2039C113.27 25.1467 113.422 25.1221 113.573 25.1319H113.756C113.909 25.1211 114.063 25.1458 114.205 25.2039C114.244 25.2225 114.277 25.2517 114.299 25.2882C114.322 25.3247 114.334 25.3669 114.334 25.4099V30.4099C114.349 30.778 114.273 31.144 114.115 31.4764C113.956 31.8089 113.719 32.0977 113.424 32.3179C112.691 32.8204 111.812 33.0665 110.924 33.0179M110.2 24.5879C110.11 24.592 110.021 24.5788 109.936 24.5489C109.874 24.5239 109.843 24.4879 109.843 24.4429C109.844 24.4074 109.855 24.3729 109.874 24.3429C109.904 24.2946 109.944 24.2528 109.99 24.2199L110.654 23.5739C110.754 23.4678 110.881 23.391 111.022 23.3519C111.216 23.3096 111.414 23.2911 111.612 23.2969C111.789 23.2931 111.966 23.3079 112.14 23.3409C112.271 23.3709 112.34 23.4219 112.34 23.4969C112.333 23.5617 112.302 23.6214 112.253 23.6639C112.141 23.7633 112.017 23.8492 111.885 23.9199L111.1 24.3539C110.975 24.4361 110.838 24.4994 110.694 24.5419C110.533 24.5766 110.368 24.5917 110.203 24.5869" fill="black"/>
</svg>
