<svg width="688" height="200" viewBox="0 0 688 200" fill="none" xmlns="http://www.w3.org/2000/svg">
<rect x="108.232" y="180.386" width="150.322" height="48.1029" transform="rotate(-90 108.232 180.386)" fill="#4B9C60"/>
<rect x="54.1158" y="180.386" width="120.257" height="48.1029" transform="rotate(-90 54.1158 180.386)" fill="#FFC107"/>
<rect y="180.386" width="180.386" height="48.1029" transform="rotate(-90 0 180.386)" fill="#007BFF"/>
<path d="M132.61 54.1164C132.61 54.1164 99.3511 51.9802 85.2588 64.6388C66.5435 81.4502 100.93 116.361 85.2588 136.041C71.0935 153.83 23.6269 151.825 23.6269 151.825" stroke="#00448E" stroke-width="2" stroke-linecap="round" stroke-dasharray="4 4"/>
<rect x="125.846" y="48.103" width="12.0257" height="12.0257" rx="4" fill="#00448E"/>
<rect x="125.846" y="48.103" width="12.0257" height="12.0257" rx="4" fill="#00448E"/>
<rect x="125.846" y="48.103" width="12.0257" height="12.0257" rx="4" fill="#00448E"/>
<rect x="82.6769" y="118.754" width="12.0257" height="12.0257" rx="4" fill="#00448E"/>
<rect x="82.6769" y="118.754" width="12.0257" height="12.0257" rx="4" fill="#00448E"/>
<rect x="82.6769" y="118.754" width="12.0257" height="12.0257" rx="4" fill="#00448E"/>
<rect x="20.6205" y="145.812" width="12.0257" height="12.0257" rx="4" fill="#00448E"/>
<rect x="20.6205" y="145.812" width="12.0257" height="12.0257" rx="4" fill="#00448E"/>
<rect x="20.6205" y="145.812" width="12.0257" height="12.0257" rx="4" fill="#00448E"/>
<path d="M615.738 135.494C615.738 128.76 616.748 122.891 618.769 117.888C620.885 112.789 623.627 108.556 626.994 105.189C630.362 101.822 634.21 99.2724 638.539 97.5407C642.965 95.809 647.486 94.9432 652.104 94.9432C662.879 94.9432 671.393 98.2623 677.647 104.9C683.9 111.442 687.027 121.111 687.027 133.907C687.027 135.157 686.979 136.552 686.883 138.092C686.786 139.535 686.69 140.833 686.594 141.988H637.818C638.299 146.413 640.367 149.925 644.023 152.522C647.679 155.12 652.585 156.419 658.742 156.419C662.687 156.419 666.535 156.082 670.287 155.409C674.135 154.639 677.262 153.725 679.667 152.667L682.553 170.128C681.399 170.705 679.86 171.283 677.935 171.86C676.011 172.437 673.847 172.918 671.441 173.303C669.133 173.784 666.631 174.169 663.937 174.457C661.244 174.746 658.55 174.89 655.856 174.89C649.025 174.89 643.061 173.88 637.962 171.86C632.959 169.839 628.774 167.098 625.407 163.634C622.136 160.075 619.683 155.89 618.047 151.079C616.508 146.269 615.738 141.074 615.738 135.494ZM666.246 127.268C666.15 125.44 665.813 123.661 665.236 121.929C664.755 120.197 663.937 118.658 662.783 117.311C661.725 115.964 660.33 114.858 658.598 113.992C656.962 113.126 654.894 112.693 652.393 112.693C649.988 112.693 647.919 113.126 646.187 113.992C644.456 114.762 643.013 115.82 641.858 117.167C640.704 118.514 639.79 120.101 639.116 121.929C638.539 123.661 638.106 125.44 637.818 127.268H666.246Z" fill="#D83225"/>
<path d="M606.377 170.272C602.721 171.331 598.007 172.293 592.235 173.159C586.463 174.121 580.402 174.602 574.052 174.602C567.606 174.602 562.219 173.736 557.89 172.004C553.656 170.272 550.289 167.867 547.788 164.789C545.287 161.614 543.507 157.862 542.448 153.533C541.39 149.203 540.861 144.441 540.861 139.246V96.9635H562.363V136.648C562.363 143.575 563.277 148.578 565.105 151.657C566.933 154.735 570.348 156.274 575.351 156.274C576.89 156.274 578.526 156.226 580.257 156.13C581.989 155.938 583.528 155.745 584.875 155.553V96.9635H606.377V170.272Z" fill="#D83225"/>
<path d="M481.442 132.463C481.442 144.489 486.3 150.502 496.017 150.502C498.23 150.502 500.298 150.213 502.223 149.636C504.147 149.059 505.782 148.386 507.129 147.616V113.27C506.071 113.078 504.82 112.934 503.377 112.837C501.934 112.645 500.25 112.549 498.326 112.549C492.65 112.549 488.417 114.425 485.627 118.177C482.837 121.929 481.442 126.691 481.442 132.463ZM528.631 163.346C528.631 175.756 525.456 184.944 519.107 190.909C512.853 196.97 503.136 200 489.956 200C485.338 200 480.72 199.567 476.103 198.701C471.485 197.932 467.204 196.873 463.259 195.526L467.011 177.488C470.378 178.835 473.89 179.893 477.546 180.663C481.298 181.432 485.531 181.817 490.245 181.817C496.402 181.817 500.731 180.47 503.233 177.776C505.83 175.083 507.129 171.619 507.129 167.386V164.644C504.82 165.703 502.415 166.52 499.914 167.098C497.508 167.579 494.863 167.819 491.977 167.819C481.49 167.819 473.457 164.741 467.877 158.583C462.297 152.33 459.507 143.623 459.507 132.463C459.507 126.884 460.373 121.833 462.105 117.311C463.836 112.693 466.338 108.749 469.609 105.478C472.976 102.207 477.065 99.7054 481.875 97.9737C486.685 96.1457 492.121 95.2318 498.182 95.2318C500.779 95.2318 503.425 95.3761 506.119 95.6647C508.909 95.8571 511.651 96.1457 514.344 96.5306C517.038 96.9154 519.588 97.3964 521.993 97.9737C524.494 98.4547 526.707 98.9838 528.631 99.5611V163.346Z" fill="#D83225"/>
<path d="M450.118 172.87H428.616V96.9635H450.118V172.87ZM452.138 75.0286C452.138 78.973 450.84 82.0997 448.242 84.4086C445.741 86.6214 442.758 87.7277 439.295 87.7277C435.831 87.7277 432.801 86.6214 430.203 84.4086C427.702 82.0997 426.451 78.973 426.451 75.0286C426.451 71.0841 427.702 68.0055 430.203 65.7928C432.801 63.4838 435.831 62.3294 439.295 62.3294C442.758 62.3294 445.741 63.4838 448.242 65.7928C450.84 68.0055 452.138 71.0841 452.138 75.0286Z" fill="#D83225"/>
<path d="M380.557 155.697C383.731 155.697 386.329 155.457 388.349 154.976C390.466 154.398 392.149 153.677 393.4 152.811C394.651 151.849 395.517 150.743 395.998 149.492C396.479 148.241 396.719 146.846 396.719 145.307C396.719 142.036 395.18 139.342 392.101 137.226C389.023 135.013 383.731 132.656 376.227 130.154C372.956 129 369.685 127.701 366.414 126.258C363.143 124.719 360.209 122.843 357.612 120.63C355.014 118.321 352.897 115.579 351.262 112.405C349.626 109.134 348.809 105.189 348.809 100.571C348.809 95.9533 349.675 91.8165 351.406 88.1606C353.138 84.4086 355.591 81.2338 358.766 78.6363C361.941 76.0387 365.789 74.0665 370.311 72.7196C374.832 71.2765 379.931 70.555 385.607 70.555C392.342 70.555 398.162 71.2765 403.069 72.7196C407.975 74.1627 412.016 75.7501 415.191 77.4818L408.697 95.2318C405.907 93.7887 402.78 92.538 399.317 91.4797C395.95 90.3253 391.861 89.748 387.051 89.748C381.663 89.748 377.767 90.5177 375.361 92.057C373.053 93.5001 371.898 95.7609 371.898 98.8395C371.898 100.667 372.331 102.207 373.197 103.457C374.063 104.708 375.265 105.863 376.805 106.921C378.44 107.883 380.268 108.797 382.288 109.663C384.405 110.432 386.714 111.25 389.215 112.116C394.41 114.04 398.932 115.964 402.78 117.888C406.628 119.716 409.803 121.881 412.305 124.382C414.902 126.883 416.826 129.818 418.077 133.185C419.328 136.552 419.953 140.641 419.953 145.451C419.953 154.783 416.682 162.047 410.14 167.242C403.598 172.341 393.737 174.89 380.557 174.89C376.131 174.89 372.139 174.602 368.579 174.024C365.019 173.543 361.845 172.918 359.055 172.148C356.361 171.379 354.004 170.561 351.983 169.695C350.059 168.829 348.424 168.012 347.077 167.242L353.427 149.348C356.409 150.983 360.065 152.474 364.394 153.821C368.819 155.072 374.207 155.697 380.557 155.697Z" fill="#D83225"/>
<path d="M271.173 135.494C271.173 128.76 272.183 122.891 274.203 117.888C276.32 112.789 279.062 108.556 282.429 105.189C285.796 101.822 289.644 99.2724 293.974 97.5407C298.399 95.809 302.921 94.9432 307.539 94.9432C318.314 94.9432 326.828 98.2623 333.081 104.9C339.335 111.442 342.461 121.111 342.461 133.907C342.461 135.157 342.413 136.552 342.317 138.092C342.221 139.535 342.125 140.833 342.028 141.988H293.252C293.733 146.413 295.802 149.925 299.457 152.522C303.113 155.12 308.02 156.419 314.177 156.419C318.121 156.419 321.97 156.082 325.722 155.409C329.57 154.639 332.696 153.725 335.102 152.667L337.988 170.128C336.833 170.705 335.294 171.283 333.37 171.86C331.446 172.437 329.281 172.918 326.876 173.303C324.567 173.784 322.066 174.169 319.372 174.457C316.678 174.746 313.984 174.89 311.291 174.89C304.46 174.89 298.495 173.88 293.396 171.86C288.394 169.839 284.209 167.098 280.842 163.634C277.571 160.075 275.117 155.89 273.482 151.079C271.942 146.269 271.173 141.074 271.173 135.494ZM321.681 127.268C321.585 125.44 321.248 123.661 320.671 121.929C320.19 120.197 319.372 118.658 318.217 117.311C317.159 115.964 315.764 114.858 314.033 113.992C312.397 113.126 310.329 112.693 307.827 112.693C305.422 112.693 303.354 113.126 301.622 113.992C299.89 114.762 298.447 115.82 297.293 117.167C296.138 118.514 295.224 120.101 294.551 121.929C293.974 123.661 293.541 125.44 293.252 127.268H321.681Z" fill="#D83225"/>
<path d="M226.721 155.697C229.896 155.697 232.494 155.457 234.514 154.976C236.63 154.398 238.314 153.677 239.565 152.811C240.815 151.849 241.681 150.743 242.162 149.492C242.643 148.241 242.884 146.846 242.884 145.307C242.884 142.036 241.344 139.342 238.266 137.226C235.187 135.013 229.896 132.656 222.392 130.154C219.121 129 215.85 127.701 212.579 126.258C209.308 124.719 206.374 122.843 203.776 120.63C201.179 118.321 199.062 115.579 197.426 112.405C195.791 109.134 194.973 105.189 194.973 100.571C194.973 95.9533 195.839 91.8165 197.571 88.1606C199.303 84.4086 201.756 81.2338 204.931 78.6363C208.105 76.0387 211.954 74.0665 216.475 72.7196C220.997 71.2765 226.096 70.555 231.772 70.555C238.506 70.555 244.327 71.2765 249.233 72.7196C254.14 74.1627 258.18 75.7501 261.355 77.4818L254.861 95.2318C252.071 93.7887 248.945 92.538 245.481 91.4797C242.114 90.3253 238.025 89.748 233.215 89.748C227.828 89.748 223.931 90.5177 221.526 92.057C219.217 93.5001 218.063 95.7609 218.063 98.8395C218.063 100.667 218.496 102.207 219.361 103.457C220.227 104.708 221.43 105.863 222.969 106.921C224.605 107.883 226.433 108.797 228.453 109.663C230.569 110.432 232.878 111.25 235.38 112.116C240.575 114.04 245.096 115.964 248.945 117.888C252.793 119.716 255.968 121.881 258.469 124.382C261.067 126.883 262.991 129.818 264.241 133.185C265.492 136.552 266.117 140.641 266.117 145.451C266.117 154.783 262.846 162.047 256.304 167.242C249.762 172.341 239.901 174.89 226.721 174.89C222.296 174.89 218.303 174.602 214.744 174.024C211.184 173.543 208.009 172.918 205.219 172.148C202.525 171.379 200.168 170.561 198.148 169.695C196.224 168.829 194.588 168.012 193.242 167.242L199.591 149.348C202.574 150.983 206.229 152.474 210.559 153.821C214.984 155.072 220.372 155.697 226.721 155.697Z" fill="#D83225"/>
</svg>
