<svg width="81" height="40" viewBox="0 0 81 40" fill="none" xmlns="http://www.w3.org/2000/svg">
<path d="M24.7993 22.869C22.5677 22.869 20.8239 21.7607 20.75 19.6621H23.4397C23.4401 19.8262 23.4745 19.9883 23.5406 20.1385C23.6068 20.2886 23.7033 20.4234 23.824 20.5344C23.9448 20.6455 24.0872 20.7303 24.2423 20.7837C24.3974 20.837 24.5619 20.8577 24.7254 20.8445C25.4645 20.8445 25.9374 20.4749 25.9374 19.869C25.9374 17.948 20.75 18.9823 20.7795 15.3023C20.7795 13.3368 22.3904 12.2432 24.563 12.2432C26.824 12.2432 28.3464 13.3663 28.4498 15.3467H25.7156C25.7101 15.1966 25.6744 15.049 25.6108 14.9129C25.5472 14.7767 25.4569 14.6548 25.3453 14.5541C25.2336 14.4535 25.103 14.3764 24.961 14.3272C24.819 14.278 24.6685 14.2578 24.5186 14.2678C24.3841 14.2463 24.2464 14.2549 24.1156 14.2931C23.9849 14.3313 23.8642 14.398 23.7624 14.4886C23.6605 14.5791 23.5801 14.6911 23.5268 14.8165C23.4736 14.9419 23.4488 15.0776 23.4544 15.2137C23.4544 17.0167 28.5827 16.2039 28.5827 19.6769C28.5662 20.1429 28.4523 20.6002 28.2483 21.0195C28.0444 21.4388 27.7549 21.8108 27.3985 22.1115C27.0421 22.4122 26.6267 22.6349 26.1791 22.7654C25.7314 22.8959 25.2614 22.9312 24.7993 22.869Z" fill="#E31918"/>
<path d="M33.7998 22.8834C33.2386 22.9119 32.6778 22.821 32.1544 22.6169C31.6309 22.4128 31.1566 22.1001 30.7628 21.6993C30.369 21.2985 30.0647 20.8189 29.8698 20.2919C29.6749 19.7649 29.594 19.2026 29.6323 18.642C29.5914 18.0809 29.6707 17.5175 29.8646 16.9894C30.0586 16.4612 30.3629 15.9805 30.7572 15.5791C31.1515 15.1778 31.6268 14.8651 32.1514 14.6618C32.6761 14.4586 33.238 14.3694 33.7998 14.4003C34.3478 14.3679 34.8964 14.452 35.4096 14.647C35.9227 14.8421 36.3887 15.1436 36.7769 15.5317C37.1651 15.9199 37.4666 16.3859 37.6616 16.8991C37.8566 17.4122 37.9407 17.9608 37.9084 18.5088C37.9079 18.7558 37.8931 19.0025 37.864 19.2478H32.1446C32.1374 19.4561 32.1728 19.6638 32.2488 19.8579C32.3248 20.0521 32.4396 20.2286 32.5864 20.3767C32.7331 20.5249 32.9086 20.6414 33.102 20.7192C33.2954 20.797 33.5027 20.8344 33.7111 20.8291C33.9857 20.8468 34.2591 20.7797 34.4943 20.637C34.7296 20.4942 34.9153 20.2827 35.0265 20.031H37.7163C37.4882 20.8827 36.975 21.6305 36.2623 22.1496C35.5496 22.6687 34.6804 22.9277 33.7998 22.8834ZM32.1594 17.8439H35.3221C35.3219 17.6462 35.2806 17.4506 35.2008 17.2697C35.1209 17.0888 35.0043 16.9265 34.8584 16.793C34.7124 16.6596 34.5403 16.558 34.353 16.4946C34.1657 16.4313 33.9672 16.4076 33.7702 16.4251C33.3713 16.4112 32.9823 16.5505 32.6827 16.8143C32.3832 17.0781 32.196 17.4465 32.1594 17.8439Z" fill="#E31918"/>
<path d="M42.9932 22.869C40.7615 22.869 39.0177 21.7607 38.9438 19.6621H41.6335C41.634 19.8262 41.6684 19.9883 41.7345 20.1385C41.8007 20.2886 41.8971 20.4234 42.0179 20.5344C42.1387 20.6455 42.2811 20.7303 42.4362 20.7837C42.5913 20.837 42.7558 20.8577 42.9193 20.8445C43.6583 20.8445 44.1312 20.4749 44.1312 19.869C44.1312 17.948 38.9438 18.9823 38.9734 15.3023C38.9734 13.3368 40.5842 12.2432 42.7568 12.2432C45.0179 12.2432 46.5403 13.3663 46.6436 15.3467H43.9095C43.9039 15.1966 43.8683 15.049 43.8047 14.9129C43.7411 14.7768 43.6508 14.6548 43.5392 14.5542C43.4275 14.4536 43.2969 14.3764 43.1549 14.3272C43.0129 14.278 42.8625 14.2578 42.7125 14.2678C42.578 14.2463 42.4403 14.2549 42.3096 14.2931C42.1788 14.3313 42.0581 14.398 41.9563 14.4886C41.8544 14.5791 41.774 14.6911 41.7207 14.8165C41.6675 14.9419 41.6427 15.0776 41.6483 15.2137C41.6483 17.0167 46.7766 16.2039 46.7766 19.6769C46.7601 20.1429 46.6462 20.6002 46.4422 21.0196C46.2382 21.4389 45.9488 21.8108 45.5924 22.1115C45.236 22.4122 44.8206 22.6349 44.373 22.7654C43.9253 22.8959 43.4553 22.9312 42.9932 22.869Z" fill="#E31918"/>
<path d="M48.0922 12.3005C48.0624 11.9979 48.1249 11.6933 48.2714 11.4268C48.4179 11.1603 48.6415 10.9443 48.913 10.8073C49.1845 10.6702 49.4911 10.6185 49.7925 10.6589C50.0939 10.6993 50.3761 10.8299 50.6019 11.0336C50.8278 11.2373 50.9867 11.5045 51.0578 11.8002C51.129 12.0958 51.1091 12.4061 51.0006 12.6903C50.8922 12.9744 50.7004 13.2191 50.4504 13.3922C50.2003 13.5653 49.9038 13.6587 49.5996 13.6602C49.4103 13.6751 49.2198 13.6513 49.0399 13.5901C48.8601 13.529 48.6946 13.4318 48.5535 13.3046C48.4124 13.1773 48.2988 13.0227 48.2195 12.8501C48.1401 12.6774 48.0969 12.4904 48.0922 12.3005ZM48.3287 14.5173H50.8559V22.7639H48.3287V14.5173Z" fill="#E31918"/>
<path d="M55.8223 14.3977C56.3215 14.3708 56.819 14.4755 57.265 14.7011C57.7111 14.9267 58.0902 15.2654 58.3644 15.6834V14.5159H60.8915V22.7476C60.9339 23.298 60.856 23.8509 60.6631 24.368C60.4703 24.8852 60.1671 25.3541 59.7747 25.7423C59.3824 26.1305 58.9102 26.4285 58.391 26.6158C57.8718 26.8031 57.318 26.875 56.7682 26.8267C55.7773 26.9628 54.7728 26.7022 53.973 26.1017C53.1732 25.5011 52.6428 24.6091 52.4971 23.6196H54.9949C55.1139 23.9524 55.3427 24.2346 55.6435 24.42C55.9444 24.6053 56.2994 24.6827 56.6501 24.6393C57.6106 24.6393 58.3645 24.1369 58.3645 22.7476V21.5802C58.0878 21.9966 57.7086 22.335 57.2635 22.5627C56.8183 22.7905 56.3221 22.8999 55.8224 22.8806C55.2977 22.8584 54.7831 22.7282 54.3109 22.4982C53.8387 22.2683 53.4189 21.9435 53.0778 21.5441C52.7367 21.1447 52.4815 20.6793 52.3282 20.177C52.175 19.6746 52.1269 19.146 52.187 18.6242C52.1272 18.1041 52.1757 17.5771 52.3294 17.0766C52.4831 16.5761 52.7387 16.1127 53.0801 15.7158C53.4216 15.3188 53.8415 14.9968 54.3134 14.7699C54.7853 14.5431 55.2991 14.4164 55.8223 14.3977ZM56.5613 16.5997C56.3063 16.6029 56.0547 16.6593 55.8226 16.7651C55.5906 16.871 55.3831 17.0241 55.2135 17.2145C55.0438 17.405 54.9157 17.6288 54.8374 17.8715C54.759 18.1143 54.7321 18.3707 54.7583 18.6244C54.7318 18.8797 54.7584 19.1376 54.8363 19.3822C54.9143 19.6267 55.0419 19.8524 55.2112 20.0453C55.3804 20.2382 55.5878 20.394 55.8201 20.503C56.0524 20.612 56.3048 20.6718 56.5613 20.6787C56.8175 20.6748 57.0701 20.6176 57.3029 20.5106C57.5357 20.4036 57.7436 20.2491 57.9133 20.0572C58.083 19.8652 58.2108 19.64 58.2884 19.3958C58.3661 19.1516 58.392 18.894 58.3644 18.6392C58.392 18.3845 58.3661 18.1268 58.2885 17.8826C58.2108 17.6385 58.083 17.4132 57.9133 17.2212C57.7436 17.0293 57.5357 16.8748 57.3029 16.7678C57.0701 16.6608 56.8175 16.6035 56.5613 16.5997Z" fill="#E31918"/>
<path d="M70.8669 22.7622H68.3397V21.639C68.0515 22.027 67.674 22.3397 67.2393 22.5506C66.8045 22.7616 66.3252 22.8646 65.8421 22.8508C65.3916 22.862 64.9439 22.7759 64.5295 22.5985C64.1152 22.4211 63.7439 22.1566 63.441 21.8228C63.1381 21.4891 62.9106 21.094 62.7741 20.6644C62.6376 20.2349 62.5952 19.781 62.6499 19.3336V14.5156H65.1622V18.9937C65.1416 19.2147 65.1673 19.4377 65.2378 19.6482C65.3083 19.8588 65.4219 20.0523 65.5715 20.2164C65.721 20.3806 65.9031 20.5117 66.1062 20.6014C66.3093 20.6911 66.5289 20.7375 66.751 20.7375C66.973 20.7375 67.1926 20.6911 67.3957 20.6014C67.5988 20.5117 67.7809 20.3806 67.9305 20.2164C68.08 20.0523 68.1936 19.8588 68.2641 19.6482C68.3346 19.4377 68.3603 19.2147 68.3397 18.9937V14.5156H70.8669V22.7622Z" fill="#E31918"/>
<path d="M76.3511 22.8834C75.7899 22.9119 75.2291 22.821 74.7057 22.6169C74.1822 22.4128 73.7079 22.1001 73.3141 21.6993C72.9203 21.2985 72.616 20.8189 72.4211 20.2919C72.2262 19.7649 72.1452 19.2026 72.1835 18.642C72.1427 18.0809 72.2219 17.5175 72.4159 16.9893C72.6099 16.4612 72.9142 15.9805 73.3085 15.5791C73.7028 15.1778 74.1781 14.8651 74.7027 14.6618C75.2274 14.4586 75.7893 14.3694 76.3511 14.4003C76.8991 14.3679 77.4477 14.452 77.9609 14.6471C78.4741 14.8421 78.9401 15.1436 79.3282 15.5318C79.7164 15.92 80.0179 16.386 80.2129 16.8992C80.408 17.4123 80.492 17.961 80.4596 18.509C80.4592 18.7559 80.4444 19.0027 80.4153 19.2479H74.6959C74.6886 19.4563 74.7241 19.6639 74.8001 19.8581C74.876 20.0522 74.9909 20.2288 75.1377 20.3769C75.2844 20.525 75.4598 20.6416 75.6533 20.7193C75.8467 20.7971 76.054 20.8346 76.2624 20.8293C76.537 20.8469 76.8104 20.7799 77.0456 20.6371C77.2809 20.4944 77.4666 20.2829 77.5778 20.0312H80.2676C80.0395 20.8829 79.5263 21.6306 78.8136 22.1497C78.1008 22.6687 77.2317 22.9277 76.3511 22.8834ZM74.7107 17.8439H77.8734C77.8732 17.6462 77.8319 17.4506 77.752 17.2697C77.6722 17.0888 77.5556 16.9265 77.4097 16.793C77.2637 16.6596 77.0916 16.558 76.9043 16.4947C76.717 16.4313 76.5185 16.4076 76.3215 16.4251C75.9226 16.4112 75.5335 16.5505 75.234 16.8143C74.9345 17.0781 74.7473 17.4465 74.7107 17.8439Z" fill="#E31918"/>
<path d="M16.2591 9.76905C16.4468 9.73745 16.6392 9.74546 16.8236 9.79258C16.9104 9.81538 16.9944 9.84779 17.074 9.88922L16.9873 9.80769C16.8531 9.69554 16.6956 9.61463 16.5262 9.57082C16.3417 9.52366 16.1494 9.51565 15.9616 9.54728L14.8838 9.71988C14.8917 9.77961 14.9021 9.86877 14.9122 9.9848L16.2591 9.76905Z" fill="#0B7F42"/>
<path d="M0.309982 20.7987V13.7744C0.310864 13.5747 0.349525 13.377 0.423925 13.1917C0.498348 13.0054 0.60336 12.8328 0.734629 12.6811C0.865984 12.5283 1.02173 12.3984 1.19553 12.2965C1.36951 12.1941 1.56093 12.1248 1.76012 12.0921L3.89201 11.7506C3.90264 11.6286 3.91346 11.5355 3.92112 11.4766L1.46287 11.8703C1.26367 11.903 1.07225 11.9723 0.898285 12.0747C0.724478 12.1766 0.568736 12.3065 0.43738 12.4592C0.30611 12.611 0.201098 12.7836 0.126675 12.9699C0.0522676 13.1552 0.0135939 13.3529 0.0126953 13.5525V21.7595L0.309982 21.6825V20.7987Z" fill="#0B7F42"/>
<path d="M0.423967 23.6897C0.347357 23.5179 0.308501 23.3316 0.310024 23.1434V22.9186L0.0127377 22.8799V22.9217C0.0112266 23.1099 0.0500945 23.2961 0.126718 23.468C0.19818 23.6266 0.304363 23.7671 0.437422 23.8791C0.470179 23.9065 0.50445 23.9321 0.540074 23.9557L0.734635 24.1009L0.647968 24.0194C0.554941 23.9232 0.479169 23.8116 0.423967 23.6897Z" fill="#0B7F42"/>
<path d="M23.3172 28.9169V28.4432C23.3082 28.5131 23.2794 28.579 23.2342 28.6331C23.1512 28.7288 23.0473 28.8042 22.9305 28.8534C22.7706 28.9242 22.6021 28.9735 22.4293 29.0001L18.8553 29.6024L15.2814 30.2047L11.7074 30.8071L8.13345 31.4094C7.93132 31.4425 7.72649 31.4562 7.52175 31.4505C7.31856 31.4456 7.11617 31.4231 6.91684 31.3833C6.73508 31.3481 6.5575 31.2939 6.38701 31.2217C6.24536 31.1639 6.11478 31.0821 6.00104 30.9798L4.86579 29.8966L3.73057 28.8135L2.59535 27.7304L1.46014 26.6472C1.37567 26.5753 1.31868 26.4763 1.29883 26.3672V26.9158C1.31868 27.025 1.37567 27.1239 1.46014 27.1958L2.59535 28.279L3.73057 29.3621L4.86579 30.4453L6.00104 31.5284C6.11476 31.6308 6.24535 31.7127 6.38701 31.7705C6.55751 31.8427 6.73508 31.8969 6.91684 31.9321C7.11617 31.9719 7.31856 31.9944 7.52175 31.9993C7.72649 32.005 7.93131 31.9913 8.13345 31.9582L11.7074 31.3559L15.2814 30.7536L18.8553 30.1513L22.4293 29.5489C22.6021 29.5223 22.7706 29.473 22.9305 29.4023C23.0473 29.353 23.1512 29.2776 23.2342 29.1819C23.2655 29.1458 23.289 29.1037 23.3033 29.0581C23.3176 29.0125 23.3223 28.9644 23.3172 28.9169Z" fill="#0D4E7A"/>
<path d="M1.75948 24.3572L5.38444 23.7765L9.00936 23.1959L12.6342 22.6152L16.2591 22.0346C16.4583 22.0019 16.6497 21.9326 16.8237 21.8302C16.9975 21.7284 17.1533 21.5984 17.2846 21.4457C17.4159 21.2939 17.5209 21.1213 17.5954 20.935C17.6697 20.7497 17.7084 20.552 17.7093 20.3524V10.9868C17.7108 10.7986 17.672 10.6123 17.5954 10.4405C17.4889 10.2031 17.3052 10.0087 17.0741 9.88911C16.9945 9.84768 16.9105 9.81527 16.8237 9.79247C16.6392 9.74535 16.4469 9.73734 16.2591 9.76894L14.9127 9.98476C14.9441 10.3623 14.9537 10.7414 14.9416 11.12L16.4374 10.8804L16.4901 10.876L16.5375 10.8813L16.5606 10.8915L16.5701 10.9057C16.5801 10.9315 16.5847 10.9591 16.5834 10.9868V20.3524C16.5825 20.4101 16.5707 20.4672 16.5486 20.5206C16.5204 20.59 16.4809 20.6543 16.4317 20.7109C16.3817 20.7692 16.3225 20.8189 16.2564 20.858C16.2024 20.8903 16.143 20.9124 16.081 20.9232L3.93324 22.8691C2.98973 23.0202 -0.223013 22.8453 0.0122795 22.8758L0.309566 22.9145V23.1395C0.308043 23.3276 0.346898 23.5139 0.423509 23.6857C0.478725 23.8076 0.554497 23.9191 0.64751 24.0153L0.734213 24.0968C0.868409 24.209 1.02584 24.2899 1.19512 24.3337C1.37955 24.3808 1.57178 24.3888 1.75948 24.3572Z" fill="#179E58"/>
<path d="M2.59443 27.7307L3.72965 28.8138L4.86487 29.8969L6.00012 30.9801C6.11385 31.0824 6.24444 31.1642 6.38609 31.222C6.55658 31.2942 6.73416 31.3484 6.91592 31.3836C7.11524 31.4234 7.31763 31.4459 7.52083 31.4508C7.72557 31.4565 7.93039 31.4428 8.13252 31.4097L11.7065 30.8074L15.2804 30.205L18.8544 29.6027L22.4285 29.0005C22.6013 28.9739 22.7698 28.9246 22.9297 28.8539C23.0465 28.8046 23.1504 28.7293 23.2335 28.6336C23.2786 28.5795 23.3074 28.5136 23.3164 28.4437C23.3194 28.4188 23.3194 28.3936 23.3164 28.3687C23.2965 28.2596 23.2395 28.1606 23.1551 28.0887L22.0199 27.0056L20.8846 25.9224L19.7494 24.8395L18.6142 23.7563C18.5004 23.654 18.3698 23.5722 18.2282 23.5144C18.0577 23.4421 17.8802 23.3879 17.6984 23.3526C17.4991 23.3128 17.2967 23.2904 17.0935 23.2854C16.8888 23.2797 16.684 23.2935 16.4818 23.3265L12.9079 23.9289L9.33392 24.5312L5.75995 25.1335L2.18599 25.7359C2.01321 25.7624 1.84469 25.8117 1.68479 25.8823C1.56804 25.9316 1.46413 26.007 1.38105 26.1026C1.33643 26.1562 1.30783 26.2213 1.29857 26.2904C1.2956 26.3153 1.29516 26.3426 1.29813 26.3675C1.31798 26.4766 1.37497 26.5756 1.45944 26.6475L2.59443 27.7307ZM6.34151 28.3502L5.91327 27.9737C5.87947 27.944 5.90674 27.9109 5.97416 27.8996L7.04665 27.7214C7.10979 27.7092 7.17524 27.7211 7.22996 27.7549L7.6582 28.1314C7.692 28.1611 7.66473 28.1943 7.59731 28.2055L6.52482 28.3837C6.46167 28.396 6.39623 28.384 6.34151 28.3502ZM16.0636 25.7988L14.9911 25.977C14.9279 25.9893 14.8625 25.9773 14.8078 25.9435L14.3796 25.567C14.3458 25.5373 14.373 25.5042 14.4405 25.4929L15.513 25.3147C15.5761 25.3025 15.6415 25.3144 15.6963 25.3482L16.1245 25.7247C16.1583 25.7544 16.131 25.7876 16.0636 25.7988ZM16.4693 26.1555C16.5325 26.1433 16.5979 26.1552 16.6526 26.189L17.0809 26.5655C17.1147 26.5952 17.0874 26.6284 17.02 26.6396L15.9475 26.8178C15.8844 26.8301 15.8189 26.8181 15.7642 26.7843L15.336 26.4078C15.3022 26.3781 15.3295 26.345 15.3969 26.3338L16.4693 26.1555ZM14.5848 26.4687C14.6479 26.4565 14.7133 26.4684 14.7681 26.5022L15.1963 26.8787C15.2301 26.9084 15.2028 26.9416 15.1353 26.9528L14.0629 27.1308C13.9998 27.1431 13.9343 27.1311 13.8796 27.0973L13.4513 26.7208C13.4176 26.6911 13.4449 26.658 13.5123 26.6467L14.5848 26.4687ZM14.179 26.1119L13.1065 26.2902C13.0433 26.3024 12.9779 26.2904 12.9232 26.2567L12.4949 25.8801C12.4611 25.8505 12.4884 25.8173 12.5558 25.8061L13.6283 25.6279C13.6914 25.6156 13.7569 25.6276 13.8116 25.6614L14.2399 26.0379C14.2737 26.0676 14.2465 26.1006 14.179 26.1119ZM12.7002 26.7819C12.7633 26.7696 12.8288 26.7816 12.8835 26.8153L13.3117 27.1919C13.3455 27.2215 13.3183 27.2547 13.2508 27.2659L12.1784 27.4442C12.1152 27.4564 12.0498 27.4445 11.995 27.4106L11.5668 27.0341C11.533 27.0044 11.5603 26.9713 11.6277 26.9601L12.7002 26.7819ZM12.2946 26.4251L11.2221 26.6033C11.1589 26.6156 11.0935 26.6036 11.0388 26.5698L10.6105 26.1933C10.5767 26.1636 10.604 26.1305 10.6714 26.1193L11.7439 25.941C11.8071 25.9288 11.8725 25.9407 11.9272 25.9745L12.3555 26.351C12.3892 26.3807 12.3619 26.4139 12.2946 26.4251ZM10.8158 27.095C10.8789 27.0828 10.9444 27.0947 10.9991 27.1285L11.4273 27.505C11.4612 27.5347 11.4339 27.5679 11.3665 27.5791L10.294 27.7573C10.2308 27.7696 10.1654 27.7576 10.1107 27.7238L9.68245 27.3473C9.64865 27.3176 9.67593 27.2845 9.74335 27.2732L10.8158 27.095ZM10.41 26.7383L9.33754 26.9165C9.2744 26.9288 9.20897 26.9168 9.15424 26.883L8.72603 26.5065C8.69223 26.4768 8.71951 26.4436 8.78693 26.4325L9.85942 26.2542C9.92256 26.242 9.98799 26.2539 10.0427 26.2877L10.4709 26.6642C10.5047 26.6939 10.4775 26.7271 10.41 26.7383ZM8.93126 27.4082C8.9944 27.396 9.05984 27.4079 9.11457 27.4417L9.54277 27.8182C9.57654 27.8479 9.5493 27.8811 9.48188 27.8923L8.40939 28.0705C8.34625 28.0828 8.28081 28.0708 8.22608 28.037L7.79788 27.6605C7.76408 27.6308 7.79135 27.5976 7.85877 27.5864L8.93126 27.4082ZM8.52542 27.0515L7.45293 27.2298C7.38979 27.2421 7.32434 27.2301 7.26963 27.1963L6.84139 26.8198C6.80758 26.7901 6.83486 26.7569 6.90228 26.7457L7.97477 26.5675C8.03791 26.5553 8.10336 26.5672 8.15808 26.601L8.58628 26.9775C8.62012 27.0071 8.59284 27.0403 8.52542 27.0515ZM8.55354 29.0463L7.48094 29.2245C7.4178 29.2367 7.35236 29.2248 7.29764 29.191L6.8694 28.8145C6.83563 28.7848 6.86291 28.7516 6.93033 28.7404L8.00282 28.5622C8.06596 28.5499 8.13141 28.5619 8.18612 28.5957L8.61436 28.9722C8.64824 29.0019 8.62111 29.0351 8.55354 29.0463ZM11.2502 28.5981L9.36577 28.9113C9.30264 28.9236 9.2372 28.9116 9.18247 28.8778L8.75426 28.5013C8.72046 28.4716 8.74774 28.4384 8.81516 28.4273L10.6995 28.1141L11.772 27.9359L12.5842 27.8009L13.6566 27.6227L14.4686 27.4877L15.541 27.3095C15.6042 27.2972 15.6696 27.3092 15.7243 27.343L16.1526 27.7195C16.1864 27.7492 16.1591 27.7824 16.0917 27.7935L15.0192 27.9718L14.2071 28.1067L13.1347 28.2849L12.3226 28.4199L11.2502 28.5981ZM16.3024 29.4547L14.1335 29.8151C14.0058 29.8399 13.8735 29.8157 13.7629 29.7474L12.8969 28.9859C12.8285 28.9258 12.8837 28.8587 13.0201 28.8361L15.1889 28.4756C15.3166 28.4509 15.4489 28.4751 15.5596 28.5434L16.4255 29.3048C16.4939 29.365 16.4387 29.432 16.3024 29.4547ZM17.9763 27.4804L16.9038 27.6587C16.8406 27.671 16.7752 27.659 16.7205 27.6253L16.2922 27.2488C16.2585 27.2191 16.2857 27.1859 16.3532 27.1747L17.4256 26.9964C17.4888 26.9842 17.5542 26.9962 17.6089 27.03L18.0372 27.4065C18.0709 27.436 18.0437 27.4692 17.9763 27.4804ZM19.4935 26.7165L19.9217 27.0931C19.9555 27.1227 19.9282 27.1559 19.8608 27.1671L18.7883 27.3454C18.7252 27.3576 18.6597 27.3456 18.605 27.3118L18.1768 26.9354C18.143 26.9056 18.1703 26.8725 18.2377 26.8613L19.3101 26.6831C19.3733 26.6708 19.4387 26.6828 19.4935 26.7165ZM18.3538 25.8422C18.417 25.83 18.4824 25.8419 18.5371 25.8758L18.9654 26.2522C18.9992 26.282 18.9719 26.3151 18.9045 26.3263L17.832 26.5045C17.7689 26.5168 17.7034 26.5048 17.6487 26.4711L17.2205 26.0945C17.1867 26.0649 17.214 26.0317 17.2814 26.0205L18.3538 25.8422ZM17.3975 25.0015C17.4607 24.9893 17.5261 25.0012 17.5808 25.035L18.0091 25.4115C18.0429 25.4412 18.0156 25.4744 17.9482 25.4856L16.8757 25.6638C16.8126 25.6761 16.7471 25.6641 16.6924 25.6303L16.2641 25.2538C16.2303 25.2241 16.2576 25.1909 16.325 25.1797L17.3975 25.0015ZM15.3687 24.3389L16.4412 24.1607C16.5043 24.1484 16.5698 24.1604 16.6245 24.1942L17.0527 24.5707C17.0865 24.6004 17.0592 24.6336 16.9918 24.6447L15.9193 24.823C15.8561 24.8353 15.7907 24.8233 15.736 24.7895L15.3077 24.413C15.274 24.3833 15.3013 24.3501 15.3687 24.3389ZM13.4843 24.6521L14.5566 24.4739C14.6197 24.4616 14.6852 24.4735 14.7399 24.5074L15.1681 24.8838C15.2019 24.9136 15.1746 24.9467 15.1072 24.9579L14.0347 25.1362C13.9716 25.1484 13.9062 25.1365 13.8514 25.1027L13.4232 24.7262C13.3895 24.6965 13.4169 24.6633 13.4843 24.6521ZM11.5999 24.9653L12.6722 24.7871C12.7353 24.7748 12.8008 24.7868 12.8555 24.8205L13.2837 25.197C13.3175 25.2267 13.2902 25.2599 13.2228 25.2711L12.1503 25.4493C12.0872 25.4616 12.0217 25.4497 11.967 25.4158L11.5388 25.0394C11.505 25.0096 11.5325 24.9765 11.5999 24.9653ZM9.71552 25.2785L10.788 25.1002C10.8512 25.088 10.9166 25.0999 10.9713 25.1337L11.3995 25.5102C11.4333 25.5399 11.406 25.5731 11.3386 25.5843L10.2661 25.7625C10.203 25.7748 10.1376 25.7628 10.0828 25.729L9.65459 25.3525C9.62042 25.3228 9.64807 25.2896 9.71552 25.2785ZM7.83113 25.5916L8.90358 25.4134C8.96672 25.4012 9.03216 25.4131 9.08689 25.4469L9.5151 25.8234C9.5489 25.8531 9.52162 25.8863 9.4542 25.8975L8.38171 26.0757C8.31857 26.088 8.25312 26.076 8.1984 26.0422L7.77016 25.6657C7.73589 25.636 7.76378 25.6028 7.83113 25.5916ZM5.94674 25.9048L7.0185 25.7267C7.08164 25.7144 7.14708 25.7264 7.2018 25.7602L7.63001 26.1367C7.66381 26.1664 7.63653 26.1995 7.56911 26.2108L6.49662 26.389C6.43349 26.4012 6.36804 26.3893 6.31332 26.3555L5.88508 25.979C5.85135 25.9492 5.87932 25.916 5.94674 25.9048ZM6.09104 26.8806C6.15418 26.8683 6.21961 26.8803 6.27435 26.9141L6.70255 27.2906C6.73635 27.3203 6.70908 27.3534 6.64166 27.3646L5.5692 27.5429C5.50606 27.5551 5.44062 27.5432 5.3859 27.5094L4.95766 27.1329C4.92385 27.1032 4.95113 27.07 5.01859 27.0588L6.09104 26.8806ZM4.06151 26.2179L5.13396 26.0397C5.1971 26.0275 5.26253 26.0394 5.31727 26.0732L5.74551 26.4497C5.77927 26.4794 5.752 26.5126 5.68458 26.5238L4.61212 26.702C4.54898 26.7143 4.48354 26.7023 4.42882 26.6685L4.00058 26.292C3.96677 26.2623 3.99409 26.2292 4.06151 26.2179Z" fill="#1167AC"/>
<path d="M5.43533 15.6721H5.41479V15.6006L5.43533 15.6721Z" fill="url(#paint0_linear_3362_34)"/>
<path d="M7.36051 18.4001H5.65576V9.89106L7.36051 9.49512V18.4001Z" fill="url(#paint1_linear_3362_34)"/>
<path d="M7.98408 18.7741H7.36084V9.49512L7.98408 9.97905V18.7741Z" fill="url(#paint2_linear_3362_34)"/>
<path style="mix-blend-mode:screen" d="M5.65576 9.99005L7.2322 9.63076V18.2352H7.36051V9.49512L5.65576 9.89106V9.99005Z" fill="url(#paint3_linear_3362_34)"/>
<path style="mix-blend-mode:screen" d="M5.65674 9.89066V12.9306C6.28572 12.8942 6.885 12.6508 7.36127 12.2383V9.49512L5.65674 9.89066Z" fill="url(#paint4_linear_3362_34)"/>
<path d="M10.1064 18.7737H8.40527V10.8696L10.1064 10.4736V18.7737Z" fill="url(#paint5_linear_3362_34)"/>
<path d="M10.7292 18.7737H10.106V10.4736L10.7292 10.9576V18.7737Z" fill="url(#paint6_linear_3362_34)"/>
<path style="mix-blend-mode:screen" d="M8.40527 10.9649L9.97804 10.6093V19.2137H10.1064V10.4736L8.40527 10.8696V10.9649Z" fill="url(#paint7_linear_3362_34)"/>
<path style="mix-blend-mode:screen" d="M8.40356 10.8692V12.9303C9.03254 12.8939 9.63183 12.6505 10.1081 12.2381V10.4736L8.40356 10.8692Z" fill="url(#paint8_linear_3362_34)"/>
<path d="M12.8561 18.7748H11.1514V8.39594L12.8561 8V18.7748Z" fill="url(#paint9_linear_3362_34)"/>
<path d="M13.475 18.7748H12.8555V8L13.475 8.48393V18.7748Z" fill="url(#paint10_linear_3362_34)"/>
<path style="mix-blend-mode:screen" d="M11.1514 8.49126L12.7241 8.13565V18.1222H12.8561V8L11.1514 8.39594V8.49126Z" fill="url(#paint11_linear_3362_34)"/>
<path style="mix-blend-mode:screen" d="M11.1504 8.39554V12.932C11.7794 12.8956 12.3787 12.6522 12.8549 12.2398V8L11.1504 8.39554Z" fill="url(#paint12_linear_3362_34)"/>
<path d="M13.6499 14.2548V15.5858C13.7301 16.0262 13.6979 16.4796 13.5562 16.9042C13.1001 17.8051 12.3116 18.4933 11.3573 18.8233C10.4031 19.1534 9.35786 19.0994 8.44265 18.6729C7.75685 18.4698 7.12792 18.1095 6.6059 17.6205C6.08388 17.1316 5.68318 16.5276 5.43569 15.8566L5.41527 15.7851C5.26886 15.2852 5.26886 14.7538 5.41527 14.2539V12.4248C4.75213 12.8473 4.251 13.4813 3.99299 14.2241C3.76202 15.4847 4.03015 16.7857 4.74074 17.8522C5.45133 18.9187 6.5487 19.6673 7.801 19.9396C8.96265 20.4809 10.2892 20.5494 11.5004 20.1305C12.7116 19.7117 13.7126 18.8384 14.2917 17.6952C14.4669 17.1121 14.5 16.4955 14.3884 15.897C14.2767 15.2985 14.0235 14.7354 13.6499 14.2548Z" fill="url(#paint13_linear_3362_34)"/>
<path d="M13.6499 14.0692V15.4003C13.7301 15.8407 13.6979 16.2942 13.5562 16.7188C13.1001 17.6196 12.3116 18.3078 11.3573 18.6379C10.4031 18.9679 9.35786 18.914 8.44265 18.4874C7.75684 18.2843 7.1279 17.924 6.60587 17.4351C6.08385 16.9461 5.68316 16.3421 5.43569 15.671L5.41527 15.5995C5.26886 15.0996 5.26886 14.5682 5.41527 14.0683V12.2393C4.75213 12.6618 4.251 13.2958 3.99299 14.0386C3.76202 15.2991 4.03015 16.6001 4.74074 17.6667C5.45133 18.7332 6.5487 19.4817 7.801 19.7541C8.96267 20.2952 10.2892 20.3636 11.5004 19.9448C12.7116 19.5259 13.7125 18.6526 14.2916 17.5094C14.4668 16.9263 14.4999 16.3099 14.3883 15.7114C14.2766 15.1129 14.0235 14.5499 13.6499 14.0692Z" fill="#FFDF45"/>
<defs>
<linearGradient id="paint0_linear_3362_34" x1="5.50256" y1="15.5831" x2="5.3961" y2="15.6562" gradientUnits="userSpaceOnUse">
<stop stop-color="#44A5DD"/>
<stop offset="0.79778" stop-color="#2E4780"/>
<stop offset="1" stop-color="#282E68"/>
</linearGradient>
<linearGradient id="paint1_linear_3362_34" x1="6.50909" y1="9.71714" x2="6.50909" y2="18.886" gradientUnits="userSpaceOnUse">
<stop stop-color="#44A5DD"/>
<stop offset="0.79778" stop-color="#2E4780"/>
<stop offset="1" stop-color="#282E68"/>
</linearGradient>
<linearGradient id="paint2_linear_3362_34" x1="19.02" y1="6.33741" x2="4.58293" y2="16.2574" gradientUnits="userSpaceOnUse">
<stop stop-color="#44A5DD"/>
<stop offset="0.79778" stop-color="#2E4780"/>
<stop offset="1" stop-color="#282E68"/>
</linearGradient>
<linearGradient id="paint3_linear_3362_34" x1="11.1056" y1="20.0993" x2="2.60331" y2="6.18636" gradientUnits="userSpaceOnUse">
<stop stop-color="#44A5DD"/>
<stop offset="0.79778" stop-color="#2E4780"/>
<stop offset="1" stop-color="#282E68"/>
</linearGradient>
<linearGradient id="paint4_linear_3362_34" x1="11.8146" y1="5.75889" x2="5.48706" y2="12.0864" gradientUnits="userSpaceOnUse">
<stop stop-color="#44A5DD"/>
<stop offset="0.79778" stop-color="#2E4780"/>
<stop offset="1" stop-color="#282E68"/>
</linearGradient>
<linearGradient id="paint5_linear_3362_34" x1="9.25589" y1="10.894" x2="9.25589" y2="18.7516" gradientUnits="userSpaceOnUse">
<stop stop-color="#44A5DD"/>
<stop offset="0.79778" stop-color="#2E4780"/>
<stop offset="1" stop-color="#282E68"/>
</linearGradient>
<linearGradient id="paint6_linear_3362_34" x1="20.6094" y1="7.62127" x2="7.62942" y2="16.54" gradientUnits="userSpaceOnUse">
<stop stop-color="#44A5DD"/>
<stop offset="0.79778" stop-color="#2E4780"/>
<stop offset="1" stop-color="#282E68"/>
</linearGradient>
<linearGradient id="paint7_linear_3362_34" x1="13.8524" y1="21.0778" x2="5.35011" y2="7.16484" gradientUnits="userSpaceOnUse">
<stop stop-color="#44A5DD"/>
<stop offset="0.79778" stop-color="#2E4780"/>
<stop offset="1" stop-color="#282E68"/>
</linearGradient>
<linearGradient id="paint8_linear_3362_34" x1="12.8212" y1="7.98822" x2="7.69867" y2="13.1108" gradientUnits="userSpaceOnUse">
<stop stop-color="#44A5DD"/>
<stop offset="0.79778" stop-color="#2E4780"/>
<stop offset="1" stop-color="#282E68"/>
</linearGradient>
<linearGradient id="paint9_linear_3362_34" x1="12.0029" y1="8.28486" x2="12.0029" y2="18.2438" gradientUnits="userSpaceOnUse">
<stop stop-color="#44A5DD"/>
<stop offset="0.79778" stop-color="#2E4780"/>
<stop offset="1" stop-color="#282E68"/>
</linearGradient>
<linearGradient id="paint10_linear_3362_34" x1="26.2815" y1="4.37453" x2="9.61649" y2="15.8254" gradientUnits="userSpaceOnUse">
<stop stop-color="#44A5DD"/>
<stop offset="0.79778" stop-color="#2E4780"/>
<stop offset="1" stop-color="#282E68"/>
</linearGradient>
<linearGradient id="paint11_linear_3362_34" x1="17.1794" y1="20.244" x2="7.42416" y2="4.28075" gradientUnits="userSpaceOnUse">
<stop stop-color="#44A5DD"/>
<stop offset="0.79778" stop-color="#2E4780"/>
<stop offset="1" stop-color="#282E68"/>
</linearGradient>
<linearGradient id="paint12_linear_3362_34" x1="14.3618" y1="7.95854" x2="6.19191" y2="16.1284" gradientUnits="userSpaceOnUse">
<stop stop-color="#44A5DD"/>
<stop offset="0.79778" stop-color="#2E4780"/>
<stop offset="1" stop-color="#282E68"/>
</linearGradient>
<linearGradient id="paint13_linear_3362_34" x1="14.5441" y1="18.9095" x2="5.54343" y2="14.6964" gradientUnits="userSpaceOnUse">
<stop stop-color="#FDC947"/>
<stop offset="0.33" stop-color="#FFDE46"/>
<stop offset="0.66" stop-color="#FBE176"/>
<stop offset="1" stop-color="#F8F3DD"/>
</linearGradient>
</defs>
</svg>
