<svg width="135" height="40" viewBox="0 0 135 40" fill="none" xmlns="http://www.w3.org/2000/svg">
<path d="M41.3318 24.7809C37.6124 24.7809 34.7061 22.9336 34.583 19.4361H39.0657C39.0665 19.7095 39.1238 19.9798 39.234 20.23C39.3443 20.4802 39.5051 20.7049 39.7063 20.8899C39.9076 21.075 40.1449 21.2164 40.4035 21.3053C40.662 21.3943 40.9362 21.4287 41.2087 21.4066C42.4404 21.4066 43.2286 20.7908 43.2286 19.781C43.2286 16.5792 34.583 18.3031 34.6323 12.1698C34.6323 8.89395 37.3169 7.07129 40.9379 7.07129C44.7063 7.07129 47.2436 8.9432 47.4159 12.2438H42.859C42.8497 11.9936 42.7903 11.7477 42.6843 11.5208C42.5782 11.2939 42.4277 11.0906 42.2417 10.9229C42.0557 10.7552 41.8379 10.6266 41.6012 10.5446C41.3645 10.4626 41.1138 10.429 40.8639 10.4457C40.6397 10.4098 40.4103 10.4242 40.1924 10.4878C39.9744 10.5515 39.7733 10.6627 39.6036 10.8136C39.4338 10.9644 39.2998 11.1511 39.211 11.3601C39.1222 11.5691 39.081 11.7952 39.0903 12.0221C39.0903 15.0271 47.6374 13.6724 47.6374 19.4607C47.6098 20.2374 47.42 20.9996 47.0801 21.6984C46.7401 22.3973 46.2577 23.0172 45.6637 23.5183C45.0698 24.0195 44.3775 24.3907 43.6314 24.6082C42.8853 24.8256 42.102 24.8844 41.3318 24.7809Z" fill="#E31918"/>
<path d="M56.3323 24.8069C55.3971 24.8543 54.4624 24.7029 53.59 24.3627C52.7175 24.0225 51.9271 23.5013 51.2708 22.8334C50.6145 22.1654 50.1072 21.366 49.7824 20.4877C49.4576 19.6094 49.3227 18.6722 49.3865 17.738C49.3185 16.8027 49.4505 15.8637 49.7738 14.9835C50.0971 14.1033 50.6042 13.3021 51.2614 12.6332C51.9186 11.9643 52.7108 11.4431 53.5851 11.1044C54.4595 10.7656 55.396 10.617 56.3323 10.6685C57.2456 10.6145 58.16 10.7547 59.0153 11.0797C59.8705 11.4047 60.6472 11.9072 61.2941 12.5542C61.9411 13.2011 62.4436 13.9778 62.7687 14.833C63.0937 15.6883 63.2339 16.6027 63.1799 17.516C63.1791 17.9276 63.1544 18.3387 63.106 18.7475H53.5738C53.5617 19.0947 53.6208 19.4408 53.7474 19.7644C53.874 20.088 54.0655 20.3822 54.31 20.6291C54.5545 20.876 54.847 21.0702 55.1693 21.1999C55.4917 21.3295 55.8372 21.3919 56.1846 21.3831C56.6422 21.4125 57.0979 21.3007 57.4899 21.0628C57.882 20.8249 58.1916 20.4724 58.3768 20.0529H62.8598C62.4797 21.4724 61.6244 22.7187 60.4365 23.5838C59.2486 24.449 57.8 24.8807 56.3323 24.8069ZM53.5984 16.4078H58.8696C58.8692 16.0782 58.8003 15.7523 58.6673 15.4508C58.5342 15.1492 58.3399 14.8787 58.0966 14.6563C57.8534 14.4339 57.5666 14.2646 57.2543 14.159C56.9421 14.0535 56.6114 14.014 56.2831 14.0431C55.6183 14.02 54.9698 14.2521 54.4706 14.6917C53.9714 15.1314 53.6594 15.7454 53.5984 16.4078Z" fill="#E31918"/>
<path d="M71.6544 24.7809C67.9349 24.7809 65.0286 22.9336 64.9055 19.4361H69.3882C69.389 19.7095 69.4463 19.9798 69.5566 20.23C69.6668 20.4802 69.8276 20.7049 70.0289 20.8899C70.2301 21.075 70.4675 21.2164 70.726 21.3053C70.9846 21.3943 71.2587 21.4287 71.5312 21.4066C72.7629 21.4066 73.5511 20.7908 73.5511 19.781C73.5511 16.5792 64.9055 18.3031 64.9548 12.1698C64.9548 8.89395 67.6394 7.07129 71.2604 7.07129C75.0288 7.07129 77.5661 8.9432 77.7384 12.2438H73.1815C73.1723 11.9936 73.1129 11.7477 73.0068 11.5208C72.9008 11.2939 72.7503 11.0906 72.5643 10.9229C72.3783 10.7552 72.1605 10.6266 71.9238 10.5446C71.6872 10.4626 71.4365 10.429 71.1866 10.4457C70.9623 10.4098 70.733 10.4242 70.515 10.4878C70.297 10.5515 70.0959 10.6627 69.9262 10.8136C69.7564 10.9644 69.6224 11.1511 69.5336 11.3601C69.4448 11.5691 69.4036 11.7952 69.4129 12.0221C69.4129 15.0271 77.96 13.6724 77.96 19.4607C77.9324 20.2374 77.7426 20.9996 77.4027 21.6985C77.0627 22.3973 76.5803 23.0172 75.9863 23.5184C75.3924 24.0195 74.7001 24.3907 73.954 24.6082C73.2079 24.8256 72.4246 24.8845 71.6544 24.7809Z" fill="#E31918"/>
<path d="M80.1527 7.16752C80.1031 6.6631 80.2071 6.15546 80.4513 5.71128C80.6955 5.2671 81.0682 4.90717 81.5207 4.67875C81.9732 4.45033 82.4842 4.36412 82.9865 4.43144C83.4889 4.49876 83.9592 4.71645 84.3355 5.05594C84.7119 5.39542 84.9768 5.84081 85.0954 6.3336C85.214 6.82638 85.1807 7.34352 85.0001 7.81707C84.8194 8.29062 84.4996 8.69844 84.0829 8.98696C83.6662 9.27547 83.1719 9.43119 82.6651 9.43366C82.3494 9.4585 82.032 9.41875 81.7323 9.31685C81.4325 9.21494 81.1566 9.05301 80.9215 8.84094C80.6864 8.62887 80.497 8.37111 80.3648 8.0834C80.2326 7.79569 80.1604 7.48405 80.1527 7.16752ZM80.5469 10.8621H84.7588V24.6063H80.5469V10.8621Z" fill="#E31918"/>
<path d="M93.0363 10.6641C93.8682 10.6194 94.6973 10.7937 95.4408 11.1698C96.1842 11.5458 96.816 12.1103 97.273 12.807V10.8611H101.485V24.5806C101.555 25.4977 101.426 26.4193 101.104 27.2812C100.783 28.1431 100.278 28.9247 99.6235 29.5716C98.9696 30.2186 98.1826 30.7153 97.3173 31.0274C96.4519 31.3395 95.529 31.4594 94.6127 31.3789C92.9612 31.6057 91.287 31.1715 89.954 30.1706C88.6211 29.1697 87.7371 27.683 87.4943 26.0339H91.6573C91.8556 26.5884 92.2369 27.0589 92.7383 27.3678C93.2397 27.6767 93.8314 27.8056 94.4159 27.7334C96.0167 27.7334 97.2732 26.8959 97.2732 24.5805V22.6348C96.812 23.3289 96.1801 23.8928 95.4381 24.2724C94.6962 24.6519 93.8692 24.8344 93.0364 24.8022C92.1618 24.7651 91.3043 24.5482 90.5172 24.1649C89.7302 23.7817 89.0306 23.2404 88.4621 22.5747C87.8935 21.9091 87.4683 21.1334 87.2128 20.2962C86.9574 19.4589 86.8772 18.5779 86.9774 17.7083C86.8777 16.8413 86.9585 15.9631 87.2147 15.1289C87.4709 14.2947 87.8969 13.5225 88.466 12.8609C89.0351 12.1993 89.7349 11.6626 90.5214 11.2845C91.3079 10.9065 92.1641 10.6952 93.0363 10.6641ZM94.2679 14.3341C93.8429 14.3395 93.4236 14.4334 93.0368 14.6098C92.65 14.7863 92.3042 15.0414 92.0215 15.3588C91.7388 15.6763 91.5253 16.0492 91.3947 16.4538C91.2641 16.8583 91.2192 17.2857 91.2629 17.7085C91.2188 18.134 91.2631 18.564 91.3929 18.9715C91.5228 19.379 91.7355 19.7553 92.0176 20.0768C92.2998 20.3982 92.6453 20.6579 93.0325 20.8396C93.4198 21.0212 93.8404 21.1209 94.2679 21.1323C94.6949 21.1259 95.1159 21.0305 95.5038 20.8521C95.8918 20.6738 96.2383 20.4164 96.5212 20.0965C96.804 19.7766 97.017 19.4011 97.1464 18.9942C97.2759 18.5873 97.319 18.1578 97.273 17.7333C97.319 17.3087 97.2759 16.8793 97.1465 16.4723C97.017 16.0654 96.8041 15.6899 96.5212 15.37C96.2384 15.0501 95.8919 14.7927 95.5039 14.6143C95.1159 14.4359 94.6949 14.3405 94.2679 14.3341Z" fill="#E31918"/>
<path d="M118.11 24.6035H113.899V22.7316C113.418 23.3782 112.789 23.8993 112.064 24.2509C111.34 24.6025 110.541 24.7741 109.736 24.7512C108.985 24.7698 108.239 24.6264 107.548 24.3308C106.858 24.0351 106.239 23.5941 105.734 23.0379C105.229 22.4817 104.85 21.8232 104.623 21.1073C104.395 20.3914 104.324 19.6349 104.416 18.8892V10.8594H108.603V18.3227C108.568 18.6911 108.611 19.0627 108.729 19.4136C108.846 19.7646 109.036 20.0871 109.285 20.3606C109.534 20.6342 109.838 20.8527 110.176 21.0022C110.515 21.1518 110.881 21.229 111.251 21.229C111.621 21.229 111.987 21.1518 112.325 21.0022C112.664 20.8527 112.967 20.6342 113.216 20.3606C113.466 20.0871 113.655 19.7646 113.773 19.4136C113.89 19.0627 113.933 18.6911 113.899 18.3227V10.8594H118.11V24.6035Z" fill="#E31918"/>
<path d="M127.251 24.8069C126.316 24.8543 125.381 24.7029 124.509 24.3627C123.636 24.0225 122.846 23.5013 122.189 22.8334C121.533 22.1654 121.026 21.366 120.701 20.4877C120.376 19.6094 120.241 18.6722 120.305 17.738C120.237 16.8027 120.369 15.8637 120.692 14.9835C121.016 14.1033 121.523 13.302 122.18 12.6332C122.837 11.9643 123.629 11.4431 124.504 11.1043C125.378 10.7656 126.315 10.617 127.251 10.6685C128.164 10.6145 129.079 10.7547 129.934 11.0797C130.789 11.4048 131.566 11.9073 132.213 12.5543C132.86 13.2013 133.362 13.9779 133.687 14.8332C134.012 15.6885 134.152 16.6029 134.098 17.5162C134.098 17.9278 134.073 18.339 134.024 18.7477H124.492C124.48 19.095 124.539 19.4411 124.666 19.7646C124.792 20.0882 124.984 20.3825 125.228 20.6294C125.473 20.8762 125.765 21.0705 126.088 21.2001C126.41 21.3298 126.756 21.3921 127.103 21.3833C127.561 21.4128 128.016 21.301 128.408 21.0631C128.8 20.8252 129.11 20.4727 129.295 20.0532H133.778C133.398 21.4726 132.543 22.7189 131.355 23.5839C130.167 24.449 128.718 24.8807 127.251 24.8069ZM124.517 16.4078H129.788C129.788 16.0782 129.719 15.7523 129.586 15.4508C129.453 15.1493 129.258 14.8787 129.015 14.6563C128.772 14.4339 128.485 14.2646 128.173 14.159C127.861 14.0535 127.53 14.014 127.202 14.0431C126.537 14.02 125.888 14.252 125.389 14.6917C124.89 15.1314 124.578 15.7454 124.517 16.4078Z" fill="#E31918"/>
<path d="M27.0983 2.94906C27.4112 2.89639 27.7317 2.90976 28.0392 2.98829C28.1839 3.02628 28.3238 3.0803 28.4565 3.14935L28.312 3.01346C28.0882 2.82654 27.8258 2.6917 27.5435 2.61868C27.236 2.54009 26.9155 2.52673 26.6025 2.57945L24.8062 2.86712C24.8193 2.96666 24.8367 3.11526 24.8535 3.30864L27.0983 2.94906Z" fill="#0B7F42"/>
<path d="M0.516468 21.3307V9.62361C0.517939 9.29083 0.582374 8.96134 0.706372 8.65252C0.830409 8.34198 1.00543 8.05433 1.22421 7.80144C1.44313 7.54685 1.7027 7.33027 1.99238 7.16048C2.28233 6.98987 2.60136 6.8744 2.93334 6.8199L6.48646 6.25074C6.50418 6.04739 6.5222 5.89214 6.53497 5.79395L2.43793 6.45018C2.10594 6.50467 1.7869 6.62016 1.49697 6.79082C1.20729 6.96058 0.947721 7.17714 0.728796 7.43171C0.510016 7.68461 0.334998 7.97226 0.210961 8.2828C0.0869492 8.59161 0.0224936 8.9211 0.0209961 9.25388V22.932L0.516468 22.8037V21.3307Z" fill="#0B7F42"/>
<path d="M0.706443 26.1485C0.57876 25.8621 0.514001 25.5516 0.516539 25.2381V24.8634L0.0210668 24.7988V24.8685C0.0185483 25.1821 0.0833275 25.4926 0.211032 25.779C0.330134 26.0433 0.507104 26.2774 0.728867 26.4641C0.783461 26.5099 0.840579 26.5525 0.899951 26.5918L1.22422 26.8339L1.07977 26.698C0.92473 26.5376 0.798444 26.3517 0.706443 26.1485Z" fill="#0B7F42"/>
<path d="M38.8614 34.8598V34.0704C38.8464 34.1869 38.7985 34.2967 38.7232 34.3869C38.5847 34.5463 38.4116 34.672 38.217 34.7541C37.9505 34.8719 37.6696 34.9541 37.3816 34.9985L31.4251 36.0023L25.4686 37.0062L19.512 38.0101L13.5555 39.014C13.2186 39.0691 12.8772 39.092 12.536 39.0824C12.1973 39.0742 11.86 39.0367 11.5278 38.9704C11.2249 38.9117 10.9289 38.8215 10.6448 38.7012C10.4087 38.6049 10.1911 38.4684 10.0015 38.2979L8.10943 36.4927L6.21742 34.6875L4.32541 32.8823L2.4334 31.077C2.29263 30.9572 2.19764 30.7923 2.16455 30.6104V31.5247C2.19764 31.7067 2.29263 31.8715 2.4334 31.9914L4.32541 33.7967L6.21742 35.6019L8.10943 37.4071L10.0015 39.2123C10.191 39.3829 10.4087 39.5195 10.6448 39.6159C10.9289 39.7362 11.2249 39.8264 11.5278 39.8851C11.86 39.9514 12.1973 39.9889 12.536 39.9971C12.8772 40.0067 13.2186 39.9838 13.5555 39.9286L19.512 38.9248L25.4686 37.9209L31.4251 36.9171L37.3816 35.9132C37.6696 35.8688 37.9505 35.7866 38.217 35.6688C38.4116 35.5867 38.5847 35.461 38.7232 35.3015C38.7754 35.2414 38.8146 35.1711 38.8383 35.0951C38.8621 35.0191 38.87 34.939 38.8614 34.8598Z" fill="#0D4E7A"/>
<path d="M2.93244 27.2631L8.97398 26.2953L15.0155 25.3275L21.0569 24.3598L27.0983 23.3921C27.4303 23.3376 27.7493 23.2221 28.0393 23.0515C28.3289 22.8817 28.5885 22.6652 28.8074 22.4106C29.0262 22.1577 29.2012 21.87 29.3253 21.5595C29.4493 21.2507 29.5137 20.9212 29.5152 20.5884V4.9792C29.5177 4.66564 29.453 4.3552 29.3253 4.06879C29.1479 3.67308 28.8417 3.34915 28.4565 3.14982C28.3239 3.08077 28.1839 3.02675 28.0393 2.98876C27.7318 2.91023 27.4113 2.89686 27.0983 2.94953L24.8543 3.30924C24.9065 3.93848 24.9226 4.57021 24.9025 5.20131L27.3954 4.80201L27.4832 4.79455L27.5622 4.80341L27.6007 4.82046L27.6165 4.84404C27.6333 4.88707 27.6409 4.93313 27.6388 4.97926V20.5884C27.6373 20.6847 27.6176 20.7798 27.5807 20.8687C27.5337 20.9845 27.4679 21.0917 27.3858 21.1859C27.3025 21.2831 27.2038 21.3659 27.0937 21.4311C27.0038 21.485 26.9047 21.5219 26.8015 21.5399L6.55534 24.7829C4.98283 25.0347 -0.371684 24.7432 0.0204656 24.7941L0.515938 24.8587V25.2335C0.5134 25.5471 0.578158 25.8575 0.705842 26.1439C0.797867 26.3471 0.924152 26.5329 1.07917 26.6932L1.22368 26.8291C1.44733 27.016 1.70971 27.1509 1.99185 27.224C2.29922 27.3024 2.61961 27.3157 2.93244 27.2631Z" fill="#179E58"/>
<path d="M4.32436 32.8834L6.21637 34.6886L8.10838 36.4938L10.0004 38.299C10.19 38.4695 10.4076 38.606 10.6437 38.7023C10.9279 38.8226 11.2238 38.9128 11.5268 38.9716C11.859 39.0379 12.1963 39.0753 12.5349 39.0836C12.8762 39.0931 13.2175 39.0702 13.5544 39.0151L19.511 38.0112L25.4675 37.0073L31.4241 36.0034L37.3809 34.9998C37.6688 34.9555 37.9497 34.8733 38.2162 34.7554C38.4108 34.6733 38.5839 34.5477 38.7224 34.3882C38.7977 34.298 38.8456 34.1883 38.8606 34.0718C38.8656 34.0303 38.8656 33.9883 38.8606 33.9468C38.8275 33.7649 38.7325 33.6 38.5918 33.4801L36.6998 31.6749L34.8077 29.8697L32.9157 28.0648L31.0237 26.2596C30.8341 26.0891 30.6165 25.9526 30.3804 25.8563C30.0963 25.7359 29.8004 25.6456 29.4975 25.5867C29.1653 25.5204 28.8279 25.483 28.4893 25.4748C28.1481 25.4652 27.8067 25.4881 27.4698 25.5432L21.5133 26.5471L15.5567 27.551L9.60017 28.5548L3.64363 29.5587C3.35566 29.603 3.0748 29.6851 2.80831 29.8028C2.61371 29.8849 2.44054 30.0106 2.30208 30.1701C2.2277 30.2594 2.18005 30.3678 2.1646 30.483C2.15965 30.5245 2.15892 30.57 2.16387 30.6115C2.19696 30.7934 2.29194 30.9583 2.43272 31.0782L4.32436 32.8834ZM10.5694 33.916L9.8557 33.2885C9.79936 33.239 9.84482 33.1837 9.95719 33.165L11.7447 32.868C11.8499 32.8475 11.959 32.8675 12.0502 32.9238L12.7639 33.5513C12.8202 33.6008 12.7748 33.6561 12.6624 33.6748L10.8749 33.9718C10.7697 33.9922 10.6606 33.9724 10.5694 33.916ZM26.7727 29.6636L24.9852 29.9607C24.88 29.9811 24.7709 29.9612 24.6797 29.9048L23.9661 29.2774C23.9097 29.2279 23.9552 29.1726 24.0676 29.1539L25.855 28.8569C25.9603 28.8364 26.0693 28.8563 26.1605 28.9126L26.8743 29.5402C26.9305 29.5896 26.8851 29.6449 26.7727 29.6636ZM27.449 30.2582C27.5542 30.2378 27.6633 30.2577 27.7545 30.314L28.4682 30.9415C28.5245 30.991 28.4791 31.0463 28.3667 31.065L26.5793 31.362C26.474 31.3824 26.365 31.3625 26.2738 31.3062L25.56 30.6787C25.5037 30.6292 25.5492 30.5739 25.6616 30.5552L27.449 30.2582ZM24.3081 30.7802C24.4133 30.7597 24.5224 30.7797 24.6136 30.836L25.3272 31.4635C25.3836 31.513 25.3381 31.5683 25.2257 31.5869L23.4383 31.8837C23.333 31.9041 23.224 31.8842 23.1328 31.8279L22.419 31.2004C22.3628 31.1509 22.4082 31.0956 22.5206 31.0769L24.3081 30.7802ZM23.6317 30.1855L21.8443 30.4826C21.739 30.503 21.63 30.4831 21.5387 30.4267L20.825 29.7992C20.7687 29.7497 20.8141 29.6944 20.9265 29.6758L22.714 29.3788C22.8192 29.3583 22.9283 29.3783 23.0195 29.4346L23.7332 30.0621C23.7897 30.1117 23.7442 30.1667 23.6317 30.1855ZM21.1671 31.3021C21.2724 31.2816 21.3814 31.3016 21.4726 31.3579L22.1864 31.9854C22.2426 32.0349 22.1972 32.0902 22.0849 32.1089L20.2974 32.4059C20.1922 32.4263 20.0831 32.4064 19.9919 32.35L19.2782 31.7225C19.2219 31.673 19.2674 31.6177 19.3797 31.5991L21.1671 31.3021ZM20.4911 30.7075L18.7036 31.0045C18.5984 31.025 18.4893 31.005 18.3981 30.9487L17.6844 30.3212C17.6281 30.2717 17.6735 30.2164 17.7859 30.1977L19.5734 29.9007C19.6786 29.8803 19.7877 29.9002 19.8789 29.9565L20.5926 30.584C20.6488 30.6335 20.6033 30.6888 20.4911 30.7075ZM18.0265 31.824C18.1317 31.8036 18.2408 31.8235 18.332 31.8799L19.0457 32.5073C19.1021 32.5569 19.0566 32.6121 18.9443 32.6308L17.1568 32.9278C17.0516 32.9482 16.9425 32.9283 16.8513 32.872L16.1376 32.2445C16.0813 32.195 16.1267 32.1397 16.2391 32.121L18.0265 31.824ZM17.3502 31.2294L15.5628 31.5265C15.4575 31.5469 15.3485 31.527 15.2573 31.4707L14.5436 30.8432C14.4873 30.7937 14.5327 30.7384 14.6451 30.7197L16.4325 30.4227C16.5378 30.4023 16.6468 30.4222 16.7381 30.4785L17.4517 31.106C17.5079 31.1555 17.4626 31.2108 17.3502 31.2294ZM14.8856 32.346C14.9909 32.3256 15.0999 32.3455 15.1911 32.4018L15.9048 33.0293C15.9611 33.0788 15.9157 33.1341 15.8033 33.1527L14.0159 33.4498C13.9106 33.4702 13.8016 33.4503 13.7104 33.394L12.9967 32.7665C12.9404 32.717 12.9858 32.6617 13.0982 32.643L14.8856 32.346ZM14.2092 31.7514L12.4218 32.0486C12.3165 32.0691 12.2075 32.0491 12.1163 31.9928L11.4025 31.3653C11.3462 31.3158 11.3917 31.2605 11.504 31.2418L13.2915 30.9448C13.3967 30.9244 13.5058 30.9443 13.597 31.0007L14.3107 31.6281C14.3671 31.6775 14.3216 31.7327 14.2092 31.7514ZM14.2561 35.0761L12.4685 35.3731C12.3632 35.3935 12.2542 35.3736 12.163 35.3173L11.4492 34.6898C11.393 34.6402 11.4384 34.585 11.5508 34.5663L13.3382 34.2693C13.4435 34.2488 13.5526 34.2688 13.6438 34.3251L14.3575 34.9526C14.4139 35.0021 14.3687 35.0574 14.2561 35.0761ZM18.7504 34.3292L15.6098 34.8511C15.5046 34.8715 15.3955 34.8516 15.3043 34.7953L14.5906 34.1678C14.5343 34.1183 14.5798 34.063 14.6921 34.0444L17.8328 33.5224L19.6202 33.2254L20.9738 33.0005L22.7612 32.7034L24.1144 32.4785L25.9018 32.1815C26.0071 32.161 26.1161 32.181 26.2073 32.2373L26.9211 32.8648C26.9773 32.9142 26.9319 32.9695 26.8195 32.9882L25.0321 33.2853L23.6786 33.5102L21.8912 33.8072L20.5378 34.0321L18.7504 34.3292ZM27.1707 35.7568L23.5559 36.3574C23.3431 36.3987 23.1227 36.3584 22.9383 36.2445L21.4949 34.9754C21.381 34.8752 21.4729 34.7635 21.7002 34.7257L25.3149 34.125C25.5277 34.0838 25.7482 34.1241 25.9327 34.2379L27.376 35.5069C27.4899 35.6072 27.398 35.719 27.1707 35.7568ZM29.9605 32.4663L28.173 32.7635C28.0678 32.7839 27.9587 32.764 27.8675 32.7077L27.1538 32.0802C27.0975 32.0307 27.143 31.9754 27.2553 31.9568L29.0428 31.6597C29.148 31.6393 29.257 31.6592 29.3483 31.7156L30.062 32.3431C30.1183 32.3923 30.0729 32.4476 29.9605 32.4663ZM32.4891 31.1932L33.2029 31.8207C33.2591 31.8702 33.2137 31.9255 33.1013 31.9441L31.3139 32.2412C31.2087 32.2616 31.0996 32.2417 31.0084 32.1854L30.2947 31.5579C30.2384 31.5084 30.2838 31.4531 30.3962 31.4344L32.1836 31.1374C32.2888 31.117 32.3979 31.1369 32.4891 31.1932ZM30.5898 29.7361C30.695 29.7156 30.8041 29.7355 30.8953 29.7919L31.609 30.4194C31.6654 30.4689 31.6199 30.5241 31.5075 30.5428L29.7201 30.8399C29.6148 30.8603 29.5058 30.8404 29.4146 30.7841L28.7009 30.1566C28.6446 30.1071 28.69 30.0518 28.8024 30.0331L30.5898 29.7361ZM28.9959 28.3349C29.1012 28.3144 29.2102 28.3343 29.3015 28.3907L30.0152 29.0182C30.0715 29.0677 30.0261 29.123 29.9137 29.1416L28.1262 29.4387C28.021 29.4591 27.9119 29.4391 27.8207 29.3828L27.107 28.7553C27.0507 28.7058 27.0961 28.6505 27.2085 28.6318L28.9959 28.3349ZM25.6146 27.2305L27.4021 26.9335C27.5073 26.9131 27.6163 26.933 27.7076 26.9893L28.4213 27.6168C28.4776 27.6664 28.4321 27.7216 28.3197 27.7402L26.5322 28.0373C26.427 28.0578 26.3179 28.0378 26.2267 27.9815L25.513 27.354C25.4568 27.3045 25.5022 27.2492 25.6146 27.2305ZM22.474 27.7525L24.2611 27.4554C24.3663 27.435 24.4754 27.4549 24.5666 27.5113L25.2803 28.1387C25.3366 28.1883 25.2912 28.2435 25.1788 28.2622L23.3913 28.5593C23.2861 28.5797 23.177 28.5598 23.0858 28.5035L22.3721 27.8759C22.3159 27.8265 22.3616 27.7712 22.474 27.7525ZM19.3333 28.2744L21.1204 27.9774C21.2257 27.957 21.3347 27.9769 21.426 28.0332L22.1396 28.6607C22.196 28.7102 22.1505 28.7655 22.0381 28.7842L20.2507 29.0812C20.1454 29.1017 20.0363 29.0817 19.9452 29.0254L19.2314 28.3979C19.1751 28.3484 19.221 28.2931 19.3333 28.2744ZM16.1927 28.7964L17.9802 28.4994C18.0854 28.479 18.1945 28.4989 18.2857 28.5552L18.9994 29.1827C19.0557 29.2322 19.0102 29.2874 18.8979 29.3061L17.1104 29.6032C17.0052 29.6236 16.8961 29.6037 16.8049 29.5474L16.0912 28.9199C16.0342 28.8704 16.0803 28.8151 16.1927 28.7964ZM13.0521 29.3184L14.8395 29.0213C14.9447 29.0009 15.0538 29.0208 15.145 29.0771L15.8587 29.7046C15.915 29.7542 15.8696 29.8094 15.7572 29.8281L13.9697 30.1251C13.8645 30.1456 13.7554 30.1257 13.6642 30.0693L12.9505 29.4418C12.8934 29.3923 12.9399 29.3371 13.0521 29.3184ZM9.91148 29.8404L11.6977 29.5435C11.803 29.5231 11.912 29.543 12.0032 29.5993L12.7169 30.2268C12.7732 30.2763 12.7278 30.3315 12.6154 30.3502L10.8279 30.6473C10.7227 30.6677 10.6137 30.6478 10.5224 30.5915L9.80871 29.964C9.7525 29.9143 9.79912 29.859 9.91148 29.8404ZM10.152 31.4666C10.2572 31.4462 10.3663 31.4661 10.4575 31.5224L11.1712 32.1499C11.2275 32.1994 11.182 32.2547 11.0697 32.2734L9.28226 32.5704C9.17703 32.5909 9.06796 32.5709 8.97675 32.5146L8.26303 31.8871C8.20669 31.8376 8.25215 31.7823 8.36458 31.7637L10.152 31.4666ZM6.76946 30.3622L8.55686 30.0652C8.66209 30.0448 8.77115 30.0647 8.86237 30.121L9.5761 30.7485C9.63237 30.798 9.58691 30.8533 9.47455 30.872L7.68714 31.169C7.58191 31.1894 7.47283 31.1695 7.38164 31.1132L6.66791 30.4856C6.61157 30.4362 6.65709 30.381 6.76946 30.3622Z" fill="#1167AC"/>
<path d="M9.05912 12.7871H9.0249V12.668L9.05912 12.7871Z" fill="url(#paint0_linear_3362_34)"/>
<path d="M12.2675 17.3357H9.42627V3.15404L12.2675 2.49414V17.3357Z" fill="url(#paint1_linear_3362_34)"/>
<path d="M13.3068 17.9589H12.2681V2.49414L13.3068 3.30068V17.9589Z" fill="url(#paint2_linear_3362_34)"/>
<path style="mix-blend-mode:screen" d="M9.42627 3.31901L12.0536 2.72022V17.0608H12.2675V2.49414L9.42627 3.15404V3.31901Z" fill="url(#paint3_linear_3362_34)"/>
<path style="mix-blend-mode:screen" d="M9.42773 3.15337V8.21985C10.476 8.15916 11.4748 7.75353 12.2686 7.06613V2.49414L9.42773 3.15337Z" fill="url(#paint4_linear_3362_34)"/>
<path d="M16.8439 17.9564H14.0088V4.78294L16.8439 4.12305V17.9564Z" fill="url(#paint5_linear_3362_34)"/>
<path d="M17.882 17.9564H16.8433V4.12305L17.882 4.92959V17.9564Z" fill="url(#paint6_linear_3362_34)"/>
<path style="mix-blend-mode:screen" d="M14.0088 4.94181L16.63 4.34912V18.6897H16.8439V4.12305L14.0088 4.78294V4.94181Z" fill="url(#paint7_linear_3362_34)"/>
<path style="mix-blend-mode:screen" d="M14.0059 4.78233V8.21746C15.0541 8.15677 16.0529 7.75114 16.8467 7.06374V4.12305L14.0059 4.78233Z" fill="url(#paint8_linear_3362_34)"/>
<path d="M21.4267 17.9577H18.5854V0.659896L21.4267 0V17.9577Z" fill="url(#paint9_linear_3362_34)"/>
<path d="M22.4584 17.9577H21.4258V0L22.4584 0.80654V17.9577Z" fill="url(#paint10_linear_3362_34)"/>
<path style="mix-blend-mode:screen" d="M18.5854 0.81876L21.2067 0.226077V16.8701H21.4267V0L18.5854 0.659896V0.81876Z" fill="url(#paint11_linear_3362_34)"/>
<path style="mix-blend-mode:screen" d="M18.584 0.659225V8.21999C19.6323 8.1593 20.6311 7.75367 21.4248 7.06627V0L18.584 0.659225Z" fill="url(#paint12_linear_3362_34)"/>
<path d="M22.7497 10.4249V12.6433C22.8834 13.3772 22.8297 14.133 22.5937 14.8406C21.8335 16.3421 20.5193 17.489 18.9289 18.0391C17.3384 18.5892 15.5964 18.4993 14.0711 17.7884C12.9281 17.4499 11.8799 16.8493 11.0099 16.0345C10.1398 15.2196 9.47202 14.2129 9.05953 13.0945L9.0255 12.9754C8.7815 12.1422 8.7815 11.2566 9.0255 10.4234V7.375C7.92028 8.07923 7.08507 9.13584 6.65507 10.3738C6.27011 12.4748 6.717 14.6431 7.9013 16.4206C9.0856 18.1981 10.9145 19.4456 13.0017 19.8995C14.9378 20.8017 17.1487 20.9158 19.1674 20.2178C21.186 19.5197 22.8542 18.0642 23.8195 16.1588C24.1114 15.187 24.1667 14.1595 23.9806 13.162C23.7945 12.1645 23.3724 11.226 22.7497 10.4249Z" fill="url(#paint13_linear_3362_34)"/>
<path d="M22.7497 10.1143V12.3329C22.8834 13.0668 22.8297 13.8226 22.5937 14.5302C21.8335 16.0316 20.5193 17.1786 18.9289 17.7287C17.3384 18.2788 15.5964 18.1889 14.0711 17.4779C12.9281 17.1395 11.8799 16.5389 11.0098 15.724C10.1398 14.9091 9.47198 13.9024 9.05953 12.784L9.0255 12.6648C8.7815 11.8317 8.7815 10.946 9.0255 10.1129V7.06445C7.92028 7.76868 7.08507 8.8253 6.65507 10.0633C6.27011 12.1642 6.717 14.3325 7.9013 16.1101C9.0856 17.8876 10.9145 19.1351 13.0017 19.589C14.9378 20.491 17.1487 20.6049 19.1673 19.9068C21.1859 19.2088 22.854 17.7533 23.8193 15.8479C24.1112 14.8762 24.1664 13.8487 23.9804 12.8513C23.7943 11.8539 23.3723 10.9154 22.7497 10.1143Z" fill="#FFDF45"/>
<defs>
<linearGradient id="paint0_linear_3362_34" x1="9.17118" y1="12.6388" x2="8.99374" y2="12.7606" gradientUnits="userSpaceOnUse">
<stop stop-color="#44A5DD"/>
<stop offset="0.79778" stop-color="#2E4780"/>
<stop offset="1" stop-color="#282E68"/>
</linearGradient>
<linearGradient id="paint1_linear_3362_34" x1="10.8485" y1="2.86417" x2="10.8485" y2="18.1455" gradientUnits="userSpaceOnUse">
<stop stop-color="#44A5DD"/>
<stop offset="0.79778" stop-color="#2E4780"/>
<stop offset="1" stop-color="#282E68"/>
</linearGradient>
<linearGradient id="paint2_linear_3362_34" x1="31.6999" y1="-2.76866" x2="7.63827" y2="13.7644" gradientUnits="userSpaceOnUse">
<stop stop-color="#44A5DD"/>
<stop offset="0.79778" stop-color="#2E4780"/>
<stop offset="1" stop-color="#282E68"/>
</linearGradient>
<linearGradient id="paint3_linear_3362_34" x1="18.5093" y1="20.1676" x2="4.3389" y2="-3.0204" gradientUnits="userSpaceOnUse">
<stop stop-color="#44A5DD"/>
<stop offset="0.79778" stop-color="#2E4780"/>
<stop offset="1" stop-color="#282E68"/>
</linearGradient>
<linearGradient id="paint4_linear_3362_34" x1="19.6907" y1="-3.73284" x2="9.14495" y2="6.81298" gradientUnits="userSpaceOnUse">
<stop stop-color="#44A5DD"/>
<stop offset="0.79778" stop-color="#2E4780"/>
<stop offset="1" stop-color="#282E68"/>
</linearGradient>
<linearGradient id="paint5_linear_3362_34" x1="15.4265" y1="4.82364" x2="15.4265" y2="17.9195" gradientUnits="userSpaceOnUse">
<stop stop-color="#44A5DD"/>
<stop offset="0.79778" stop-color="#2E4780"/>
<stop offset="1" stop-color="#282E68"/>
</linearGradient>
<linearGradient id="paint6_linear_3362_34" x1="34.3489" y1="-0.630837" x2="12.7157" y2="14.2336" gradientUnits="userSpaceOnUse">
<stop stop-color="#44A5DD"/>
<stop offset="0.79778" stop-color="#2E4780"/>
<stop offset="1" stop-color="#282E68"/>
</linearGradient>
<linearGradient id="paint7_linear_3362_34" x1="23.0873" y1="21.7964" x2="8.91689" y2="-1.39155" gradientUnits="userSpaceOnUse">
<stop stop-color="#44A5DD"/>
<stop offset="0.79778" stop-color="#2E4780"/>
<stop offset="1" stop-color="#282E68"/>
</linearGradient>
<linearGradient id="paint8_linear_3362_34" x1="21.3686" y1="-0.0192731" x2="12.8311" y2="8.51826" gradientUnits="userSpaceOnUse">
<stop stop-color="#44A5DD"/>
<stop offset="0.79778" stop-color="#2E4780"/>
<stop offset="1" stop-color="#282E68"/>
</linearGradient>
<linearGradient id="paint9_linear_3362_34" x1="20.0047" y1="0.474759" x2="20.0047" y2="17.0728" gradientUnits="userSpaceOnUse">
<stop stop-color="#44A5DD"/>
<stop offset="0.79778" stop-color="#2E4780"/>
<stop offset="1" stop-color="#282E68"/>
</linearGradient>
<linearGradient id="paint10_linear_3362_34" x1="43.8024" y1="-6.0424" x2="16.0275" y2="13.0421" gradientUnits="userSpaceOnUse">
<stop stop-color="#44A5DD"/>
<stop offset="0.79778" stop-color="#2E4780"/>
<stop offset="1" stop-color="#282E68"/>
</linearGradient>
<linearGradient id="paint11_linear_3362_34" x1="28.6321" y1="20.4064" x2="12.3735" y2="-6.1987" gradientUnits="userSpaceOnUse">
<stop stop-color="#44A5DD"/>
<stop offset="0.79778" stop-color="#2E4780"/>
<stop offset="1" stop-color="#282E68"/>
</linearGradient>
<linearGradient id="paint12_linear_3362_34" x1="23.9362" y1="-0.0691057" x2="10.3199" y2="13.5473" gradientUnits="userSpaceOnUse">
<stop stop-color="#44A5DD"/>
<stop offset="0.79778" stop-color="#2E4780"/>
<stop offset="1" stop-color="#282E68"/>
</linearGradient>
<linearGradient id="paint13_linear_3362_34" x1="24.2402" y1="18.1827" x2="9.23911" y2="11.1609" gradientUnits="userSpaceOnUse">
<stop stop-color="#FDC947"/>
<stop offset="0.33" stop-color="#FFDE46"/>
<stop offset="0.66" stop-color="#FBE176"/>
<stop offset="1" stop-color="#F8F3DD"/>
</linearGradient>
</defs>
</svg>
