<svg width="138" height="40" viewBox="0 0 138 40" fill="none" xmlns="http://www.w3.org/2000/svg">
<rect x="21.6463" y="36.0772" width="30.0643" height="9.62059" transform="rotate(-90 21.6463 36.0772)" fill="#4B9C60"/>
<rect x="10.8232" y="36.0772" width="24.0515" height="9.62059" transform="rotate(-90 10.8232 36.0772)" fill="#FFC107"/>
<rect y="36.0772" width="36.0772" height="9.62059" transform="rotate(-90 0 36.0772)" fill="#007BFF"/>
<path d="M26.522 10.8233C26.522 10.8233 19.8702 10.3961 17.0518 12.9278C13.3087 16.2901 20.186 23.2723 17.0518 27.2083C14.2187 30.766 4.72538 30.365 4.72538 30.365" stroke="#00448E" stroke-width="2" stroke-linecap="round" stroke-dasharray="4 4"/>
<rect x="25.1691" y="9.62061" width="2.40515" height="2.40515" rx="1.20257" fill="#00448E"/>
<rect x="25.1691" y="9.62061" width="2.40515" height="2.40515" rx="1.20257" fill="#00448E"/>
<rect x="25.1691" y="9.62061" width="2.40515" height="2.40515" rx="1.20257" fill="#00448E"/>
<rect x="16.5354" y="23.7509" width="2.40515" height="2.40515" rx="1.20257" fill="#00448E"/>
<rect x="16.5354" y="23.7509" width="2.40515" height="2.40515" rx="1.20257" fill="#00448E"/>
<rect x="16.5354" y="23.7509" width="2.40515" height="2.40515" rx="1.20257" fill="#00448E"/>
<rect x="4.1241" y="29.1624" width="2.40515" height="2.40515" rx="1.20257" fill="#00448E"/>
<rect x="4.1241" y="29.1624" width="2.40515" height="2.40515" rx="1.20257" fill="#00448E"/>
<rect x="4.1241" y="29.1624" width="2.40515" height="2.40515" rx="1.20257" fill="#00448E"/>
<path d="M123.148 27.0988C123.148 25.7519 123.35 24.5782 123.754 23.5777C124.177 22.5579 124.725 21.7113 125.399 21.0378C126.072 20.3644 126.842 19.8545 127.708 19.5082C128.593 19.1618 129.497 18.9886 130.421 18.9886C132.576 18.9886 134.279 19.6525 135.529 20.9801C136.78 22.2885 137.405 24.2222 137.405 26.7813C137.405 27.0315 137.396 27.3105 137.377 27.6183C137.357 27.9069 137.338 28.1667 137.319 28.3976H127.564C127.66 29.2827 128.073 29.985 128.805 30.5045C129.536 31.024 130.517 31.2838 131.748 31.2838C132.537 31.2838 133.307 31.2164 134.057 31.0817C134.827 30.9278 135.452 30.745 135.933 30.5334L136.511 34.0256C136.28 34.1411 135.972 34.2565 135.587 34.372C135.202 34.4874 134.769 34.5836 134.288 34.6606C133.827 34.7568 133.326 34.8338 132.788 34.8915C132.249 34.9492 131.71 34.9781 131.171 34.9781C129.805 34.9781 128.612 34.776 127.592 34.372C126.592 33.9679 125.755 33.4195 125.081 32.7268C124.427 32.0149 123.937 31.1779 123.609 30.2159C123.302 29.2538 123.148 28.2148 123.148 27.0988ZM133.249 25.4537C133.23 25.0881 133.163 24.7321 133.047 24.3858C132.951 24.0395 132.788 23.7316 132.557 23.4622C132.345 23.1928 132.066 22.9716 131.72 22.7984C131.393 22.6252 130.979 22.5386 130.479 22.5386C129.998 22.5386 129.584 22.6252 129.238 22.7984C128.891 22.9523 128.603 23.164 128.372 23.4334C128.141 23.7027 127.958 24.0202 127.823 24.3858C127.708 24.7321 127.621 25.0881 127.564 25.4537H133.249Z" fill="#D83225"/>
<path d="M121.275 34.0545C120.544 34.2661 119.602 34.4585 118.447 34.6317C117.293 34.8241 116.08 34.9203 114.81 34.9203C113.521 34.9203 112.444 34.7472 111.578 34.4008C110.731 34.0545 110.058 33.5734 109.558 32.9577C109.057 32.3228 108.701 31.5724 108.49 30.7065C108.278 29.8407 108.172 28.8882 108.172 27.8492V19.3927H112.473V27.3297C112.473 28.7151 112.655 29.7156 113.021 30.3313C113.387 30.947 114.07 31.2549 115.07 31.2549C115.378 31.2549 115.705 31.2453 116.052 31.226C116.398 31.1875 116.706 31.1491 116.975 31.1106V19.3927H121.275V34.0545Z" fill="#D83225"/>
<path d="M96.2884 26.4927C96.2884 28.8978 97.2601 30.1004 99.2035 30.1004C99.646 30.1004 100.06 30.0427 100.445 29.9272C100.829 29.8118 101.156 29.6771 101.426 29.5232V22.6541C101.214 22.6156 100.964 22.5867 100.675 22.5675C100.387 22.529 100.05 22.5098 99.6652 22.5098C98.53 22.5098 97.6834 22.885 97.1254 23.6354C96.5674 24.3858 96.2884 25.3382 96.2884 26.4927ZM105.726 32.6691C105.726 35.1512 105.091 36.9888 103.821 38.1817C102.571 39.3939 100.627 40 97.9913 40C97.0677 40 96.1441 39.9134 95.2205 39.7402C94.297 39.5863 93.4407 39.3747 92.6518 39.1053L93.4022 35.4976C94.0757 35.7669 94.778 35.9786 95.5091 36.1325C96.2596 36.2864 97.1062 36.3634 98.049 36.3634C99.2804 36.3634 100.146 36.094 100.647 35.5553C101.166 35.0165 101.426 34.3238 101.426 33.4772V32.9289C100.964 33.1405 100.483 33.3041 99.9827 33.4195C99.5017 33.5157 98.9726 33.5638 98.3953 33.5638C96.298 33.5638 94.6914 32.9481 93.5754 31.7167C92.4594 30.466 91.9014 28.7247 91.9014 26.4927C91.9014 25.3767 92.0746 24.3665 92.4209 23.4622C92.7673 22.5386 93.2675 21.7497 93.9217 21.0955C94.5952 20.4413 95.4129 19.9411 96.375 19.5947C97.3371 19.2291 98.4242 19.0464 99.6364 19.0464C100.156 19.0464 100.685 19.0752 101.224 19.1329C101.782 19.1714 102.33 19.2291 102.869 19.3061C103.408 19.3831 103.918 19.4793 104.399 19.5947C104.899 19.6909 105.341 19.7968 105.726 19.9122V32.6691Z" fill="#D83225"/>
<path d="M90.0236 34.574H85.7232V19.3927H90.0236V34.574ZM90.4277 15.0057C90.4277 15.7946 90.1679 16.4199 89.6484 16.8817C89.1481 17.3243 88.5517 17.5456 87.859 17.5456C87.1663 17.5456 86.5602 17.3243 86.0407 16.8817C85.5404 16.4199 85.2903 15.7946 85.2903 15.0057C85.2903 14.2168 85.5404 13.6011 86.0407 13.1586C86.5602 12.6968 87.1663 12.4659 87.859 12.4659C88.5517 12.4659 89.1481 12.6968 89.6484 13.1586C90.1679 13.6011 90.4277 14.2168 90.4277 15.0057Z" fill="#D83225"/>
<path d="M76.1113 31.1394C76.7463 31.1394 77.2658 31.0913 77.6699 30.9951C78.0932 30.8797 78.4299 30.7354 78.68 30.5622C78.9302 30.3698 79.1033 30.1485 79.1995 29.8984C79.2957 29.6482 79.3438 29.3692 79.3438 29.0614C79.3438 28.4072 79.036 27.8684 78.4203 27.4451C77.8046 27.0026 76.7463 26.5312 75.2455 26.0309C74.5913 25.8 73.9371 25.5402 73.2829 25.2516C72.6287 24.9438 72.0418 24.5686 71.5223 24.126C71.0028 23.6642 70.5795 23.1159 70.2524 22.4809C69.9253 21.8267 69.7617 21.0378 69.7617 20.1142C69.7617 19.1907 69.9349 18.3633 70.2813 17.6321C70.6276 16.8817 71.1182 16.2468 71.7532 15.7273C72.3882 15.2077 73.1578 14.8133 74.0621 14.5439C74.9665 14.2553 75.9863 14.111 77.1215 14.111C78.4684 14.111 79.6325 14.2553 80.6138 14.5439C81.5951 14.8325 82.4032 15.15 83.0382 15.4964L81.7394 19.0464C81.1814 18.7577 80.556 18.5076 79.8634 18.2959C79.1899 18.0651 78.3722 17.9496 77.4101 17.9496C76.3326 17.9496 75.5533 18.1035 75.0723 18.4114C74.6105 18.7 74.3796 19.1522 74.3796 19.7679C74.3796 20.1335 74.4662 20.4413 74.6394 20.6915C74.8126 20.9416 75.0531 21.1725 75.3609 21.3842C75.688 21.5766 76.0536 21.7594 76.4577 21.9325C76.881 22.0865 77.3428 22.25 77.843 22.4232C78.8821 22.808 79.7864 23.1928 80.556 23.5777C81.3257 23.9432 81.9607 24.3762 82.4609 24.8764C82.9804 25.3767 83.3653 25.9636 83.6154 26.637C83.8655 27.3104 83.9906 28.1282 83.9906 29.0902C83.9906 30.9566 83.3364 32.4093 82.028 33.4484C80.7196 34.4682 78.7474 34.978 76.1113 34.978C75.2262 34.978 74.4277 34.9203 73.7158 34.8049C73.0039 34.7087 72.3689 34.5836 71.8109 34.4297C71.2722 34.2757 70.8008 34.1122 70.3967 33.939C70.0119 33.7659 69.6848 33.6023 69.4154 33.4484L70.6853 29.8695C71.2818 30.1966 72.013 30.4949 72.8788 30.7642C73.7639 31.0144 74.8414 31.1394 76.1113 31.1394Z" fill="#D83225"/>
<path d="M54.2346 27.0988C54.2346 25.7519 54.4366 24.5782 54.8407 23.5777C55.264 22.5579 55.8123 21.7113 56.4858 21.0378C57.1592 20.3644 57.9289 19.8545 58.7947 19.5082C59.6798 19.1618 60.5842 18.9886 61.5077 18.9886C63.6628 18.9886 65.3656 19.6525 66.6163 20.9801C67.8669 22.2885 68.4923 24.2222 68.4923 26.7813C68.4923 27.0315 68.4827 27.3105 68.4634 27.6183C68.4442 27.9069 68.4249 28.1667 68.4057 28.3976H58.6504C58.7466 29.2827 59.1603 29.985 59.8915 30.5045C60.6226 31.024 61.6039 31.2838 62.8354 31.2838C63.6243 31.2838 64.3939 31.2164 65.1443 31.0817C65.914 30.9278 66.5393 30.745 67.0203 30.5334L67.5976 34.0256C67.3667 34.1411 67.0588 34.2565 66.674 34.372C66.2892 34.4874 65.8562 34.5836 65.3752 34.6606C64.9134 34.7568 64.4132 34.8338 63.8744 34.8915C63.3356 34.9492 62.7969 34.9781 62.2581 34.9781C60.892 34.9781 59.6991 34.776 58.6793 34.372C57.6787 33.9679 56.8418 33.4195 56.1683 32.7268C55.5141 32.0149 55.0235 31.1779 54.6964 30.2159C54.3885 29.2538 54.2346 28.2148 54.2346 27.0988ZM64.3362 25.4537C64.317 25.0881 64.2496 24.7321 64.1342 24.3858C64.038 24.0395 63.8744 23.7316 63.6435 23.4622C63.4319 23.1928 63.1529 22.9716 62.8065 22.7984C62.4794 22.6252 62.0657 22.5386 61.5655 22.5386C61.0844 22.5386 60.6707 22.6252 60.3244 22.7984C59.9781 22.9523 59.6894 23.164 59.4586 23.4334C59.2277 23.7027 59.0449 24.0202 58.9102 24.3858C58.7947 24.7321 58.7081 25.0881 58.6504 25.4537H64.3362Z" fill="#D83225"/>
<path d="M45.3442 31.1394C45.9792 31.1394 46.4987 31.0913 46.9028 30.9951C47.3261 30.8797 47.6628 30.7354 47.9129 30.5622C48.1631 30.3698 48.3362 30.1485 48.4325 29.8984C48.5287 29.6482 48.5768 29.3692 48.5768 29.0614C48.5768 28.4072 48.2689 27.8684 47.6532 27.4451C47.0375 27.0026 45.9792 26.5312 44.4784 26.0309C43.8242 25.8 43.17 25.5402 42.5158 25.2516C41.8616 24.9438 41.2747 24.5686 40.7552 24.126C40.2357 23.6642 39.8124 23.1159 39.4853 22.4809C39.1582 21.8267 38.9947 21.0378 38.9947 20.1142C38.9947 19.1907 39.1678 18.3633 39.5142 17.6321C39.8605 16.8817 40.3512 16.2468 40.9861 15.7273C41.6211 15.2077 42.3907 14.8133 43.2951 14.5439C44.1994 14.2553 45.2192 14.111 46.3544 14.111C47.7013 14.111 48.8654 14.2553 49.8467 14.5439C50.828 14.8325 51.6361 15.15 52.2711 15.4964L50.9723 19.0464C50.4143 18.7577 49.789 18.5076 49.0963 18.2959C48.4228 18.0651 47.6051 17.9496 46.643 17.9496C45.5655 17.9496 44.7863 18.1035 44.3052 18.4114C43.8434 18.7 43.6125 19.1522 43.6125 19.7679C43.6125 20.1335 43.6991 20.4413 43.8723 20.6915C44.0455 20.9416 44.286 21.1725 44.5938 21.3842C44.9209 21.5766 45.2865 21.7594 45.6906 21.9325C46.1139 22.0865 46.5757 22.25 47.076 22.4232C48.115 22.808 49.0193 23.1928 49.789 23.5777C50.5586 23.9432 51.1936 24.3762 51.6938 24.8764C52.2133 25.3767 52.5982 25.9636 52.8483 26.637C53.0984 27.3104 53.2235 28.1282 53.2235 29.0902C53.2235 30.9566 52.5693 32.4093 51.2609 33.4484C49.9525 34.4682 47.9803 34.978 45.3442 34.978C44.4592 34.978 43.6606 34.9203 42.9487 34.8049C42.2368 34.7087 41.6018 34.5836 41.0438 34.4297C40.5051 34.2757 40.0337 34.1122 39.6296 33.939C39.2448 33.7659 38.9177 33.6023 38.6483 33.4484L39.9182 29.8695C40.5147 30.1966 41.2459 30.4949 42.1117 30.7642C42.9968 31.0144 44.0743 31.1394 45.3442 31.1394Z" fill="#D83225"/>
</svg>
