<?xml version="1.0" encoding="UTF-8"?>
<svg id="Capa_1" xmlns="http://www.w3.org/2000/svg" version="1.1" viewBox="0 0 168.68 84.86">
  <!-- Generator: Adobe Illustrator 29.8.2, SVG Export Plug-In . SVG Version: 2.1.1 Build 3)  -->
  <defs>
    <style>
      .st0 {
        fill: #542f35;
      }

      .st1 {
        fill: #ea0a26;
      }
    </style>
  </defs>
  <g>
    <path class="st1" d="M1.31,80.78v-40.05h12.2l3.37,24.42,3.35-24.42h12.31v40.05h-7.33v-28.86l-4.6,28.86h-7.19l-4.87-28.86v28.86s-7.24,0-7.24,0Z"/>
    <path class="st1" d="M34.99,80.78l3.87-34.24,13.59-2.13,3.8,36.37h-7.58l-.57-6.46h-4.82l-.5,6.46h-7.79ZM43.84,67.92h3.64l-1.75-16.29h-.36l-1.52,16.29h-.01Z"/>
    <path class="st1" d="M76.4,85.03l-6.37-4.19c-.73.2-1.48.3-2.25.3-3.13,0-5.51-.93-7.16-2.78-1.65-1.85-2.47-4.55-2.47-8.1v-19.37c0-3.44.85-6.06,2.54-7.85,1.69-1.79,4.14-2.69,7.34-2.69s5.65.9,7.34,2.69c1.69,1.79,2.54,4.41,2.54,7.85v19.37c0,3.31-.74,5.91-2.23,7.81l3.44,2.18-2.71,4.78h0ZM68.03,73.77c.58,0,.99-.21,1.24-.64.25-.42.41-.95.48-1.57.07-.62.1-1.22.1-1.8v-18.73c0-.85-.12-1.61-.35-2.29-.24-.67-.74-1.01-1.51-1.01s-1.3.33-1.55.99c-.24.66-.36,1.42-.36,2.29v18.91c0,.53.03,1.1.1,1.7s.24,1.11.51,1.52c.27.42.72.63,1.34.63Z"/>
    <path class="st1" d="M90.97,81.14c-3.34,0-5.8-.94-7.37-2.81-1.58-1.87-2.37-4.63-2.37-8.27v-29.33h7.78v29.01c0,.67.04,1.31.11,1.92.08.61.25,1.12.52,1.51s.71.59,1.32.59,1.07-.19,1.34-.58c.27-.39.44-.89.51-1.51.07-.62.1-1.27.1-1.93v-29.01h7.78v29.33c0,3.64-.79,6.4-2.37,8.27-1.58,1.87-4.04,2.81-7.37,2.81h.02Z"/>
    <path class="st1" d="M103.42,80.78v-40.05h7.74v40.05h-7.74Z"/>
    <path class="st1" d="M114.34,80.78v-40.05h8.24l3.69,19.18v-19.18h7.74v40.05h-7.83l-4.01-20.03v20.03h-7.83Z"/>
    <path class="st1" d="M136.46,80.78l3.87-40.05h13.59l3.8,40.05h-7.58l-.57-6.46h-4.82l-.5,6.46h-7.79ZM145.31,67.92h3.64l-1.75-20.37h-.36l-1.52,20.37h0Z"/>
    <path class="st1" d="M161.24,69.88l-1.59-29.15h8.15l-1.59,29.15h-4.97ZM159.65,80.76v-6.78h8.15v6.78h-8.15Z"/>
    <polygon class="st1" points="40.25 43.73 40.25 40.73 51.06 35.77 51.06 41.59 40.25 43.73"/>
  </g>
  <g>
    <g>
      <path class="st1" d="M1.31,13.53v-4.52h4.93v4.52s-4.93,0-4.93,0ZM1.31,34.05l.96-17.79h3l.96,17.79H1.3h.01Z"/>
      <path class="st0" d="M8.53,34.05V7.35h9.71v5.16h-4.77v5.2h4.58v5.02h-4.58v6.11h5.09v5.2h-10.03Z"/>
      <path class="st0" d="M20.15,34.05V7.35h4.85v22.15h4.99v4.55h-9.85.01Z"/>
      <path class="st1" d="M38,34.05V7.35h6.41c1.34,0,2.41.33,3.19.99.79.66,1.35,1.59,1.69,2.81.34,1.21.51,2.66.51,4.34s-.14,3.03-.43,4.22c-.29,1.2-.79,2.13-1.52,2.78-.73.66-1.77.99-3.11.99h-1.97v10.57h-4.77ZM42.77,18.68h.28c.9,0,1.45-.28,1.65-.83.2-.56.3-1.38.3-2.46,0-1.01-.1-1.79-.3-2.34-.2-.55-.66-.83-1.4-.83h-.54v6.46h.01Z"/>
      <path class="st1" d="M51.33,34.05V7.35h9.71v5.16h-4.77v5.2h4.58v5.02h-4.58v6.11h5.09v5.2h-10.03,0Z"/>
      <path class="st1" d="M62.96,34.05V7.35h7.45c1.24,0,2.18.31,2.81.93.63.62,1.06,1.49,1.28,2.61s.32,2.43.32,3.94-.17,2.62-.5,3.49c-.34.87-.97,1.47-1.9,1.81.76.17,1.3.59,1.61,1.25s.46,1.52.46,2.57v10.1h-4.79v-10.45c0-.78-.14-1.26-.43-1.45s-.76-.28-1.4-.28v12.18h-4.91ZM67.89,17.24h1.17c.67,0,1.01-.8,1.01-2.41,0-1.04-.07-1.72-.22-2.05-.15-.32-.42-.49-.83-.49h-1.13v4.95h0Z"/>
      <path class="st1" d="M82.03,34.29c-2.02,0-3.51-.62-4.47-1.87s-1.43-3.09-1.43-5.51V7.35h4.72v19.34c0,.45.02.87.07,1.28s.15.75.32,1.01c.17.26.43.39.8.39s.65-.13.81-.39c.17-.26.27-.59.31-1.01.04-.41.06-.84.06-1.29V7.35h4.72v19.55c0,2.43-.48,4.27-1.43,5.51-.96,1.25-2.45,1.87-4.47,1.87h-.01Z"/>
      <polygon class="st1" points="78.75 6.56 78.75 3.98 85.3 .68 85.3 5.13 78.75 6.56"/>
      <path class="st1" d="M95.75,34.05l2.34-26.7h8.23l2.3,26.7h-4.59l-.34-4.31h-2.92l-.3,4.31h-4.72ZM101.12,25.48h2.21l-1.06-13.58h-.22l-.92,13.58h-.01Z"/>
      <path class="st1" d="M118.82,34.05V12.48h-2.88v-5.13h10.62v5.13h-2.88v21.57h-4.86Z"/>
      <path class="st1" d="M133.7,34.29c-1.94,0-3.42-.64-4.45-1.93s-1.54-3.15-1.54-5.59v-12.68c0-2.29.51-4.02,1.52-5.2,1.02-1.18,2.5-1.77,4.46-1.77s3.45.59,4.46,1.77c1.02,1.18,1.52,2.92,1.52,5.2v12.68c0,2.44-.51,4.3-1.54,5.59s-2.51,1.93-4.45,1.93h.02ZM133.74,29.38c.74,0,1.1-.78,1.1-2.35v-13.03c0-1.31-.36-1.97-1.08-1.97-.81,0-1.21.67-1.21,2.02v13.02c0,.83.09,1.42.28,1.78.18.36.49.54.91.54h0Z"/>
      <path class="st1" d="M141.65,34.05V7.35h6.67c1.75,0,3.06.53,3.94,1.6.88,1.07,1.32,2.63,1.32,4.68v12.5c0,2.53-.4,4.48-1.21,5.86-.8,1.38-2.21,2.06-4.23,2.06h-6.51.02ZM146.53,29.33h.84c.89,0,1.34-.48,1.34-1.43v-13.77c0-.89-.11-1.46-.32-1.72-.22-.26-.65-.39-1.32-.39h-.54v17.31h0Z"/>
      <path class="st1" d="M154.91,34.05l2.34-26.7h8.23l2.3,26.7h-4.59l-.34-4.31h-2.92l-.3,4.31h-4.72ZM160.28,25.48h2.21l-1.06-13.58h-.22l-.92,13.58h-.01Z"/>
    </g>
    <g>
      <path class="st1" d="M1.31,13.53v-4.52h4.93v4.52s-4.93,0-4.93,0ZM1.31,34.05l.96-17.79h3l.96,17.79H1.3h.01Z"/>
      <path class="st1" d="M8.53,34.05V7.35h9.71v5.16h-4.77v5.2h4.58v5.02h-4.58v6.11h5.09v5.2h-10.03Z"/>
      <path class="st1" d="M20.15,34.05V7.35h4.85v22.15h4.99v4.55h-9.85.01Z"/>
      <path class="st1" d="M38,34.05V7.35h6.41c1.34,0,2.41.33,3.19.99.79.66,1.35,1.59,1.69,2.81.34,1.21.51,2.66.51,4.34s-.14,3.03-.43,4.22c-.29,1.2-.79,2.13-1.52,2.78-.73.66-1.77.99-3.11.99h-1.97v10.57h-4.77ZM42.77,18.68h.28c.9,0,1.45-.28,1.65-.83.2-.56.3-1.38.3-2.46,0-1.01-.1-1.79-.3-2.34-.2-.55-.66-.83-1.4-.83h-.54v6.46h.01Z"/>
      <path class="st1" d="M51.33,34.05V7.35h9.71v5.16h-4.77v5.2h4.58v5.02h-4.58v6.11h5.09v5.2h-10.03,0Z"/>
      <path class="st1" d="M62.96,34.05V7.35h7.45c1.24,0,2.18.31,2.81.93.63.62,1.06,1.49,1.28,2.61s.32,2.43.32,3.94-.17,2.62-.5,3.49c-.34.87-.97,1.47-1.9,1.81.76.17,1.3.59,1.61,1.25s.46,1.52.46,2.57v10.1h-4.79v-10.45c0-.78-.14-1.26-.43-1.45s-.76-.28-1.4-.28v12.18h-4.91ZM67.89,17.24h1.17c.67,0,1.01-.8,1.01-2.41,0-1.04-.07-1.72-.22-2.05-.15-.32-.42-.49-.83-.49h-1.13v4.95h0Z"/>
      <path class="st1" d="M82.03,34.29c-2.02,0-3.51-.62-4.47-1.87s-1.43-3.09-1.43-5.51V7.35h4.72v19.34c0,.45.02.87.07,1.28s.15.75.32,1.01c.17.26.43.39.8.39s.65-.13.81-.39c.17-.26.27-.59.31-1.01.04-.41.06-.84.06-1.29V7.35h4.72v19.55c0,2.43-.48,4.27-1.43,5.51-.96,1.25-2.45,1.87-4.47,1.87h-.01Z"/>
      <polygon class="st1" points="78.75 6.56 78.75 3.98 85.3 .68 85.3 5.13 78.75 6.56"/>
      <path class="st1" d="M95.75,34.05l2.34-26.7h8.23l2.3,26.7h-4.59l-.34-4.31h-2.92l-.3,4.31h-4.72ZM101.12,25.48h2.21l-1.06-13.58h-.22l-.92,13.58h-.01Z"/>
      <path class="st1" d="M118.82,34.05V12.48h-2.88v-5.13h10.62v5.13h-2.88v21.57h-4.86Z"/>
      <path class="st1" d="M133.7,34.29c-1.94,0-3.42-.64-4.45-1.93s-1.54-3.15-1.54-5.59v-12.68c0-2.29.51-4.02,1.52-5.2,1.02-1.18,2.5-1.77,4.46-1.77s3.45.59,4.46,1.77c1.02,1.18,1.52,2.92,1.52,5.2v12.68c0,2.44-.51,4.3-1.54,5.59s-2.51,1.93-4.45,1.93h.02ZM133.74,29.38c.74,0,1.1-.78,1.1-2.35v-13.03c0-1.31-.36-1.97-1.08-1.97-.81,0-1.21.67-1.21,2.02v13.02c0,.83.09,1.42.28,1.78.18.36.49.54.91.54h0Z"/>
      <path class="st1" d="M141.65,34.05V7.35h6.67c1.75,0,3.06.53,3.94,1.6.88,1.07,1.32,2.63,1.32,4.68v12.5c0,2.53-.4,4.48-1.21,5.86-.8,1.38-2.21,2.06-4.23,2.06h-6.51.02ZM146.53,29.33h.84c.89,0,1.34-.48,1.34-1.43v-13.77c0-.89-.11-1.46-.32-1.72-.22-.26-.65-.39-1.32-.39h-.54v17.31h0Z"/>
      <path class="st1" d="M154.91,34.05l2.34-26.7h8.23l2.3,26.7h-4.59l-.34-4.31h-2.92l-.3,4.31h-4.72ZM160.28,25.48h2.21l-1.06-13.58h-.22l-.92,13.58h-.01Z"/>
    </g>
  </g>
</svg>