<svg width="164" height="98" viewBox="0 0 164 98" fill="none" xmlns="http://www.w3.org/2000/svg">
<path d="M24.313 79.2788C25.2157 79.6308 26.1489 79.4624 26.9445 79.0186L26.7763 77.1665C26.761 76.9522 26.6998 76.7532 26.5927 76.5848L21.207 67.5693C20.6715 68.2122 20.0899 68.8245 19.5544 69.4367L23.6243 76.3705C23.7926 76.7073 23.915 77.0593 23.9609 77.442L24.2364 79.2635C24.2364 79.2635 24.2977 79.2635 24.3283 79.2788H24.313Z" fill="#25B3E4"/>
<path d="M49.7265 95.6565C49.6347 95.6718 49.5581 95.6871 49.4663 95.6871C49.2215 95.6871 48.9768 95.6106 48.7779 95.4728L38.343 88.7074C38.0676 88.738 37.8075 88.7533 37.5474 88.7533C36.7365 88.7839 35.9103 88.738 35.0994 88.6309C34.9617 88.6615 34.824 88.6921 34.6863 88.7074L43.1933 94.1565C43.1933 94.1565 43.3003 94.2177 43.3462 94.2636L46.6052 96.9116C47.0489 97.279 47.6762 97.3249 48.1658 97.0188C49.8947 95.9626 50.262 95.4728 50.5068 95.0749C50.3385 95.3657 50.0631 95.58 49.7265 95.6412V95.6565Z" fill="#25B3E4"/>
<path d="M14.1689 55.7679L11.6137 51.4821L9.47165 51.6964C9.02794 51.7423 8.58425 51.528 8.33945 51.1454L7.23788 49.4617C7.03898 49.1556 6.99313 48.7882 7.10023 48.4515C7.20733 48.1147 7.45206 47.8392 7.78867 47.7014L8.73727 47.3035C8.58427 47.0892 8.44651 46.8749 8.2935 46.6606C7.5285 45.5432 6.73298 44.3799 7.05429 42.7115C7.08489 42.5126 7.13074 42.3595 7.19194 42.2064C7.26844 42.0074 7.39095 41.8391 7.49805 41.686C8.24776 40.5993 9.2421 39.7574 10.1907 38.9309C10.4661 38.6859 10.7874 38.4257 11.1699 38.2268C11.4912 38.0584 11.8432 37.9819 12.1492 37.9053L12.5317 37.8135L9.74713 37.9972C8.96682 38.0431 8.69129 38.3339 7.89568 39.2064L5.37131 42.2677C5.1112 42.7575 5.05001 43.3391 5.18771 43.8748L5.86083 47.3953C5.90673 47.5484 5.92209 47.7014 5.92209 47.8545L5.75381 49.9362C5.78441 50.7474 6.85533 52.4311 7.57444 52.7985L9.22679 53.1811C9.6399 53.3954 10.5886 54.0995 10.8028 54.5128L12.3634 57.1761C12.9907 56.7475 13.6028 56.2731 14.1689 55.7679Z" fill="#25B3E4"/>
<path d="M19.2637 52.5996C16.8616 52.967 14.689 54.4517 12.8224 55.9211C10.8334 57.4977 9.04317 59.3038 7.40606 61.2631C5.76894 63.2223 4.45321 65.1203 3.2904 67.2326C2.20409 69.2071 1.10243 71.4265 0.949429 73.7225C0.674026 77.7634 3.32098 81.5747 6.33512 83.9931C9.18095 86.2738 12.5317 87.5442 16.0813 88.2636C17.8561 88.6157 19.6614 88.8147 21.4668 88.9065C22.6449 88.9677 23.8232 88.9677 25.0166 88.9677C26.6843 88.9677 28.5356 89.0902 30.1421 88.6463C30.5093 88.5391 30.4787 87.5748 30.1115 87.4983C27.8011 86.9473 25.139 87.284 22.7675 87.1922C21.1916 87.1309 19.6308 87.0544 18.0702 86.8554C15.1479 86.4728 12.2408 85.7381 9.60919 84.3452C6.05955 82.4778 2.6936 79.4165 1.85209 75.3297C1.40838 73.1562 2.6018 70.9214 3.58101 69.054C4.57552 67.1713 5.79963 65.3958 7.11544 63.7274C8.79846 61.5998 10.6803 59.6253 12.7611 57.8956C14.8113 56.1966 17.0605 54.9109 19.3403 53.5945C19.5392 53.4874 19.5391 52.569 19.2637 52.6149V52.5996Z" fill="#25B3E4"/>
<path d="M14.3218 74.8551C14.6584 74.4571 14.7655 73.9367 15.148 73.554C15.5917 73.1101 16.1578 72.7581 16.6474 72.3601C17.8561 71.3805 19.0037 70.3397 20.1206 69.2529C21.2375 68.1661 22.2471 67.1253 23.1958 65.9467C23.4865 65.5794 25.0471 63.8191 24.3892 63.2222C23.9455 62.8395 22.0025 65.4569 21.62 65.8702C20.396 67.1712 19.126 68.3957 17.7949 69.5743C16.3567 70.8448 13.4343 72.4673 14.2299 74.8091C14.2452 74.8551 14.2912 74.9163 14.3371 74.8551H14.3218Z" fill="#25B3E4"/>
<path d="M17.0912 46.9515C17.0912 46.9515 19.9524 49.3393 20.1972 49.5689C20.442 49.7985 20.9162 51.2373 20.9162 51.2373L21.8648 51.9567L23.5327 56.9619C23.5327 56.9619 25.2922 57.6201 25.4452 57.9109C25.69 58.3854 28.0615 63.6355 28.0615 63.6355C28.0615 63.6355 30.0505 65.1968 30.1729 65.5335C30.5095 66.4825 31.0144 68.0285 31.1521 68.1662C31.3969 68.2274 31.6723 68.304 31.8559 68.3499C32.0242 68.3958 32.1772 68.4724 32.2996 68.5795L34.2581 70.3091L34.0133 71.2581L37.3486 75.7888L38.2972 76.0337L39.0164 74.3653L42.1222 73.6459L46.2534 75.9419C46.3605 76.0031 46.4675 76.0797 46.5593 76.1715L47.2326 76.8756H47.6762C47.9516 76.7837 48.2271 76.8144 48.4872 76.9215L52.6183 78.6664L53.7199 74.197L55.3569 71.9775L51.5012 66.9876L48.4872 66.957L48.2729 62.2426L47.3856 62.1661L45.9321 63.5131L44.0654 63.758L42.3824 63.6967V61.7375L39.0775 61.6304L38.6493 60.8803L39.3224 59.3191L36.0481 55.3394L40.99 45.8341L48.6554 43.8443L50.7211 43.9208L51.333 43.2932L50.3844 40.7371L47.814 40.5075L49.8183 37.737L49.5736 36.8492L44.2643 34.4308L42.4896 35.8696L39.0318 35.7319L34.0896 28.7674L31.4274 26.9307L29.5302 27.4358L30.632 29.4256V31.0481L28.3674 33.589L25.7511 36.4666L20.0595 39.4054L17.3667 45.1912L16.6934 45.2525L17.0759 46.9974L17.0912 46.9515Z" fill="#249E5C"/>
<path d="M53.7963 85.8911L51.7615 84.0084L52.5878 78.6665L48.4566 76.9215C48.1965 76.8144 47.9212 76.7991 47.6458 76.8603H47.2021L46.5288 76.1868C46.437 76.095 46.3452 76.0185 46.2228 75.9572L42.0919 73.6613L38.9859 74.3807L38.2668 76.0491L37.3182 75.8042L33.9827 71.2735L34.2276 70.3245L32.2691 68.5948C32.1467 68.4877 31.9936 68.3959 31.8253 68.3652C31.6264 68.3193 31.3664 68.2581 31.1216 68.1816C30.9839 68.0438 30.4637 66.4979 30.1423 65.5489C30.0199 65.2121 28.0309 63.6509 28.0309 63.6509C28.0309 63.6509 25.6442 58.4007 25.4146 57.9262C25.2616 57.6201 23.5021 56.9773 23.5021 56.9773L21.8345 51.972L20.8859 51.2526C20.8859 51.2526 20.4114 49.8291 20.1666 49.5842C19.9218 49.3393 17.0608 46.9668 17.0608 46.9668L16.5864 44.8239L16.0969 45.1301L15.0564 43.6606C15.1788 44.3494 14.0006 45.1913 14.2148 46.2474C14.4443 47.426 13.9702 48.3903 14.9341 49.5842C15.8827 50.7781 16.2039 51.3751 16.6017 51.972C17.2749 52.967 17.7952 56.2579 17.7952 56.2579L21.1305 62.2121L25.1851 68.8857C25.1851 68.8857 27.5872 73.1715 29.1631 75.9725C29.6221 75.4368 30.0659 74.8552 30.6167 74.396C30.938 74.1358 31.2439 73.9674 31.6264 73.8297C31.9324 73.7072 32.2537 73.5847 32.575 73.5235C32.6821 73.4623 32.8198 73.4164 32.9575 73.4164C33.0493 73.3245 33.1717 73.2633 33.34 73.3245C33.799 73.4776 33.8909 73.9215 33.7838 74.3348C33.7838 74.6868 33.7073 75.0542 33.6155 75.3297C33.3554 76.1868 32.6975 76.7379 32.0855 77.3654C31.9019 77.5491 31.4736 78.0236 31.7643 78.2685C31.8408 78.345 31.9631 78.391 32.0855 78.4216C32.1161 78.4216 32.1466 78.4216 32.1772 78.4063C32.2843 78.4063 32.3915 78.3757 32.4986 78.3757C32.9423 77.7634 33.845 77.5338 34.5182 77.2736C36.5531 76.493 38.7104 75.9266 40.8525 75.5746C41.4033 75.4827 41.9389 75.4215 42.4897 75.3756C42.8263 75.345 43.224 75.2378 43.53 75.4521C43.8513 75.6817 43.9126 76.1868 43.7902 76.5236C43.6372 76.9369 43.2853 77.2277 42.8722 77.3348C42.7804 77.3654 42.7038 77.3348 42.6273 77.3042C42.1071 77.5797 41.5562 77.7634 40.9901 77.9318C40.3322 78.1307 39.7049 78.345 39.0929 78.6206C38.6645 78.8195 38.2209 79.0185 37.8077 79.2481C37.8077 79.3093 37.7771 79.3553 37.7465 79.4165C37.6853 79.493 37.6394 79.5696 37.5935 79.6461C37.7312 79.6155 37.869 79.5849 38.0067 79.5543C38.9247 79.3706 39.8426 79.0951 40.7912 79.1104C40.8524 79.1104 40.8985 79.1257 40.9444 79.1563C41.0668 79.1257 41.1738 79.0798 41.2962 79.0491C42.2448 78.7583 43.1934 78.4063 44.1574 78.1767C44.8306 78.0083 45.9322 77.8552 46.4677 78.4216C47.0032 78.9879 46.5135 79.6461 45.9933 79.9675C45.4272 80.3196 44.7847 80.4879 44.2033 80.6869C43.2088 81.039 42.1835 81.2992 41.189 81.6512C40.3934 81.9421 39.6439 82.3094 38.8636 82.5849C39.1696 82.7839 39.6285 82.7839 39.9651 82.7992C40.5618 82.7227 41.1737 82.6615 41.7704 82.6002C42.4742 82.5237 43.1627 82.3553 43.8666 82.2941C44.3868 82.2482 44.9376 82.187 45.4578 82.2788C45.9474 82.3706 46.4829 82.7227 46.3911 83.2737C46.2993 83.8094 45.6873 84.1003 45.2436 84.2839C44.0349 84.7891 42.7344 85.0799 41.4492 85.3248C41.2962 85.3554 41.1431 85.3707 41.0054 85.4013C41.189 85.5391 41.3728 85.6768 41.5411 85.8146C41.5564 85.8146 41.5869 85.8146 41.6022 85.8146C42.0153 85.784 42.5661 85.784 42.9333 86.0289C43.0404 85.8299 43.3617 85.7687 43.5453 85.937C43.6218 85.9677 43.6983 86.0289 43.7289 86.1054C43.8207 86.1054 43.9279 86.1054 44.0044 86.1666C44.0962 86.1207 44.2185 86.1207 44.3103 86.2126C44.3256 86.2126 44.341 86.2432 44.3563 86.2585C44.6011 86.3503 44.7234 86.7024 44.4939 86.886C44.1879 87.1309 43.8513 87.3146 43.5147 87.4677L47.1255 90.4218L51.4709 92.2586L53.7353 88.6616L54.8368 87.6361L53.827 85.8911H53.7963Z" fill="#C3703C"/>
<path d="M39.7969 85.9674C40.363 85.9368 40.9291 85.8908 41.4952 85.8449C41.3269 85.7072 41.1586 85.5694 40.9597 85.4316C40.3936 85.5235 39.8273 85.6153 39.2612 85.6919C39.0317 85.7225 38.8023 85.7378 38.5728 85.7531C38.5575 85.7531 38.4963 85.7531 38.4504 85.7684C38.4504 85.799 38.4504 85.8449 38.4504 85.8908C38.5728 85.9368 38.7105 85.9521 38.7411 85.9674C39.093 86.0133 39.4449 85.9827 39.7815 85.9674H39.7969Z" fill="#FDDD55"/>
<path d="M27.4494 78.5898C28.0461 77.9623 28.5358 77.2123 29.0867 76.5388C28.9949 76.401 28.9641 76.202 29.1171 76.0337C29.1324 76.0031 29.1631 75.9878 29.1784 75.9571C27.6024 73.1561 25.2004 68.8703 25.2004 68.8703L21.1458 62.1966L17.8104 56.2424C17.8104 56.2424 17.2902 52.9516 16.617 51.9566C16.2192 51.3597 15.8979 50.7627 14.9493 49.5688C14.0007 48.3749 14.4749 47.3953 14.2301 46.232C13.9853 45.0381 15.546 44.1044 14.9493 43.3697L12.7613 42.9105L11.6904 42.8799L13.0519 40.1094L12.2869 38.5176L9.41066 40.4615L7.58984 43.6605L8.9669 47.9004L8.01829 48.2984L8.85969 50.8546L11.5832 50.9158L14.3526 54.4057L27.4188 77.1357L27.4801 78.6205L27.4494 78.5898Z" fill="#FDDD55"/>
<path d="M47.0949 90.4371L43.4841 87.4829C43.2546 87.5901 43.0251 87.6666 42.7956 87.7431C42.6885 87.8043 42.5661 87.8503 42.4284 87.8809C42.3672 87.8809 42.3061 87.8809 42.2602 87.8809C41.5411 88.0339 40.7759 88.0799 40.0262 88.1105C39.506 88.1258 38.9706 88.1564 38.4504 88.1564L49.5584 95.1667L51.4556 92.2585L47.1102 90.4217L47.0949 90.4371Z" fill="#FDDD55"/>
<path d="M54.6684 86.0288C54.6225 85.9063 54.5307 85.6614 54.3012 85.4777C54.2247 85.4165 54.1482 85.3859 54.0717 85.3553C53.9952 85.3247 53.888 85.2022 53.7962 85.0798L53.7504 85.0338C53.3679 84.59 52.9242 84.192 52.4346 83.8552L54.1787 74.6102L55.1273 73.5081C55.7393 72.804 55.7853 71.7785 55.2345 71.0285L52.664 67.4927C52.2203 66.8957 51.5165 66.5284 50.7821 66.5284H48.9921V62.6099C48.9921 62.1201 48.7165 61.7068 48.2728 61.5078C47.8291 61.3089 47.3243 61.4007 46.9724 61.7221L45.5342 63.0691H42.9178V62.2119C42.9178 61.5538 42.3824 61.018 41.7245 61.018H39.307L39.5059 60.7425L39.7967 60.3752C40.1027 59.9619 40.1178 59.4109 39.8424 58.9823L36.7671 55.2934L41.1584 46.4157C43.4075 45.8187 44.9834 45.4055 46.1003 45.1146L46.8347 44.9157C47.9669 44.6248 48.5176 44.4718 48.6707 44.4412L50.721 44.5024C51.0576 44.5024 51.3789 44.3799 51.6237 44.1503C51.8532 43.9054 51.9908 43.584 51.9602 43.2473L51.5471 41.1962C51.4859 40.6298 51.0269 40.1707 50.4608 40.1247L48.9308 40.0023L50.3232 38.0737C50.5374 37.7829 50.5986 37.4155 50.5068 37.0634C50.415 36.7114 50.1701 36.4206 49.8335 36.2828L44.7692 34.0175C44.3561 33.8338 43.8511 33.895 43.4992 34.2011L42.1221 35.3797L39.5671 35.1501L34.7475 28.5378C34.671 28.4306 34.564 28.3388 34.4569 28.2622L31.7945 26.4255C31.4885 26.2112 31.0908 26.1653 30.7389 26.2724L29.8209 26.5785C29.4537 26.701 29.1783 26.9765 29.0559 27.3439C28.9335 27.7112 28.9947 28.0939 29.2242 28.4153L30.0658 29.5939V30.7878L25.5215 35.8849L19.8299 38.8237C19.5851 38.9461 19.3862 39.1604 19.2791 39.4053L17.03 44.5942L16.2497 44.5177L16.0967 43.4922C16.0202 43.0177 15.6682 42.6197 15.1939 42.5125L14.2912 42.283C14.2912 42.283 14.1382 42.2523 14.0617 42.237C14.0005 42.237 13.8781 42.2064 13.8475 42.1911C13.8016 42.1605 13.7251 42.1146 13.6639 42.0534C13.5568 41.9615 13.419 41.8391 13.2507 41.7625C13.2507 41.7625 13.2203 41.7625 13.205 41.7472L13.4039 41.5329C13.4039 41.5329 13.572 41.3493 13.6332 41.1656C13.6944 40.9666 13.6638 40.7829 13.6485 40.6911C13.5108 39.8339 13.2356 39.0074 12.8531 38.2421L12.6389 37.7982L12.1645 37.9206C11.8585 37.9971 11.5218 38.089 11.1852 38.2421C10.8027 38.441 10.4814 38.7012 10.206 38.9461C9.2574 39.7727 8.26287 40.6145 7.51316 41.7013C7.40606 41.8544 7.29903 42.0227 7.20723 42.2217C7.14603 42.3748 7.10018 42.5278 7.06958 42.7268C6.76358 44.3799 7.54379 45.5432 8.3088 46.6759C8.4618 46.8902 8.59956 47.1045 8.75257 47.3188L7.80396 47.7167C7.48266 47.8545 7.22263 48.13 7.11553 48.4667C7.00843 48.8035 7.05428 49.1708 7.25318 49.477L8.35475 51.1607C8.59955 51.5433 9.02794 51.7576 9.48694 51.7117L11.629 51.4974L26.6232 76.5847C26.7303 76.7531 26.7915 76.9673 26.8068 77.1663L26.9751 79.0031C27.0669 78.9419 27.1433 78.8807 27.2351 78.8347C27.5411 78.5439 27.8166 78.2225 28.092 77.8857L28.0154 77.0745C27.9848 76.6918 27.8625 76.3092 27.6635 75.9724L12.6693 50.8852C12.4551 50.5178 12.0574 50.3035 11.6443 50.3035C11.6137 50.3035 11.5677 50.3035 11.5371 50.3035L9.37992 50.5025L8.27817 48.8341L9.22677 48.4361C9.54808 48.2984 9.80829 48.0229 9.91539 47.6861C10.0225 47.3494 9.97666 46.982 9.79306 46.6759C9.64006 46.4463 9.48698 46.2167 9.33398 45.9871C8.64547 44.9769 8.06397 44.1044 8.27817 42.9411C8.29347 42.834 8.32415 42.7421 8.35475 42.6809C8.40065 42.5891 8.46182 42.4819 8.52303 42.3901C9.19623 41.4258 10.1143 40.6299 11.017 39.8645C11.2618 39.6502 11.4912 39.4513 11.7513 39.3288C11.8278 39.2829 11.9197 39.2523 11.9962 39.2217C12.1951 39.7115 12.3635 40.2319 12.4553 40.7676L11.5984 41.6554C10.9711 42.3136 11.0323 42.8187 11.2006 43.1401L11.5067 43.7218L12.8071 42.8952C12.8071 42.8952 12.8683 42.9411 12.8989 42.9717C13.006 43.0636 13.1437 43.1707 13.2967 43.2626C13.4803 43.3697 13.6945 43.4003 13.8628 43.4309C13.9087 43.4309 13.9698 43.4462 14.0157 43.4615L14.9033 43.6758L15.0562 44.7014C15.1327 45.2371 15.5763 45.6504 16.1118 45.7116L16.9075 45.8034C17.4277 45.8647 17.9327 45.5738 18.1469 45.084L20.4113 39.8951L26.1029 36.9563C26.2406 36.8951 26.3477 36.8032 26.4548 36.6961L31.3203 31.247V29.2112L30.2494 27.7265L31.152 27.4204L33.8142 29.2419L38.6338 35.8542C38.8327 36.1298 39.1539 36.3134 39.4906 36.344L42.0611 36.5736C42.3824 36.6043 42.7036 36.4971 42.9484 36.2981L44.3255 35.1195L49.3897 37.3543L47.9975 39.2829C47.7374 39.6349 47.6914 40.0788 47.875 40.4768C48.0586 40.8748 48.4258 41.135 48.8542 41.1809L50.3689 41.3033L50.7668 43.2932L48.7319 43.2319C48.6197 43.2319 47.8903 43.4054 46.5439 43.7524L45.8095 43.9513C44.6926 44.2422 43.1167 44.6554 40.8676 45.2524C40.531 45.3442 40.2556 45.5738 40.1026 45.88L35.7115 54.773C35.5279 55.1557 35.5585 55.6149 35.788 55.9822L38.8634 59.6711L38.5726 60.0231L38.236 60.4976C38.236 60.4976 38.1901 60.5741 38.1748 60.6048L38.0984 60.7272V61.5538L38.1748 61.6915C38.3737 62.0283 38.7256 62.2272 39.1234 62.2272H41.7549V63.0844C41.7549 63.7426 42.2905 64.2783 42.9484 64.2783H45.58C45.886 64.2783 46.1767 64.1712 46.3909 63.9569L47.11 63.2834L47.8139 62.6099V66.5437C47.8139 67.2018 48.3493 67.7376 49.0072 67.7376H50.7974C51.1493 67.7376 51.5012 67.9059 51.7001 68.1968L54.2706 71.7325C54.4848 72.0387 54.4694 72.4366 54.2246 72.7122L53.276 73.8142C53.1383 73.9673 53.0466 74.1663 53.0007 74.3806L51.2105 83.9012C51.1952 83.993 51.1952 84.0695 51.1952 84.1767V84.4981L51.6083 84.743C52.0827 85.0491 52.4957 85.4165 52.8629 85.8298L52.9088 85.8757C53.0006 85.9828 53.0924 86.09 53.2148 86.1971L53.3832 86.8859C53.4597 87.2074 53.6891 87.4676 54.0104 87.6053C53.8421 87.6819 53.7504 87.8043 53.7198 87.8655L53.5821 88.0492L49.5122 94.4932L39.7048 88.1411C38.9857 88.1717 38.2665 88.187 37.5627 88.187L48.8389 95.5034C49.0378 95.6412 49.2827 95.7177 49.5275 95.7177C49.6194 95.7177 49.6957 95.7177 49.7875 95.6871C50.1088 95.6106 50.3996 95.4116 50.5679 95.1208L53.8268 89.4574C54.0104 89.4115 54.1635 89.3043 54.3012 89.1207L54.5918 88.738C55.0661 88.6615 55.4334 88.2176 55.464 87.6972C55.4793 87.2992 55.311 86.9471 55.2038 86.7635L54.7143 86.0441L54.6684 86.0288Z" fill="#1768AB"/>
<path d="M13.0672 71.9623C13.5109 74.6103 14.735 76.7991 17.183 78.1002C19.371 79.2635 22.0179 79.8604 24.4813 80.0441C25.3075 80.1053 26.3631 80.1972 27.0822 79.7074C27.5412 79.4012 27.786 78.8808 28.0461 78.4216C28.4439 77.7635 28.8876 77.1665 29.3619 76.5696C30.1575 75.5593 31.5499 73.8144 33.0187 73.8144C34.0744 73.8144 33.0953 75.1767 32.7434 75.6052C32.2385 76.2328 31.6723 76.7838 31.1827 77.442C31.0144 77.6716 31.1214 78.7278 31.458 78.3757C32.4372 77.3655 33.493 76.5389 33.9367 75.1461C34.1509 74.4726 34.4263 73.0338 33.6307 72.5746C32.5138 71.947 30.7542 73.5542 30.081 74.2583C29.0406 75.345 28.3062 76.5849 27.4341 77.7941C26.6538 78.9114 25.4145 78.8043 24.1751 78.6971C22.7063 78.5747 21.2375 78.2992 19.8146 77.8553C18.4988 77.442 17.1525 76.9216 16.0662 76.0491C14.7045 74.9777 13.8323 73.3858 13.1438 71.8246C13.0979 71.7174 13.0519 71.9011 13.0672 71.947V71.9623Z" fill="#25B3E4"/>
<path d="M31.2745 78.4371C32.3303 78.9116 33.6461 78.5443 34.7018 78.2381C36.2777 77.7789 37.8078 77.1361 39.3837 76.6922C40.164 76.4626 40.9748 76.2636 41.7858 76.1564C42.1836 76.0952 42.6731 76.0034 43.0862 76.0493C43.5605 76.1105 43.6524 76.0034 43.3464 76.4626C42.8721 77.1361 41.495 77.5034 40.7912 77.8402C39.5825 78.4065 38.4045 78.9575 37.2417 79.5698C37.0733 79.6616 37.104 80.4269 37.3029 80.3657C38.6493 80.0443 39.9038 79.5851 41.189 79.0647C42.1988 78.6514 43.4382 78.2075 44.0808 77.2585C44.4327 76.7381 44.5552 76.0187 44.3716 75.4217C44.1115 74.5952 43.3617 74.5799 42.5967 74.6258C38.5728 74.8554 35.1302 77.2126 31.3052 78.131C31.2287 78.1463 31.2287 78.4065 31.3052 78.4371H31.2745Z" fill="#25B3E4"/>
<path d="M37.4253 80.2889C38.8023 79.8909 40.2558 79.6613 41.6481 79.3246C42.8109 79.049 46.1158 77.8092 46.8502 79.3246L46.743 78.6511C46.7124 79.6919 44.1268 80.3501 43.377 80.6409C41.847 81.2226 40.2711 81.6818 38.7257 82.2175C38.4656 82.3093 38.481 83.2583 38.7564 83.2124C40.6995 82.9675 42.6579 82.4165 44.4633 81.6511C45.672 81.146 47.2785 80.3348 47.1408 78.7888C46.8501 75.3908 39.0624 79.4776 37.4253 80.0287C37.3488 80.0593 37.3794 80.3042 37.4253 80.2889Z" fill="#25B3E4"/>
<path d="M38.7408 83.2279C39.9342 83.1208 41.1429 83.0596 42.3363 82.9065C42.78 82.8453 46.5132 82.7228 46.3296 83.1667C46.146 83.5647 44.9374 83.8096 44.509 83.9473C43.8817 84.1463 43.2391 84.3453 42.5965 84.4984C41.2041 84.8351 39.7965 85.0341 38.3736 85.1565C38.0982 85.1871 38.1135 86.1208 38.4042 86.1361C40.4238 86.2892 42.2293 86.1361 44.1724 85.5851C45.4882 85.2178 47.1099 84.6974 47.1099 83.0596C47.1099 79.784 40.2555 82.8146 38.7408 82.9677C38.6796 82.9677 38.6796 83.2279 38.7408 83.2279Z" fill="#25B3E4"/>
<path d="M39.1695 86.0595C40.2405 86.1208 41.2962 86.1514 42.3672 86.1514C42.8874 86.1514 43.4229 86.1514 43.9125 86.335C44.4021 86.5187 44.3715 86.5799 43.9584 86.8708C42.3825 87.9422 39.6591 87.9728 37.8231 87.9575C34.0286 87.9269 30.1883 86.9626 26.3939 87.4983C26.1338 87.5289 26.1491 88.4932 26.4245 88.4932C31.2594 88.4932 36.1401 90.1004 40.9597 89.182C42.4591 88.8912 45.2283 88.432 44.8458 86.335C44.3715 83.7942 40.6689 85.8759 39.1542 85.7993C39.093 85.7993 39.093 86.0595 39.1542 86.0595H39.1695Z" fill="#25B3E4"/>
<path d="M65.8067 21.6041C64.292 20.7316 61.8745 20.4102 58.8603 23.6245C58.0035 22.9051 57.2233 22.9816 56.8102 23.1194C55.8463 23.4408 55.1118 24.5123 55.0353 25.7368C55.0353 25.9205 54.821 56.4721 55.1729 60.8039C55.2647 61.9366 55.9686 62.7478 56.9631 62.8549C57.0396 62.8549 57.1009 62.8549 57.1774 62.8549C58.0801 62.8549 59.1205 62.2427 59.5183 60.9722C59.7325 60.2988 59.6865 58.263 59.5947 55.0027C59.5488 53.3496 59.4876 51.2067 59.5488 50.2883C64.3377 50.7169 67.9486 48.0842 69.7387 42.7882C72.3551 35.0737 70.3355 24.1602 65.8067 21.5735V21.6041ZM63.2209 26.5634C64.5826 26.8083 66.1433 30.0685 66.1892 34.0635C66.2504 39.7116 65.4088 43.1249 63.6187 44.4719C62.6089 45.2372 61.2472 45.375 59.4877 44.9158C59.4877 33.6196 59.4877 32.6859 60.8035 29.3338C61.5379 27.4358 62.4252 26.4256 63.2209 26.5787V26.5634Z" fill="#DF1223"/>
<path d="M84.1364 52.1402C83.4785 43.9053 83.5702 38.395 83.6314 34.7368C83.6926 31.3235 83.7078 29.7622 83.0499 28.9203C82.7592 28.553 82.3463 28.354 81.8567 28.354C79.9135 28.3693 79.7911 30.2826 79.5616 34.0939C79.4851 35.4409 79.378 37.1246 79.1791 39.1757C78.6895 44.5329 77.5727 49.2014 76.9147 51.0994C76.2415 48.8952 76.1037 43.2166 76.0578 41.1502C76.0578 40.7981 76.0425 40.492 76.0272 40.2012C75.9507 37.2164 76.0884 35.1041 76.1955 33.5735C76.3179 31.7673 76.3945 30.7724 75.9049 30.0989C75.6295 29.701 75.201 29.502 74.6348 29.4867C73.6097 29.4561 72.6611 30.4816 72.554 31.7673C72.5387 31.9816 70.7945 53.6862 75.6294 56.1046C76.0272 56.3036 76.425 56.4107 76.8229 56.4107C77.2207 56.4107 77.6185 56.3036 77.9857 56.0893C79.0108 55.4923 79.7452 54.1148 80.3267 52.5076C80.3267 52.7678 80.3267 52.9515 80.3267 53.0433C80.2043 53.9464 80.4643 54.7729 81.0304 55.2627C81.6271 55.7831 82.4533 55.8138 83.0959 55.3546C83.8609 54.7882 84.2435 53.6249 84.1211 52.1402H84.1364Z" fill="#DF1223"/>
<path d="M99.3445 26.1809C99.1762 25.4462 98.7479 24.8493 98.1512 24.4972C97.5851 24.1605 96.8966 24.0686 96.2387 24.237C94.9994 24.5738 93.8211 25.936 94.1424 28.1708C94.5249 30.8035 94.5709 34.4923 94.4944 37.6914C93.7141 35.6556 92.6277 32.8546 91.1283 28.982C90.6234 27.6963 89.5372 26.9769 88.3591 27.1146C87.135 27.2677 86.1252 28.2932 85.8498 29.6861C85.1154 33.4821 85.8039 51.1611 86.7831 53.6254C87.1809 54.6356 88.0683 55.2632 89.0781 55.2632C89.3841 55.2632 89.6901 55.202 89.9808 55.0948C91.0977 54.6662 92.184 53.3499 91.8933 51.4213C91.5414 49.0947 91.3119 46.7834 91.1742 44.717C91.572 45.6967 93.6529 50.6559 94.3108 51.406C94.9687 52.156 95.9172 52.4468 96.8505 52.2172C97.8144 51.9723 98.6101 51.1764 98.9773 50.1049C99.5281 48.4518 100.507 31.1096 99.3598 26.1962L99.3445 26.1809ZM97.7227 49.661C97.5085 50.3192 97.0495 50.7784 96.514 50.9162C96.055 51.0386 95.6112 50.8855 95.2899 50.5182C94.8309 49.9978 92.5972 44.7936 92.3371 44.0589C92.0158 43.2017 91.6945 42.3445 91.4038 41.5333C90.7459 39.7578 90.1797 38.1812 89.6289 36.9414C89.5677 39.1149 89.6595 45.3599 90.5928 51.5896C90.7764 52.7835 90.1645 53.5948 89.5219 53.8397C89.3689 53.9009 89.2158 53.9315 89.0781 53.9315C88.6191 53.9315 88.2061 53.6407 88.0072 53.1356C87.1963 51.0998 86.3853 33.8648 87.1503 29.931C87.3033 29.1198 87.8694 28.5075 88.5273 28.4157C89.1087 28.3392 89.629 28.7371 89.9044 29.4565C92.7196 36.6659 94.0353 40.1404 94.7391 42.0078C95.1828 43.1864 95.3664 43.6456 95.4888 43.9517C95.7183 41.5639 96.1775 32.9923 95.4584 27.9871C95.2441 26.5483 95.8714 25.7064 96.5905 25.5228C97.2791 25.3391 97.891 25.7524 98.0746 26.4871C99.2221 31.3392 98.1512 48.4212 97.7381 49.661H97.7227Z" fill="#DF1223"/>
<path d="M110.682 39.666C109.382 39.5283 107.851 40.4314 107.591 42.3906C107.53 42.8804 107.377 43.3243 107.224 43.6457C106.429 42.4212 105.725 39.9416 105.847 36.1149C105.939 32.9312 106.582 30.3444 107.209 28.9668C107.622 30.0077 108.418 30.6812 109.382 30.8036C110.498 30.9261 111.554 30.2679 112.09 29.1352C112.411 28.4464 112.977 26.5484 111.263 23.931C110.208 22.3085 108.356 21.6657 106.536 22.2932C104.975 22.829 101.272 25.1555 100.538 35.0129C100.079 41.2426 101.181 45.8345 103.843 48.6815C104.684 49.5846 105.725 50.0591 106.842 50.0591C107.515 50.0591 108.203 49.8907 108.877 49.5387C111.172 48.3754 112.885 45.4213 112.946 42.5283C112.977 40.9977 112.044 39.8191 110.682 39.6813V39.666ZM108.28 48.3601C107.79 48.605 107.301 48.7275 106.842 48.7275C106.092 48.7275 105.388 48.406 104.807 47.7631C102.42 45.1917 101.425 40.9212 101.854 35.0741C102.542 25.7372 105.939 23.8545 106.964 23.5024C108.203 23.0739 109.427 23.5024 110.162 24.6198C111.508 26.6862 111.126 28.0638 110.896 28.5536C110.606 29.1811 110.07 29.5332 109.535 29.472C108.984 29.4107 108.54 28.9362 108.341 28.1709C108.31 28.0791 108.295 27.9719 108.265 27.8648C108.142 27.3903 108.004 26.7933 107.729 26.6709C107.576 26.6096 107.362 26.6709 107.087 26.8852C105.771 27.8954 104.669 31.8444 104.547 36.069C104.409 40.3854 105.281 43.8141 106.872 45.2376C107.071 45.4213 107.285 45.4519 107.515 45.3447C108.112 45.0539 108.739 43.8141 108.907 42.559C109.06 41.4263 109.871 40.9059 110.56 40.9671C111.233 41.0436 111.661 41.6406 111.646 42.4824C111.6 44.8855 110.162 47.3958 108.295 48.3448L108.28 48.3601Z" fill="#DF1223"/>
<path d="M124.819 29.2115C124.819 27.3288 124.881 23.6705 124.911 22.2011C124.911 21.8032 124.911 21.5583 124.911 21.497C124.911 20.1348 124.146 19.4766 123.473 19.3235C122.494 19.1092 121.484 19.7674 121.132 20.8695C120.948 21.4358 120.918 23.2267 120.903 27.3288C120.903 28.2931 120.903 29.1502 120.887 29.7625C119.48 29.9921 118.623 30.1911 118.087 30.3288C118.072 29.1655 118.118 27.2982 118.148 25.7216C118.164 25.0787 118.179 24.4665 118.194 23.992C118.194 23.1348 117.919 22.446 117.399 22.0481C116.848 21.6348 116.098 21.6042 115.456 21.9868C114.186 22.7368 114.186 23.5175 114.186 28.5992C114.186 29.3645 114.186 30.237 114.186 31.2319C113.314 31.5534 111.891 32.2728 112.227 34.1554C112.334 34.7677 112.594 35.2269 112.992 35.4871C113.421 35.7779 113.91 35.7779 114.293 35.7167C114.369 37.7678 114.354 39.4209 114.339 40.676C114.323 43.1556 114.308 44.2883 114.935 45.0077C115.257 45.3904 115.716 45.5587 116.297 45.5281C117.093 45.4975 117.827 44.8853 118.179 43.9669C118.332 43.5383 118.347 42.6046 118.255 39.0688C118.225 37.431 118.179 35.7626 118.21 34.8136C119.158 34.5534 120.214 34.3544 120.948 34.2626C121.147 37.3392 121.086 39.8801 121.04 41.7628C120.979 44.4873 120.948 45.9873 121.668 46.7986C121.974 47.1506 122.387 47.3343 122.891 47.3343C122.891 47.3343 122.999 47.3343 123.06 47.3343C123.993 47.2578 124.789 46.4465 125.003 45.3445C125.064 44.9924 125.049 43.3546 124.957 38.2729C124.926 36.5126 124.881 34.6912 124.881 33.7269C125.829 33.5891 127.237 33.2677 127.374 31.4003C127.42 30.7268 127.283 30.1911 126.931 29.8084C126.38 29.1962 125.569 29.1656 124.85 29.2421L124.819 29.2115Z" fill="#DF1223"/>
<path d="M137.687 40.2781C136.631 39.2985 135.774 39.9873 135.009 40.5996C134.673 40.8751 134.26 41.1965 133.709 41.5486C133.158 41.9006 132.974 41.7628 132.898 41.7016C132.01 40.9822 131.766 37.2321 131.919 34.5535C132.408 34.4464 132.867 34.4005 133.296 34.3392C134.764 34.1555 136.432 33.9413 136.493 31.8137C136.509 31.1708 136.34 30.6504 136.004 30.283C135.269 29.5024 134.03 29.7167 132.607 29.9616C132.393 29.9922 132.194 30.0381 131.98 30.0687C131.995 28.3391 132.087 24.6656 132.148 23.2114C133.097 23.0278 134.673 22.7982 135.025 22.8288C135.805 23.0584 136.601 22.7829 137.167 22.0941C137.717 21.4206 137.962 20.4563 137.763 19.6757C137.595 18.9869 137.121 18.4971 136.447 18.3134C135.606 18.0838 131.353 18.8338 130.067 19.2012C128.185 19.7369 128.185 21.0073 128.139 25.2013C128.139 26.1809 128.124 27.3901 128.094 28.8136C128.094 29.4259 128.063 30.1147 128.032 30.8494C127.833 36.574 127.589 43.7068 130.664 45.7425C131.2 46.0946 131.827 46.2783 132.485 46.2783C133.846 46.2783 135.438 45.5282 137.365 43.9976C137.947 43.5384 138.314 42.7425 138.345 41.9465C138.36 41.273 138.131 40.6761 137.702 40.2781H137.687Z" fill="#DF1223"/>
<path d="M161.586 22.5836C161.448 21.604 161.341 20.8387 161.28 20.3642C160.928 17.1804 159.78 15.6345 157.531 13.5528C157.24 13.2773 156.98 13.0477 156.751 12.8334C155.282 11.4558 154.792 10.9966 152.314 9.87927C150.432 9.0221 146.821 8.45577 145.704 9.42007C144.756 10.2313 144.082 10.9813 143.883 13.1548C143.837 13.7059 143.807 14.5018 143.807 15.3743C143.792 15.6192 143.776 15.8641 143.761 16.109C143.271 16.8437 142.858 17.6702 142.583 18.558C142.292 19.4764 142.078 20.456 142.644 21.2979C142.996 21.8183 143.516 22.1703 144.021 22.4612C144.648 22.8285 145.337 23.0887 146.01 23.2877C146.775 23.502 147.586 23.6398 148.382 23.6244C148.519 23.6244 148.672 23.5938 148.81 23.5326C148.902 23.9306 149.07 24.2979 149.346 24.5275C149.774 24.8643 150.309 24.8184 150.799 24.6653C150.891 25.1551 151.044 25.6143 151.38 25.8592C151.962 26.3031 152.758 26.0582 153.354 25.7673C153.4 25.752 153.446 25.7214 153.492 25.6755C153.461 25.8133 153.446 25.9357 153.415 26.0735C153.018 28.0786 152.038 33.3134 151.625 38.5941C151.35 42.1759 151.396 45.0688 151.748 47.2576C149.606 45.0688 147.127 44.0432 145.123 43.4616C142.491 42.7116 140.946 42.6963 140.869 42.6963H140.364L139.752 44.1198H141.16C146.377 44.4718 150.386 47.3035 152.069 48.6964C152.452 50.074 152.987 51.0536 153.706 51.6505L154.089 51.0995C154.089 51.0995 151.411 47.977 153.094 33.8798C153.278 33.0073 154.043 27.1449 154.502 23.6857C154.762 22.0785 154.823 21.1601 154.838 21.1142L154.211 20.9917C154.211 20.9917 154.073 22.0479 153.89 23.5173C153.813 24.0377 153.706 24.6194 153.584 25.2775C153.431 25.1398 153.125 25.2316 152.987 25.3082C152.819 25.4 152.62 25.4765 152.421 25.4612C152.161 25.4306 151.977 25.1551 151.885 24.8796C151.656 24.1908 151.61 23.3795 151.549 22.6448C151.442 21.053 151.564 19.4458 151.916 17.8998C152.008 17.4866 151.059 17.6549 150.967 18.0376C150.569 19.8438 150.462 21.7265 150.661 23.5785C150.677 23.7163 150.692 23.8847 150.707 24.0377C150.6 24.0836 150.478 24.0989 150.371 24.0836C150.11 24.053 149.927 23.7928 149.835 23.5173C149.606 22.8285 149.56 22.0173 149.499 21.2826C149.391 19.6907 149.514 18.0835 149.866 16.5529C149.958 16.1243 149.009 16.2927 148.917 16.6906C148.519 18.4968 148.412 20.3795 148.611 22.2316C148.611 22.2622 148.611 22.3081 148.611 22.3387C148.183 22.5377 147.754 22.553 147.555 21.956C147.326 21.2673 147.28 20.456 147.219 19.7213C147.112 18.1447 147.249 16.5376 147.586 15.0069C147.647 14.7467 147.311 14.6702 147.158 14.6855C146.943 14.7008 146.699 14.8539 146.637 15.1141C146.27 16.7672 146.148 18.4815 146.286 20.1805C146.209 20.1958 146.148 20.2264 146.117 20.2417C145.872 20.3642 145.628 20.456 145.383 20.2876C145.077 20.0887 144.97 19.6754 144.908 19.308C144.847 19.0172 144.801 18.7111 144.756 18.4203C144.71 16.66 144.694 13.6293 145.123 12.313C145.765 10.3385 146.699 10.0476 147.617 10.0323C148.688 10.017 151.533 10.3844 153.507 11.6854C155.557 13.0324 158.556 15.9559 159.321 17.3641C160.04 18.6805 162.672 33.0532 162.289 44.0739C161.922 54.7578 158.235 60.2222 155.144 61.6916C154.349 61.5997 145.704 60.3293 138.681 58.1864L138.391 58.0946L137.962 59.4262L138.314 59.5334C142.782 60.8497 150.631 62.8396 154.609 62.8396C154.93 62.8396 155.236 62.8396 155.527 62.8089H155.573L155.619 62.7936C155.802 62.7171 160.316 60.7273 162.458 50.5791C164.294 41.9003 162.351 28.3541 161.509 22.5836H161.586ZM148.749 23.1653C148.657 23.1653 148.58 23.1653 148.489 23.1653C148.565 23.1346 148.657 23.1193 148.734 23.0887C148.734 23.1193 148.734 23.1499 148.734 23.1806L148.749 23.1653ZM146.377 20.6244C146.377 20.6244 146.377 20.655 146.377 20.6703C146.454 21.405 146.515 22.4152 147.035 22.905C146.362 22.7367 145.719 22.4765 145.107 22.155C144.602 21.8948 144.113 21.5734 143.715 21.1142C143.455 20.8234 143.287 20.4254 143.226 20.0121C143.164 19.5223 143.302 19.0172 143.44 18.558C143.532 18.2519 143.639 17.9458 143.746 17.6549C143.746 17.8386 143.776 18.0223 143.792 18.206C143.822 18.5427 143.883 18.8795 143.929 19.2009C144.006 19.6142 144.052 20.0427 144.266 20.3948C144.74 21.1448 145.704 20.8999 146.362 20.6091L146.377 20.6244Z" fill="#25B3E4"/>
<path d="M76.9149 7.01729C84.4578 -0.788999 88.191 20.9768 77.0525 20.3186C76.7771 20.6094 77.2207 25.5228 76.9759 26.2116C76.5934 27.2371 75.0788 27.3902 74.9717 26.2881C74.7575 24.084 74.8645 8.07343 74.8798 7.82853C74.941 6.97137 75.9356 6.0836 76.9149 7.0326V7.01729ZM76.9453 18.0379C80.9539 18.8492 81.9333 15.9563 81.8721 11.7929C81.8262 8.48671 79.4699 5.71624 77.8022 9.4204C76.9454 11.3184 76.9606 11.8541 76.9606 18.0532L76.9453 18.0379Z" fill="#DF1223"/>
<path d="M85.2534 21.1755C83.708 17.9917 85.391 8.8997 89.9811 11.8998C91.1745 12.6804 91.5877 14.7774 91.6183 16.3386C91.7254 22.7214 86.8599 24.4817 85.2534 21.1602V21.1755ZM87.9922 13.7518C87.12 14.3794 86.4315 19.5071 87.732 20.2724C89.5833 21.3591 89.9506 14.0427 87.9922 13.7518Z" fill="#DF1223"/>
<path d="M100.064 20.4715C99.758 19.645 99.9414 13.4152 98.3655 12.7418C98.136 12.9101 98.0137 13.1091 97.8913 13.3234C95.6575 16.8133 95.9941 21.5736 93.9439 21.4664C92.8729 21.4052 93.0258 21.1603 92.5209 12.5887C92.4291 10.9815 94.5864 10.4917 94.7853 11.8234C94.8465 12.3132 94.9077 13.5377 94.9536 14.2265C95.382 14.2265 96.4225 9.7264 99.406 10.4764C102.007 11.1193 101.976 16.1704 102.267 19.3541C102.42 21.0072 100.492 21.6195 100.064 20.4868V20.4715Z" fill="#DF1223"/>
<path d="M104.883 19.3541C104.241 19.6755 103.445 19.4612 103.399 18.451C103.369 17.7622 103.338 10.4151 103.338 10.1549C103.338 2.02719 102.986 2.07311 103.338 1.39963C103.843 0.3894 105.434 0.0985805 105.495 1.76698C105.679 7.24669 105.618 4.50683 105.694 16.8591C105.694 17.5632 106.046 18.7724 104.883 19.3541Z" fill="#DF1223"/>
<path d="M114.109 17.7165C112.993 18.3134 107.653 18.9716 106.827 14.5786C105.893 9.57343 110.973 4.30801 113.589 6.91011C113.849 7.15501 113.957 7.52237 113.972 7.90503C114.064 9.57343 113.084 12.4664 109.076 13.247C109.03 14.4103 109.672 15.3593 110.698 15.6042C111.279 15.7419 112.625 15.9103 113.237 15.6042C114.722 14.9001 115.655 16.8899 114.109 17.7165ZM109.473 10.8439C109.978 10.7061 110.958 10.3388 111.264 9.87956C112.564 7.88972 110.499 8.36422 109.473 10.8439Z" fill="#DF1223"/>
<path d="M60.8647 75.345C60.727 75.4522 60.5894 75.5134 60.4364 75.544C59.5949 75.7124 59.5336 74.4879 60.3445 74.1052C60.6811 73.9521 61.4615 73.0491 61.8899 72.0694C62.4254 70.8296 62.5171 69.3908 62.3947 68.8857C61.9969 69.2837 61.6451 70.1408 60.6047 70.5694C58.7075 71.35 58.432 68.1663 58.7686 66.1918C59.0134 64.753 60.1304 64.9366 60.1916 65.5795C60.1916 65.5795 59.7326 68.8704 60.3905 69.2684C61.538 68.7786 62.15 65.9316 62.3336 65.1203C62.5325 64.2785 63.6495 64.0795 63.6801 65.0285C63.7872 68.4418 64.552 72.3603 60.8647 75.3144V75.345Z" fill="#4E4D4D"/>
<path d="M68.8516 73.9215C67.9336 74.1052 66.8472 73.3245 67.6275 72.5745C68.4843 71.748 68.469 73.3552 70.1367 71.8704C71.7127 70.4622 72.2022 67.7683 71.8044 66.1305C68.7597 71.748 65.6079 67.4775 69.3717 63.9111C71.0242 62.3498 72.3552 62.9621 72.5847 63.3907C72.8601 63.9264 73.1509 65.6101 73.2274 66.2071C73.6252 69.6357 71.6515 73.3399 68.8516 73.9215ZM71.0854 64.3091C70.1061 64.3397 68.4843 66.9724 69.1728 67.4469C70.1826 67.0948 71.0242 64.9213 71.0854 64.3091Z" fill="#4E4D4D"/>
<path d="M78.7049 68.5645C77.8175 68.8401 77.8787 67.738 77.5268 66.4216C76.8077 67.5237 76.1039 68.6104 75.0175 68.3196C72.493 67.6308 74.2679 62.8399 76.2263 62.0287C77.6339 61.447 78.1542 62.197 78.4143 62.243C79.3629 62.4266 78.4143 63.9114 78.9498 66.2839C79.1487 67.187 79.6689 68.2737 78.7049 68.5645ZM77.3892 63.391C76.2416 62.1358 74.2221 66.5747 75.5838 66.9727C76.41 66.3298 77.0678 64.3093 77.3892 63.391Z" fill="#4E4D4D"/>
<path d="M84.1976 66.7428C84.014 66.253 84.1213 62.5947 83.2033 62.1968C83.0656 62.2886 83.0043 62.4111 82.9278 62.5335C81.612 64.5846 81.8109 67.3857 80.6174 67.3244C79.9901 67.2938 80.082 67.1407 79.776 62.1049C79.7148 61.1559 81 60.8651 81.1071 61.661C81.1531 61.9519 81.1836 62.6713 81.1989 63.0692C81.459 63.0692 82.0556 60.4212 83.8151 60.8651C85.3451 61.2478 85.3147 64.2172 85.4983 66.0846C85.5901 67.0642 84.4577 67.4163 84.1976 66.7581V66.7428Z" fill="#4E4D4D"/>
<path d="M90.8226 66.192C89.9352 66.4675 89.9964 65.3654 89.6445 64.0491C88.9254 65.1511 88.2215 66.2379 87.1352 65.9471C84.6107 65.2583 86.3856 60.4674 88.344 59.6561C89.7516 59.0745 90.2717 59.8245 90.5318 59.8704C91.4804 60.0541 90.532 61.5388 91.0675 63.9113C91.2664 64.8144 91.7865 65.9011 90.8226 66.192ZM89.5068 61.0184C88.3593 59.7633 86.3396 64.2021 87.7013 64.6001C88.5275 63.9572 89.1855 61.9368 89.5068 61.0184Z" fill="#4E4D4D"/>
<path d="M100.248 63.2376C99.9568 63.957 99.008 63.9723 98.9468 63.2682C98.855 62.1355 99.1611 59.013 98.2584 58.5079C98.1207 58.6304 98.0748 58.7681 98.0136 58.8906C96.56 61.7988 97.5239 64.4621 96.0704 64.4621C94.8311 64.4621 96.1012 61.3243 94.8924 59.3038C94.1733 60.2681 93.6531 63.2835 93.5307 64.3244C93.4236 65.2121 92.1843 65.656 92.169 64.2784C92.0925 59.0896 91.4498 58.6304 92.4443 58.3395C93.1787 58.1252 93.2094 58.8447 93.2859 59.4875C93.3471 59.5028 93.3623 59.4569 93.3776 59.411C93.6071 58.9824 93.8826 58.4161 94.2804 58.0946C95.4891 57.115 96.2081 58.661 96.4682 59.1661C96.9578 58.1253 97.0802 57.8803 97.4015 57.5742C98.3348 56.6711 100.186 56.7324 100.248 60.4977C100.248 61.1559 100.263 61.8294 100.278 62.4876C100.278 62.6866 100.37 62.8856 100.232 63.2223L100.248 63.2376Z" fill="#4E4D4D"/>
<path d="M101.211 62.1207C100.309 60.2533 101.288 54.9113 103.996 56.6716C104.7 57.1308 104.945 58.3553 104.96 59.289C105.021 63.0391 102.16 64.0799 101.211 62.1207ZM102.818 57.7583C102.313 58.1257 101.9 61.1411 102.665 61.585C103.751 62.2278 103.981 57.9267 102.818 57.7583Z" fill="#4E4D4D"/>
<path d="M107.913 54.9109C107.484 55.5538 107.132 55.0181 106.781 55.0946C106.49 55.1558 106.475 55.615 106.521 55.9059C106.827 57.4518 111.707 60.0233 105.832 63.8193C104.73 64.5387 104.363 62.7478 105.679 62.3652C106.031 62.2733 107.974 61.0488 107.102 59.3192C106.49 58.1253 105.541 57.8039 105.22 56.564C104.853 55.1558 105.847 54.0385 106.765 53.8242C107.5 53.6558 108.341 54.2681 107.898 54.8956L107.913 54.9109Z" fill="#4E4D4D"/>
<path d="M118.531 58.3246C116.863 62.7941 113.926 62.7482 113.543 59.1971C113.421 57.9726 113.543 56.7175 113.543 55.9215C113.008 55.9674 112.885 56.1664 112.518 56.044C111.937 55.8297 112.12 54.9266 112.763 54.7429C113.1 54.6511 113.237 54.6358 113.635 54.5286C113.758 53.8858 113.498 52.8602 114.385 52.7072C115.226 52.5541 115.012 53.549 115.012 54.2378C116.114 54.1307 117.062 53.7327 117.169 54.5133C117.246 55.0644 116.619 55.5695 116.129 55.4776C115.93 55.447 116.083 55.4317 114.92 55.6613C114.691 56.7634 114.691 61.0033 115.915 60.2839C117.261 59.4879 116.894 57.4062 118.042 57.4522C118.409 57.4675 118.7 57.8348 118.516 58.3399L118.531 58.3246Z" fill="#4E4D4D"/>
<path d="M119.204 58.6002C118.302 56.7328 119.281 51.3908 121.989 53.1511C122.693 53.6103 122.938 54.8348 122.953 55.7685C123.014 59.5185 120.153 60.5594 119.204 58.6002ZM120.811 54.2225C120.306 54.5899 119.893 57.6052 120.658 58.0491C121.744 58.692 121.958 54.3909 120.811 54.2225Z" fill="#4E4D4D"/>
<path d="M126.992 58.4316C126.962 58.0948 126.977 57.8499 126.946 57.605C126.717 57.7122 126.518 57.8193 126.319 57.8805C122.265 59.3806 122.234 52.4161 126.962 52.2631C126.992 52.11 127.008 52.2631 126.992 51.2682C126.946 47.1813 126.839 47.2119 127.222 46.8446C127.635 46.4466 128.293 46.5385 128.308 47.2119C128.415 58.5999 128.232 57.1917 128.4 57.9265C128.599 58.8448 127.099 59.4265 127.023 58.4163L126.992 58.4316ZM126.962 54.8805C126.962 53.8243 127.023 53.7325 126.793 53.6866C124.544 53.1815 123.856 57.253 125.982 56.6407C127.161 56.2887 126.962 55.7683 126.962 54.8958V54.8805Z" fill="#4E4D4D"/>
<path d="M129.394 56.5948C128.492 54.7274 129.471 49.3855 132.179 51.1457C132.883 51.6049 133.128 52.8294 133.143 53.7631C133.204 57.5132 130.343 58.554 129.394 56.5948ZM131.016 52.2325C130.511 52.5998 130.098 55.6152 130.863 56.0591C131.949 56.7019 132.164 52.4008 131.016 52.2325Z" fill="#4E4D4D"/>
<path d="M136.111 49.4007C135.683 50.0436 135.331 49.5078 134.979 49.5844C134.688 49.6456 134.673 50.1048 134.719 50.3956C135.025 51.9416 139.905 54.513 134.03 58.309C132.929 59.0284 132.561 57.2376 133.877 56.8549C134.229 56.7631 136.172 55.5386 135.3 53.8089C134.688 52.615 133.739 52.2936 133.418 51.0538C133.051 49.6456 134.046 48.5282 134.964 48.3139C135.698 48.1456 136.539 48.7578 136.096 49.3854L136.111 49.4007Z" fill="#4E4D4D"/>
<path d="M115.486 66.7583C115.777 66.8502 116.037 66.9114 116.267 66.9114C116.282 66.9114 116.312 66.9114 116.328 66.9114H116.374C116.557 66.9114 116.833 66.9114 117.016 66.7124L119.097 64.5236C119.25 64.3552 119.25 64.1868 119.219 64.095C119.128 63.743 118.623 63.544 118.47 63.4981C118.148 63.3909 117.873 63.345 117.613 63.3603H117.567C117.384 63.3603 117.108 63.3603 116.924 63.5593L114.844 65.7481C114.691 65.9165 114.691 66.0848 114.721 66.1767C114.813 66.5287 115.318 66.7277 115.471 66.7736L115.486 66.7583Z" fill="#DF1223"/>
<path d="M85.3603 72.6361C84.3811 72.0544 82.7747 71.8095 80.7245 73.83C80.1737 73.4167 79.6688 73.5085 79.4087 73.6004C78.8732 73.7994 78.4754 74.3657 78.4295 74.978C78.4295 75.0698 78.2917 91.2181 78.5212 93.4834C78.5671 94.0345 78.9342 94.4171 79.4544 94.4784C79.5003 94.4784 79.5615 94.4784 79.6074 94.4784C80.1429 94.4784 80.7856 94.1416 81.0457 93.4528C81.1834 93.0855 81.1529 92.014 81.0917 90.2997C81.0611 89.3966 81.0152 88.1874 81.0764 87.7588C84.2894 87.866 86.6914 86.0598 87.6859 82.7995C88.8794 78.8964 87.7624 74.0443 85.345 72.6208L85.3603 72.6361ZM83.5856 75.1157C84.5495 75.3147 85.3756 77.0749 85.4062 78.9729C85.4521 81.8505 84.9779 83.5955 83.9528 84.4526C83.2643 85.0343 82.3003 85.2026 81.0304 84.9884C81.0304 79.0188 81.0305 78.529 81.8567 76.7076C82.3769 75.5596 82.9889 74.9933 83.5856 75.1157Z" fill="#DF1223"/>
<path d="M98.4422 87.7127C97.7231 87.1922 97.2335 87.5596 96.4837 88.0953C96.1471 88.3402 95.7187 88.6616 95.1526 88.9984C94.5559 89.3504 94.097 89.3964 93.7298 89.1668C92.3834 88.2943 92.521 83.886 92.6281 82.6309C93.2707 82.4625 93.8828 82.3554 94.4183 82.2789C95.8259 82.0493 97.0499 81.8503 97.0958 80.4574C97.0958 80.0288 96.9887 79.7074 96.7439 79.5084C96.2084 79.0492 95.2139 79.2482 93.8675 79.5237C93.4697 79.6002 93.0718 79.6921 92.6434 79.7533C92.6434 78.5747 92.7658 74.1358 92.8423 73.2174C93.5461 73.0491 95.9788 72.5746 96.3001 72.6358C96.8816 72.7582 97.4783 72.544 97.9067 72.0542C98.3351 71.549 98.5035 70.8756 98.3352 70.3704C98.1975 69.9725 97.8607 69.7123 97.417 69.6357C96.8203 69.5286 92.9801 70.248 91.4195 70.7072C89.9507 71.1358 89.9507 72.0389 89.9201 75.3604C89.9201 76.1716 89.9048 77.1818 89.8742 78.3757C89.8742 78.8961 89.8435 79.4625 89.8129 80.0747C89.6293 84.4524 89.3845 90.4678 92.1232 91.9219C92.5363 92.1362 92.9954 92.2587 93.485 92.2587C94.7396 92.2587 96.285 91.5852 98.1516 90.2076C98.6106 89.8709 98.9166 89.2892 98.9166 88.7382C98.9166 88.3249 98.7482 87.9729 98.4269 87.7433L98.4422 87.7127Z" fill="#DF1223"/>
<path d="M108.02 67.6612C106.505 67.0336 104.715 67.952 103.124 70.1409C103.078 69.5898 102.986 69.0082 102.573 68.7174C102.313 68.5337 101.992 68.5031 101.579 68.6102C101.533 68.6102 101.502 68.6255 101.456 68.6408C100.681 68.8347 100.406 74.7634 100.63 86.4269L100.66 87.7127C100.66 87.8657 100.66 88.0035 100.645 88.1412C100.615 88.4933 100.584 88.83 100.859 89.2586C101.058 89.58 101.41 89.7637 101.793 89.7637C101.869 89.7637 101.93 89.7637 102.007 89.7484C102.619 89.6566 103.124 89.1668 103.277 88.5545C103.369 88.1872 103.353 87.0239 103.308 85.2942C103.292 84.5748 103.262 83.8554 103.277 83.3656C104.623 84.4065 105.358 85.3402 105.924 86.0289C106.643 86.9167 107.117 87.5137 108.112 87.0086C108.647 86.7483 108.938 86.381 108.999 85.9371C109.152 84.7279 107.423 83.2126 105.878 81.8656C105.404 81.4523 104.96 81.0697 104.608 80.7176C108.02 77.5186 109.29 74.3501 109.764 72.2685C110.223 70.1715 109.519 68.2735 108.051 67.6612H108.02ZM106.612 70.1715C106.612 70.1715 106.643 70.1715 106.658 70.1715C106.888 70.2021 106.995 70.5082 107.041 70.6919C107.439 72.1919 106.475 75.6818 103.185 78.6206C103.078 76.6002 103.675 73.7073 105.281 71.3348C105.863 70.4776 106.337 70.1715 106.597 70.1715H106.612Z" fill="#DF1223"/>
<path d="M122.02 84.2228C121.377 77.7176 121.469 73.3399 121.53 70.447C121.576 67.9214 121.607 66.651 121.071 66.1306C120.872 65.9469 120.612 65.8551 120.291 65.8857C118.868 65.9775 118.776 67.1867 118.562 70.1103C118.485 71.1817 118.378 72.5287 118.195 74.1665C117.629 79.0645 116.175 83.9014 115.471 84.6667C114.308 83.8095 114.155 78.3451 114.079 75.9573C114.079 75.6818 114.064 75.4369 114.048 75.2073C113.972 72.8348 114.11 71.1358 114.217 69.9113C114.339 68.5337 114.4 67.8449 114.018 67.4469C113.773 67.1867 113.421 67.1714 113.176 67.1714C112.426 67.202 111.753 67.8602 111.661 68.6561C111.279 72.2685 110.606 86.029 114.415 87.3606C114.691 87.4525 114.982 87.5137 115.242 87.5137C115.578 87.5137 115.9 87.4371 116.221 87.2841C117.598 86.5953 118.455 84.4371 119.113 82.4319C119.235 83.4116 119.373 84.8044 119.312 85.0953C119.204 85.6616 119.388 86.1361 119.801 86.4269C120.199 86.7024 120.75 86.7178 121.193 86.4575C121.499 86.2739 122.173 85.7075 122.035 84.2381L122.02 84.2228Z" fill="#DF1223"/>
<path d="M115.486 66.7583C115.777 66.8502 116.037 66.9114 116.267 66.9114C116.282 66.9114 116.312 66.9114 116.328 66.9114H116.374C116.557 66.9114 116.833 66.9114 117.016 66.7124L119.097 64.5236C119.25 64.3552 119.25 64.1868 119.219 64.095C119.128 63.743 118.623 63.544 118.47 63.4981C118.148 63.3909 117.873 63.345 117.613 63.3603H117.567C117.384 63.3603 117.108 63.3603 116.924 63.5593L114.844 65.7481C114.691 65.9165 114.691 66.0848 114.721 66.1767C114.813 66.5287 115.318 66.7277 115.471 66.7736L115.486 66.7583Z" fill="#DF1223"/>
</svg>
