<svg width="278" height="90" viewBox="0 0 278 90" fill="none" xmlns="http://www.w3.org/2000/svg">
<path d="M101.935 80.7535C99.8691 80.7535 98.4002 79.6055 98.3696 77.9065H99.8078C99.8996 78.7637 100.496 79.6208 101.935 79.6208C103.235 79.6208 104 78.8861 104 77.9065C104 75.1207 98.4309 76.8963 98.4309 73.0697C98.4309 71.3706 99.8079 70.2227 101.843 70.2227C103.878 70.2227 105.102 71.3094 105.255 72.8707H103.771C103.679 72.1819 103.036 71.3859 101.782 71.3706C100.68 71.34 99.7926 71.9217 99.7926 73.0237C99.7926 75.6871 105.347 74.034 105.347 77.8453C105.347 79.3147 104.153 80.7535 101.919 80.7535H101.935Z" fill="#FF0000"/>
<path d="M107.121 70.3144C107.121 69.794 107.519 69.396 108.039 69.396C108.529 69.396 108.927 69.794 108.927 70.3144C108.927 70.8348 108.529 71.2328 108.039 71.2328C107.519 71.2328 107.121 70.8348 107.121 70.3144ZM107.351 72.5338H108.697V80.6462H107.351V72.5338Z" fill="#FF0000"/>
<path d="M113.853 80.7841C111.956 80.7841 110.625 79.7432 110.549 78.2738H111.941C112.017 79.0544 112.706 79.6514 113.853 79.6514C114.924 79.6514 115.506 79.1157 115.506 78.4575C115.506 76.6513 110.717 77.7075 110.717 74.6921C110.717 73.4523 111.88 72.4268 113.685 72.4268C115.491 72.4268 116.653 73.3911 116.745 74.9676H115.399C115.338 74.1564 114.726 73.5594 113.639 73.5594C112.645 73.5594 112.063 74.0339 112.063 74.6768C112.063 76.6054 116.76 75.5493 116.822 78.4422C116.822 79.7739 115.659 80.7841 113.869 80.7841H113.853Z" fill="#FF0000"/>
<path d="M118.994 73.651H117.939V72.5489H118.994V70.5132H120.341V72.5489H122.452V73.651H120.341V78.4266C120.341 79.2225 120.632 79.5134 121.458 79.5134H122.452V80.646H121.244C119.805 80.646 118.994 80.0491 118.994 78.4266V73.651Z" fill="#FF0000"/>
<path d="M127.578 80.7841C125.267 80.7841 123.569 79.1616 123.569 76.5901C123.569 74.0186 125.206 72.4268 127.578 72.4268C129.949 72.4268 131.464 74.0799 131.464 76.2993C131.464 76.5901 131.464 76.835 131.418 77.1105H124.946C125.053 78.7483 126.201 79.6514 127.578 79.6514C128.786 79.6514 129.551 79.0238 129.857 78.1514H131.311C130.898 79.6361 129.597 80.7841 127.578 80.7841ZM124.961 76.0085H130.072C130.072 74.4319 128.909 73.5594 127.517 73.5594C126.201 73.5594 125.099 74.4319 124.961 76.0085Z" fill="#FF0000"/>
<path d="M144.943 76.0544C144.943 74.4013 144.056 73.5595 142.725 73.5595C141.394 73.5595 140.43 74.4319 140.43 76.1769V80.6463H139.099V76.0544C139.099 74.4013 138.211 73.5595 136.88 73.5595C135.549 73.5595 134.585 74.4319 134.585 76.1769V80.6463H133.239V72.5339H134.585V73.6972C135.121 72.8401 136.085 72.3809 137.14 72.3809C138.471 72.3809 139.573 72.9778 140.109 74.187C140.583 73.0237 141.73 72.3809 142.97 72.3809C144.821 72.3809 146.259 73.5288 146.259 75.8554V80.631H144.928V76.0391L144.943 76.0544Z" fill="#FF0000"/>
<path d="M151.813 72.4113C153.328 72.4113 154.353 73.1766 154.827 74.0185V72.5338H156.189V80.6462H154.827V79.1308C154.338 80.0033 153.297 80.7686 151.798 80.7686C149.641 80.7686 147.973 79.0696 147.973 76.5594C147.973 74.0491 149.641 72.396 151.813 72.396V72.4113ZM152.089 73.5746C150.605 73.5746 149.35 74.6614 149.35 76.5594C149.35 78.4573 150.605 79.59 152.089 79.59C153.573 79.59 154.843 78.488 154.843 76.5747C154.843 74.6614 153.573 73.5746 152.089 73.5746Z" fill="#FF0000"/>
<path d="M165.767 72.4114C167.037 72.4114 168.2 73.0696 168.766 73.9879V69.7021H170.128V80.6462H168.766V79.1156C168.276 80.0187 167.236 80.7687 165.752 80.7687C163.579 80.7687 161.911 79.0697 161.911 76.5594C161.911 74.0492 163.579 72.3961 165.767 72.3961V72.4114ZM166.027 73.5747C164.543 73.5747 163.288 74.6614 163.288 76.5594C163.288 78.4574 164.543 79.5901 166.027 79.5901C167.511 79.5901 168.781 78.488 168.781 76.5747C168.781 74.6614 167.511 73.5747 166.027 73.5747Z" fill="#FF0000"/>
<path d="M175.911 80.7841C173.601 80.7841 171.902 79.1616 171.902 76.5901C171.902 74.0186 173.54 72.4268 175.911 72.4268C178.283 72.4268 179.797 74.0799 179.797 76.2993C179.797 76.5901 179.797 76.835 179.751 77.1105H173.279C173.386 78.7483 174.534 79.6514 175.911 79.6514C177.12 79.6514 177.885 79.0238 178.191 78.1514H179.644C179.231 79.6361 177.931 80.7841 175.911 80.7841ZM173.295 76.0085H178.405C178.405 74.4319 177.242 73.5594 175.85 73.5594C174.534 73.5594 173.432 74.4319 173.295 76.0085Z" fill="#FF0000"/>
<path d="M188.396 80.7841C186.499 80.7841 185.168 79.7432 185.091 78.2738H186.483C186.56 79.0544 187.248 79.6514 188.396 79.6514C189.467 79.6514 190.048 79.1157 190.048 78.4575C190.048 76.6513 185.259 77.7075 185.259 74.6921C185.259 73.4523 186.422 72.4268 188.228 72.4268C190.033 72.4268 191.196 73.3911 191.288 74.9676H189.941C189.88 74.1564 189.268 73.5594 188.182 73.5594C187.187 73.5594 186.606 74.0339 186.606 74.6768C186.606 76.6054 191.303 75.5493 191.364 78.4422C191.364 79.7739 190.201 80.7841 188.411 80.7841H188.396Z" fill="#FF0000"/>
<path d="M196.75 80.7841C194.44 80.7841 192.741 79.1616 192.741 76.5901C192.741 74.0186 194.378 72.4268 196.75 72.4268C199.121 72.4268 200.636 74.0799 200.636 76.2993C200.636 76.5901 200.636 76.835 200.59 77.1105H194.118C194.225 78.7483 195.373 79.6514 196.75 79.6514C197.959 79.6514 198.724 79.0238 199.03 78.1514H200.483C200.07 79.6361 198.769 80.7841 196.75 80.7841ZM194.133 76.0085H199.244C199.244 74.4319 198.081 73.5594 196.689 73.5594C195.373 73.5594 194.271 74.4319 194.133 76.0085Z" fill="#FF0000"/>
<path d="M205.746 72.4115C207.23 72.4115 208.286 73.1462 208.76 74.0186V72.5339H210.122V80.8147C210.122 83.0494 208.623 84.626 206.251 84.626C204.124 84.626 202.594 83.5392 202.334 81.8096H203.665C203.956 82.7892 204.92 83.4474 206.251 83.4474C207.689 83.4474 208.76 82.529 208.76 80.7994V79.1004C208.271 79.9729 207.23 80.7535 205.746 80.7535C203.574 80.7535 201.906 79.0545 201.906 76.5442C201.906 74.034 203.574 72.3809 205.746 72.3809V72.4115ZM206.022 73.5748C204.538 73.5748 203.283 74.6615 203.283 76.5595C203.283 78.4575 204.538 79.5902 206.022 79.5902C207.506 79.5902 208.776 78.4881 208.776 76.5748C208.776 74.6615 207.506 73.5748 206.022 73.5748Z" fill="#FF0000"/>
<path d="M219.593 80.6464H218.246V79.4525C217.726 80.2944 216.732 80.7689 215.661 80.7689C213.794 80.7689 212.341 79.6209 212.341 77.2943V72.5493H213.672V77.1259C213.672 78.7637 214.574 79.6056 215.936 79.6056C217.298 79.6056 218.262 78.7484 218.262 77.0035V72.5493H219.608V80.6617L219.593 80.6464Z" fill="#FF0000"/>
<path d="M221.643 70.3144C221.643 69.794 222.041 69.396 222.561 69.396C223.051 69.396 223.448 69.794 223.448 70.3144C223.448 70.8348 223.051 71.2328 222.561 71.2328C222.041 71.2328 221.643 70.8348 221.643 70.3144ZM221.873 72.5338H223.219V80.6462H221.873V72.5338Z" fill="#FF0000"/>
<path d="M237.203 76.0544C237.203 74.4013 236.316 73.5595 234.985 73.5595C233.654 73.5595 232.69 74.4319 232.69 76.1769V80.6463H231.359V76.0544C231.359 74.4013 230.471 73.5595 229.14 73.5595C227.809 73.5595 226.845 74.4319 226.845 76.1769V80.6463H225.499V72.5339H226.845V73.6972C227.381 72.8401 228.345 72.3809 229.4 72.3809C230.731 72.3809 231.833 72.9778 232.369 74.187C232.843 73.0237 233.99 72.3809 235.23 72.3809C237.081 72.3809 238.519 73.5288 238.519 75.8554V80.631H237.188V76.0391L237.203 76.0544Z" fill="#FF0000"/>
<path d="M240.508 70.3144C240.508 69.794 240.906 69.396 241.426 69.396C241.916 69.396 242.314 69.794 242.314 70.3144C242.314 70.8348 241.916 71.2328 241.426 71.2328C240.906 71.2328 240.508 70.8348 240.508 70.3144ZM240.738 72.5338H242.084V80.6462H240.738V72.5338Z" fill="#FF0000"/>
<path d="M247.868 80.7841C245.557 80.7841 243.859 79.1616 243.859 76.5901C243.859 74.0186 245.496 72.4268 247.868 72.4268C250.239 72.4268 251.754 74.0799 251.754 76.2993C251.754 76.5901 251.754 76.835 251.708 77.1105H245.236C245.343 78.7483 246.491 79.6514 247.868 79.6514C249.076 79.6514 249.841 79.0238 250.147 78.1514H251.601C251.188 79.6361 249.887 80.7841 247.868 80.7841ZM245.251 76.0085H250.361C250.361 74.4319 249.199 73.5594 247.806 73.5594C246.491 73.5594 245.389 74.4319 245.251 76.0085Z" fill="#FF0000"/>
<path d="M259.465 76.0544C259.465 74.4013 258.562 73.5595 257.201 73.5595C255.839 73.5595 254.875 74.4166 254.875 76.1616V80.6463H253.529V72.5339H254.875V73.6819C255.41 72.8401 256.39 72.3809 257.476 72.3809C259.358 72.3809 260.781 73.5288 260.781 75.8554V80.631H259.45V76.0391L259.465 76.0544Z" fill="#FF0000"/>
<path d="M263.29 73.651H262.234V72.5489H263.29V70.5132H264.637V72.5489H266.748V73.651H264.637V78.4266C264.637 79.2225 264.927 79.5134 265.753 79.5134H266.748V80.646H265.539C264.101 80.646 263.29 80.0491 263.29 78.4266V73.651Z" fill="#FF0000"/>
<path d="M271.92 80.7841C269.625 80.7841 267.88 79.1616 267.88 76.5901C267.88 74.0186 269.686 72.4268 271.981 72.4268C274.276 72.4268 276.081 74.0339 276.081 76.5901C276.081 79.1463 274.23 80.7841 271.92 80.7841ZM271.92 79.5902C273.327 79.5902 274.704 78.6259 274.704 76.5748C274.704 74.5237 273.358 73.5747 271.965 73.5747C270.573 73.5747 269.257 74.539 269.257 76.5748C269.257 78.6106 270.512 79.5902 271.92 79.5902Z" fill="#FF0000"/>
<path d="M253.116 0.394531H116.531C112.83 0.394531 109.83 3.39611 109.83 7.09875C109.83 10.8014 112.83 13.803 116.531 13.803H253.116C256.817 13.803 259.817 10.8014 259.817 7.09875C259.817 3.39611 256.817 0.394531 253.116 0.394531Z" fill="#0E67AD"/>
<path d="M118.658 8.72102H122.009V10.1292H116.868V3.71582H121.886V5.12401H118.658V8.73633V8.72102ZM118.52 6.19546H121.488V7.55773H118.52V6.19546Z" fill="white"/>
<path d="M125.038 10.2517C124.518 10.2517 124.013 10.1905 123.523 10.0527C123.034 9.91499 122.636 9.74662 122.345 9.54763L122.942 8.21598C123.233 8.39965 123.554 8.55272 123.936 8.67517C124.304 8.79762 124.686 8.85884 125.053 8.85884C125.298 8.85884 125.497 8.84354 125.65 8.78231C125.803 8.73639 125.91 8.67517 125.987 8.59864C126.063 8.5221 126.094 8.43026 126.094 8.32312C126.094 8.17006 126.033 8.06291 125.895 7.97107C125.757 7.87923 125.589 7.81801 125.375 7.75678C125.16 7.69556 124.931 7.64964 124.671 7.58841C124.411 7.52719 124.151 7.46596 123.891 7.37412C123.63 7.28228 123.401 7.17514 123.187 7.03738C122.973 6.89962 122.804 6.71595 122.666 6.50166C122.529 6.27206 122.468 5.99654 122.468 5.6598C122.468 5.27714 122.575 4.92509 122.789 4.61896C123.003 4.31283 123.309 4.05262 123.737 3.86895C124.166 3.68527 124.686 3.57812 125.313 3.57812C125.742 3.57812 126.155 3.62404 126.553 3.71588C126.951 3.80772 127.318 3.94547 127.639 4.12915L127.073 5.47612C126.767 5.30775 126.461 5.1853 126.17 5.10877C125.88 5.03224 125.589 4.98631 125.298 4.98631C125.053 4.98631 124.854 5.01693 124.701 5.06285C124.548 5.10877 124.441 5.1853 124.365 5.26183C124.304 5.35367 124.258 5.44551 124.258 5.55265C124.258 5.69041 124.319 5.79756 124.457 5.8894C124.594 5.98123 124.763 6.04246 124.977 6.08838C125.191 6.1343 125.436 6.19552 125.696 6.24144C125.956 6.28736 126.216 6.3639 126.476 6.44043C126.736 6.51696 126.966 6.63941 127.18 6.77717C127.394 6.91493 127.563 7.0986 127.7 7.3129C127.838 7.52719 127.899 7.81801 127.899 8.15475C127.899 8.5221 127.792 8.87415 127.578 9.18028C127.364 9.50172 127.058 9.74662 126.629 9.9303C126.216 10.114 125.681 10.2211 125.053 10.2211L125.038 10.2517Z" fill="white"/>
<path d="M128.48 10.1141V3.70068H131.403C131.984 3.70068 132.489 3.79252 132.917 3.9915C133.346 4.17518 133.667 4.4507 133.897 4.81805C134.126 5.1701 134.249 5.59868 134.249 6.08849C134.249 6.5783 134.126 6.99157 133.897 7.34362C133.667 7.69567 133.331 7.97118 132.917 8.17017C132.489 8.36915 131.984 8.46099 131.403 8.46099H129.475L130.286 7.68036V10.1447H128.48V10.1141ZM130.286 7.84873L129.475 7.02218H131.28C131.663 7.02218 131.938 6.94565 132.122 6.77728C132.305 6.60891 132.397 6.37931 132.397 6.08849C132.397 5.79767 132.305 5.55276 132.122 5.3997C131.938 5.24664 131.648 5.1548 131.28 5.1548H129.475L130.286 4.32825V7.87934V7.84873Z" fill="white"/>
<path d="M133.805 10.1141L136.635 3.70068H138.426L141.256 10.1141H139.374L137.156 4.58846H137.875L135.656 10.1141H133.805ZM135.35 8.87426L135.825 7.5426H138.961L139.435 8.87426H135.366H135.35Z" fill="white"/>
<path d="M144.653 10.2517C144.148 10.2517 143.674 10.1752 143.245 10.0068C142.817 9.83846 142.45 9.60886 142.128 9.31804C141.807 9.01191 141.562 8.65986 141.394 8.26189C141.226 7.86393 141.134 7.40473 141.134 6.91492C141.134 6.42512 141.226 5.98124 141.394 5.56796C141.562 5.15469 141.822 4.80264 142.128 4.51181C142.45 4.20568 142.817 3.97609 143.245 3.82303C143.674 3.65466 144.148 3.57812 144.653 3.57812C145.25 3.57812 145.77 3.68527 146.244 3.88425C146.718 4.09854 147.101 4.38936 147.407 4.78733L146.259 5.82817C146.045 5.58327 145.831 5.39959 145.571 5.26183C145.326 5.13938 145.051 5.06285 144.745 5.06285C144.485 5.06285 144.24 5.10877 144.026 5.1853C143.811 5.27714 143.612 5.39959 143.459 5.55265C143.306 5.72102 143.184 5.9047 143.092 6.1343C143 6.36389 142.955 6.6088 142.955 6.88432C142.955 7.15983 143 7.40473 143.092 7.63433C143.184 7.86393 143.306 8.0476 143.459 8.21598C143.612 8.38435 143.796 8.50679 144.026 8.58333C144.24 8.67517 144.485 8.70578 144.745 8.70578C145.051 8.70578 145.326 8.64455 145.571 8.5068C145.816 8.38434 146.045 8.18536 146.259 7.94046L147.407 8.9813C147.101 9.36396 146.703 9.67008 146.244 9.86907C145.785 10.0681 145.25 10.1905 144.653 10.1905V10.2517Z" fill="white"/>
<path d="M147.973 10.1141V3.70068H149.778V10.1141H147.973Z" fill="white"/>
<path d="M154.078 10.2517C153.557 10.2517 153.098 10.1752 152.655 10.0068C152.226 9.83846 151.844 9.60886 151.523 9.30273C151.201 8.9966 150.956 8.64456 150.773 8.24659C150.589 7.84862 150.513 7.40473 150.513 6.91492C150.513 6.42512 150.604 5.99654 150.773 5.58327C150.956 5.1853 151.201 4.83325 151.523 4.52712C151.844 4.22099 152.226 3.9914 152.655 3.82303C153.083 3.65466 153.557 3.57812 154.078 3.57812C154.598 3.57812 155.072 3.65466 155.501 3.82303C155.929 3.9914 156.311 4.22099 156.617 4.52712C156.939 4.83325 157.184 5.1853 157.367 5.58327C157.551 5.98123 157.643 6.42512 157.643 6.91492C157.643 7.40473 157.551 7.84862 157.367 8.24659C157.184 8.65986 156.939 9.01191 156.617 9.30273C156.296 9.59355 155.929 9.83846 155.501 9.99152C155.072 10.1599 154.598 10.2364 154.078 10.2364V10.2517ZM154.078 8.7517C154.322 8.7517 154.552 8.70578 154.766 8.62925C154.98 8.53741 155.164 8.41496 155.317 8.26189C155.47 8.09352 155.592 7.90984 155.684 7.68025C155.776 7.45065 155.822 7.20575 155.822 6.93023C155.822 6.65472 155.776 6.39451 155.684 6.18022C155.592 5.95062 155.47 5.76695 155.317 5.59858C155.164 5.4302 154.98 5.30775 154.766 5.23122C154.552 5.13938 154.322 5.10877 154.078 5.10877C153.833 5.10877 153.603 5.15469 153.389 5.23122C153.175 5.32306 152.991 5.44551 152.838 5.59858C152.685 5.76695 152.563 5.95062 152.471 6.18022C152.379 6.40981 152.333 6.65472 152.333 6.93023C152.333 7.20575 152.379 7.45065 152.471 7.68025C152.563 7.90984 152.685 8.09352 152.838 8.26189C152.991 8.43026 153.175 8.55272 153.389 8.62925C153.603 8.72109 153.833 8.7517 154.078 8.7517Z" fill="white"/>
<path d="M160.626 10.2517C160.106 10.2517 159.601 10.1905 159.111 10.0527C158.622 9.91499 158.224 9.74662 157.933 9.54763L158.53 8.21598C158.821 8.39965 159.142 8.55272 159.525 8.67517C159.892 8.79762 160.274 8.85884 160.641 8.85884C160.886 8.85884 161.085 8.84354 161.238 8.78231C161.391 8.73639 161.498 8.67517 161.575 8.59864C161.651 8.5221 161.682 8.43026 161.682 8.32312C161.682 8.17006 161.621 8.06291 161.483 7.97107C161.345 7.87923 161.177 7.81801 160.963 7.75678C160.749 7.69556 160.519 7.64964 160.259 7.58841C159.999 7.52719 159.739 7.46596 159.479 7.37412C159.218 7.28228 158.989 7.17514 158.775 7.03738C158.561 6.89962 158.392 6.71595 158.255 6.50166C158.117 6.27206 158.056 5.99654 158.056 5.6598C158.056 5.27714 158.163 4.92509 158.377 4.61896C158.591 4.31283 158.897 4.05262 159.326 3.86895C159.754 3.68527 160.274 3.57812 160.902 3.57812C161.33 3.57812 161.743 3.62404 162.141 3.71588C162.539 3.80772 162.906 3.94547 163.227 4.12915L162.661 5.47612C162.355 5.30775 162.049 5.1853 161.758 5.10877C161.468 5.03224 161.177 4.98631 160.886 4.98631C160.641 4.98631 160.443 5.01693 160.29 5.06285C160.137 5.10877 160.029 5.1853 159.953 5.26183C159.892 5.35367 159.846 5.44551 159.846 5.55265C159.846 5.69041 159.907 5.79756 160.045 5.8894C160.182 5.98123 160.351 6.04246 160.565 6.08838C160.779 6.1343 161.024 6.19552 161.284 6.24144C161.544 6.28736 161.804 6.3639 162.064 6.44043C162.324 6.51696 162.554 6.63941 162.768 6.77717C162.982 6.91493 163.151 7.0986 163.288 7.3129C163.426 7.52719 163.487 7.81801 163.487 8.15475C163.487 8.5221 163.38 8.87415 163.166 9.18028C162.952 9.50172 162.646 9.74662 162.217 9.9303C161.804 10.114 161.269 10.2211 160.641 10.2211L160.626 10.2517Z" fill="white"/>
<path d="M166.501 10.1141V3.70068H169.531C170.235 3.70068 170.862 3.83844 171.398 4.09865C171.933 4.35886 172.346 4.72621 172.652 5.20071C172.958 5.67521 173.111 6.24155 173.111 6.89973C173.111 7.55791 172.958 8.12425 172.652 8.59875C172.346 9.07325 171.933 9.45591 171.398 9.71612C170.862 9.97633 170.235 10.1141 169.531 10.1141H166.501ZM168.307 8.67528H169.454C169.822 8.67528 170.143 8.61405 170.418 8.47629C170.694 8.33853 170.908 8.13955 171.061 7.87934C171.214 7.61913 171.29 7.2977 171.29 6.93034C171.29 6.56299 171.214 6.24156 171.061 5.98135C170.908 5.72114 170.694 5.52215 170.418 5.38439C170.143 5.24663 169.822 5.18541 169.454 5.18541H168.307V8.70589V8.67528Z" fill="white"/>
<path d="M175.62 8.72102H178.971V10.1292H173.83V3.71582H178.849V5.12401H175.62V8.73633V8.72102ZM175.498 6.19546H178.466V7.55773H175.498V6.19546Z" fill="white"/>
<path d="M181.419 10.1141L184.25 3.70068H186.04L188.87 10.1141H186.988L184.77 4.58846H185.489L183.271 10.1141H181.419ZM182.965 8.87426L183.439 7.5426H186.575L187.05 8.87426H182.98H182.965Z" fill="white"/>
<path d="M189.146 10.1141V3.70068H192.068C192.65 3.70068 193.154 3.79252 193.583 3.9915C194.011 4.17518 194.333 4.4507 194.562 4.81805C194.792 5.1701 194.914 5.59868 194.914 6.08849C194.914 6.5783 194.792 6.99157 194.562 7.34362C194.333 7.69567 193.996 7.95587 193.583 8.15486C193.154 8.33854 192.65 8.43037 192.068 8.43037H190.14L190.951 7.66505V10.1294H189.146V10.1141ZM190.966 7.84873L190.156 7.02218H191.961C192.344 7.02218 192.619 6.94565 192.803 6.77728C192.986 6.60891 193.078 6.37931 193.078 6.08849C193.078 5.79767 192.986 5.55276 192.803 5.3997C192.619 5.24664 192.328 5.1548 191.961 5.1548H190.156L190.966 4.32825V7.87934V7.84873ZM193.109 10.1141L191.517 7.7722H193.445L195.052 10.1141H193.109Z" fill="white"/>
<path d="M196.964 10.1141V5.13949H194.99V3.70068H200.728V5.13949H198.769V10.1141H196.964Z" fill="white"/>
<path d="M201.187 10.1141V3.70068H202.992V10.1141H201.187Z" fill="white"/>
<path d="M207.261 10.2517C206.756 10.2517 206.282 10.1752 205.854 10.0068C205.425 9.83846 205.058 9.60886 204.737 9.31804C204.415 9.01191 204.171 8.65986 204.002 8.26189C203.834 7.86393 203.742 7.40473 203.742 6.91492C203.742 6.42512 203.834 5.98124 204.002 5.56796C204.171 5.15469 204.431 4.80264 204.737 4.51181C205.058 4.20568 205.425 3.97609 205.854 3.82303C206.282 3.65466 206.756 3.57812 207.261 3.57812C207.858 3.57812 208.378 3.68527 208.852 3.88425C209.327 4.09854 209.709 4.38936 210.015 4.78733L208.868 5.82817C208.654 5.58327 208.439 5.39959 208.179 5.26183C207.934 5.13938 207.659 5.06285 207.353 5.06285C207.093 5.06285 206.848 5.10877 206.634 5.1853C206.42 5.27714 206.221 5.39959 206.068 5.55265C205.915 5.72102 205.792 5.9047 205.701 6.1343C205.609 6.36389 205.563 6.6088 205.563 6.88432C205.563 7.15983 205.609 7.40473 205.701 7.63433C205.792 7.86393 205.915 8.0476 206.068 8.21598C206.221 8.38435 206.404 8.50679 206.634 8.58333C206.848 8.67517 207.093 8.70578 207.353 8.70578C207.659 8.70578 207.934 8.64455 208.179 8.5068C208.424 8.38434 208.654 8.18536 208.868 7.94046L210.015 8.9813C209.709 9.36396 209.311 9.67008 208.852 9.86907C208.393 10.0681 207.858 10.1905 207.261 10.1905V10.2517Z" fill="white"/>
<path d="M213.473 10.2517C212.524 10.2517 211.79 9.99146 211.254 9.47104C210.719 8.95062 210.459 8.21591 210.459 7.26691V3.71582H212.264V7.22099C212.264 7.77202 212.371 8.16999 212.585 8.39959C212.8 8.62918 213.106 8.75164 213.473 8.75164C213.84 8.75164 214.146 8.62918 214.36 8.39959C214.574 8.15468 214.682 7.77202 214.682 7.22099V3.71582H216.472V7.26691C216.472 8.21591 216.212 8.95062 215.676 9.47104C215.141 9.99146 214.406 10.2517 213.458 10.2517H213.473Z" fill="white"/>
<path d="M217.482 10.1141V3.70068H219.287V8.67528H222.347V10.1141H217.482Z" fill="white"/>
<path d="M222.133 10.1141L224.963 3.70068H226.753L229.584 10.1141H227.702L225.484 4.58846H226.203L223.984 10.1141H222.133ZM223.678 8.87426L224.152 7.5426H227.289L227.763 8.87426H223.693H223.678Z" fill="white"/>
<path d="M232.981 10.2517C232.476 10.2517 232.001 10.1752 231.573 10.0068C231.145 9.83846 230.777 9.60886 230.456 9.31804C230.135 9.01191 229.89 8.65986 229.722 8.26189C229.553 7.86393 229.462 7.40473 229.462 6.91492C229.462 6.42512 229.553 5.98124 229.722 5.56796C229.89 5.15469 230.15 4.80264 230.456 4.51181C230.777 4.20568 231.145 3.97609 231.573 3.82303C232.001 3.65466 232.476 3.57812 232.981 3.57812C233.577 3.57812 234.098 3.68527 234.572 3.88425C235.046 4.09854 235.429 4.38936 235.735 4.78733L234.587 5.82817C234.373 5.58327 234.159 5.39959 233.899 5.26183C233.654 5.13938 233.378 5.06285 233.072 5.06285C232.812 5.06285 232.568 5.10877 232.353 5.1853C232.139 5.27714 231.94 5.39959 231.787 5.55265C231.634 5.72102 231.512 5.9047 231.42 6.1343C231.328 6.36389 231.282 6.6088 231.282 6.88432C231.282 7.15983 231.328 7.40473 231.42 7.63433C231.512 7.86393 231.634 8.0476 231.787 8.21598C231.94 8.38435 232.124 8.50679 232.353 8.58333C232.568 8.67517 232.812 8.70578 233.072 8.70578C233.378 8.70578 233.654 8.64455 233.899 8.5068C234.143 8.38434 234.373 8.18536 234.587 7.94046L235.735 8.9813C235.429 9.36396 235.031 9.67008 234.572 9.86907C234.113 10.0681 233.577 10.1905 232.981 10.1905V10.2517Z" fill="white"/>
<path d="M236.301 10.1141V3.70068H238.106V10.1141H236.301Z" fill="white"/>
<path d="M242.406 10.2519C241.885 10.2519 241.426 10.1754 240.983 10.007C240.554 9.83861 240.172 9.60902 239.85 9.30289C239.529 8.99676 239.284 8.64471 239.101 8.24675C238.917 7.84878 238.841 7.40489 238.841 6.91508C238.841 6.42527 238.932 5.9967 239.101 5.58342C239.284 5.18545 239.529 4.83341 239.85 4.52728C240.172 4.22115 240.554 3.99155 240.983 3.82318C241.411 3.65481 241.885 3.57828 242.406 3.57828C242.926 3.57828 243.4 3.65481 243.828 3.82318C244.257 3.99155 244.639 4.22115 244.945 4.52728C245.267 4.83341 245.512 5.18545 245.695 5.58342C245.879 5.98139 245.971 6.42527 245.971 6.91508C245.971 7.40489 245.879 7.84878 245.695 8.24675C245.512 8.66002 245.267 9.01206 244.945 9.30289C244.624 9.59371 244.257 9.83861 243.828 9.99168C243.4 10.16 242.926 10.2366 242.406 10.2366V10.2519ZM242.406 8.75185C242.65 8.75185 242.88 8.70594 243.094 8.62941C243.308 8.53757 243.492 8.41511 243.645 8.26205C243.798 8.09368 243.92 7.91 244.012 7.6804C244.104 7.45081 244.15 7.20591 244.15 6.93039C244.15 6.65487 244.104 6.39466 244.012 6.18037C243.92 5.95078 243.798 5.7671 243.645 5.59873C243.492 5.43036 243.308 5.30791 243.094 5.23137C242.88 5.13954 242.65 5.10893 242.406 5.10893C242.161 5.10893 241.931 5.15484 241.717 5.23137C241.503 5.32321 241.319 5.44567 241.166 5.59873C241.013 5.7671 240.891 5.95078 240.799 6.18037C240.707 6.40997 240.661 6.65487 240.661 6.93039C240.661 7.20591 240.707 7.45081 240.799 7.6804C240.891 7.91 241.013 8.09368 241.166 8.26205C241.319 8.43042 241.503 8.55287 241.717 8.62941C241.931 8.72124 242.161 8.75185 242.406 8.75185ZM241.518 3.19562L242.742 1.80273H244.486L242.758 3.19562H241.518Z" fill="white"/>
<path d="M246.689 10.1141V3.70068H248.189L251.723 7.97118H251.019V3.70068H252.794V10.1141H251.295L247.76 5.84359H248.464V10.1141H246.689Z" fill="white"/>
<path d="M110.273 55.1611C103.587 55.1611 98.3543 51.8396 98.1401 45.5487H106.203C106.433 47.9365 107.932 49.0998 110.059 49.0998C112.186 49.0998 113.685 47.9977 113.685 46.1763C113.685 40.421 98.1401 43.5129 98.2319 32.4923C98.2319 26.5993 103.067 23.3237 109.569 23.3237C116.072 23.3237 120.907 26.6912 121.213 32.6301H113.027C112.889 30.6402 111.482 29.4463 109.447 29.4004C107.626 29.3545 106.265 30.2882 106.265 32.2321C106.265 37.6353 121.626 35.2015 121.626 45.6099C121.626 50.8447 117.556 55.1764 110.288 55.1764L110.273 55.1611Z" fill="#EA0F0F"/>
<path d="M137.247 55.2069C129.98 55.2069 124.762 50.3394 124.762 42.4872C124.762 34.635 129.903 29.7676 137.247 29.7676C144.592 29.7676 149.564 34.5585 149.564 42.0893C149.564 42.7934 149.518 43.5587 149.426 44.3087H132.29C132.55 47.5384 134.555 49.0537 136.987 49.0537C139.114 49.0537 140.307 47.9822 140.935 46.6659H148.998C147.805 51.5027 143.413 55.2222 137.263 55.2222L137.247 55.2069ZM132.336 40.0994H141.807C141.807 37.3902 139.68 35.8442 137.156 35.8442C134.631 35.8442 132.764 37.3443 132.321 40.0994H132.336Z" fill="#EA0F0F"/>
<path d="M164.788 55.1611C158.101 55.1611 152.869 51.8396 152.655 45.5487H160.718C160.932 47.9365 162.447 49.0998 164.573 49.0998C166.7 49.0998 168.199 47.9977 168.199 46.1763C168.199 40.421 152.655 43.5129 152.746 32.4923C152.746 26.5993 157.581 23.3237 164.084 23.3237C170.586 23.3237 175.421 26.6912 175.727 32.6301H167.542C167.404 30.6402 165.996 29.4463 163.961 29.4004C162.141 29.3545 160.779 30.2882 160.779 32.2321C160.779 37.6353 176.14 35.2015 176.14 45.6099C176.14 50.8447 172.07 55.1764 164.803 55.1764L164.788 55.1611Z" fill="#EA0F0F"/>
<path d="M180.073 23.4768C180.073 21.1655 181.893 19.3594 184.586 19.3594C187.279 19.3594 189.054 21.1808 189.054 23.4768C189.054 25.7728 187.233 27.5483 184.586 27.5483C181.939 27.5483 180.073 25.7269 180.073 23.4768ZM180.776 30.1351H188.35V54.855H180.776V30.1351Z" fill="#EA0F0F"/>
<path d="M203.237 29.7678C206.863 29.7678 209.525 31.4055 210.856 33.625V30.1198H218.43V54.7938C218.43 61.3909 214.62 67.0236 206.067 67.0236C198.708 67.0236 193.934 63.3042 193.261 57.4112H200.743C201.233 59.2786 203.084 60.4725 205.7 60.4725C208.577 60.4725 210.841 58.9724 210.841 54.7938V51.2886C209.464 53.4621 206.848 55.1918 203.222 55.1918C197.147 55.1918 192.328 50.2325 192.328 42.4262C192.328 34.6199 197.163 29.7524 203.222 29.7524L203.237 29.7678ZM205.455 36.3801C202.625 36.3801 200.054 38.5077 200.054 42.4568C200.054 46.4059 202.625 48.61 205.455 48.61C208.286 48.61 210.856 46.4365 210.856 42.5027C210.856 38.569 208.332 36.3954 205.455 36.3954V36.3801Z" fill="#EA0F0F"/>
<path d="M248.327 54.8548H240.753V51.4874C239.254 53.615 236.591 55.1151 233.271 55.1151C227.564 55.1151 223.709 51.166 223.709 44.5689V30.1196H231.236V43.5434C231.236 46.9108 233.134 48.7782 235.979 48.7782C238.825 48.7782 240.768 46.9108 240.768 43.5434V30.1196H248.342V54.8395L248.327 54.8548Z" fill="#EA0F0F"/>
<path d="M264.759 55.2069C257.491 55.2069 252.274 50.3394 252.274 42.4872C252.274 34.635 257.415 29.7676 264.759 29.7676C272.103 29.7676 277.076 34.5585 277.076 42.0893C277.076 42.7934 277.03 43.5587 276.938 44.3087H259.802C260.062 47.5384 262.066 49.0537 264.499 49.0537C266.625 49.0537 267.819 47.9822 268.446 46.6659H276.509C275.316 51.5027 270.925 55.2222 264.774 55.2222L264.759 55.2069ZM259.832 40.0994H269.303C269.303 37.3902 267.176 35.8442 264.652 35.8442C262.127 35.8442 260.261 37.3443 259.817 40.0994H259.832Z" fill="#EA0F0F"/>
<path d="M59.5377 9.22611C60.2568 9.10366 60.9453 9.14958 61.5726 9.31795C61.8939 9.39449 62.1846 9.51694 62.4753 9.67C62.3835 9.56286 62.2764 9.47101 62.1693 9.37917C61.695 8.98121 61.1289 8.69039 60.5169 8.52202C59.9049 8.35365 59.2011 8.32303 58.482 8.43018L54.5957 9.05774C54.6263 9.27203 54.6569 9.59346 54.7028 10.0067L59.5529 9.22611H59.5377Z" fill="#0E7F41"/>
<path d="M2.10082 48.9617V23.6602C2.10082 22.9408 2.25385 22.2214 2.51395 21.5632C2.77405 20.8897 3.15653 20.2775 3.63083 19.7264C4.10514 19.1754 4.67127 18.7009 5.28328 18.3335C5.91058 17.9662 6.59912 17.706 7.31823 17.5988L14.9988 16.3743C15.0447 15.9304 15.0754 15.5937 15.106 15.3794L6.2472 16.8029C5.52809 16.9253 4.83955 17.1702 4.21225 17.5376C3.58494 17.905 3.01881 18.3795 2.5598 18.9305C2.0855 19.4815 1.70302 20.1091 1.44292 20.7673C1.18282 21.4407 1.02979 22.1448 1.02979 22.8642V52.4363C1.38169 52.3445 1.74891 52.2526 2.10082 52.1608V48.977V48.9617Z" fill="#0E7F41"/>
<path d="M2.51395 59.3698C2.25385 58.7882 2.10082 58.13 2.10082 57.3953V56.5841C1.76421 56.5381 1.41229 56.4922 1.02979 56.4463V56.5994C1.02979 57.3188 1.18282 57.9769 1.44292 58.5739C1.70302 59.1555 2.0855 59.6606 2.5598 60.0586C2.6822 60.1504 2.80468 60.2423 2.92708 60.3341L3.63083 60.8546C3.52373 60.7627 3.41661 60.6709 3.32481 60.5637C2.98821 60.227 2.72815 59.829 2.51395 59.3698Z" fill="#0E7F41"/>
<path d="M84.9513 78.212V76.513C84.9207 76.7579 84.8289 76.9875 84.6453 77.2018C84.4158 77.4926 84.0333 77.7681 83.559 77.9977C83.0693 78.2273 82.4574 78.411 81.7535 78.5181L68.8861 80.6917L56.0187 82.8652L43.1512 85.0387L30.2838 87.2122C29.5799 87.3346 28.8302 87.3806 28.0805 87.3653C27.3308 87.35 26.5964 87.2581 25.9079 87.1204C25.2194 86.9826 24.5615 86.7836 23.9954 86.5387C23.4293 86.2938 22.955 86.003 22.6031 85.6663L18.5179 81.7631L14.4328 77.86L10.3477 73.9568L6.26257 70.0537C5.91066 69.7169 5.72705 69.3802 5.68115 69.0435V71.018C5.72705 71.3547 5.91066 71.6915 6.26257 72.0282L10.3477 75.9314L14.4328 79.8345L18.5179 83.7376L22.6031 87.6408C22.955 87.9775 23.4293 88.2684 23.9954 88.5133C24.5615 88.7582 25.2041 88.9571 25.9079 89.0949C26.5964 89.2327 27.3461 89.3245 28.0805 89.3398C28.8302 89.3551 29.5799 89.3092 30.2838 89.1867L43.1512 87.0132L56.0187 84.8397L68.8861 82.6662L81.7535 80.4927C82.4574 80.3702 83.0693 80.1865 83.559 79.9723C84.0486 79.7427 84.4158 79.4824 84.6453 79.1763C84.8748 78.8702 84.9819 78.5488 84.9513 78.2273V78.212Z" fill="#0E4E7A"/>
<path d="M7.31836 61.7882L20.3694 59.6913L33.4204 57.5943L46.4714 55.4973L59.5225 53.4003C60.2416 53.2779 60.9301 53.033 61.5574 52.6656C62.1847 52.2982 62.7508 51.8238 63.2098 51.2727C63.6841 50.7217 64.0666 50.0941 64.3267 49.4359C64.5868 48.7625 64.7398 48.0584 64.7398 47.339V13.6036C64.7398 12.8842 64.5868 12.226 64.3267 11.629C64.0666 11.0321 63.6841 10.5423 63.2098 10.1443C62.9803 9.94533 62.7202 9.77696 62.4448 9.6392C62.1694 9.48614 61.8635 9.37899 61.5422 9.28715C60.9149 9.11878 60.2263 9.08817 59.5072 9.19531L54.6571 9.97594C54.7336 10.9096 54.81 12.3025 54.7641 14.0628L60.1498 13.2056C60.1498 13.2056 60.2875 13.1903 60.3334 13.1903C60.3946 13.1903 60.4558 13.1903 60.5017 13.2056C60.5323 13.2056 60.5629 13.2209 60.5782 13.2362C60.5782 13.2362 60.5935 13.2515 60.6088 13.2821C60.6241 13.3281 60.6547 13.4199 60.6547 13.573V47.3083C60.6547 47.5073 60.6088 47.7063 60.5323 47.9206C60.4405 48.1655 60.2875 48.3951 60.1039 48.6094C59.9203 48.8237 59.7061 49.0074 59.4766 49.1451C59.2624 49.2676 59.0482 49.3441 58.8493 49.3747L15.1061 56.3851C11.7095 56.9361 0.142561 56.2932 0.98407 56.4157C1.36657 56.4616 1.7185 56.5075 2.0551 56.5534V57.3647C2.0551 58.0841 2.20804 58.7423 2.46814 59.3392C2.66704 59.7831 2.94249 60.1811 3.27909 60.5331C3.3709 60.6403 3.47802 60.7321 3.58512 60.8239C4.05942 61.2219 4.62546 61.5127 5.23747 61.6811C5.86477 61.8495 6.55331 61.8801 7.27242 61.7729L7.31836 61.7882Z" fill="#1A9F59"/>
<path d="M10.3324 73.9263L14.4175 77.8295L18.5027 81.7326L22.5878 85.6357C22.9397 85.9725 23.414 86.2633 23.9801 86.5082C24.5462 86.7531 25.1888 86.9521 25.8926 87.0899C26.5811 87.2276 27.3309 87.3194 28.0653 87.3348C28.7997 87.3501 29.5647 87.3041 30.2685 87.1817L43.1359 85.0082L56.0033 82.8347L68.8708 80.6611L81.7382 78.4876C82.442 78.3652 83.054 78.1815 83.5436 77.9672C84.0332 77.7376 84.4005 77.4774 84.63 77.1713C84.7983 76.957 84.9054 76.7274 84.936 76.4825C84.936 76.3907 84.936 76.2988 84.936 76.207C84.8901 75.8702 84.7065 75.5335 84.3546 75.1967L80.2695 71.2936L76.1842 67.3905L72.0991 63.4873L68.014 59.5842C67.6621 59.2474 67.1878 58.9566 66.6216 58.7117C66.0555 58.4668 65.4129 58.2678 64.7091 58.1301C64.0206 57.9923 63.2709 57.9005 62.5365 57.8852C61.7868 57.8699 61.0371 57.9158 60.3333 58.0382L47.4659 60.2117L34.5984 62.3853L21.731 64.5588L8.86352 66.7323C8.15971 66.8547 7.54772 67.0384 7.05811 67.2527C6.56851 67.4823 6.20136 67.7425 5.97186 68.0486C5.80356 68.2629 5.69645 68.4925 5.68115 68.7221C5.68115 68.814 5.68115 68.9058 5.68115 68.9976C5.72705 69.3344 5.91066 69.6711 6.26257 70.0079L10.3477 73.911L10.3324 73.9263ZM23.8271 76.1611L22.2818 74.7988C22.1594 74.6916 22.2512 74.5692 22.496 74.5386L26.3517 73.8957C26.5965 73.8498 26.8872 73.8957 27.0096 74.0182L28.5549 75.3804C28.6773 75.4876 28.5855 75.61 28.3407 75.6406L24.485 76.2835C24.2402 76.3294 23.9495 76.2835 23.8271 76.1611ZM58.8339 66.9619L54.9782 67.6048C54.7334 67.6507 54.4427 67.6048 54.3203 67.4823L52.775 66.12C52.6526 66.0129 52.7444 65.8904 52.9892 65.8598L56.8449 65.217C57.0897 65.171 57.3804 65.2169 57.5028 65.3394L59.0481 66.7017C59.1705 66.8088 59.0787 66.9313 58.8339 66.9619ZM60.3028 68.2476C60.5476 68.2017 60.8383 68.2476 60.9607 68.3701L62.5059 69.7323C62.6283 69.8395 62.5366 69.9619 62.2918 69.9926L58.4361 70.6354C58.1913 70.6814 57.9006 70.6354 57.7782 70.513L56.2329 69.1507C56.1105 69.0436 56.2023 68.9211 56.4471 68.8905L60.3028 68.2476ZM53.5095 69.3803C53.7543 69.3344 54.045 69.3803 54.1674 69.5027L55.7127 70.865C55.8351 70.9722 55.7433 71.0946 55.4985 71.1252L51.6428 71.7681C51.398 71.814 51.1073 71.7681 50.9849 71.6457L49.4396 70.2834C49.3172 70.1762 49.409 70.0538 49.6538 70.0232L53.5095 69.3803ZM52.056 68.0946L48.2003 68.7374C47.9555 68.7833 47.6648 68.7374 47.5424 68.615L45.9971 67.2527C45.8747 67.1456 45.9665 67.0231 46.2113 66.9925L50.067 66.3496C50.3118 66.3037 50.6024 66.3496 50.7248 66.4721L52.2702 67.8344C52.3926 67.9415 52.3008 68.0639 52.056 68.0946ZM46.7162 70.513C46.961 70.4671 47.2517 70.513 47.3741 70.6354L48.9194 71.9977C49.0418 72.1049 48.95 72.2273 48.7052 72.2579L44.8495 72.9008C44.6047 72.9467 44.314 72.9008 44.1916 72.7783L42.6463 71.4161C42.5239 71.3089 42.6157 71.1865 42.8605 71.1558L46.7162 70.513ZM45.2627 69.2272L41.407 69.8701C41.1622 69.916 40.8715 69.8701 40.7491 69.7477L39.2038 68.3854C39.0814 68.2782 39.1732 68.1558 39.418 68.1252L43.2737 67.4823C43.5185 67.4364 43.8092 67.4823 43.9316 67.6048L45.4769 68.967C45.5993 69.0742 45.5075 69.1966 45.2627 69.2272ZM39.9382 71.6457C40.183 71.5997 40.4737 71.6457 40.5961 71.7681L42.1414 73.1304C42.2638 73.2375 42.1721 73.36 41.9272 73.3906L38.0716 74.0335C37.8268 74.0794 37.5361 74.0335 37.4137 73.911L35.8684 72.5487C35.746 72.4416 35.8378 72.3191 36.0826 72.2885L39.9382 71.6457ZM38.4694 70.3599L34.6137 71.0028C34.3689 71.0487 34.0782 71.0028 33.9558 70.8803L32.4105 69.5181C32.2881 69.4109 32.3799 69.2885 32.6247 69.2579L36.4804 68.615C36.7252 68.5691 37.0159 68.615 37.1383 68.7374L38.6836 70.0997C38.806 70.2068 38.7142 70.3293 38.4694 70.3599ZM33.145 72.763C33.3898 72.7171 33.6805 72.763 33.8029 72.8855L35.3481 74.2478C35.4705 74.3549 35.3788 74.4773 35.134 74.508L31.2783 75.1508C31.0335 75.1967 30.7428 75.1508 30.6204 75.0284L29.0751 73.6661C28.9527 73.559 29.0445 73.4365 29.2893 73.4059L33.145 72.763ZM31.6914 71.4773L27.8358 72.1201C27.591 72.1661 27.3003 72.1202 27.1779 71.9977L25.6325 70.6354C25.5101 70.5283 25.602 70.4058 25.8468 70.3752L29.7024 69.7323C29.9472 69.6864 30.2379 69.7324 30.3603 69.8548L31.9056 71.2171C32.028 71.3242 31.9362 71.4467 31.6914 71.4773ZM31.7832 78.6713L27.9276 79.3142C27.6828 79.3601 27.3921 79.3142 27.2697 79.1917L25.7243 77.8295C25.6019 77.7223 25.6938 77.5999 25.9386 77.5693L29.7942 76.9264C30.039 76.8805 30.3297 76.9264 30.4521 77.0488L31.9975 78.4111C32.1199 78.5182 32.028 78.6407 31.7832 78.6713ZM41.4988 77.0488L34.7055 78.1815C34.4607 78.2274 34.17 78.1815 34.0476 78.0591L32.5023 76.6968C32.3799 76.5896 32.4717 76.4672 32.7165 76.4366L39.5098 75.3039L43.3655 74.661L46.2878 74.1712L50.1434 73.5283L53.0657 73.0385L56.9214 72.3957C57.1662 72.3497 57.4569 72.3957 57.5793 72.5181L59.1246 73.8804C59.247 73.9875 59.1552 74.11 58.9104 74.1406L55.0547 74.7835L52.1324 75.2733L48.2768 75.9162L45.3545 76.406L41.4988 77.0488ZM59.6907 80.1407L51.8724 81.4418C51.3828 81.5183 50.7861 81.4112 50.5413 81.1969L47.42 78.457C47.1752 78.2427 47.3741 77.9978 47.8637 77.9213L55.6821 76.6202C56.1717 76.5437 56.7684 76.6509 57.0132 76.8652L60.1344 79.605C60.3792 79.8193 60.1803 80.0642 59.6907 80.1407ZM65.719 73.0232L61.8633 73.6661C61.6185 73.712 61.3278 73.6661 61.2054 73.5436L59.6601 72.1814C59.5377 72.0742 59.6295 71.9518 59.8743 71.9212L63.73 71.2783C63.9748 71.2324 64.2655 71.2783 64.3879 71.4008L65.9332 72.763C66.0556 72.8702 65.9638 72.9926 65.719 73.0232ZM71.1812 70.2681L72.7265 71.6303C72.8489 71.7375 72.7571 71.8599 72.5123 71.8906L68.6566 72.5334C68.4118 72.5793 68.1211 72.5334 67.9987 72.411L66.4534 71.0487C66.331 70.9416 66.4228 70.8191 66.6676 70.7885L70.5233 70.1456C70.7681 70.0997 71.0588 70.1456 71.1812 70.2681ZM67.0807 67.1303C67.3255 67.0843 67.6162 67.1302 67.7386 67.2527L69.284 68.615C69.4064 68.7221 69.3145 68.8446 69.0697 68.8752L65.2141 69.5181C64.9693 69.564 64.6786 69.5181 64.5562 69.3956L63.0108 68.0333C62.8884 67.9262 62.9803 67.8037 63.2251 67.7731L67.0807 67.1303ZM63.6382 64.0996C63.883 64.0537 64.1737 64.0996 64.2961 64.222L65.8414 65.5843C65.9638 65.6914 65.872 65.8139 65.6272 65.8445L61.7715 66.4874C61.5267 66.5333 61.236 66.4874 61.1136 66.3649L59.5683 65.0027C59.4459 64.8955 59.5377 64.7731 59.7825 64.7424L63.6382 64.0996ZM56.34 61.7118L60.1957 61.0689C60.4405 61.023 60.7311 61.0689 60.8535 61.1914L62.3989 62.5536C62.5213 62.6608 62.4295 62.7832 62.1847 62.8138L58.329 63.4567C58.0842 63.5026 57.7935 63.4567 57.6711 63.3343L56.1258 61.972C56.0034 61.8648 56.0952 61.7424 56.34 61.7118ZM49.5467 62.8444L53.4024 62.2016C53.6472 62.1557 53.9379 62.2016 54.0603 62.324L55.6056 63.6863C55.728 63.7935 55.6362 63.9159 55.3914 63.9465L51.5357 64.5894C51.2909 64.6353 51.0002 64.5894 50.8778 64.4669L49.3325 63.1047C49.2101 62.9975 49.3019 62.8751 49.5467 62.8444ZM42.7534 63.9618L46.6091 63.3189C46.8539 63.273 47.1446 63.3189 47.267 63.4414L48.8123 64.8037C48.9347 64.9108 48.8429 65.0333 48.5981 65.0639L44.7424 65.7068C44.4976 65.7527 44.2069 65.7068 44.0845 65.5843L42.5392 64.222C42.4168 64.1149 42.5086 63.9924 42.7534 63.9618ZM35.9755 65.0945L39.8311 64.4516C40.0759 64.4057 40.3666 64.4516 40.489 64.5741L42.0344 65.9364C42.1568 66.0435 42.0649 66.166 41.8201 66.1966L37.9645 66.8394C37.7197 66.8854 37.429 66.8394 37.3066 66.717L35.7612 65.3547C35.6388 65.2476 35.7307 65.1251 35.9755 65.0945ZM29.1822 66.2272L33.0379 65.5843C33.2827 65.5384 33.5734 65.5843 33.6958 65.7068L35.2411 67.069C35.3635 67.1762 35.2717 67.2986 35.0269 67.3292L31.1712 67.9721C30.9264 68.018 30.6357 67.9721 30.5133 67.8497L28.968 66.4874C28.8456 66.3802 28.9374 66.2578 29.1822 66.2272ZM22.4042 67.3445L26.2599 66.7017C26.5047 66.6558 26.7954 66.7017 26.9178 66.8241L28.463 68.1864C28.5854 68.2935 28.4937 68.416 28.2489 68.4466L24.3932 69.0895C24.1484 69.1354 23.8577 69.0895 23.7353 68.967L22.19 67.6048C22.0676 67.4976 22.1594 67.3752 22.4042 67.3445ZM22.9244 70.865C23.1692 70.8191 23.46 70.865 23.5824 70.9875L25.1276 72.3497C25.25 72.4569 25.1583 72.5793 24.9135 72.61L21.0578 73.2528C20.813 73.2988 20.5223 73.2528 20.3999 73.1304L18.8546 71.7681C18.7322 71.661 18.824 71.5385 19.0688 71.5079L22.9244 70.865ZM15.6109 68.4772L19.4666 67.8344C19.7114 67.7884 20.0021 67.8344 20.1245 67.9568L21.6698 69.3191C21.7922 69.4262 21.7004 69.5487 21.4556 69.5793L17.5999 70.2222C17.3551 70.2681 17.0645 70.2222 16.9421 70.0997L15.3967 68.7374C15.2743 68.6303 15.3661 68.5078 15.6109 68.4772Z" fill="#0E67AD"/>
<path d="M20.553 30.4873H20.4766V30.2271C20.4919 30.3189 20.5224 30.3954 20.553 30.4873Z" fill="url(#paint0_linear_368_1788)"/>
<path d="M27.4993 40.3137H21.3486V9.67025L27.4993 8.23145V40.3137Z" fill="url(#paint1_linear_368_1788)"/>
<path d="M29.733 41.6607H27.4993V8.23145L29.733 9.97638V41.6607Z" fill="url(#paint2_linear_368_1788)"/>
<path style="mix-blend-mode:screen" d="M21.3486 10.007L27.025 8.72125V39.7321H27.4993V8.23145L21.3486 9.67025V10.007Z" fill="url(#paint3_linear_368_1788)"/>
<path style="mix-blend-mode:screen" d="M21.3486 9.67057V20.63C21.3486 20.63 24.9442 20.5381 27.484 18.135V8.24707L21.3486 9.67057Z" fill="url(#paint4_linear_368_1788)"/>
<path d="M37.3832 41.6611H31.2478V13.1911L37.3832 11.7676V41.6611Z" fill="url(#paint5_linear_368_1788)"/>
<path d="M39.6172 41.6611H37.3833V11.7676L39.6172 13.5125V41.6611Z" fill="url(#paint6_linear_368_1788)"/>
<path style="mix-blend-mode:screen" d="M31.2478 13.5431L36.9242 12.2574V43.2529H37.3832V11.7676L31.2478 13.1911V13.5431Z" fill="url(#paint7_linear_368_1788)"/>
<path style="mix-blend-mode:screen" d="M31.2478 13.1911V20.6147C31.2478 20.6147 34.8434 20.5229 37.3832 18.1198V11.7676L31.2478 13.1911Z" fill="url(#paint8_linear_368_1788)"/>
<path d="M47.2824 41.6609H41.147V4.26725L47.2824 2.84375V41.6609Z" fill="url(#paint9_linear_368_1788)"/>
<path d="M49.5162 41.6609H47.2825V2.84375L49.5162 4.58869V41.6609Z" fill="url(#paint10_linear_368_1788)"/>
<path style="mix-blend-mode:screen" d="M41.147 4.6193L46.8081 3.33356V39.319H47.2824V2.84375L41.147 4.26725V4.6193Z" fill="url(#paint11_linear_368_1788)"/>
<path style="mix-blend-mode:screen" d="M41.147 4.26725V20.6145C41.147 20.6145 44.7425 20.5227 47.2824 18.1196V2.84375L41.147 4.26725Z" fill="url(#paint12_linear_368_1788)"/>
<path d="M50.1436 25.3751V30.166C50.419 31.7579 50.3272 33.365 49.807 34.911C47.7108 41.156 39.4641 44.003 31.3856 41.2785C25.8775 39.4264 21.8689 35.4467 20.5531 31.1303C20.5225 31.0385 20.5072 30.9619 20.4766 30.8701C19.9717 29.0486 19.9411 27.1659 20.4766 25.3598V18.7627C18.0744 20.3546 16.2691 22.5434 15.3511 25.2526C12.6888 33.1661 18.8241 42.3958 29.0599 45.8398C39.3111 49.299 49.7611 45.6714 52.4386 37.758C53.831 33.6406 52.8364 29.1864 50.1283 25.3598L50.1436 25.3751Z" fill="url(#paint13_linear_368_1788)"/>
<path d="M50.1436 24.7169V29.5078C50.419 31.0997 50.3272 32.7068 49.807 34.2528C47.7108 40.4978 39.4641 43.3448 31.3856 40.6203C25.8775 38.7682 21.8689 34.7885 20.5531 30.4721C20.5225 30.3803 20.5072 30.3037 20.4766 30.2119C19.9717 28.3904 19.9411 26.5077 20.4766 24.7016V18.1045C18.0744 19.6964 16.2691 21.8852 15.3511 24.5944C12.6888 32.5079 18.8241 41.7376 29.0599 45.1816C39.3111 48.6408 49.7611 45.0132 52.4386 37.0998C53.831 32.9824 52.8364 28.5282 50.1283 24.7016L50.1436 24.7169Z" fill="#FFE045"/>
<g style="mix-blend-mode:screen">
<path d="M20.2164 18.7931C18.6405 20.9667 17.5236 22.9871 16.835 25.1912C16.529 26.2933 16.2231 27.426 16.0854 28.6199C15.963 29.2168 15.9629 29.8291 15.8711 30.4567C15.7946 31.0842 15.7946 31.7271 15.6569 32.4159C15.2897 31.8495 14.9837 31.2373 14.7236 30.6097C14.5553 29.9668 14.2952 29.3087 14.2493 28.6199C14.0198 27.2576 14.2034 25.8341 14.6012 24.4718C15.0143 23.1249 15.764 21.8697 16.7279 20.8748C17.6765 19.8799 18.87 19.0687 20.2164 18.7778V18.7931Z" fill="url(#paint14_linear_368_1788)"/>
</g>
<defs>
<linearGradient id="paint0_linear_368_1788" x1="20.7978" y1="30.1658" x2="20.4152" y2="30.4258" gradientUnits="userSpaceOnUse">
<stop stop-color="#00AEFF"/>
<stop offset="0.55" stop-color="#004FB9"/>
<stop offset="1" stop-color="#00007F"/>
</linearGradient>
<linearGradient id="paint1_linear_368_1788" x1="24.424" y1="9.04269" x2="24.424" y2="42.074" gradientUnits="userSpaceOnUse">
<stop stop-color="#00AEFF"/>
<stop offset="0.55" stop-color="#004FB9"/>
<stop offset="1" stop-color="#00007F"/>
</linearGradient>
<linearGradient id="paint2_linear_368_1788" x1="69.4818" y1="-3.14124" x2="17.4787" y2="32.5781" gradientUnits="userSpaceOnUse">
<stop stop-color="#00AEFF"/>
<stop offset="0.55" stop-color="#004FB9"/>
<stop offset="1" stop-color="#00007F"/>
</linearGradient>
<linearGradient id="paint3_linear_368_1788" x1="40.9788" y1="46.4363" x2="10.345" y2="-3.68123" gradientUnits="userSpaceOnUse">
<stop stop-color="#00AEFF"/>
<stop offset="0.55" stop-color="#004FB9"/>
<stop offset="1" stop-color="#00007F"/>
</linearGradient>
<linearGradient id="paint4_linear_368_1788" x1="43.5339" y1="-5.2226" x2="20.7426" y2="17.5594" gradientUnits="userSpaceOnUse">
<stop stop-color="#00AEFF"/>
<stop offset="0.55" stop-color="#004FB9"/>
<stop offset="1" stop-color="#00007F"/>
</linearGradient>
<linearGradient id="paint5_linear_368_1788" x1="34.3231" y1="13.2829" x2="34.3231" y2="41.5845" gradientUnits="userSpaceOnUse">
<stop stop-color="#00AEFF"/>
<stop offset="0.55" stop-color="#004FB9"/>
<stop offset="1" stop-color="#00007F"/>
</linearGradient>
<linearGradient id="paint6_linear_368_1788" x1="75.2059" y1="1.48165" x2="28.4513" y2="33.6079" gradientUnits="userSpaceOnUse">
<stop stop-color="#00AEFF"/>
<stop offset="0.55" stop-color="#004FB9"/>
<stop offset="1" stop-color="#00007F"/>
</linearGradient>
<linearGradient id="paint7_linear_368_1788" x1="50.878" y1="49.9725" x2="20.2288" y2="-0.145021" gradientUnits="userSpaceOnUse">
<stop stop-color="#00AEFF"/>
<stop offset="0.55" stop-color="#004FB9"/>
<stop offset="1" stop-color="#00007F"/>
</linearGradient>
<linearGradient id="paint8_linear_368_1788" x1="47.16" y1="2.81331" x2="28.7005" y2="21.2654" gradientUnits="userSpaceOnUse">
<stop stop-color="#00AEFF"/>
<stop offset="0.55" stop-color="#004FB9"/>
<stop offset="1" stop-color="#00007F"/>
</linearGradient>
<linearGradient id="paint9_linear_368_1788" x1="44.207" y1="3.86928" x2="44.207" y2="39.7476" gradientUnits="userSpaceOnUse">
<stop stop-color="#00AEFF"/>
<stop offset="0.55" stop-color="#004FB9"/>
<stop offset="1" stop-color="#00007F"/>
</linearGradient>
<linearGradient id="paint10_linear_368_1788" x1="95.6297" y1="-10.2126" x2="35.6072" y2="31.0137" gradientUnits="userSpaceOnUse">
<stop stop-color="#00AEFF"/>
<stop offset="0.55" stop-color="#004FB9"/>
<stop offset="1" stop-color="#00007F"/>
</linearGradient>
<linearGradient id="paint11_linear_368_1788" x1="62.858" y1="46.9569" x2="27.6925" y2="-10.5366" gradientUnits="userSpaceOnUse">
<stop stop-color="#00AEFF"/>
<stop offset="0.55" stop-color="#004FB9"/>
<stop offset="1" stop-color="#00007F"/>
</linearGradient>
<linearGradient id="paint12_linear_368_1788" x1="52.6986" y1="2.69069" x2="23.2643" y2="32.113" gradientUnits="userSpaceOnUse">
<stop stop-color="#00AEFF"/>
<stop offset="0.55" stop-color="#004FB9"/>
<stop offset="1" stop-color="#00007F"/>
</linearGradient>
<linearGradient id="paint13_linear_368_1788" x1="53.3566" y1="42.1509" x2="20.9461" y2="26.9772" gradientUnits="userSpaceOnUse">
<stop stop-color="#FFCB45"/>
<stop offset="0.33" stop-color="#FFDF45"/>
<stop offset="0.66" stop-color="#FCE277"/>
<stop offset="1" stop-color="#F9F4DE"/>
</linearGradient>
<linearGradient id="paint14_linear_368_1788" x1="13.9892" y1="25.6045" x2="20.8131" y2="25.6045" gradientUnits="userSpaceOnUse">
<stop stop-color="#A3E924"/>
<stop offset="0.59" stop-color="#44AF11"/>
<stop offset="1" stop-color="#008504"/>
</linearGradient>
</defs>
</svg>
