<svg width="72" height="80" viewBox="0 0 72 80" fill="none" xmlns="http://www.w3.org/2000/svg">
<g clip-path="url(#clip0_1_57)">
<path d="M33.0471 49.3389C33.1856 48.9035 33.2687 48.4409 33.4738 48.0381C34.2055 46.6229 35.3971 45.8664 37.0155 45.7793C37.47 45.7521 37.9301 45.7739 38.4178 45.7739C38.4178 45.4528 38.4178 45.1533 38.4178 44.854C38.4233 44.2172 38.8446 43.7654 39.4376 43.7654C40.0307 43.7654 40.4574 44.2118 40.4629 44.8486C40.4685 45.1479 40.4629 45.4473 40.4629 45.763C41.9982 45.763 43.5114 45.763 45.0688 45.763C45.0688 45.431 45.0577 45.0881 45.0688 44.7506C45.0965 44.0593 45.7616 43.6076 46.4157 43.8253C46.8203 43.956 47.0918 44.3207 47.1029 44.7561C47.114 45.0827 47.1029 45.4092 47.1029 45.7521C48.6492 45.7521 50.1845 45.7521 51.7586 45.7521C51.7586 45.4201 51.7475 45.0771 51.7586 44.7397C51.7919 43.956 52.6509 43.5096 53.3216 43.9233C53.632 44.1138 53.7872 44.4023 53.7983 44.7615C53.8038 45.0881 53.7983 45.4147 53.7983 45.7739C54.0976 45.7739 54.3858 45.7793 54.6684 45.7739C55.3114 45.7575 55.9432 45.8065 56.5529 46.0297C58.0771 46.5849 59.1801 48.0327 59.2022 49.6329C59.23 51.5922 59.2189 53.5462 59.2078 55.5056C59.2078 56.0826 58.7533 56.518 58.188 56.518C57.6116 56.518 57.1681 56.0826 57.1681 55.4838C57.1626 53.6278 57.1681 51.7664 57.1626 49.9104C57.1626 49.0505 56.8023 48.3864 56.0042 48C55.7714 47.8857 55.5054 47.8204 55.2448 47.804C54.7737 47.7713 54.2916 47.7931 53.7816 47.7931C53.7816 48.0979 53.7816 48.3918 53.7816 48.6912C53.7761 49.3444 53.3493 49.7961 52.7452 49.7907C52.1521 49.7852 51.742 49.3334 51.7365 48.6967C51.7365 48.4028 51.7365 48.1143 51.7365 47.804C50.1845 47.804 48.6492 47.804 47.0807 47.804C47.0807 48.0816 47.0807 48.3537 47.0807 48.6259C47.0807 49.3334 46.6817 49.7907 46.0664 49.7907C45.4457 49.7961 45.0411 49.3334 45.0356 48.6368C45.0356 48.3647 45.0356 48.087 45.0356 47.7986C43.5003 47.7986 41.9872 47.7986 40.4297 47.7986C40.4297 48.1306 40.4408 48.4681 40.4297 48.8055C40.402 49.4968 39.7425 49.9485 39.0829 49.7362C38.6727 49.6002 38.4012 49.2355 38.3901 48.7783C38.3845 48.4571 38.3901 48.1306 38.3901 47.755C37.7859 47.7823 37.1984 47.7496 36.6387 47.853C35.7241 48.0217 35.12 48.8055 35.0701 49.7471C35.0645 49.8124 35.0645 49.8831 35.0645 49.9485C35.0645 55.0702 35.0645 60.1919 35.0645 65.3081C35.0645 66.179 35.4082 66.8648 36.223 67.2403C36.5334 67.3818 36.9102 67.4471 37.2594 67.4526C39.7757 67.469 42.2864 67.4634 44.8028 67.458C45.1354 67.458 45.4291 67.5288 45.6674 67.7629C46.1606 68.2527 46.0055 69.0691 45.3736 69.3685C45.296 69.4066 45.2185 69.4338 45.1409 69.4664C42.3142 69.4664 39.4819 69.4664 36.6552 69.4664C36.6165 69.4501 36.5832 69.4283 36.5389 69.4229C35.1034 69.1943 34.0503 68.4377 33.424 67.1532C33.2356 66.7613 33.1523 66.3205 33.0194 65.9014C33.0471 60.3878 33.0471 54.8633 33.0471 49.3389ZM53.5488 69.4719C53.7263 69.4392 53.898 69.412 54.0754 69.3739C56.5418 68.8949 58.2157 67.4798 58.9472 65.1339C59.6346 62.935 59.1412 60.9049 57.5173 59.2339C55.7548 57.4215 53.5599 56.8609 51.1379 57.6337C48.7823 58.3849 47.3745 60.0504 46.9422 62.4561C46.4488 65.1884 48.1283 68.073 50.7831 69.0309C51.343 69.2324 51.947 69.3249 52.5291 69.4664C52.8671 69.4719 53.2108 69.4719 53.5488 69.4719ZM53.039 67.4634C50.7609 67.4634 48.8931 65.6292 48.8987 63.3923C48.9042 61.1607 50.7554 59.3428 53.0279 59.3373C55.3059 59.3319 57.1792 61.1607 57.1792 63.3977C57.1848 65.6292 55.317 67.4634 53.039 67.4634ZM39.4321 53.3067C38.8778 53.3067 38.4233 53.753 38.4178 54.2919C38.4067 54.8416 38.8667 55.3042 39.4321 55.3097C39.9918 55.3151 40.4629 54.8633 40.4629 54.3082C40.4629 53.7639 39.9974 53.3067 39.4321 53.3067ZM44.9081 54.2973C44.9025 53.753 44.448 53.3122 43.8938 53.3067C43.334 53.3012 42.8684 53.7585 42.8684 54.3082C42.8684 54.8579 43.334 55.3151 43.8938 55.3097C44.4535 55.3097 44.9136 54.8525 44.9081 54.2973ZM48.3334 53.3067C47.7791 53.3067 47.3246 53.7476 47.3135 54.2919C47.3024 54.8416 47.7624 55.3042 48.3223 55.3097C48.882 55.3151 49.3531 54.8633 49.3531 54.3136C49.3587 53.7639 48.8987 53.3067 48.3334 53.3067ZM53.8038 54.3028C53.7983 53.7585 53.3493 53.3122 52.7951 53.3067C52.2353 53.3012 51.7641 53.753 51.7641 54.3028C51.7586 54.8525 52.2242 55.3097 52.784 55.3097C53.3493 55.3151 53.8094 54.8579 53.8038 54.3028ZM38.4178 58.6951C38.4289 59.2393 38.8833 59.6803 39.4376 59.6803C39.9974 59.6803 40.4629 59.2285 40.4629 58.6733C40.4629 58.1236 39.9918 57.6718 39.4321 57.6773C38.8667 57.6828 38.4067 58.1453 38.4178 58.6951ZM44.9081 58.6679C44.9025 58.1236 44.448 57.6828 43.8938 57.6773C43.334 57.6718 42.8684 58.129 42.8684 58.6788C42.8684 59.2285 43.334 59.6857 43.8938 59.6803C44.4535 59.6803 44.9136 59.2176 44.9081 58.6679ZM39.4542 62.0424C38.9 62.037 38.44 62.4669 38.4178 63.0112C38.4012 63.5609 38.85 64.029 39.4099 64.0454C39.9697 64.0617 40.4463 63.6154 40.4574 63.0657C40.4685 62.516 40.014 62.0533 39.4542 62.0424ZM44.9081 63.0385C44.9025 62.4942 44.4535 62.0479 43.8993 62.0424C43.3396 62.037 42.8684 62.4888 42.8684 63.0385C42.8628 63.5882 43.3285 64.0454 43.8882 64.0454C44.448 64.0509 44.9136 63.5936 44.9081 63.0385ZM54.0587 61.2913C54.0366 60.747 53.5821 60.3334 53.039 60.3334C52.4958 60.3334 52.0358 60.747 52.0247 61.2913C52.0081 62.0098 52.0081 62.7282 52.0247 63.4467C52.0358 63.9583 52.4514 64.3665 52.9724 64.3883C53.5101 64.4101 54.0422 64.4101 54.5798 64.3883C55.123 64.3665 55.5387 63.931 55.5441 63.4086C55.5497 62.8751 55.1341 62.4343 54.5853 62.3962C54.4246 62.3853 54.2638 62.3962 54.0587 62.3962C54.0587 62.0098 54.0698 61.6506 54.0587 61.2913Z" fill="white"/>
<path d="M32.3099 74.3704C25.7532 74.3704 15.5827 74.3704 9.02027 74.3704C5.38992 74.3704 3.15074 72.1824 3.13412 68.6173C3.12857 67.6866 3.12857 10.0418 3.13412 6.72165C3.13966 3.10763 5.37329 0.925062 9.05353 0.925062C21.1251 0.925062 33.2023 0.935948 45.274 0.914176C47.0863 0.908733 48.5718 1.49656 49.8465 2.75929C53.3881 6.27535 56.952 9.78048 60.538 13.2585C61.8239 14.5103 62.4391 15.969 62.4391 17.7433C62.4336 24.3781 62.4336 36.0149 62.4336 42.6496L60.2387 41.1584C60.2387 35.0189 60.2387 23.8774 60.2387 17.7379C60.2387 17.4113 60.1999 17.0793 60.1722 16.6711C59.8619 16.6711 59.6013 16.6711 59.3409 16.6711C56.4421 16.6711 53.5489 16.6766 50.6502 16.6711C47.951 16.6657 46.4212 15.1689 46.4212 12.5454C46.4212 9.69886 46.4212 6.85773 46.4212 4.01114C46.4212 3.08042 46.4212 3.07497 45.4624 3.07497C35.1644 3.07497 24.8664 3.07497 14.5739 3.07497C12.6728 3.07497 10.7773 3.07497 8.87617 3.07497C6.64807 3.08042 5.34004 4.34315 5.3345 6.54749C5.32341 9.91658 5.31233 67.8826 5.3345 68.9112C5.37884 70.9306 6.7035 72.2096 8.75424 72.2151C12.113 72.2151 23.6636 72.2205 32.1603 72.2205L32.3099 74.3704ZM48.6105 4.80035C48.6105 7.40745 48.6105 9.98734 48.6105 12.5618C48.6105 13.9551 49.1704 14.5049 50.6003 14.5103C53.0556 14.5157 55.5109 14.5157 57.9663 14.5103C58.1437 14.5103 58.3155 14.4722 58.443 14.4613C55.1729 11.2391 51.9138 8.04426 48.6105 4.80035Z" fill="white"/>
<path d="M23.2202 7.91363C26.7231 7.91363 30.226 7.90819 33.7288 7.91363C35.5302 7.91363 36.4225 8.78448 36.4336 10.5479C36.4447 11.7453 36.4502 12.9373 36.4336 14.1348C36.4114 15.7404 35.4692 16.6657 33.8231 16.6657C26.7453 16.6766 19.6619 16.6766 12.5842 16.6657C10.9491 16.6657 10.0069 15.7241 9.98469 14.1185C9.96807 12.9265 9.9736 11.7291 9.98469 10.5316C9.99578 8.80625 10.8937 7.91907 12.634 7.91363C16.1646 7.90819 19.6897 7.91363 23.2202 7.91363ZM34.2332 10.1289C26.845 10.1289 19.5511 10.1289 12.1795 10.1289C12.1795 11.3535 12.2183 12.5237 12.1629 13.6831C12.1352 14.3416 12.3403 14.5267 13.0164 14.5267C19.8004 14.5049 26.579 14.5103 33.3631 14.5103C33.5349 14.5103 33.7233 14.5538 33.8674 14.494C34.0115 14.4341 34.211 14.2654 34.211 14.1456C34.2443 12.8122 34.2332 11.4841 34.2332 10.1289Z" fill="white"/>
<path d="M46.1496 79.2634C33.7398 79.2634 23.6469 69.3521 23.6469 57.1656C23.6469 44.9791 33.7398 35.0678 46.1496 35.0678C58.5593 35.0678 68.6522 44.9791 68.6522 57.1656C68.6522 69.3521 58.5537 79.2634 46.1496 79.2634ZM46.1496 37.2449C34.9648 37.2449 25.8639 46.182 25.8639 57.1656C25.8639 68.1492 34.9648 77.0863 46.1496 77.0863C57.3344 77.0863 66.4352 68.1492 66.4352 57.1656C66.4352 46.182 57.3344 37.2449 46.1496 37.2449Z" fill="white"/>
<path d="M38.6118 28.2044H14.2856C13.6759 28.2044 13.1826 27.72 13.1826 27.1213C13.1826 26.5226 13.6759 26.0382 14.2856 26.0382H38.6118C39.2215 26.0382 39.7147 26.5226 39.7147 27.1213C39.7147 27.72 39.2215 28.2044 38.6118 28.2044Z" fill="white"/>
<path d="M38.6118 34.6813H14.2856C13.6759 34.6813 13.1826 34.197 13.1826 33.5982C13.1826 32.9995 13.6759 32.5151 14.2856 32.5151H38.6118C39.2215 32.5151 39.7147 32.9995 39.7147 33.5982C39.7147 34.197 39.2215 34.6813 38.6118 34.6813Z" fill="white"/>
<path d="M33.5348 41.1583H14.2856C13.6759 41.1583 13.1826 40.6739 13.1826 40.0751C13.1826 39.4765 13.6759 38.9921 14.2856 38.9921H33.5348C34.1445 38.9921 34.6378 39.4765 34.6378 40.0751C34.6323 40.6739 34.139 41.1583 33.5348 41.1583Z" fill="white"/>
<path d="M27.2828 47.6407H14.2856C13.6759 47.6407 13.1826 47.1563 13.1826 46.5575C13.1826 45.9589 13.6759 45.4745 14.2856 45.4745H27.2828C27.8925 45.4745 28.3858 45.9589 28.3858 46.5575C28.3802 47.1563 27.887 47.6407 27.2828 47.6407Z" fill="white"/>
</g>
<defs>
<clipPath id="clip0_1_57">
<rect width="66" height="80" fill="white" transform="translate(3)"/>
</clipPath>
</defs>
</svg>
