<svg width="72" height="80" viewBox="0 0 72 80" fill="none" xmlns="http://www.w3.org/2000/svg">
<g clip-path="url(#clip0_1_2)">
<path d="M61.2537 14.2802C58.6192 14.2802 56.1107 14.2802 53.6074 14.2802C52.4314 14.2802 52.063 13.8831 52.063 12.6269C52.058 9.92392 52.063 7.22642 52.063 4.46367H13.6348C12.0955 4.46367 10.8489 5.80699 10.8489 7.46572V56.2707C12.7213 56.2707 14.5837 56.1728 16.4309 56.3033C17.8138 56.4012 18.8333 56.0042 19.7064 54.8349C20.4685 53.818 21.7101 53.0892 22.1442 51.9688C22.5731 50.8703 22.2502 49.44 22.2552 48.151C22.2602 47.2265 22.2451 46.2965 22.2602 45.372C22.2703 44.3658 22.6842 43.9036 23.633 43.9308C24.3901 43.9525 25.1774 43.9471 25.8991 44.1646C27.817 44.7302 29.1141 46.6446 29.1393 48.8308C29.1646 51.251 29.1545 53.6657 29.1595 56.0858C29.1595 56.1076 29.1697 56.1348 29.205 56.2761C29.4271 56.2761 29.6794 56.2761 29.9267 56.2761C32.9852 56.2761 36.0386 56.2761 39.0971 56.2761C40.2227 56.2761 40.6062 56.684 40.6062 57.8914C40.6062 63.4495 40.6113 69.0076 40.6062 74.5658C40.6012 76.9641 39.1578 78.5087 36.9169 78.5087C32.5461 78.5141 28.1754 78.5196 23.8097 78.4978C23.3756 78.4978 22.871 78.4054 22.5227 78.1552C19.9436 76.3442 17.1527 75.8493 14.0941 75.9906C9.84959 76.1865 5.59491 76.0396 1.3453 76.0396C1.0879 76.0396 0.830502 76.0396 0.527679 76.0396V73.5814H14.1849V58.7778H0.537774V56.2925H8.50705C8.50705 55.9063 8.50705 55.6072 8.50705 55.3027C8.50705 41.837 8.50705 16.6568 8.50705 6.42153C8.50705 3.93615 10.3744 1.92934 12.6759 1.92934C21.4123 1.92934 41.7216 1.92934 52.6031 1.91302C53.3853 1.91302 53.9455 2.17407 54.4906 2.76687C57.2715 5.80699 60.0828 8.81991 62.894 11.8328C63.3028 12.2734 63.54 12.7356 63.54 13.3882C63.5248 22.1116 63.5299 30.8349 63.5299 39.5583C63.5299 39.754 63.5299 39.9552 63.5299 40.1891C62.7526 40.1891 62.0461 40.1891 61.2587 40.1891V14.2802H61.2537ZM24.5566 46.4325C24.5566 46.6881 24.5566 46.9383 24.5566 47.1885C24.5566 48.8853 24.5869 50.5875 24.5365 52.2843C24.5213 52.7303 24.3447 53.2687 24.0671 53.5841C22.6691 55.1667 21.2306 56.7166 19.762 58.2231C19.4693 58.5223 18.9746 58.6745 18.5557 58.729C17.9047 58.8105 17.2384 58.7506 16.5924 58.7506C16.5924 63.7486 16.5924 68.6432 16.5924 73.6793C18.6466 73.0865 20.2616 74.1416 21.9069 75.0824C22.3712 75.3489 22.8407 75.5991 23.3151 75.8383C23.5069 75.9308 23.7189 76.0288 23.9208 76.0288C28.3166 76.0396 32.7076 76.0451 37.1036 76.0288C37.8304 76.0288 38.2594 75.5501 38.2997 74.7834C38.3199 74.4081 38.3047 74.0274 38.3047 73.5651C35.2261 73.5651 32.208 73.5651 29.1898 73.5651C29.1898 72.7004 29.1898 71.9172 29.1898 71.0797C32.2433 71.0797 35.2412 71.0797 38.2594 71.0797C38.2594 70.2422 38.2594 69.4591 38.2594 68.5943C35.1958 68.5943 32.1776 68.5943 29.1747 68.5943C29.1747 67.7459 29.1747 66.9845 29.1747 66.1361C32.2281 66.1361 35.2463 66.1361 38.2694 66.1361C38.2694 65.2877 38.2694 64.5263 38.2694 63.678C35.2211 63.678 32.2029 63.678 29.1898 63.678C29.1898 62.8078 29.1898 62.0301 29.1898 61.2143C30.7443 61.2143 32.2483 61.2143 33.7473 61.2143C35.2463 61.2143 36.7402 61.2143 38.2594 61.2143C38.2594 60.3551 38.2594 59.5773 38.2594 58.7506C37.9515 58.7506 37.6941 58.7506 37.4317 58.7506C34.4236 58.7506 31.4156 58.7506 28.4075 58.7506C27.2013 58.7506 26.848 58.3591 26.8429 57.0376C26.8429 54.3346 26.8531 51.6317 26.8379 48.9341C26.8279 47.4821 25.9446 46.5141 24.5566 46.4325ZM59.3762 11.7785C57.7056 9.9783 56.0502 8.19448 54.3998 6.41609C54.3998 8.15097 54.3998 9.95111 54.3998 11.7785C56.0956 11.7785 57.751 11.7785 59.3762 11.7785ZM54.3191 61.2143C54.5209 57.3312 54.0667 53.6711 52.5273 50.234C51.1848 47.2374 52.6939 43.1205 55.6414 41.9077C58.7654 40.6188 62.2227 42.2938 63.2169 45.6929C63.6762 47.2591 63.7065 48.8146 62.9949 50.4025C61.4808 53.7854 61.0619 57.4073 61.2689 61.2143C61.9451 61.2143 62.6063 61.2143 63.2674 61.2143C65.5134 61.2251 66.9467 62.7534 66.9569 65.1572C66.9569 65.4618 66.9569 65.7664 66.9569 66.1579C67.3152 66.1579 67.6129 66.1579 67.9158 66.1579C70.0961 66.1742 71.5244 67.7242 71.5396 70.0954C71.5446 70.7371 71.5446 71.3788 71.5396 72.0261C71.5294 73.1355 71.1358 73.5651 70.1112 73.576C69.8538 73.5814 69.5914 73.576 69.2482 73.576C69.2482 74.7235 69.2533 75.8167 69.2482 76.9152C69.2431 78.0845 68.8596 78.5141 67.7946 78.5141C61.1124 78.5195 54.4301 78.5195 47.7478 78.5141C46.7233 78.5141 46.3296 78.079 46.3245 76.9641C46.3195 75.8656 46.3245 74.7616 46.3245 73.5705C45.9207 73.5705 45.5675 73.5868 45.2192 73.5651C44.4975 73.5271 44.0584 73.0756 44.0382 72.3033C44.013 71.406 43.9979 70.5032 44.0432 69.6059C44.1341 67.7459 45.5776 66.2449 47.3188 66.1633C47.7225 66.147 48.1213 66.1579 48.6159 66.1579C48.6159 65.701 48.6109 65.2986 48.6159 64.8962C48.6613 62.8296 50.1199 61.2578 52.0428 61.2143C52.7847 61.1979 53.5216 61.2143 54.3191 61.2143ZM58.9371 61.1762C58.9371 60.4529 58.9321 59.7677 58.9371 59.077C58.9523 55.6888 59.568 52.4365 60.9055 49.3638C61.3244 48.4067 61.3193 47.4713 61.0619 46.5195C60.5168 44.5291 58.4677 43.4305 56.6507 44.1374C54.738 44.8825 53.8194 47.1341 54.5361 48.8853C56.025 52.5345 56.7567 56.3033 56.6507 60.2734C56.6407 60.5725 56.6507 60.8662 56.6507 61.1762C57.4532 61.1762 58.1599 61.1762 58.9371 61.1762ZM46.3397 71.0471C54.0313 71.0471 61.612 71.0471 69.2532 71.0471C69.2532 70.6773 69.2633 70.3455 69.2532 70.0137C69.228 69.1001 68.8142 68.627 67.9662 68.627C61.183 68.6215 54.4048 68.6215 47.6216 68.6215C47.551 68.6215 47.4753 68.6215 47.4046 68.6324C46.7788 68.7303 46.4103 69.1109 46.3498 69.7908C46.3145 70.1932 46.3397 70.6011 46.3397 71.0471ZM48.6563 75.9798C54.7884 75.9798 60.855 75.9798 66.9215 75.9798C66.9215 75.164 66.9215 74.4027 66.9215 73.614C60.8196 73.614 54.7531 73.614 48.6563 73.614C48.6563 74.4135 48.6563 75.1749 48.6563 75.9798ZM64.6655 66.1198C64.6655 65.6956 64.6806 65.3367 64.6604 64.9777C64.6251 64.1946 64.2112 63.6996 63.4945 63.6996C59.6992 63.6834 55.8988 63.6834 52.1034 63.6996C51.3817 63.7052 50.9577 64.1837 50.9173 64.956C50.8972 65.3313 50.9123 65.7119 50.9123 66.1198C55.5202 66.1198 60.0474 66.1198 64.6655 66.1198ZM28.1401 35.8111C28.1501 28.3168 33.8281 22.2367 40.798 22.2584C47.7478 22.2747 53.3853 28.4093 53.3601 35.9144C53.3348 43.3651 47.667 49.4345 40.7375 49.4345C33.7877 49.4236 28.1299 43.3108 28.1401 35.8111ZM51.0637 35.8655C51.0738 29.758 46.4608 24.7547 40.8081 24.7275C35.1049 24.7057 30.4465 29.6819 30.4365 35.8165C30.4263 41.9239 35.0394 46.9328 40.692 46.9546C46.3952 46.9763 51.0536 41.9947 51.0637 35.8655ZM17.188 13.3556H45.1132C45.724 13.3556 46.2186 12.8226 46.2186 12.1646C46.2186 11.5065 45.724 10.9735 45.1132 10.9735H17.188C16.5772 10.9735 16.0827 11.5065 16.0827 12.1646C16.0827 12.8226 16.5772 13.3556 17.188 13.3556ZM17.188 19.4739H45.1132C45.724 19.4739 46.2186 18.941 46.2186 18.2829C46.2186 17.6249 45.724 17.0919 45.1132 17.0919H17.188C16.5772 17.0919 16.0827 17.6249 16.0827 18.2829C16.0827 18.941 16.5772 19.4739 17.188 19.4739ZM17.188 25.5977H28.5035C29.1141 25.5977 29.6088 25.0646 29.6088 24.4066C29.6088 23.7485 29.1141 23.2155 28.5035 23.2155H17.188C16.5772 23.2155 16.0827 23.7485 16.0827 24.4066C16.0827 25.0646 16.5772 25.5977 17.188 25.5977ZM35.8418 33.9185C35.0343 34.2829 34.2772 34.6255 33.4495 35.0008C34.358 37.2469 35.2513 39.4549 36.1447 41.6575C36.821 43.3217 37.7194 43.4957 38.8751 42.1741C41.7771 38.8621 44.6742 35.5501 47.5711 32.2326C47.7277 32.0531 47.8639 31.8464 48.0456 31.6072C47.3945 30.96 46.7939 30.3672 46.1731 29.7472C43.4225 32.8852 40.7475 35.9416 37.9363 39.1558C37.1995 37.3067 36.5181 35.6099 35.8418 33.9185Z" fill="white"/>
</g>
<defs>
<clipPath id="clip0_1_2">
<rect width="72" height="78" fill="white" transform="translate(0 1)"/>
</clipPath>
</defs>
</svg>
