<svg width="72" height="80" viewBox="0 0 72 80" fill="none" xmlns="http://www.w3.org/2000/svg">
<g clip-path="url(#clip0_1_69)">
<path d="M55.6467 40.4486C50.7014 41.2617 46.3728 40.0775 42.7476 36.6779C39.7554 33.8731 38.1917 30.337 38.1214 26.228C38.0402 21.546 39.8149 17.6171 43.3698 14.5885C46.903 11.5763 51.0314 10.6268 55.5548 11.358C55.9822 9.73732 55.3167 8.84239 53.7313 8.84239C50.1981 8.83693 46.665 8.84239 43.1317 8.84239C42.9044 8.84239 42.6772 8.84239 42.3201 8.84239C42.3201 9.42627 42.3309 9.95561 42.3201 10.4849C42.2768 12.362 41.1892 13.4535 39.3225 13.4589C33.6629 13.4699 28.0033 13.4699 22.3437 13.4589C20.4553 13.4589 19.3461 12.3239 19.3407 10.4194C19.3353 8.71688 19.3299 7.00888 19.3407 5.30633C19.3569 2.44148 21.4617 0.313302 24.2915 0.307846C28.5931 0.296931 32.8946 0.302388 37.1961 0.307846C40.1558 0.307846 42.1686 2.24504 42.3093 5.22449C42.3309 5.62829 42.3093 6.03756 42.3093 6.5123C42.6772 6.5123 42.9532 6.5123 43.2291 6.5123C46.7893 6.5123 50.3497 6.50685 53.9045 6.5123C56.3826 6.51777 58.0383 8.11117 57.9734 10.6214C57.9463 11.7072 58.2168 12.2911 59.2448 12.684C60.0944 13.006 60.841 13.5844 61.815 14.1574C62.1992 13.7208 62.6104 13.1915 63.0811 12.7277C64.7314 11.1016 67.0255 11.0742 68.5621 12.6404C70.0825 14.1956 70.0339 16.5257 68.4052 18.1737C63.9035 22.7301 59.3964 27.2757 54.8784 31.8158C53.1686 33.5347 50.9394 33.5238 49.2296 31.8049C47.1032 29.6712 44.9822 27.5431 42.8774 25.3876C41.7249 24.2035 41.4814 22.561 42.174 21.0931C42.845 19.6742 44.2788 18.8121 45.8478 18.9103C46.8922 18.9758 47.7471 19.456 48.4721 20.2036C49.6084 21.3605 50.7555 22.5063 51.8971 23.6523C51.9296 23.6851 51.9837 23.7015 51.9349 23.6741C54.5754 21.0167 57.1888 18.3864 59.8346 15.7235C58.39 14.654 56.6856 13.9227 54.8189 13.6499C47.9311 12.6295 42.0171 16.8421 40.6265 23.7124C39.3334 30.1623 43.8621 36.907 50.3009 38.1185C57.1779 39.4118 63.4219 35.2263 64.8828 28.3343C65.0127 27.734 65.056 27.1065 65.1155 26.4953C65.1912 25.666 65.6458 25.202 66.3708 25.2512C67.0417 25.2948 67.4746 25.7914 67.4259 26.599C67.1012 31.7176 64.7854 35.6684 60.5326 38.4622C59.9591 38.8388 59.3422 39.1825 58.7038 39.4281C58.1519 39.641 58.0058 39.9356 58.0113 40.5086C58.0328 48.2574 58.022 56.0061 58.022 63.7548C58.022 67.602 58.022 71.4491 58.022 75.3016C58.022 78.1337 56.5071 79.6617 53.7151 79.6617C38.4569 79.6617 23.1932 79.6617 7.93489 79.6617C5.18083 79.6617 3.67123 78.1391 3.67123 75.3562C3.67123 53.8397 3.67123 32.3288 3.67123 10.8123C3.67123 8.04569 5.19165 6.51777 7.95112 6.5123C10.3048 6.5123 12.6639 6.5123 15.0176 6.5123C15.656 6.5123 16.1105 6.80698 16.2512 7.45089C16.3756 8.02385 16.1375 8.48223 15.6181 8.72233C15.3747 8.83147 15.0716 8.83693 14.7957 8.83693C12.4907 8.84784 10.1858 8.83693 7.88078 8.84239C6.50105 8.84239 5.97621 9.37716 5.97621 10.7632C5.97621 32.3069 5.97621 53.8452 5.97621 75.3889C5.97621 76.8241 6.49022 77.3315 7.92948 77.3315C23.1878 77.3315 38.4514 77.3315 53.7097 77.3315C55.1652 77.3315 55.6846 76.8349 55.6846 75.4053C55.6901 63.9622 55.6901 52.5191 55.6846 41.0816C55.6846 40.9015 55.663 40.7268 55.6467 40.4486ZM30.8223 11.1179C33.5818 11.1179 36.3467 11.1016 39.1061 11.1288C39.7771 11.1342 40.0097 10.9105 39.9935 10.2339C39.9556 8.60774 39.9989 6.9816 39.9773 5.36091C39.9502 3.64199 38.933 2.63793 37.2232 2.63793C32.9541 2.63247 28.6851 2.63247 24.4106 2.63793C22.7008 2.64339 21.6565 3.70747 21.6457 5.44822C21.6348 7.0198 21.6836 8.59683 21.6295 10.1684C21.6024 10.9433 21.9 11.1397 22.6142 11.1288C25.3521 11.1016 28.0898 11.1179 30.8223 11.1179ZM52.0649 30.9045C52.5302 30.5989 53.0279 30.3807 53.3796 30.026C57.811 25.5841 62.2208 21.1258 66.6359 16.673C66.7983 16.5093 66.966 16.3456 67.0904 16.1546C67.4854 15.5489 67.3826 14.7249 66.8686 14.2447C66.3383 13.7481 65.5591 13.71 64.9748 14.1683C64.753 14.3429 64.5636 14.5557 64.3634 14.7577C60.6354 18.5175 56.9074 22.2772 53.1794 26.037C52.3245 26.8991 51.8268 26.8991 50.9719 26.0479C49.5759 24.6455 48.1907 23.2322 46.7893 21.8352C46.0319 21.0821 45.1986 21.0548 44.5602 21.7206C43.9487 22.359 43.9758 23.1994 44.6846 23.9197C46.7569 26.0261 48.8346 28.1269 50.934 30.2115C51.2045 30.4734 51.5995 30.6208 52.0649 30.9045ZM8.84389 47.5425C8.83308 44.9178 10.9216 42.7896 13.5026 42.795C16.0564 42.806 18.1233 44.8959 18.1341 47.4879C18.1449 50.1181 16.0727 52.23 13.4809 52.2245C10.927 52.219 8.86013 50.1291 8.84389 47.5425ZM15.8183 47.5425C15.8291 46.2383 14.7903 45.1579 13.5188 45.136C12.2527 45.1196 11.1759 46.1946 11.1705 47.4934C11.1597 48.8085 12.1877 49.8781 13.47 49.8944C14.7416 49.9108 15.8075 48.8413 15.8183 47.5425ZM18.1341 33.1964C18.1449 35.8212 16.0564 37.9548 13.4809 37.9439C10.9324 37.933 8.86013 35.8376 8.84389 33.2509C8.82767 30.6208 10.9054 28.5144 13.5026 28.5199C16.0672 28.5253 18.1233 30.6044 18.1341 33.1964ZM11.1651 33.2182C11.1651 34.5224 12.2148 35.5975 13.4863 35.5975C14.7578 35.5975 15.8129 34.517 15.8129 33.2182C15.8129 31.9086 14.7687 30.8445 13.4917 30.8445C12.2094 30.85 11.1705 31.9086 11.1651 33.2182ZM18.1341 61.6376C18.1396 64.2405 16.1051 66.3305 13.5404 66.3414C10.9162 66.3523 8.8493 64.2951 8.84389 61.6594C8.83848 59.0401 10.9433 56.9119 13.5134 56.9392C16.0834 56.9665 18.1287 59.0456 18.1341 61.6376ZM15.8183 61.6213C15.8075 60.3116 14.7632 59.2802 13.4593 59.2966C12.1661 59.313 11.1543 60.3661 11.1651 61.6867C11.1759 62.9964 12.2202 64.0277 13.5188 64.0113C14.8173 63.9949 15.8291 62.9472 15.8183 61.6213ZM21.1209 43.6736C20.3417 43.679 19.8548 44.1483 19.8548 44.825C19.8601 45.4525 20.3417 45.9272 21.0505 45.9982C21.202 46.0145 21.359 46.0037 21.5104 46.0037C27.473 46.0037 33.4357 46.0037 39.3983 45.9982C39.7013 45.9982 40.0205 45.9819 40.3019 45.8891C40.9944 45.6599 41.2758 44.8904 40.9349 44.252C40.6482 43.7173 40.1558 43.6572 39.6147 43.6572C36.5684 43.6626 33.5223 43.6626 30.4814 43.6626C27.3649 43.6681 24.2429 43.6626 21.1209 43.6736ZM39.3063 65.5392C40.5021 65.5392 41.0973 65.13 41.081 64.3223C41.0648 63.5311 40.54 63.1928 39.3334 63.1928C33.4194 63.1928 27.5109 63.1928 21.597 63.1928C21.3426 63.1928 21.018 63.1164 20.8449 63.2365C20.4824 63.493 19.9846 63.8312 19.9359 64.1914C19.8872 64.557 20.2389 65.059 20.5473 65.3646C20.7366 65.5556 21.175 65.5283 21.4996 65.5283C24.4917 65.5392 27.4893 65.5338 30.4814 65.5338C33.4194 65.5392 36.3629 65.5392 39.3063 65.5392ZM21.9162 29.5239C21.5591 29.5239 21.1966 29.5184 20.8449 29.5621C20.2172 29.6385 19.8818 30.0642 19.8655 30.6644C19.8493 31.2701 20.1794 31.6903 20.7908 31.8158C21.0126 31.8594 21.2453 31.8649 21.4779 31.8649C25.8498 31.8649 30.2217 31.8703 34.5882 31.8649C34.8641 31.8649 35.232 31.9141 35.4052 31.7667C35.7352 31.472 36.114 31.0846 36.1897 30.6753C36.2926 30.1297 35.903 29.7095 35.3294 29.5839C35.0589 29.5239 34.7722 29.5239 34.4908 29.5239C32.3427 29.5184 30.1946 29.5239 28.052 29.5239C26.0067 29.5239 23.9615 29.5239 21.9162 29.5239ZM30.0377 60.1315C31.6718 60.1315 33.3113 60.1424 34.9453 60.1261C35.719 60.1151 36.2167 59.6459 36.2331 58.9746C36.2493 58.3417 35.7569 57.8068 35.0697 57.8068C30.3894 57.796 25.7091 57.8014 21.0289 57.8014C20.4499 57.8014 20.0603 58.0906 19.9088 58.6636C19.6978 59.4712 20.2605 60.1206 21.2128 60.1261C23.4907 60.137 25.7633 60.1315 28.0412 60.1315C28.7067 60.1315 29.3723 60.1315 30.0377 60.1315ZM34.8479 37.2454C35.7028 37.2399 36.206 36.8143 36.2331 36.1322C36.2547 35.4174 35.7244 34.9426 34.8532 34.9153C34.4205 34.8989 33.9821 34.9099 33.5493 34.9099C29.6157 34.9099 25.6767 34.9099 21.7431 34.9099C21.5374 34.9099 21.3319 34.8989 21.1316 34.9153C20.3634 34.9699 19.8655 35.4391 19.8655 36.094C19.8655 36.7597 20.3525 37.2399 21.1316 37.2454C23.4312 37.2618 25.7308 37.2508 28.0303 37.2508C30.2974 37.2508 32.57 37.2563 34.8479 37.2454ZM30.2325 51.3896C31.1307 51.3786 31.6393 50.9094 31.6231 50.1891C31.6069 49.5016 31.1144 49.0431 30.2596 49.0377C27.2458 49.0213 24.2266 49.0267 21.2128 49.0322C21.0343 49.0322 20.7908 49.0213 20.6934 49.125C20.385 49.4524 19.9143 49.8343 19.9143 50.2C19.9088 50.5656 20.3417 50.9912 20.6718 51.286C20.8449 51.4387 21.2074 51.3896 21.4888 51.395C22.8956 51.406 24.3024 51.4005 25.7038 51.4005C27.2133 51.4005 28.7229 51.4114 30.2325 51.3896ZM18.6644 19.838C19.449 19.827 19.9305 19.3905 19.9522 18.7139C19.9738 18.01 19.4705 17.5188 18.6644 17.5134C16.1863 17.5024 13.7081 17.5024 11.23 17.5134C10.4022 17.5134 9.89899 17.9717 9.9044 18.6757C9.9044 19.3796 10.4022 19.827 11.2354 19.838C12.4637 19.8489 13.6865 19.838 14.9147 19.838C16.1592 19.8434 17.4145 19.8543 18.6644 19.838Z" fill="white"/>
</g>
<defs>
<clipPath id="clip0_1_69">
<rect width="67" height="80" fill="white" transform="translate(3)"/>
</clipPath>
</defs>
</svg>
