<svg width="72" height="80" viewBox="0 0 72 80" fill="none" xmlns="http://www.w3.org/2000/svg">
<g clip-path="url(#clip0_1_5)">
<path d="M3.33862 78.6112C1.48897 77.9253 0.819095 76.5102 0.824094 74.42C0.859088 56.2567 0.84409 38.0879 0.84409 19.9245C0.84409 18.7147 1.16903 18.1584 1.8839 18.153C2.59876 18.153 2.9287 18.7093 2.9287 19.919C2.9287 38.1365 2.9287 56.3485 2.9287 74.5659C2.9287 76.0889 3.17865 76.3644 4.56339 76.3644C19.4806 76.3644 34.4028 76.3644 49.32 76.3644C50.6147 76.3644 50.8847 76.0673 50.8847 74.6415C50.8847 70.7474 50.8847 66.8588 50.8847 62.9647C50.8847 62.7162 50.8847 62.4678 50.8847 62.1059C50.6147 62.1923 50.4098 62.2572 50.2048 62.3274C48.3502 62.9916 46.4506 63.3481 44.4959 63.3427C36.8724 63.3427 29.2538 63.3427 21.6302 63.3427C21.5152 63.3427 21.4003 63.3481 21.2853 63.3373C20.6804 63.2887 20.2654 62.8567 20.2504 62.2572C20.2355 61.663 20.6304 61.1553 21.2253 61.1121C21.8452 61.0635 22.47 61.0959 23.0949 61.0959C27.2491 61.0959 31.4084 61.0959 35.7576 61.0959C35.2126 60.7286 34.8127 60.4694 34.4278 60.1886C33.9529 59.8375 33.408 59.5458 33.0331 59.0868C32.1482 58.0065 31.0684 57.8391 29.8136 57.8769C27.1841 57.958 24.5496 57.8985 21.9151 57.8985C21.7051 57.8985 21.5002 57.9094 21.2903 57.8878C20.6354 57.8121 20.2304 57.353 20.2454 56.7266C20.2604 56.1054 20.6854 55.6626 21.3503 55.6517C22.55 55.6301 23.7498 55.641 24.9546 55.641C26.5193 55.641 28.0839 55.641 29.7587 55.641C29.6237 55.3871 29.5537 55.2197 29.4588 55.0684C28.0189 52.8918 27.0092 50.4993 26.4993 47.8798C26.3993 47.3613 26.1894 47.2586 25.7544 47.2695C24.2997 47.2911 22.845 47.2857 21.3902 47.2749C20.8203 47.2695 20.4005 46.9833 20.2755 46.3621C20.1605 45.8059 20.3954 45.3684 20.8604 45.1361C21.0803 45.0281 21.3552 45.0389 21.6052 45.0335C23.0549 45.0227 24.5097 45.0281 26.0194 45.0281C26.0194 43.9479 26.0194 42.9163 26.0194 41.7713C25.4595 41.7713 24.8696 41.7713 24.2747 41.7713C23.3299 41.7713 22.3801 41.7822 21.4352 41.766C20.7004 41.7551 20.2304 41.2961 20.2454 40.6263C20.2604 39.9836 20.7104 39.5354 21.4102 39.5299C22.82 39.5137 24.2297 39.5245 25.6345 39.5245C25.8844 39.5245 26.1343 39.5245 26.4093 39.5245C26.9892 36.6027 28.089 33.994 29.8286 31.4772C29.4487 31.4772 29.2138 31.4772 28.9838 31.4772C26.6043 31.4772 24.2247 31.4772 21.8452 31.4772C21.5902 31.4772 21.3353 31.4879 21.0852 31.4393C20.5654 31.3421 20.1955 30.9479 20.2705 30.4185C20.3254 30.0243 20.6403 29.6138 20.9453 29.3437C21.1353 29.1763 21.5202 29.2249 21.8151 29.2249C24.9095 29.2195 28.004 29.2357 31.0984 29.2033C31.4483 29.1979 31.8432 29.0142 32.1332 28.7874C33.268 27.9125 34.3728 26.9836 35.5575 26.0222C35.2876 26.0222 35.0477 26.0222 34.8027 26.0222C30.4835 26.0222 26.1643 26.0222 21.8452 26.0222C21.6152 26.0222 21.3803 26.0384 21.1553 26.0006C20.5704 25.9033 20.1705 25.3902 20.2405 24.8015C20.3154 24.1804 20.6554 23.8186 21.2503 23.7807C21.3402 23.7754 21.4352 23.7754 21.5252 23.7754C29.1937 23.7754 36.8623 23.7754 44.5259 23.7754C46.6705 23.7754 48.7351 24.2291 50.8097 25.0121C50.8097 22.7006 50.8097 20.4538 50.8097 18.1152C50.5548 18.1152 50.3099 18.1152 50.0649 18.1152C47.1554 18.1152 44.246 18.1206 41.3365 18.1152C39.2519 18.1097 37.9672 16.7325 37.9672 14.4804C37.9621 11.0886 37.9672 7.69675 37.9672 4.18074C37.7022 4.18074 37.4622 4.18074 37.2173 4.18074C26.2943 4.18074 15.3714 4.18074 4.44342 4.18074C3.19365 4.18074 2.9037 4.49399 2.9037 5.86042C2.9037 8.63111 2.9037 11.4018 2.9037 14.1671C2.9037 14.3669 2.9137 14.5668 2.8987 14.7666C2.84872 15.4255 2.45379 15.8576 1.8939 15.8738C1.304 15.89 0.839092 15.4471 0.834092 14.7557C0.84409 11.526 0.814096 8.28005 0.874085 5.03949C0.904079 3.3922 2.23883 2.06896 3.76854 1.96094C3.88352 1.95014 3.9985 1.95554 4.11348 1.95554C15.6613 1.95554 27.2092 1.95014 38.757 1.97715C39.1619 1.97715 39.6718 2.21479 39.9618 2.52805C44.146 7.00542 48.3152 11.499 52.4545 16.025C52.7394 16.3383 52.9393 16.8892 52.9493 17.332C52.9944 20.0271 52.9843 22.7222 52.9594 25.4173C52.9543 25.9033 53.0943 26.1572 53.4892 26.411C58.1683 29.3977 61.1228 33.7563 62.3076 39.4921C62.3626 39.7568 62.4075 40.0376 62.4026 40.3077C62.3876 40.8802 62.1026 41.2474 61.5827 41.3447C61.0728 41.4419 60.6529 41.2421 60.4579 40.7073C60.323 40.34 60.2679 39.9404 60.1829 39.5515C58.4033 31.3367 51.6746 25.8439 43.636 26.06C36.2424 26.2544 29.7486 32.3899 28.399 40.4589C26.7342 50.3913 33.1581 59.7997 42.4063 60.9717C51.6596 62.1491 59.7981 54.9604 60.5779 44.9309C60.6428 44.0775 61.0828 43.5806 61.7177 43.6455C62.3575 43.7049 62.7175 44.2395 62.6475 45.1199C62.4176 48.1229 61.6177 50.9314 60.208 53.54C60.068 53.7939 59.933 54.053 59.823 54.2529C60.6629 55.1602 61.4777 56.0352 62.3425 56.9642C63.0074 56.4781 63.5823 56.7644 64.1722 57.4179C65.9119 59.3514 67.6666 61.2633 69.4613 63.1375C70.5411 64.2663 71.5008 65.4437 71.8008 67.091C71.8008 67.6418 71.8008 68.1873 71.8008 68.7383C71.7658 68.803 71.7158 68.8679 71.7058 68.9381C70.9759 73.1886 65.9819 74.7171 63.1274 71.3901C61.2128 69.1596 59.1582 67.0748 57.1636 64.9198C56.4287 64.1258 56.3887 63.899 56.7387 63.024C55.8788 62.0951 55.0489 61.204 54.2091 60.2966C54.1391 60.3397 54.0092 60.4532 53.8592 60.5126C53.0893 60.815 52.9393 61.3984 52.9493 62.2517C52.9944 66.4644 52.9743 70.6826 52.9643 74.9008C52.9643 75.322 52.9343 75.7541 52.8444 76.1537C52.5294 77.4986 51.5995 78.1845 50.4648 78.6219C34.7527 78.6112 19.0457 78.6112 3.33862 78.6112ZM59.1132 63.7802C59.1932 63.8828 59.2932 64.0178 59.4032 64.1421C61.1978 66.081 62.9875 68.0307 64.7921 69.9588C66.0119 71.2605 67.7316 71.2983 68.8764 70.0723C70.0211 68.8517 70.0211 66.9613 68.8313 65.6543C67.0017 63.6452 65.1471 61.663 63.3024 59.6754C63.2274 59.5945 63.1274 59.535 63.0774 59.4972C61.7376 60.9392 60.4379 62.349 59.1132 63.7802ZM49.075 15.8846C46.0757 12.644 43.0461 9.37105 40.0667 6.15208C40.0667 8.92276 40.0568 11.8339 40.0717 14.745C40.0768 15.4417 40.4766 15.8738 41.1165 15.8791C43.8211 15.89 46.5156 15.8846 49.075 15.8846ZM60.6379 58.7033C59.908 57.9094 59.1881 57.1208 58.5583 56.4349C57.8034 57.245 57.0086 58.0984 56.3187 58.8383C56.9886 59.5567 57.7284 60.356 58.4133 61.0959C59.1282 60.329 59.908 59.4865 60.6379 58.7033ZM57.6535 40.6479C56.3387 33.0326 49.145 27.7126 42.1263 29.1385C35.6926 30.4509 31.3084 35.7384 30.8284 42.8191C30.7085 44.5745 30.9584 46.3027 31.4533 47.9825C31.6133 48.5171 31.9732 48.8952 32.4732 48.7817C32.8181 48.7007 33.2081 48.3767 33.388 48.0418C33.5279 47.7772 33.418 47.3126 33.333 46.9671C32.8481 45.0335 32.7681 43.0892 33.1281 41.1178C34.3528 34.3559 40.5866 29.9865 46.8955 31.4772C53.1393 32.957 57.1285 39.8702 55.5038 46.5458C54.329 51.3742 51.4246 54.5229 46.9255 55.6248C42.3363 56.7535 38.462 55.1819 35.4127 51.2985C34.8277 50.5533 34.2179 50.3858 33.7079 50.8503C33.2081 51.304 33.2381 51.9575 33.7829 52.6974C37.4222 57.6123 43.4211 59.4594 48.935 57.3692C54.2841 55.3385 57.9284 49.7755 58.0134 43.6131C57.8884 42.6246 57.8234 41.6255 57.6535 40.6479ZM7.96276 27.6317C7.96276 26.8593 7.94776 26.087 7.96776 25.3147C8.00774 23.6836 8.95257 22.6735 10.4623 22.6573C11.867 22.6411 13.2768 22.6411 14.6815 22.6573C16.2262 22.6735 17.1811 23.7105 17.1961 25.3687C17.206 26.8863 17.206 28.4094 17.1961 29.927C17.1811 31.5474 16.2262 32.6059 14.7365 32.6275C13.3068 32.6491 11.877 32.6437 10.4473 32.6275C8.96757 32.6059 8.01774 31.6014 7.96776 30.0189C7.93776 29.2249 7.96276 28.4256 7.96276 27.6317ZM12.6169 30.3807C13.2368 30.3807 13.8617 30.3645 14.4816 30.3862C14.9014 30.4023 15.1214 30.2727 15.1114 29.7596C15.0914 28.3445 15.0914 26.9241 15.1114 25.5091C15.1165 25.05 14.9415 24.8934 14.5365 24.8988C13.2268 24.9096 11.9121 24.915 10.5972 24.8988C10.1723 24.8934 10.0324 25.0878 10.0324 25.5253C10.0423 26.9403 10.0423 28.3608 10.0324 29.7812C10.0273 30.2241 10.1923 30.4078 10.6073 30.3969C11.2821 30.3645 11.952 30.3807 12.6169 30.3807ZM17.191 59.5242C17.191 60.2966 17.201 61.0689 17.191 61.8413C17.166 63.3859 16.2462 64.4499 14.8315 64.4931C13.3317 64.5363 11.8321 64.5309 10.3373 64.4931C8.94757 64.4607 8.00774 63.4453 7.97276 61.9277C7.93777 60.3073 7.93276 58.6871 7.97276 57.0722C8.01274 55.533 8.99256 54.5445 10.4273 54.5338C11.857 54.5176 13.2868 54.5176 14.7165 54.5338C16.2112 54.55 17.171 55.5977 17.191 57.2126C17.1961 57.9796 17.191 58.7519 17.191 59.5242ZM15.1064 59.5458C15.1064 58.8221 15.0914 58.1038 15.1114 57.3801C15.1214 56.9318 14.9565 56.7589 14.5415 56.7644C13.2317 56.7806 11.917 56.7806 10.6022 56.7644C10.1824 56.7589 10.0324 56.948 10.0324 57.3854C10.0423 58.8005 10.0423 60.221 10.0324 61.6414C10.0273 62.0843 10.1873 62.2679 10.6022 62.2625C11.9121 62.2463 13.2268 62.2517 14.5415 62.2625C14.9514 62.2679 15.1214 62.0897 15.1064 61.6414C15.0914 60.9392 15.1064 60.2426 15.1064 59.5458ZM12.5569 48.382C11.8171 48.382 11.0772 48.3983 10.3373 48.382C9.00257 48.3496 8.03275 47.4153 7.98275 45.9787C7.92276 44.2612 7.92276 42.5328 7.98775 40.8153C8.04274 39.4057 8.99756 38.4822 10.3073 38.4605C11.8321 38.4336 13.3568 38.4336 14.8814 38.4605C16.1963 38.4876 17.151 39.5083 17.1811 40.9288C17.216 42.5761 17.2111 44.2234 17.1811 45.8706C17.156 47.3235 16.1862 48.3443 14.8415 48.382C14.0816 48.3983 13.3167 48.382 12.5569 48.382ZM12.5419 46.1299C13.2317 46.1299 13.9267 46.1623 14.6165 46.1083C14.7915 46.0921 15.0814 45.7842 15.0865 45.606C15.1264 44.1639 15.1015 42.7165 15.1114 41.269C15.1165 40.8477 14.9664 40.6966 14.5815 40.7019C13.2418 40.7181 11.907 40.7181 10.5672 40.7019C10.1723 40.6966 10.0374 40.8639 10.0374 41.2745C10.0474 42.6948 10.0474 44.1153 10.0374 45.5358C10.0324 45.9786 10.1773 46.1623 10.6022 46.1461C11.2521 46.1083 11.8971 46.1299 12.5419 46.1299ZM48.4502 51.196C47.6003 51.196 46.8005 50.8341 46.1956 50.186L44.5709 48.4307L42.9462 50.186C42.3464 50.8341 41.5414 51.196 40.6916 51.196C39.8417 51.196 39.042 50.8341 38.4371 50.186C37.1973 48.8466 37.1973 46.6646 38.4371 45.3197L40.0618 43.5644L38.4371 41.8091C37.1973 40.4642 37.1973 38.2823 38.4371 36.9429C39.0369 36.2948 39.8368 35.9329 40.6916 35.9329C41.5414 35.9329 42.3413 36.2948 42.9462 36.9429L44.5709 38.6982L46.1956 36.9429C46.7955 36.2948 47.6003 35.9329 48.4502 35.9329C49.3 35.9329 50.0999 36.2948 50.7048 36.9429C51.9445 38.2823 51.9445 40.4642 50.7048 41.8091L49.08 43.5644L50.7048 45.3197C51.9445 46.6646 51.9445 48.8466 50.7048 50.186C50.0999 50.8341 49.3 51.196 48.4502 51.196ZM44.5709 45.6654C44.8408 45.6654 45.1108 45.7788 45.3207 46.0003L47.6903 48.5604C48.0952 48.9977 48.7951 48.9977 49.2001 48.5604C49.6149 48.112 49.6149 47.3775 49.2001 46.9293L46.8305 44.3638C46.4155 43.9155 46.4155 43.1918 46.8305 42.7435L49.2001 40.1834C49.6149 39.7352 49.6149 39.0006 49.2001 38.5524C49 38.3363 48.7301 38.2121 48.4452 38.2121C48.1602 38.2121 47.8903 38.3309 47.6903 38.5524L45.3207 41.1124C44.9058 41.5607 44.2359 41.5607 43.8211 41.1124L41.4515 38.5524C41.0465 38.1149 40.3467 38.1149 39.9418 38.5524C39.5268 39.0006 39.5268 39.7352 39.9418 40.1834L42.3113 42.7543C42.5113 42.9703 42.6212 43.262 42.6212 43.5644C42.6212 43.8669 42.5113 44.1586 42.3113 44.3746L39.9367 46.94C39.5219 47.3883 39.5219 48.1229 39.9367 48.5711C40.1367 48.7871 40.4067 48.9114 40.6916 48.9114C40.9766 48.9114 41.2465 48.7926 41.4465 48.5711L43.816 46.011C44.031 45.7788 44.3009 45.6654 44.5709 45.6654Z" fill="white"/>
</g>
<defs>
<clipPath id="clip0_1_5">
<rect width="72" height="78" fill="white" transform="translate(0 1)"/>
</clipPath>
</defs>
</svg>
