<svg width="72" height="80" viewBox="0 0 72 80" fill="none" xmlns="http://www.w3.org/2000/svg">
<g clip-path="url(#clip0_1_44)">
<path d="M52.8317 46.8223C52.4388 43.9166 53.0517 42.5661 55.3618 41.1105C55.9014 40.7673 56.4357 40.4186 56.9858 40.0921C58.2429 39.3505 59.5892 39.677 60.3226 40.9721C63.4184 46.4515 66.4986 51.9474 69.5631 57.4488C70.2912 58.7551 69.9402 60.2052 68.6987 60.9579C67.5149 61.6719 66.2786 62.3194 65.0214 62.8784C64.5919 63.0666 63.979 63.039 63.5285 62.8674C62.5803 62.5131 61.9779 63.0611 61.2917 63.5537C62.287 65.1642 62.4441 66.7914 61.3388 68.3522C60.2964 69.8245 58.8506 70.1842 57.1534 69.7027C56.5353 72.1435 55.0632 73.3335 52.575 73.0568C52.3446 74.3795 51.7684 75.4864 50.5844 76.134C49.4268 76.765 48.2586 76.693 47.0485 76.1008C46.9962 76.2889 46.9543 76.4495 46.9072 76.61C46.1894 79.1062 43.6646 80.191 41.4906 78.9124C40.6263 78.4032 39.7829 77.8552 38.9396 77.3239C36.1527 79.3718 34.1936 79.0453 32.5959 76.228C31.5482 76.5823 30.4848 76.6155 29.4686 76.0399C28.4472 75.4643 27.8447 74.5455 27.5566 73.3335C25.3879 73.4109 23.9579 72.387 23.3606 70.1621C19.8352 70.544 17.389 66.1549 20.7467 62.4412C20.5214 62.4412 20.2543 62.3581 20.0709 62.4522C18.4628 63.2935 16.9436 63.1109 15.4612 62.1202C14.8483 61.7106 14.204 61.3509 13.5964 60.9413C12.4125 60.1443 12.0563 58.7551 12.7687 57.4766C15.8436 51.9529 18.9343 46.4348 22.0458 40.9334C22.7373 39.7047 24.0783 39.3615 25.2727 40.0478C26.0794 40.5127 26.8704 41.0108 27.6404 41.5311C28.9919 42.4388 29.6782 43.7671 29.6415 45.4497C29.631 46.0087 29.8143 46.2688 30.2491 46.5013C31.1868 47.0104 32.1402 47.088 33.125 46.7116C33.7588 46.468 34.3979 46.2246 35.016 45.9367C36.928 45.0456 38.7615 45.1951 40.5792 46.2743C40.9092 46.468 41.4016 46.5013 41.784 46.4238C42.7531 46.2301 43.7222 45.9755 44.6651 45.6655C46.0795 45.2007 47.4257 45.3611 48.7615 45.9755C49.4477 46.291 50.1392 46.6341 50.8621 46.7891C51.4854 46.9274 52.1612 46.8223 52.8317 46.8223ZM44.838 55.7386C44.7751 55.7774 44.7436 55.783 44.7332 55.8051C44.6337 56.0043 44.5393 56.2147 44.4346 56.4084C43.5755 58.0079 42.2974 58.9488 40.5426 59.0983C38.8872 59.2366 37.8291 58.1905 37.8133 56.4139C37.8028 55.39 37.8238 54.3661 37.8081 53.3477C37.7767 51.4991 37.7243 49.645 39.0391 48.134C38.2219 47.6304 37.4467 47.5473 36.6556 47.813C35.8961 48.0676 35.147 48.3609 34.4137 48.682C33.2716 49.1912 32.093 49.4513 30.8778 49.1635C30.1392 48.9863 29.4372 48.6432 28.6829 48.3609C26.4251 52.3847 24.1622 56.4249 21.7996 60.6424C22.203 60.6424 22.4596 60.6811 22.7058 60.6369C23.2035 60.5428 23.6854 60.327 24.1778 60.2993C25.6027 60.2107 26.6556 60.9689 27.4623 62.1423C29.7462 60.1664 32.8421 61.0022 33.7431 64.2178C37.0066 64.5277 38.07 65.8893 37.7923 69.4315C40.2701 70.234 41.4592 72.6139 40.2334 75.4145C40.2806 75.4533 40.333 75.5031 40.3958 75.5417C41.082 75.9735 41.7578 76.4163 42.4493 76.8369C43.3188 77.3627 44.157 77.1966 44.6128 76.4273C45.0789 75.6359 44.8171 74.7171 43.9527 74.1526C43.3136 73.7375 42.6221 73.3998 42.0407 72.9128C41.7526 72.6693 41.5064 72.138 41.5378 71.7726C41.5693 71.4406 41.9569 71.0144 42.2816 70.8871C42.5802 70.7709 43.0412 70.9203 43.3503 71.103C44.8851 72.0217 46.3885 72.9959 47.9129 73.9367C48.8296 74.5013 49.673 74.3463 50.1392 73.5437C50.6107 72.7357 50.3226 71.8225 49.3953 71.2358C48.1329 70.4333 46.8547 69.6473 45.5871 68.8559C45.1313 68.5681 44.6598 68.2968 44.2251 67.9814C43.696 67.594 43.5703 66.9796 43.8689 66.4373C44.1623 65.9059 44.7436 65.7233 45.3199 66.0055C45.519 66.0996 45.697 66.2325 45.8857 66.3487C48.07 67.7158 50.2492 69.0884 52.4388 70.4443C53.3765 71.0255 54.2618 70.8595 54.7123 70.0347C55.168 69.2046 54.8747 68.3522 53.9213 67.7434C52.9679 67.1401 52.0093 66.5479 51.0507 65.9447C49.6782 65.0868 48.3005 64.2344 46.9386 63.3599C46.3362 62.9725 46.1842 62.3527 46.4828 61.7826C46.7971 61.1903 47.4048 61.0298 48.0543 61.3785C48.2272 61.4727 48.3896 61.5833 48.5572 61.6885C51.4488 63.4983 54.3351 65.3081 57.232 67.118C57.4782 67.2729 57.7348 67.4279 58.0072 67.5275C58.6515 67.76 59.3482 67.4612 59.6992 66.8468C60.024 66.2711 59.9611 65.4853 59.5002 65.0093C59.2802 64.7824 59.0025 64.6053 58.7353 64.4392C55.6604 62.5076 52.5803 60.5815 49.5054 58.6554C47.9286 57.6647 46.3728 56.6962 44.838 55.7386ZM58.3634 42.0126C58.201 42.068 58.1277 42.0735 58.07 42.1123C57.3839 42.5384 56.6872 42.9591 56.0114 43.4019C54.8433 44.1656 54.5604 45.3556 55.2414 46.6341C55.6238 47.348 56.0429 48.0344 56.4148 48.7483C56.7448 49.3848 56.6033 50.0269 56.0952 50.3645C55.5661 50.7187 54.9218 50.5416 54.5342 49.9217C54.3142 49.5675 54.1203 49.1967 53.9056 48.8203C52.1665 49.5564 50.553 49.3074 48.9658 48.5934C48.4787 48.372 47.9967 48.1064 47.4834 47.9736C46.9333 47.8351 46.3257 47.6912 45.7861 47.7964C44.5079 48.051 43.2455 48.4218 41.9883 48.7982C40.9511 49.1081 40.1706 49.8498 40.1077 50.9844C39.9977 52.8883 40.0763 54.8033 40.0763 56.7072C40.904 56.829 41.6897 56.5744 42.1455 55.794C42.4859 55.2129 42.6746 54.4989 42.795 53.8182C42.9783 52.7997 43.6541 52.3847 44.5289 52.8606C44.7017 52.9547 44.8641 53.0654 45.0318 53.1705C49.6101 56.032 54.1832 58.899 58.7667 61.7494C58.9868 61.8822 59.3273 62.004 59.5264 61.9154C59.9611 61.7272 60.3435 61.4007 60.7888 61.0963C60.4168 60.4265 60.0659 59.7956 59.7096 59.1592C58.8872 57.6869 58.0229 56.2368 57.2634 54.7258C57.0852 54.3716 57.1115 53.7628 57.2791 53.392C57.3996 53.1263 57.9391 52.8994 58.2429 52.9547C58.5835 53.0156 58.971 53.3532 59.1649 53.6853C60.2859 55.5947 61.3441 57.543 62.4441 59.4691C63.0361 60.504 64.0209 60.98 64.9691 60.5372C65.9329 60.0889 66.8182 59.458 67.803 58.8658C64.6338 53.1982 61.5117 47.6248 58.3634 42.0126ZM24.0364 41.9628C23.853 42.2617 23.7169 42.4664 23.5964 42.6823C21.6372 46.1748 19.6834 49.6671 17.7241 53.1595C16.776 54.8531 15.8383 56.5467 14.864 58.2237C14.5812 58.7108 14.6231 58.9709 15.1207 59.2255C15.6393 59.4912 16.1212 59.8455 16.6189 60.1554C18.0909 61.0631 19.1543 60.7808 20.0238 59.2366C21.4906 56.6242 22.9573 54.0063 24.4189 51.394C25.3198 49.7889 26.2313 48.1949 27.1113 46.5787C27.74 45.422 27.5147 44.2431 26.5246 43.5402C25.7441 42.9923 24.9165 42.5163 24.0364 41.9628ZM31.5326 65.1642C31.5482 64.3175 31.1659 63.7307 30.5739 63.4872C29.9348 63.2271 29.3062 63.4042 28.8505 64.0573C27.8657 65.4742 26.8965 66.9021 25.9327 68.3356C25.3355 69.2212 25.4298 70.1676 26.1318 70.7045C26.8599 71.258 27.6981 71.0642 28.3162 70.1732C29.2696 68.795 30.2072 67.4058 31.1344 66.0055C31.3387 65.7066 31.454 65.3358 31.5326 65.1642ZM34.1831 66.4483C33.8426 66.6586 33.3921 66.7804 33.1722 67.0848C32.0459 68.6511 30.9563 70.2506 29.9086 71.8723C29.4843 72.5309 29.7096 73.3943 30.291 73.8537C30.8934 74.3297 31.7892 74.2965 32.2554 73.6434C33.3764 72.0771 34.487 70.4887 35.5032 68.8448C36.1266 67.843 35.3618 66.5645 34.1831 66.4483ZM22.8421 67.9316C23.1878 67.7323 23.6331 67.6161 23.8688 67.3173C24.4764 66.559 25.0265 65.7399 25.5294 64.9041C25.9536 64.1957 25.7389 63.3378 25.1156 62.8674C24.4922 62.4024 23.654 62.4799 23.1563 63.133C22.5854 63.8913 22.0302 64.6716 21.5534 65.5018C20.9615 66.5368 21.6635 67.7988 22.8421 67.9316ZM34.5708 74.6728C34.597 75.4754 34.9061 75.9624 35.4927 76.217C36.1161 76.4826 36.7028 76.3387 37.1271 75.8019C37.5566 75.2595 37.96 74.6784 38.311 74.0751C38.7196 73.3721 38.5258 72.4977 37.9181 72.0327C37.3262 71.5734 36.4513 71.6509 35.9589 72.2708C35.5137 72.8353 35.126 73.4552 34.7437 74.0695C34.6284 74.2688 34.6127 74.54 34.5708 74.6728ZM55.0581 16.3593C52.816 16.3593 50.684 16.4092 48.5625 16.3372C47.6877 16.3096 46.75 16.1712 45.959 15.8059C43.7222 14.7654 42.6588 12.8282 42.6221 10.2712C42.596 8.22891 42.6169 6.18108 42.6169 4.13324C42.6169 3.86204 42.6169 3.58531 42.6169 3.22002C42.2712 3.22002 42.0145 3.22002 41.7578 3.22002C31.1344 3.22002 20.511 3.22002 9.88759 3.22002C7.47271 3.22002 6.11597 4.64797 6.11597 7.21053C6.11597 27.2793 6.11597 47.3536 6.11597 67.4224C6.11597 70.0237 7.46223 71.4406 9.93474 71.4461C13.3973 71.4517 16.8547 71.4461 20.3171 71.4461C20.5582 71.4461 20.8044 71.435 21.0401 71.4738C21.5901 71.5568 21.9097 71.9165 21.9568 72.4921C22.0039 73.0678 21.7525 73.4939 21.2286 73.6655C20.9563 73.7541 20.6577 73.7596 20.3696 73.7652C16.8861 73.7707 13.3973 73.7762 9.91379 73.7706C6.25741 73.7652 3.9211 71.3022 3.9211 67.4501C3.91586 47.3813 3.91586 27.307 3.9211 7.2382C3.9211 3.36392 6.2417 0.917591 9.90855 0.917591C20.5791 0.917591 31.2548 0.92866 41.9254 0.906522C43.4446 0.900987 44.6913 1.42678 45.76 2.56693C49.0653 6.08699 52.3865 9.59595 55.718 13.0884C56.7552 14.1732 57.2634 15.4461 57.2581 16.9959C57.2424 23.311 57.2529 29.626 57.2476 35.9411C57.2476 36.1459 57.2634 36.3562 57.2215 36.5499C57.101 37.1477 56.7291 37.5074 56.1528 37.5018C55.5452 37.4964 55.1628 37.131 55.0737 36.4835C55.0371 36.2344 55.0581 35.9743 55.0581 35.7197C55.0581 29.6094 55.0581 23.4991 55.0581 17.3888C55.0581 17.0789 55.0581 16.7745 55.0581 16.3593ZM44.8485 5.1627C44.8485 6.99468 44.7699 8.90415 44.8694 10.8081C44.9742 12.6954 46.3781 13.9795 48.2325 14.0293C49.6101 14.068 50.993 14.0404 52.3707 14.0404C52.6746 14.0404 52.9784 14.0404 53.2351 14.0404C50.422 11.0516 47.63 8.10162 44.8485 5.1627ZM31.6739 15.2026C31.6739 14.5606 31.1815 14.0404 30.5739 14.0404H12.8001C12.1925 14.0404 11.7001 14.5606 11.7001 15.2026C11.7001 15.8446 12.1925 16.3649 12.8001 16.3649H30.5739C31.1815 16.3649 31.6739 15.8446 31.6739 15.2026ZM49.453 23.2057C49.453 22.5638 48.9606 22.0435 48.353 22.0435H12.8001C12.1925 22.0435 11.7001 22.5638 11.7001 23.2057C11.7001 23.8478 12.1925 24.3681 12.8001 24.3681H48.353C48.9606 24.3681 49.453 23.8478 49.453 23.2057ZM49.453 31.2089C49.453 30.5669 48.9606 30.0467 48.353 30.0467H12.8001C12.1925 30.0467 11.7001 30.5669 11.7001 31.2089C11.7001 31.8509 12.1925 32.3712 12.8001 32.3712H48.353C48.9606 32.3712 49.453 31.8509 49.453 31.2089Z" fill="white"/>
</g>
<defs>
<clipPath id="clip0_1_44">
<rect width="67" height="80" fill="white" transform="translate(3)"/>
</clipPath>
</defs>
</svg>
