<svg width="72" height="80" viewBox="0 0 72 80" fill="none" xmlns="http://www.w3.org/2000/svg">
<g clip-path="url(#clip0_1_10)">
<g clip-path="url(#clip1_1_10)">
<path d="M43.9143 76.939C43.6415 76.6191 43.4749 76.4206 43.3031 76.2275C40.6669 73.3427 38.0306 70.4525 35.3842 67.5787C34.6721 66.812 34.2933 65.9571 34.47 64.8374C34.5004 64.6333 34.3994 64.3409 34.268 64.1754C33.7276 63.5136 33.1469 62.8847 32.5661 62.2228C27.3793 66.0839 21.7784 67.3305 15.7382 65.7364C10.9605 64.4733 7.097 61.6105 4.19302 57.2751C-1.71087 48.4553 -0.862406 36.315 6.16267 28.5046C13.1069 20.7824 24.3289 19.7179 32.4196 26.0114C35.3892 28.3225 37.6417 31.2901 39.1669 34.914C40.6921 38.5379 41.2527 42.3493 40.9143 46.3097C40.576 50.2645 39.3083 53.8719 37.1518 57.1924C37.7881 57.8543 38.3841 58.4996 39.0104 59.1119C39.1366 59.2387 39.3841 59.305 39.5557 59.2719C40.4295 59.0899 41.1921 59.3325 41.8083 60C45.0304 63.5025 48.2627 67.0051 51.4494 70.5517C52.8635 72.1293 53.1161 74.3632 52.2474 76.3655C52.1817 76.5199 52.101 76.6743 51.9797 76.939C52.2878 76.939 52.51 76.939 52.7322 76.939C57.0503 76.939 61.3633 76.939 65.6814 76.939C67.9036 76.939 69.1409 75.5987 69.1409 73.1497C69.146 55.0578 69.1409 36.9659 69.1409 18.8684C69.1409 18.5209 69.1004 18.1679 69.0752 17.7322C68.7772 17.7322 68.5298 17.7322 68.2824 17.7322C65.5046 17.7322 62.7319 17.7377 59.9542 17.7322C57.3735 17.7266 55.9089 16.1381 55.9089 13.3416C55.9038 10.3079 55.9089 7.27416 55.9089 4.24596C55.9089 3.25312 55.9089 3.2476 54.9897 3.2476C45.1213 3.2476 35.2529 3.2476 25.3894 3.2476C23.5713 3.2476 21.7482 3.24208 19.93 3.2476C17.7937 3.25312 16.5412 4.60449 16.5362 6.94873C16.526 10.5395 16.5311 14.1358 16.5311 17.7266C16.5311 18.9733 16.2079 19.5027 15.4554 19.4862C14.7331 19.4697 14.4302 18.9621 14.4302 17.7542C14.4302 14.2131 14.4251 10.6719 14.4302 7.12522C14.4403 3.26966 16.5765 0.947499 20.1017 0.947499C31.6721 0.947499 43.2425 0.958531 54.8129 0.936468C56.5503 0.930952 57.9745 1.55976 59.1966 2.90562C62.5906 6.65638 66.0046 10.3851 69.4388 14.0973C70.6762 15.4321 71.262 16.9821 71.262 18.8794C71.2469 36.9714 71.257 55.0633 71.252 73.1607C71.252 76.906 69.0752 79.2391 65.6308 79.2391C50.4444 79.2391 35.2579 79.2391 20.0715 79.2391C16.5917 79.2391 14.4452 76.906 14.4302 73.1056C14.4251 72.1127 14.42 71.1199 14.4352 70.1215C14.4503 69.2721 14.8341 68.7646 15.4503 68.7425C16.0917 68.7205 16.5159 69.25 16.5311 70.1325C16.5463 71.2302 16.521 72.3223 16.5412 73.42C16.5816 75.5711 17.8543 76.939 19.8189 76.939C27.6319 76.9446 35.4498 76.939 43.2628 76.939C43.4294 76.939 43.6062 76.939 43.9143 76.939ZM38.8993 44.2302C38.9548 33.2537 30.8035 24.274 20.738 24.2077C10.6474 24.1416 2.45569 33.0221 2.39003 44.0979C2.32439 55.0191 10.4605 64.0541 20.4047 64.1037C30.652 64.1589 38.8437 55.3556 38.8993 44.2302ZM50.7979 73.9384C50.4898 73.3097 50.2929 72.5595 49.8535 72.0686C46.7728 68.6322 43.6415 65.251 40.5355 61.8367C40.1871 61.4561 39.9446 61.4727 39.6163 61.8477C38.7426 62.8351 37.8639 63.8224 36.9448 64.7601C36.4699 65.2455 36.4952 65.5655 36.9498 66.0563C39.6871 69.0073 42.3941 71.9859 45.1163 74.9534C45.5304 75.4002 45.9193 75.8856 46.3688 76.2827C47.2273 77.0329 48.1869 77.1707 49.1818 76.6302C50.1414 76.1062 50.611 75.2182 50.7979 73.9384ZM58.0049 5.08437C58.0049 7.86434 58.0049 10.6112 58.0049 13.3581C58.0049 14.8419 58.5402 15.4321 59.9138 15.4321C62.2673 15.4376 64.6208 15.4376 66.9743 15.4321C67.141 15.4321 67.3126 15.3935 67.4338 15.3769C64.2925 11.9516 61.1714 8.54279 58.0049 5.08437ZM37.4497 60.9101C36.8943 60.2923 36.3488 59.68 35.8539 59.1285C35.3387 59.6745 34.7932 60.2537 34.3539 60.7115C34.864 61.3348 35.3791 61.9691 35.8892 62.5924C36.4599 61.9801 37.0003 61.3954 37.4497 60.9101Z" fill="white"/>
<path d="M33.667 8.40493C37.0255 8.40493 40.384 8.39942 43.7375 8.40493C45.4596 8.40493 46.3182 9.33711 46.3283 11.2125C46.3384 12.4866 46.3435 13.7608 46.3283 15.0349C46.3031 16.7503 45.4041 17.7322 43.8283 17.7322C37.0457 17.7432 30.258 17.7432 23.4753 17.7322C21.9097 17.7322 21.0057 16.7283 20.9856 15.0184C20.9704 13.7443 20.9754 12.4701 20.9856 11.1959C20.9956 9.35917 21.8592 8.41045 23.5259 8.40493C26.9045 8.39942 30.2833 8.40493 33.667 8.40493ZM44.2223 10.7658C37.1417 10.7658 30.1469 10.7658 23.0865 10.7658C23.0865 12.073 23.1218 13.314 23.0713 14.5551C23.046 15.2556 23.2431 15.4541 23.8895 15.4541C30.3893 15.4266 36.8892 15.4377 43.3889 15.4377C43.5506 15.4377 43.7324 15.4818 43.8739 15.4155C44.0102 15.3494 44.2021 15.1729 44.2071 15.0405C44.2324 13.6284 44.2223 12.2108 44.2223 10.7658Z" fill="white"/>
<path d="M54.3433 37.6388C57.1867 37.6388 60.0351 37.6388 62.8784 37.6388C63.0905 37.6388 63.3027 37.6222 63.5097 37.6553C64.0703 37.7491 64.3935 38.1352 64.4238 38.7365C64.449 39.3046 64.1663 39.7128 63.6612 39.8727C63.4188 39.9444 63.1562 39.9334 62.8986 39.9334C57.1816 39.9389 51.4696 39.9334 45.7526 39.9334C45.5657 39.9334 45.3789 39.9444 45.192 39.9169C44.6011 39.8286 44.2021 39.3266 44.2527 38.7089C44.3032 38.058 44.6516 37.6719 45.2475 37.6498C46.0152 37.6168 46.7879 37.6388 47.5556 37.6388C49.8182 37.6388 52.0807 37.6388 54.3433 37.6388Z" fill="white"/>
<path d="M54.3331 46.8337C51.3938 46.8337 48.4544 46.8502 45.5152 46.8116C45.1465 46.8061 44.6717 46.5965 44.4395 46.3042C43.9445 45.6754 44.3535 44.7212 45.1313 44.5667C45.3586 44.5225 45.5959 44.5391 45.8283 44.5391C51.4948 44.5391 57.1663 44.5391 62.8329 44.5391C63.0652 44.5391 63.3076 44.5171 63.5299 44.5667C64.1056 44.6991 64.449 45.1072 64.4187 45.7471C64.3834 46.3814 64.0299 46.7951 63.4289 46.8172C62.5198 46.8502 61.6107 46.8282 60.7016 46.8337C58.5805 46.8337 56.4543 46.8337 54.3331 46.8337Z" fill="white"/>
<path d="M54.3432 30.7385C57.2825 30.7385 60.2219 30.7165 63.1561 30.7661C63.5348 30.7716 64.0247 31.0254 64.2672 31.3398C64.6762 31.8803 64.3581 32.7021 63.7167 32.9283C63.4339 33.0276 63.1207 33.0331 62.8228 33.0331C57.1562 33.0386 51.4897 33.0386 45.8232 33.0386C45.6111 33.0386 45.399 33.0497 45.1969 33.011C44.591 32.9062 44.2222 32.4263 44.2526 31.8031C44.2828 31.1798 44.6768 30.7551 45.3182 30.7441C46.7878 30.7219 48.2575 30.7385 49.7272 30.733C51.2624 30.7385 52.8029 30.7385 54.3432 30.7385Z" fill="white"/>
<path d="M49.7777 53.7395C48.3585 53.7395 46.9393 53.745 45.5203 53.7395C44.6869 53.7339 44.2425 53.3203 44.2475 52.5922C44.2526 51.8807 44.7173 51.4504 45.5404 51.4449C48.3788 51.4339 51.217 51.4339 54.0554 51.4449C54.8937 51.4449 55.3483 51.8641 55.3634 52.5756C55.3785 53.3258 54.919 53.734 54.0351 53.734C52.616 53.745 51.1969 53.7395 49.7777 53.7395Z" fill="white"/>
<path d="M35.9044 44.2082C35.8134 51.2022 31.7226 57.5068 25.7228 59.8125C19.536 62.1843 12.8089 60.0882 8.72823 54.5173C8.11713 53.6788 8.08683 52.9397 8.64237 52.4213C9.21307 51.8917 9.8999 52.0848 10.5565 52.9287C13.9806 57.3303 18.329 59.1119 23.4753 57.8377C28.5207 56.5857 31.7782 53.0224 33.0964 47.5397C34.9195 39.9665 30.4449 32.1285 23.44 30.4517C16.3644 28.7583 9.36963 33.7171 7.99593 41.3841C7.5919 43.6235 7.6828 45.8188 8.22824 48.014C8.3242 48.4112 8.44541 48.9352 8.28885 49.2331C8.09188 49.6137 7.6525 49.9832 7.26362 50.0715C6.70303 50.1983 6.29899 49.7737 6.11718 49.1669C5.5566 47.2639 5.28387 45.3058 5.41518 43.3146C5.95557 35.2835 10.8696 29.2878 18.0866 27.8041C25.9601 26.1824 34.0306 32.2168 35.5053 40.8545C35.7023 41.9577 35.773 43.0885 35.9044 44.2082Z" fill="white"/>
<path d="M20.6421 42.3548C19.728 42.3548 19.0108 43.1326 19.0108 44.1199C19.0108 45.1072 19.728 45.885 20.6421 45.885C21.5562 45.885 22.2734 45.1072 22.2734 44.1199C22.2785 43.2043 21.5613 42.3548 20.6421 42.3548Z" fill="white"/>
<path d="M31.6822 44.6881C31.9448 44.335 31.9448 43.9103 31.6822 43.629C29.1368 40.0989 25.0208 37.9753 20.6421 37.9753C16.2634 37.9753 12.1524 40.0934 9.60198 43.629C9.33936 43.982 9.33936 44.4067 9.60198 44.6881C12.1474 48.2181 16.2634 50.3418 20.6421 50.3418C25.0208 50.3363 29.1368 48.2181 31.6822 44.6881ZM16.5968 44.1199C16.5968 41.7206 18.425 39.6687 20.7128 39.6687C23.0006 39.6687 24.8289 41.6489 24.8289 44.1199C24.8289 46.5193 23.0006 48.5712 20.7128 48.5712C18.425 48.5712 16.5968 46.591 16.5968 44.1199ZM29.9853 44.1199C28.7429 45.6037 27.1773 46.8061 25.4147 47.5839C26.7228 45.5375 26.7228 42.7796 25.4147 40.7332C27.1773 41.4338 28.7429 42.6362 29.9853 44.1199ZM11.3039 44.1199C12.5464 42.6362 14.112 41.4338 15.8745 40.656C14.5665 42.7023 14.5665 45.4603 15.8745 47.5066C14.112 46.8779 12.5464 45.6754 11.3039 44.1199Z" fill="white"/>
</g>
</g>
<defs>
<clipPath id="clip0_1_10">
<rect width="72" height="80" fill="white"/>
</clipPath>
<clipPath id="clip1_1_10">
<rect width="72" height="80" fill="white"/>
</clipPath>
</defs>
</svg>
