<svg width="72" height="80" viewBox="0 0 72 80" fill="none" xmlns="http://www.w3.org/2000/svg">
<g clip-path="url(#clip0_1_23)">
<path d="M50.5066 42.5097C51.494 42.5097 52.3561 42.5097 53.3226 42.5097C53.3226 42.222 53.3226 41.951 53.3226 41.6798C53.3226 37.951 53.3226 34.2166 53.3226 30.4878C53.3226 30.283 53.3121 30.0784 53.3279 29.8736C53.38 29.1765 53.8398 28.7118 54.4511 28.7284C55.031 28.745 55.4699 29.1987 55.5012 29.8681C55.5274 30.532 55.5117 31.1959 55.5117 31.8598C55.5117 35.312 55.5169 38.7587 55.5012 42.211C55.5012 42.6591 55.6057 42.9579 55.9505 43.24C56.6611 43.832 56.9589 44.6729 56.9171 45.6079C56.8962 46.1224 57.0947 46.3493 57.5231 46.471C57.9724 46.5982 58.3329 47.0132 58.8554 46.4323C60.0832 45.0712 61.6557 45.1265 62.9357 46.4599C63.8657 47.4281 64.7853 48.4073 65.6996 49.3865C66.9587 50.7364 66.9796 52.374 65.7414 53.724C65.4697 54.0227 65.2555 54.2828 65.5219 54.6976C65.7884 55.1126 65.6839 55.782 66.499 55.7765C68.3223 55.7544 69.3985 56.9715 69.4038 58.9023C69.409 60.2799 69.4143 61.663 69.4038 63.0406C69.3933 64.8718 68.2857 66.1499 66.572 66.089C65.7256 66.0558 65.6996 66.6422 65.4227 67.1456C65.1353 67.6712 65.5062 67.8815 65.7622 68.1636C66.9534 69.4803 66.9483 71.1345 65.7256 72.4513C64.7957 73.4527 63.8553 74.4484 62.9097 75.4332C61.6401 76.7555 60.0361 76.7942 58.8292 75.4166C58.3225 74.8357 57.9359 75.0183 57.3925 75.1954C56.8178 75.3835 56.9327 75.815 56.9276 76.2299C56.9014 78.1497 55.7834 79.3336 53.9809 79.3447C52.7009 79.3502 51.4209 79.3502 50.1461 79.3447C48.2496 79.3391 47.1472 78.1718 47.1368 76.1469C47.1368 75.6767 47.1524 75.3005 46.609 75.0625C46.0501 74.8191 45.7261 74.9021 45.3133 75.3503C44.1483 76.6338 42.6593 76.7721 41.4942 75.7708C41.3271 75.6269 41.1494 75.4775 41.024 75.2949C40.4284 74.4263 39.6447 74.2493 38.6521 74.2493C28.0828 74.288 17.5136 74.2714 6.94427 74.2714C4.03942 74.2714 2.35712 72.4955 2.35712 69.4305C2.35712 48.8554 2.35712 28.2804 2.35712 7.70519C2.35712 4.67342 4.02375 2.8975 6.89202 2.89197C10.3193 2.88644 13.7466 2.88644 17.1739 2.8975C17.639 2.8975 17.9524 2.82558 18.2189 2.32766C18.757 1.3263 19.6608 0.822843 20.7475 0.822843C26.202 0.811778 31.6564 0.811778 37.1108 0.822843C38.2289 0.822843 39.1275 1.35396 39.6866 2.37746C39.9216 2.80899 40.1881 2.90304 40.6113 2.90304C44.0385 2.88644 47.4658 2.89197 50.8932 2.8975C53.8712 2.90304 55.5169 4.63469 55.5169 7.76605C55.5169 13.1325 55.5169 18.4989 55.5169 23.8654C55.5169 24.1199 55.5378 24.38 55.496 24.6289C55.3968 25.2375 55.0205 25.5971 54.4563 25.6082C53.8555 25.6192 53.4584 25.2596 53.3539 24.6123C53.3121 24.3634 53.333 24.1033 53.333 23.8489C53.333 18.4823 53.333 13.1159 53.333 7.74945C53.333 5.96801 52.6434 5.22666 50.9768 5.22666C47.6226 5.22113 44.2685 5.22666 40.9143 5.22666C40.7001 5.22666 40.4807 5.22666 40.2142 5.22666C40.2142 6.17824 40.2142 7.08556 40.2142 8.08693C40.4494 8.09799 40.7001 8.12012 40.9561 8.12012C43.0563 8.12566 45.1566 8.12012 47.2569 8.12012C49.5609 8.12012 50.5222 9.12706 50.5222 11.5502C50.5222 21.5197 50.5222 31.4836 50.5222 41.453C50.5066 41.785 50.5066 42.1169 50.5066 42.5097ZM38.6468 54.7419C38.3804 54.7419 38.1244 54.7419 37.8632 54.7419C35.5957 54.7419 33.3282 54.7419 31.0555 54.7419C30.5279 54.7419 29.9897 54.7585 29.4673 54.6921C28.8926 54.6147 28.5687 54.2108 28.5582 53.5912C28.5478 52.9715 28.8665 52.5788 29.4359 52.457C29.6919 52.4017 29.9637 52.4017 30.2248 52.4017C32.3722 52.3962 34.5194 52.4017 36.6667 52.4017C36.928 52.4017 37.184 52.4017 37.5079 52.4017C37.2049 50.991 37.7169 49.9896 38.605 49.1154C39.4357 48.2967 40.2142 47.4225 41.0187 46.5705C42.4242 45.0878 43.908 45.0657 45.3186 46.5208C45.5851 46.7973 45.8149 46.991 46.1806 46.7254C46.5568 46.4544 47.2098 46.5429 47.1368 45.7296C47.0636 44.9163 47.2517 44.1197 47.8212 43.5443C48.213 43.146 48.3071 42.731 48.3071 42.1944C48.2966 32.0202 48.3018 21.8461 48.3018 11.6719C48.3018 11.4949 48.2966 11.3124 48.3018 11.1353C48.3122 10.6539 48.0981 10.4493 47.6435 10.4493C45.2559 10.4548 42.8631 10.4437 40.4754 10.4659C40.2874 10.4659 40.0105 10.6318 39.9373 10.7979C39.279 12.2805 38.1662 12.8337 36.6667 12.8282C31.5728 12.8005 26.484 12.7895 21.3902 12.8337C19.6765 12.8503 18.4383 12.2307 17.7956 10.4493C15.4498 10.4493 13.1092 10.4493 10.7686 10.4493C9.55655 10.4493 9.55655 10.4493 9.55655 11.6996C9.55655 21.4921 9.55655 31.2789 9.55132 41.0713C9.55132 41.4254 9.60357 41.8791 9.42594 42.1059C9.16993 42.4378 8.7154 42.814 8.3758 42.7919C8.0362 42.7642 7.69138 42.2939 7.4197 41.9565C7.30477 41.8182 7.36224 41.5139 7.36224 41.2816C7.36224 31.29 7.35701 21.2928 7.36224 11.3013C7.36224 9.21558 8.38103 8.13672 10.3507 8.12566C12.5241 8.11459 14.6922 8.12012 16.8657 8.12012C17.1269 8.12012 17.3829 8.12012 17.6703 8.12012C17.6703 7.11875 17.6703 6.21143 17.6703 5.25985C17.3986 5.24879 17.1635 5.22666 16.9284 5.22666C13.5951 5.22666 10.2619 5.22666 6.93382 5.22666C5.22017 5.22666 4.53575 5.95695 4.53575 7.78818C4.53575 28.3135 4.53575 48.8388 4.53575 69.3641C4.53575 71.212 5.24107 71.9589 7.00174 71.9589C17.0433 71.9589 27.0797 71.9589 37.1212 71.9589C37.3459 71.9589 37.5705 71.9312 37.6333 71.9257C37.5654 70.9354 37.5079 70.0281 37.4452 69.0488C37.278 69.0488 36.9959 69.0488 36.7085 69.0488C28.0201 69.0488 19.3317 69.0488 10.6432 69.0488C8.3131 69.0488 7.36224 68.0364 7.36746 65.5468C7.37269 59.6437 7.37269 53.7351 7.37791 47.8319C7.37791 47.5775 7.37269 47.3174 7.39358 47.0685C7.44583 46.4101 7.80632 46.0284 8.41237 45.9952C9.02887 45.962 9.41026 46.3271 9.53565 46.9634C9.5879 47.2344 9.57222 47.5221 9.57222 47.8043C9.57222 53.7074 9.567 59.616 9.567 65.5191C9.567 66.7142 9.58267 66.7308 10.6903 66.7308C19.7183 66.7308 28.7411 66.7308 37.7691 66.7308C38.0251 66.7308 38.2811 66.7308 38.5371 66.7308C38.5633 66.6256 38.5946 66.526 38.6208 66.4209C38.3752 66.3269 38.1349 66.1499 37.8893 66.1443C35.6323 66.0779 34.6605 65.0268 34.6605 62.6201C34.6605 61.5579 34.6605 60.4957 34.6605 59.4003C33.0096 59.4003 31.4683 59.4058 29.9218 59.4003C29.0337 59.3947 28.5426 58.9411 28.5635 58.1887C28.5844 57.4694 29.0494 57.0877 29.9322 57.0877C31.4788 57.0822 33.02 57.0988 34.5665 57.0711C34.8225 57.0656 35.1464 56.9493 35.3135 56.7668C35.9614 56.0532 36.7399 55.699 37.649 55.7765C38.3438 55.8263 38.6051 55.4999 38.6468 54.7419ZM67.2199 60.9548C67.2199 60.7225 67.2199 60.4957 67.2199 60.2633C67.1938 58.0061 67.5491 58.0282 65.2555 58.0669C64.6129 58.078 64.2158 57.7682 64.0277 57.1154C63.8866 56.6285 63.7874 56.0974 63.5261 55.6824C62.6328 54.2773 62.8104 53.1431 64.1165 52.1638C64.6076 51.7931 64.5031 51.3671 64.0956 50.9467C63.4007 50.2385 62.7268 49.5082 62.0424 48.7835C60.7989 47.4613 60.9504 47.4281 59.7175 48.7559C59.6182 48.8665 59.5137 48.9771 59.4092 49.0767C59.0121 49.464 58.5785 49.5193 58.0769 49.2925C57.2411 48.9052 56.3894 48.5511 55.5378 48.1916C55.0362 47.9813 54.7489 47.6217 54.7436 47.0353C54.7385 46.5761 54.7332 46.1169 54.7385 45.6576C54.7436 45.0823 54.4772 44.8278 53.9338 44.8389C52.6539 44.8555 51.3739 44.85 50.0991 44.8389C49.5871 44.8334 49.3363 45.0823 49.3363 45.6189C49.3363 46.0781 49.3258 46.5373 49.3363 46.9966C49.3467 47.6826 49.0228 48.0699 48.4324 48.3077C47.6697 48.6176 46.9121 48.955 46.1754 49.3257C45.5955 49.6133 45.1096 49.5636 44.6655 49.0767C44.3468 48.7282 44.0176 48.3907 43.6937 48.0477C43.3855 47.7158 43.072 47.6881 42.7533 48.0256C41.7972 49.038 40.8412 50.0504 39.885 51.0629C39.5402 51.4281 39.5716 51.771 39.9112 52.1251C40.256 52.4847 40.5903 52.8498 40.9352 53.2095C41.3688 53.6576 41.4316 54.1555 41.186 54.7475C40.8568 55.5386 40.5643 56.3463 40.2717 57.1596C40.0627 57.7516 39.7022 58.0835 39.0805 58.0724C38.5998 58.0614 38.1139 58.0724 37.6333 58.0724C37.1056 58.0724 36.8392 58.327 36.8444 58.9134C36.8601 60.2688 36.8548 61.6243 36.8444 62.9797C36.8392 63.5662 37.1056 63.8151 37.6437 63.8096C38.1505 63.7985 38.6573 63.8096 39.1641 63.8096C39.7335 63.8096 40.1045 64.0918 40.3187 64.6671C40.6165 65.4748 40.9352 66.2715 41.2748 67.0626C41.5256 67.6546 41.442 68.147 41.0083 68.5952C40.6322 68.988 40.2612 69.3918 39.885 69.7902C39.5716 70.1221 39.5507 70.454 39.8694 70.7915C40.8255 71.804 41.7816 72.8164 42.7324 73.8288C43.0773 74.194 43.4012 74.1608 43.7303 73.8012C44.0804 73.4139 44.4513 73.0433 44.8014 72.6615C45.2454 72.1746 45.7261 72.0972 46.3113 72.3849C47.0323 72.7389 47.7637 73.0598 48.5055 73.3641C49.0437 73.5854 49.331 73.956 49.3363 74.5702C49.3415 75.1068 49.3519 75.6435 49.3415 76.1801C49.331 76.7887 49.5818 77.0598 50.1722 77.0543C51.4052 77.0321 52.633 77.0266 53.8659 77.0543C54.5295 77.0708 54.7646 76.761 54.7593 76.0916C54.7436 73.5854 54.6391 73.9395 56.7395 72.9824C59.1166 71.898 58.8188 72.2133 60.2869 73.7403C60.7415 74.2161 61.0862 74.1608 61.4991 73.7016C62.2827 72.833 63.0977 71.9976 63.9023 71.1456C64.6494 70.3545 64.6599 70.2549 63.9232 69.497C62.4813 68.0198 62.6014 68.0032 63.3799 66.3766C63.4426 66.2384 63.5314 66.1056 63.5575 65.9561C63.8449 64.1913 64.8218 63.5219 66.4728 63.8041C67.0109 63.8981 67.2565 63.5385 67.2408 62.9631C67.2043 62.2827 67.2199 61.6188 67.2199 60.9548ZM28.9083 10.4935C31.5362 10.4935 34.1694 10.4991 36.7973 10.4935C37.6803 10.4935 37.9572 10.1893 37.9624 9.24878C37.9676 7.6388 37.9676 6.02886 37.9624 4.41892C37.9572 3.43415 37.675 3.12987 36.7607 3.12987C31.5258 3.12433 26.2908 3.12433 21.0558 3.12987C20.1833 3.12987 19.896 3.44522 19.8907 4.3802C19.8855 5.96248 19.8855 7.55028 19.8907 9.13257C19.8907 10.2225 20.1415 10.488 21.1655 10.4935C23.7464 10.4991 26.3274 10.4935 28.9083 10.4935Z" fill="white"/>
<path d="M18.5898 61.9009C17.5292 61.9009 16.4686 61.9175 15.408 61.8954C13.8511 61.8622 12.7696 60.7391 12.7487 59.0849C12.7226 56.8111 12.7174 54.5373 12.7487 52.2634C12.7696 50.7033 13.8249 49.5193 15.2983 49.4917C17.6337 49.4529 19.9743 49.5359 22.3096 49.5359C22.5239 49.5359 22.8008 49.3866 22.947 49.2095C23.4747 48.5843 23.9554 47.9038 24.4726 47.2621C24.9899 46.6203 25.6011 46.5318 26.1131 46.9911C26.6042 47.428 26.646 48.0643 26.1862 48.695C25.5802 49.5193 24.692 50.2385 24.4047 51.168C24.1173 52.092 24.4517 53.2206 24.4674 54.2662C24.4883 55.771 24.483 57.2814 24.4726 58.7861C24.457 60.7502 23.3912 61.8788 21.5573 61.8954C20.5647 61.9065 19.5772 61.9009 18.5898 61.9009ZM20.9565 51.8097C19.0025 51.8097 17.2052 51.7932 15.408 51.8374C15.2461 51.8429 14.9535 52.2358 14.9482 52.457C14.9116 54.6258 14.9116 56.8 14.9535 58.9687C14.9587 59.1789 15.314 59.5496 15.5073 59.5552C17.5553 59.5994 19.6033 59.5939 21.6566 59.5607C21.8603 59.5552 22.226 59.2398 22.226 59.0628C22.2679 57.392 22.2522 55.7157 22.2522 53.8181C21.2961 55.0518 20.4863 56.1195 19.6504 57.1652C19.1017 57.8512 18.5218 57.9065 17.9001 57.3201C17.3046 56.7613 16.7298 56.1749 16.1708 55.5774C15.6954 55.0739 15.664 54.399 16.0611 53.9342C16.479 53.4363 17.1321 53.4197 17.6702 53.9066C17.9889 54.1997 18.2919 54.5151 18.6263 54.8415C19.4048 53.8236 20.131 52.883 20.9565 51.8097Z" fill="white"/>
<path d="M12.916 24.2029C12.916 23.1019 12.9055 22.0065 12.916 20.9055C12.9369 19.2126 14.0497 18.0065 15.6589 18.0065C17.9734 18.0121 20.2878 18.0729 22.597 18.084C22.7694 18.084 22.9837 17.9236 23.1038 17.7742C23.5949 17.1767 24.0547 16.5516 24.5301 15.9375C25.1153 15.185 25.7109 15.0301 26.2647 15.4893C26.829 15.9541 26.8185 16.6401 26.2176 17.4312C25.737 18.0674 25.2303 18.6871 24.76 19.3399C24.6294 19.5224 24.525 19.7825 24.5301 20.0093C24.551 22.6095 24.6451 25.2153 24.619 27.8156C24.6033 29.2761 23.4487 30.3992 22.0641 30.4158C19.8699 30.449 17.6703 30.4545 15.476 30.4158C14.0288 30.3936 12.9473 29.1931 12.916 27.6496C12.9003 26.5043 12.916 25.3536 12.916 24.2029ZM22.456 22.5763C22.4038 22.5597 22.3463 22.5431 22.294 22.5265C21.4895 23.5722 20.6901 24.6233 19.8699 25.6579C19.2952 26.3826 18.71 26.438 18.0726 25.8294C17.4822 25.2651 16.8971 24.6953 16.338 24.0922C15.8522 23.5722 15.8417 22.9304 16.2597 22.4491C16.6672 21.9788 17.2994 21.9456 17.8166 22.3993C18.1509 22.6926 18.454 23.0189 18.8145 23.3675C19.5668 22.3882 20.3035 21.4366 21.1551 20.3302C19.2011 20.3302 17.43 20.308 15.6589 20.3579C15.4708 20.3634 15.1364 20.7672 15.1311 20.9941C15.0894 23.1351 15.0894 25.2817 15.1311 27.4283C15.1364 27.6606 15.4969 28.0866 15.7006 28.0922C17.7487 28.142 19.7967 28.1419 21.8447 28.0977C22.0537 28.0922 22.4299 27.7326 22.4351 27.5334C22.4769 25.8792 22.456 24.2305 22.456 22.5763Z" fill="white"/>
<path d="M18.6473 33.5528C19.9012 33.5528 21.1498 33.5638 22.4037 33.5417C22.5814 33.5362 22.8008 33.3979 22.9209 33.254C23.4591 32.6012 23.9606 31.9096 24.4935 31.2513C24.9742 30.6593 25.5908 30.5542 26.0818 30.9525C26.6095 31.3785 26.6617 32.059 26.1811 32.7118C25.6638 33.4145 25.1049 34.0894 24.5876 34.7975C24.457 34.9801 24.3525 35.2402 24.3577 35.4614C24.3839 38.0119 24.4779 40.5623 24.457 43.1128C24.4413 44.7836 23.2763 45.8901 21.6827 45.9067C19.6347 45.9233 17.5815 45.9233 15.5335 45.9067C13.8616 45.8956 12.7644 44.7504 12.7487 42.9856C12.7279 40.7892 12.7279 38.5928 12.7487 36.3964C12.7644 34.6261 13.8669 33.4975 15.5387 33.4864C16.5783 33.4753 17.6128 33.4864 18.6525 33.4864C18.6473 33.503 18.6473 33.5306 18.6473 33.5528ZM20.967 35.7934C19.0548 35.7934 17.3411 35.7989 15.6275 35.7879C15.1468 35.7879 14.917 35.9925 14.9222 36.5181C14.9327 38.6371 14.9274 40.756 14.9222 42.8804C14.9222 43.3562 15.1207 43.5942 15.57 43.5942C17.5971 43.5942 19.6243 43.6108 21.6461 43.572C21.85 43.5665 22.2209 43.2511 22.2261 43.0686C22.2731 41.3922 22.2522 39.7159 22.2522 37.8625C21.9806 38.1834 21.8238 38.3604 21.6776 38.5486C21.0036 39.4171 20.3453 40.2968 19.6556 41.1543C19.0966 41.8514 18.4801 41.8791 17.848 41.265C17.2785 40.7117 16.709 40.1585 16.1656 39.5776C15.6902 39.0686 15.6589 38.3991 16.0559 37.929C16.4738 37.4255 17.1165 37.4089 17.665 37.8957C17.989 38.1834 18.292 38.4988 18.6263 38.8196C19.4101 37.8127 20.1363 36.8722 20.967 35.7934Z" fill="white"/>
<path d="M36.6407 23.0687C34.3053 23.0687 31.9647 23.0743 29.6293 23.0687C28.7307 23.0687 28.2448 22.6373 28.2605 21.8848C28.2761 21.1656 28.7516 20.7562 29.6137 20.7562C34.3367 20.7507 39.0597 20.7507 43.7826 20.7562C44.629 20.7562 45.1097 21.1877 45.1148 21.9069C45.1201 22.6373 44.6447 23.0632 43.8036 23.0687C41.4159 23.0743 39.0283 23.0687 36.6407 23.0687Z" fill="white"/>
<path d="M36.672 27.727C34.4097 27.727 32.1422 27.727 29.8801 27.727C29.6136 27.727 29.2792 27.7934 29.1068 27.6551C28.7776 27.384 28.3492 27.0022 28.3231 26.6427C28.3022 26.2775 28.6784 25.8349 28.971 25.5251C29.1173 25.3702 29.4725 25.4034 29.7338 25.4034C34.3836 25.3979 39.0335 25.3979 43.6833 25.4034C43.9184 25.4034 44.1692 25.42 44.3939 25.503C44.9215 25.6855 45.1514 26.1116 45.1044 26.6869C45.0573 27.2346 44.77 27.5831 44.258 27.6828C44.002 27.7326 43.7303 27.7326 43.4691 27.7326C41.2017 27.727 38.9342 27.727 36.672 27.727Z" fill="white"/>
<path d="M37.0221 43.832C34.8486 43.832 32.6804 43.832 30.507 43.832C30.2406 43.832 29.9114 43.9094 29.7286 43.7711C29.3889 43.5166 29.0024 43.1736 28.8874 42.7808C28.7255 42.2497 29.0546 41.785 29.577 41.6079C29.8435 41.5139 30.1465 41.5028 30.4339 41.5028C34.8016 41.4973 39.1693 41.4973 43.5371 41.5028C43.8244 41.5028 44.1222 41.5139 44.3939 41.6024C44.9215 41.7739 45.1567 42.2054 45.1097 42.7863C45.0678 43.334 44.7753 43.6937 44.2633 43.7822C43.9341 43.8375 43.5893 43.832 43.2549 43.832C41.1703 43.832 39.0962 43.832 37.0221 43.832Z" fill="white"/>
<path d="M36.9645 39.1792C34.718 39.1792 32.4767 39.1847 30.2301 39.1792C29.3262 39.1792 28.8351 38.7476 28.8455 38.0063C28.856 37.2704 29.3524 36.8666 30.2667 36.8666C34.7284 36.8666 39.1954 36.8666 43.6571 36.8666C44.6184 36.8666 45.12 37.2815 45.1096 38.045C45.0991 38.7919 44.6237 39.1792 43.6937 39.1792C41.4524 39.1847 39.2111 39.1792 36.9645 39.1792Z" fill="white"/>
<path d="M51.9902 54.1887C55.5012 54.1777 58.3694 57.1708 58.3903 60.8719C58.4112 64.6229 55.5482 67.6879 52.0321 67.6823C48.5369 67.6768 45.6686 64.6506 45.6633 60.9549C45.6529 57.2427 48.5003 54.1998 51.9902 54.1887ZM52.0268 56.5068C49.7385 56.5013 47.8367 58.5262 47.8472 60.9549C47.8576 63.3505 49.7281 65.3366 51.9955 65.3643C54.2787 65.3919 56.1961 63.3837 56.2065 60.9494C56.2169 58.5207 54.3257 56.5123 52.0268 56.5068Z" fill="white"/>
</g>
<defs>
<clipPath id="clip0_1_23">
<rect width="68" height="80" fill="white" transform="translate(2)"/>
</clipPath>
</defs>
</svg>
