<svg width="40" height="48" viewBox="0 0 40 48" fill="none" xmlns="http://www.w3.org/2000/svg">
<g clip-path="url(#clip0_4_2)">
<path d="M28.6613 24.8641C29.2459 24.8641 29.7563 24.8641 30.3286 24.8641C30.3286 24.7025 30.3286 24.5503 30.3286 24.398C30.3286 22.3038 30.3286 20.2065 30.3286 18.1123C30.3286 17.9973 30.3224 17.8823 30.3317 17.7674C30.3627 17.3759 30.6348 17.1149 30.9967 17.1242C31.3401 17.1335 31.5999 17.3883 31.6185 17.7643C31.634 18.1371 31.6247 18.51 31.6247 18.8828C31.6247 20.8217 31.6278 22.7574 31.6185 24.6963C31.6185 24.948 31.6804 25.1157 31.8846 25.2742C32.3052 25.6067 32.4815 26.079 32.4568 26.6041C32.4444 26.8931 32.562 27.0204 32.8156 27.0888C33.0817 27.1603 33.2951 27.3933 33.6044 27.067C34.3314 26.3027 35.2625 26.3338 36.0203 27.0826C36.571 27.6263 37.1154 28.1763 37.6567 28.7263C38.4022 29.4844 38.4146 30.4041 37.6815 31.1623C37.5206 31.3301 37.3938 31.4761 37.5515 31.7091C37.7093 31.9422 37.6475 32.3181 38.13 32.315C39.2095 32.3026 39.8468 32.9862 39.8499 34.0706C39.853 34.8443 39.8561 35.621 39.8499 36.3947C39.8437 37.4232 39.1879 38.1409 38.1733 38.1068C37.6722 38.0881 37.6567 38.4174 37.4927 38.7002C37.3227 38.9953 37.5423 39.1135 37.6939 39.2719C38.3991 40.0114 38.396 40.9405 37.6722 41.6799C37.1215 42.2423 36.5647 42.8016 36.0049 43.3547C35.2532 44.0973 34.3035 44.1191 33.589 43.3454C33.2889 43.0191 33.06 43.1217 32.7383 43.2211C32.398 43.3268 32.4661 43.5691 32.463 43.8021C32.4475 44.8803 31.7855 45.5453 30.7183 45.5514C29.9605 45.5546 29.2027 45.5546 28.4479 45.5514C27.325 45.5483 26.6723 44.8928 26.6661 43.7555C26.6661 43.4914 26.6754 43.2801 26.3537 43.1465C26.0227 43.0098 25.8309 43.0564 25.5865 43.3081C24.8967 44.0289 24.0151 44.1066 23.3253 43.5442C23.2263 43.4634 23.1211 43.3795 23.0469 43.277C22.6943 42.7892 22.2303 42.6898 21.6425 42.6898C15.3847 42.7115 9.12689 42.7022 2.86908 42.7022C1.14919 42.7022 0.153137 41.7048 0.153137 39.9834C0.153137 28.428 0.153137 16.8725 0.153137 5.31704C0.153137 3.61433 1.13991 2.61694 2.83815 2.61383C4.86738 2.61072 6.8966 2.61072 8.92585 2.61694C9.20113 2.61694 9.38673 2.57654 9.54449 2.2969C9.86313 1.73451 10.3983 1.45176 11.0417 1.45176C14.2711 1.44554 17.5006 1.44554 20.73 1.45176C21.3919 1.45176 21.924 1.75004 22.255 2.32487C22.3942 2.56722 22.5519 2.62004 22.8025 2.62004C24.8318 2.61072 26.861 2.61383 28.8902 2.61694C30.6534 2.62004 31.6278 3.59258 31.6278 5.35122C31.6278 8.36515 31.6278 11.3791 31.6278 14.393C31.6278 14.5359 31.6402 14.682 31.6155 14.8218C31.5567 15.1636 31.3339 15.3655 30.9999 15.3718C30.6441 15.378 30.4091 15.176 30.3471 14.8125C30.3224 14.6727 30.3348 14.5266 30.3348 14.3837C30.3348 11.3698 30.3348 8.35583 30.3348 5.3419C30.3348 4.3414 29.9265 3.92504 28.9397 3.92504C26.9538 3.92194 24.9679 3.92504 22.9819 3.92504C22.8551 3.92504 22.7252 3.92504 22.5675 3.92504C22.5675 4.45947 22.5675 4.96904 22.5675 5.53144C22.7067 5.53765 22.8551 5.55008 23.0067 5.55008C24.2502 5.55319 25.4937 5.55008 26.7372 5.55008C28.1014 5.55008 28.6706 6.11558 28.6706 7.47651C28.6706 13.0756 28.6706 18.6716 28.6706 24.2706C28.6613 24.457 28.6613 24.6435 28.6613 24.8641ZM21.6395 31.734C21.4817 31.734 21.3301 31.734 21.1755 31.734C19.8329 31.734 18.4904 31.734 17.1448 31.734C16.8324 31.734 16.5138 31.7433 16.2044 31.706C15.8642 31.6625 15.6724 31.4357 15.6662 31.0877C15.66 30.7397 15.8487 30.5191 16.1859 30.4507C16.3375 30.4196 16.4983 30.4196 16.653 30.4196C17.9243 30.4166 19.1957 30.4196 20.4671 30.4196C20.6217 30.4196 20.7733 30.4196 20.9651 30.4196C20.7857 29.6273 21.0888 29.065 21.6147 28.574C22.1065 28.1142 22.5675 27.6232 23.0438 27.1448C23.8759 26.312 24.7544 26.2996 25.5896 27.1168C25.7474 27.2721 25.8835 27.3808 26.1 27.2317C26.3227 27.0795 26.7094 27.1292 26.6661 26.6724C26.6228 26.2157 26.7342 25.7682 27.0713 25.4451C27.3033 25.2214 27.359 24.9884 27.359 24.687C27.3528 18.9729 27.3559 13.2589 27.3559 7.54487C27.3559 7.44544 27.3528 7.3429 27.3559 7.24347C27.3621 6.97315 27.2353 6.85819 26.9662 6.85819C25.5525 6.86129 24.1358 6.85508 22.7221 6.86751C22.6107 6.86751 22.4468 6.96073 22.4035 7.05394C22.0137 7.88665 21.3548 8.19737 20.4671 8.19426C17.4511 8.17872 14.4382 8.17251 11.4222 8.19737C10.4075 8.20669 9.67441 7.85868 9.29393 6.85819C7.90503 6.85819 6.51922 6.85819 5.1334 6.85819C4.41575 6.85819 4.41575 6.85819 4.41575 7.5604C4.41575 13.0601 4.41575 18.5566 4.41266 24.0562C4.41266 24.2551 4.44359 24.5098 4.33842 24.6373C4.18684 24.8237 3.91772 25.035 3.71666 25.0225C3.51559 25.007 3.31143 24.7429 3.15058 24.5534C3.08252 24.4757 3.11655 24.3048 3.11655 24.1743C3.11655 18.5628 3.11346 12.9482 3.11655 7.33668C3.11655 6.16529 3.71975 5.5594 4.88594 5.55319C6.17276 5.54697 7.4565 5.55008 8.74329 5.55008C8.89801 5.55008 9.04953 5.55008 9.21969 5.55008C9.21969 4.98768 9.21969 4.47812 9.21969 3.94368C9.05881 3.93747 8.91961 3.92504 8.78041 3.92504C6.8069 3.92504 4.83335 3.92504 2.8629 3.92504C1.84828 3.92504 1.44306 4.33518 1.44306 5.36365C1.44306 16.8912 1.44306 28.4187 1.44306 39.9461C1.44306 40.9839 1.86066 41.4034 2.90311 41.4034C8.84849 41.4034 14.7908 41.4034 20.7362 41.4034C20.8692 41.4034 21.0022 41.3879 21.0393 41.3848C20.9991 40.8286 20.9651 40.319 20.9279 39.769C20.829 39.769 20.6619 39.769 20.4918 39.769C15.3476 39.769 10.2034 39.769 5.05916 39.769C3.67954 39.769 3.11655 39.2004 3.11964 37.8022C3.12274 34.4869 3.12274 31.1685 3.12583 27.8532C3.12583 27.7102 3.12274 27.5642 3.13511 27.4244C3.16604 27.0546 3.37948 26.8402 3.73831 26.8216C4.10332 26.8029 4.32914 27.008 4.40338 27.3653C4.43431 27.5176 4.42503 27.6791 4.42503 27.8376C4.42503 31.153 4.42194 34.4714 4.42194 37.7867C4.42194 38.4578 4.43122 38.4672 5.087 38.4672C10.4323 38.4672 15.7745 38.4672 21.1198 38.4672C21.2713 38.4672 21.4229 38.4672 21.5745 38.4672C21.5899 38.4081 21.6085 38.3522 21.6239 38.2932C21.4786 38.2403 21.3363 38.1409 21.1909 38.1378C19.8546 38.1005 19.2792 37.5102 19.2792 36.1586C19.2792 35.562 19.2792 34.9654 19.2792 34.3502C18.3017 34.3502 17.3892 34.3533 16.4735 34.3502C15.9477 34.3471 15.6569 34.0923 15.6693 33.6698C15.6817 33.2658 15.957 33.0514 16.4798 33.0514C17.3954 33.0483 18.3079 33.0576 19.2235 33.0421C19.3751 33.0389 19.5669 32.9737 19.6659 32.8712C20.0495 32.4703 20.5103 32.2715 21.0486 32.315C21.46 32.343 21.6147 32.1597 21.6395 31.734ZM38.5569 35.2233C38.5569 35.0928 38.5569 34.9654 38.5569 34.8349C38.5414 33.5672 38.7518 33.5796 37.3938 33.6014C37.0133 33.6076 36.7782 33.4336 36.6668 33.0669C36.5833 32.7935 36.5246 32.4953 36.3699 32.2622C35.8409 31.4729 35.9461 30.836 36.7195 30.2861C37.0102 30.0779 36.9483 29.8386 36.7071 29.6025C36.2956 29.2048 35.8966 28.7946 35.4914 28.3876C34.7551 27.645 34.8449 27.6263 34.1148 28.372C34.0561 28.4342 33.9942 28.4964 33.9323 28.5523C33.6972 28.7697 33.4405 28.8008 33.1435 28.6735C32.6486 28.4559 32.1444 28.2571 31.6402 28.0551C31.3432 27.9371 31.1731 27.7351 31.17 27.4058C31.1669 27.1478 31.1638 26.8899 31.1669 26.6321C31.17 26.3089 31.0123 26.166 30.6905 26.1722C29.9327 26.1815 29.1748 26.1784 28.42 26.1722C28.1169 26.1691 27.9684 26.3089 27.9684 26.6103C27.9684 26.8682 27.9622 27.1261 27.9684 27.384C27.9746 27.7693 27.7828 27.9867 27.4332 28.1204C26.9816 28.2943 26.5331 28.4839 26.0969 28.6921C25.7535 28.8536 25.4659 28.8257 25.203 28.5523C25.0143 28.3565 24.8194 28.167 24.6276 27.9744C24.4451 27.7879 24.2595 27.7723 24.0708 27.9619C23.5047 28.5305 22.9387 29.0991 22.3726 29.6677C22.1684 29.8728 22.187 30.0654 22.388 30.2643C22.5922 30.4662 22.7902 30.6713 22.9943 30.8733C23.2511 31.125 23.2882 31.4046 23.1428 31.7371C22.9479 32.1814 22.7747 32.6351 22.6015 33.0918C22.4777 33.4243 22.2643 33.6107 21.8962 33.6045C21.6116 33.5982 21.3239 33.6045 21.0393 33.6045C20.7269 33.6045 20.5691 33.7474 20.5723 34.0768C20.5815 34.838 20.5784 35.5993 20.5723 36.3605C20.5691 36.6899 20.7269 36.8297 21.0455 36.8266C21.3455 36.8204 21.6456 36.8266 21.9457 36.8266C22.2828 36.8266 22.5025 36.985 22.6293 37.3082C22.8056 37.7619 22.9943 38.2093 23.1954 38.6536C23.3439 38.986 23.2943 39.2626 23.0376 39.5143C22.8149 39.7349 22.5953 39.9617 22.3726 40.1854C22.187 40.3719 22.1746 40.5583 22.3633 40.7478C22.9294 41.3164 23.4955 41.885 24.0584 42.4536C24.2626 42.6587 24.4543 42.64 24.6492 42.4381C24.8565 42.2206 25.0761 42.0124 25.2834 41.798C25.5463 41.5246 25.8309 41.4811 26.1774 41.6426C26.6043 41.8415 27.0373 42.0218 27.4766 42.1926C27.7951 42.3169 27.9653 42.5251 27.9684 42.87C27.9715 43.1713 27.9777 43.4728 27.9715 43.7742C27.9653 44.1159 28.1138 44.2682 28.4633 44.2651C29.1934 44.2526 29.9203 44.2496 30.6503 44.2651C31.0431 44.2744 31.1823 44.1004 31.1793 43.7244C31.17 42.3169 31.1081 42.5158 32.3516 41.9782C33.7591 41.3693 33.5828 41.5464 34.452 42.4039C34.7211 42.6711 34.9253 42.64 35.1697 42.3822C35.6337 41.8943 36.1163 41.4252 36.5926 40.9467C37.035 40.5024 37.0411 40.4464 36.605 40.0207C35.7512 39.1911 35.8223 39.1818 36.2833 38.2683C36.3204 38.1906 36.373 38.1161 36.3884 38.0322C36.5586 37.041 37.1371 36.665 38.1145 36.8234C38.4331 36.8763 38.5785 36.6743 38.5692 36.3512C38.5476 35.969 38.5569 35.5962 38.5569 35.2233ZM15.8735 6.88304C17.4294 6.88304 18.9884 6.88615 20.5444 6.88304C21.0671 6.88304 21.2311 6.71215 21.2342 6.18394C21.2373 5.27976 21.2373 4.37558 21.2342 3.4714C21.2311 2.91833 21.0641 2.74744 20.5227 2.74744C17.4232 2.74433 14.3237 2.74433 11.2242 2.74744C10.7076 2.74744 10.5375 2.92455 10.5343 3.44965C10.5313 4.33829 10.5313 5.23004 10.5343 6.11869C10.5343 6.73079 10.6828 6.87993 11.2891 6.88304C12.8172 6.88615 14.3454 6.88304 15.8735 6.88304Z" fill="#018D86"/>
<path d="M9.76408 35.7545C9.13616 35.7545 8.50824 35.7639 7.88027 35.7514C6.95845 35.7328 6.31813 35.1021 6.30575 34.173C6.29029 32.896 6.28719 31.619 6.30575 30.3419C6.31813 29.4657 6.94299 28.8008 7.81531 28.7853C9.198 28.7635 10.5838 28.8101 11.9666 28.8101C12.0934 28.8101 12.2574 28.7262 12.3439 28.6268C12.6564 28.2756 12.941 27.8935 13.2472 27.5331C13.5534 27.1727 13.9154 27.1229 14.2185 27.3808C14.5093 27.6263 14.534 27.9836 14.2618 28.3378C13.903 28.8008 13.3771 29.2047 13.207 29.7267C13.0369 30.2456 13.2348 30.8794 13.2441 31.4667C13.2565 32.3118 13.2534 33.1601 13.2472 34.0053C13.2379 35.1082 12.6069 35.7421 11.5211 35.7514C10.9334 35.7577 10.3487 35.7545 9.76408 35.7545ZM11.1654 30.0871C10.0085 30.0871 8.9444 30.0778 7.88027 30.1026C7.78437 30.1058 7.61115 30.3263 7.60805 30.4507C7.58639 31.6686 7.58639 32.8897 7.61115 34.1078C7.61423 34.2258 7.82459 34.434 7.93903 34.4371C9.1516 34.462 10.3642 34.4589 11.5799 34.4402C11.7006 34.4371 11.917 34.26 11.917 34.1606C11.9418 33.2223 11.9326 32.2808 11.9326 31.215C11.3665 31.9079 10.887 32.5076 10.3921 33.0948C10.0673 33.4801 9.72392 33.5112 9.35576 33.1818C9.00312 32.868 8.66288 32.5387 8.33192 32.2031C8.0504 31.9203 8.03184 31.5413 8.26696 31.2803C8.5144 31.0006 8.90104 30.9913 9.21968 31.2648C9.4084 31.4294 9.58776 31.6065 9.78576 31.7898C10.2466 31.2181 10.6766 30.6899 11.1654 30.0871Z" fill="#018D86"/>
<path d="M6.40476 14.5825C6.40476 13.9642 6.39858 13.349 6.40476 12.7306C6.41714 11.7798 7.07602 11.1025 8.02872 11.1025C9.39912 11.1056 10.7694 11.1398 12.1367 11.146C12.2388 11.146 12.3656 11.0559 12.4367 10.972C12.7275 10.6364 12.9998 10.2853 13.2812 9.94045C13.6277 9.51786 13.9803 9.43083 14.3082 9.68878C14.6423 9.94978 14.6361 10.335 14.2804 10.7794C13.9958 11.1367 13.6958 11.4847 13.4174 11.8513C13.34 11.9539 13.2782 12.0999 13.2812 12.2273C13.2936 13.6877 13.3493 15.1511 13.3338 16.6115C13.3246 17.4317 12.6409 18.0625 11.8212 18.0718C10.522 18.0904 9.21968 18.0936 7.9205 18.0718C7.06364 18.0594 6.42332 17.3851 6.40476 16.5182C6.39548 15.8751 6.40476 15.2288 6.40476 14.5825ZM12.0532 13.669C12.0222 13.6597 11.9882 13.6504 11.9573 13.6411C11.4809 14.2283 11.0076 14.8186 10.522 15.3997C10.1817 15.8067 9.83528 15.8378 9.45784 15.496C9.10832 15.1791 8.76184 14.859 8.43088 14.5203C8.1432 14.2283 8.13704 13.8678 8.38448 13.5975C8.62576 13.3335 9.00008 13.3148 9.30632 13.5695C9.50424 13.7343 9.68368 13.9176 9.89712 14.1133C10.3426 13.5634 10.7787 13.0289 11.283 12.4075C10.126 12.4075 9.07736 12.395 8.02872 12.423C7.9174 12.4261 7.71942 12.653 7.71634 12.7804C7.69158 13.9828 7.69158 15.1884 7.71634 16.3939C7.71942 16.5244 7.93286 16.7637 8.05352 16.7668C9.26608 16.7948 10.4786 16.7948 11.6913 16.7699C11.815 16.7668 12.0377 16.5649 12.0408 16.453C12.0655 15.524 12.0532 14.598 12.0532 13.669Z" fill="#018D86"/>
<path d="M9.79815 19.8336C10.5406 19.8336 11.2798 19.8398 12.0222 19.8274C12.1274 19.8243 12.2574 19.7466 12.3285 19.6658C12.6471 19.2992 12.9441 18.9108 13.2596 18.541C13.5442 18.2086 13.9092 18.1495 14.1999 18.3732C14.5124 18.6125 14.5433 18.9947 14.2587 19.3613C13.9525 19.7559 13.6215 20.135 13.3153 20.5327C13.2379 20.6353 13.1761 20.7813 13.1791 20.9056C13.1946 22.338 13.2503 23.7703 13.2379 25.2028C13.2286 26.1411 12.5388 26.7625 11.5954 26.7718C10.3828 26.7811 9.16711 26.7811 7.9545 26.7718C6.96464 26.7656 6.31504 26.1225 6.30576 25.1312C6.29338 23.8978 6.29338 22.6642 6.30576 21.4306C6.31504 20.4364 6.96773 19.8025 7.9576 19.7963C8.57319 19.7901 9.18567 19.7963 9.80119 19.7963C9.79815 19.8057 9.79815 19.8212 9.79815 19.8336ZM11.1716 21.092C10.0394 21.092 9.02479 21.0951 8.01015 21.0889C7.7256 21.0889 7.58949 21.2039 7.59258 21.499C7.59877 22.689 7.59568 23.8791 7.59258 25.0723C7.59258 25.3395 7.71013 25.4731 7.97616 25.4731C9.17639 25.4731 10.3766 25.4824 11.5737 25.4606C11.6943 25.4575 11.914 25.2804 11.917 25.1779C11.9449 24.2364 11.9326 23.2949 11.9326 22.2541C11.7717 22.4343 11.6789 22.5337 11.5922 22.6394C11.1932 23.1271 10.8034 23.6212 10.3951 24.1028C10.0642 24.4943 9.69911 24.5098 9.32487 24.165C8.98767 23.8542 8.65047 23.5435 8.32879 23.2173C8.04727 22.9314 8.02871 22.5555 8.26383 22.2913C8.51127 22.0086 8.89175 21.9992 9.21655 22.2727C9.40839 22.4343 9.58775 22.6114 9.78575 22.7916C10.2498 22.2261 10.6798 21.6979 11.1716 21.092Z" fill="#018D86"/>
<path d="M20.4516 13.9456C19.0689 13.9456 17.683 13.9487 16.3003 13.9456C15.7682 13.9456 15.4806 13.7033 15.4898 13.2807C15.4991 12.8768 15.7806 12.6469 16.291 12.6469C19.0874 12.6437 21.8838 12.6437 24.6802 12.6469C25.1813 12.6469 25.4658 12.8892 25.469 13.2931C25.4721 13.7033 25.1906 13.9426 24.6926 13.9456C23.2789 13.9487 21.8652 13.9456 20.4516 13.9456Z" fill="#018D86"/>
<path d="M20.4701 16.5619C19.1307 16.5619 17.7882 16.5619 16.4488 16.5619C16.291 16.5619 16.093 16.5992 15.9909 16.5215C15.7961 16.3693 15.5425 16.1549 15.5269 15.9529C15.5146 15.7478 15.7373 15.4992 15.9105 15.3253C15.9972 15.2382 16.2075 15.2569 16.3621 15.2569C19.1153 15.2537 21.8683 15.2537 24.6213 15.2569C24.7605 15.2569 24.909 15.2662 25.0421 15.3128C25.3545 15.4153 25.4906 15.6546 25.4628 15.9778C25.4349 16.2854 25.2648 16.4811 24.9617 16.5371C24.8101 16.565 24.6492 16.565 24.4945 16.565C23.1521 16.5619 21.8095 16.5619 20.4701 16.5619Z" fill="#018D86"/>
<path d="M20.6774 25.6067C19.3906 25.6067 18.1068 25.6067 16.82 25.6067C16.6622 25.6067 16.4674 25.6503 16.3591 25.5726C16.158 25.4296 15.9291 25.237 15.861 25.0164C15.7652 24.7181 15.9601 24.4571 16.2694 24.3577C16.4271 24.3049 16.6066 24.2987 16.7767 24.2987C19.3627 24.2955 21.9487 24.2955 24.5348 24.2987C24.7049 24.2987 24.8812 24.3049 25.0421 24.3546C25.3545 24.4509 25.4937 24.6932 25.4658 25.0195C25.4411 25.3271 25.2679 25.5291 24.9647 25.5788C24.7698 25.6099 24.5657 25.6067 24.3678 25.6067C23.1335 25.6067 21.9054 25.6067 20.6774 25.6067Z" fill="#018D86"/>
<path d="M20.6433 22.9935C19.3132 22.9935 17.9861 22.9966 16.6561 22.9935C16.1209 22.9935 15.8301 22.7512 15.8363 22.3348C15.8425 21.9215 16.1364 21.6947 16.6777 21.6947C19.3194 21.6947 21.9642 21.6947 24.6059 21.6947C25.1751 21.6947 25.4721 21.9277 25.4658 22.3565C25.4597 22.776 25.1781 22.9935 24.6276 22.9935C23.3005 22.9966 21.9735 22.9935 20.6433 22.9935Z" fill="#018D86"/>
<path d="M29.5398 31.4233C31.6185 31.4171 33.3167 33.0981 33.3291 35.1768C33.3415 37.2834 31.6463 39.0048 29.5645 39.0016C27.4951 38.9986 25.7969 37.2989 25.7937 35.2234C25.7876 33.1384 27.4734 31.4296 29.5398 31.4233ZM29.5614 32.7252C28.2066 32.7221 27.0806 33.8593 27.0868 35.2234C27.093 36.5687 28.2004 37.6842 29.5429 37.6998C30.8946 37.7153 32.0299 36.5874 32.0361 35.2203C32.0423 33.8562 30.9225 32.7283 29.5614 32.7252Z" fill="#018D86"/>
</g>
<defs>
<clipPath id="clip0_4_2">
<rect width="40" height="45" fill="white" transform="translate(0 1)"/>
</clipPath>
</defs>
</svg>
