<svg width="50" height="56" viewBox="0 0 50 56" fill="none" xmlns="http://www.w3.org/2000/svg">
<path d="M35.8266 29.6975C36.5574 29.6975 37.1954 29.6975 37.9107 29.6975C37.9107 29.4965 37.9107 29.307 37.9107 29.1175C37.9107 26.5114 37.9107 23.9014 37.9107 21.2953C37.9107 21.1522 37.903 21.0091 37.9146 20.8661C37.9533 20.3789 38.2935 20.0541 38.7459 20.0657C39.1751 20.0773 39.4999 20.3943 39.5231 20.8622C39.5425 21.3262 39.5309 21.7902 39.5309 22.2542C39.5309 24.667 39.5347 27.0759 39.5231 29.4887C39.5231 29.8019 39.6005 30.0107 39.8557 30.2079C40.3815 30.6217 40.6019 31.2094 40.571 31.8629C40.5555 32.2225 40.7025 32.381 41.0195 32.4661C41.3521 32.555 41.6189 32.845 42.0055 32.439C42.9142 31.4878 44.0781 31.5265 45.0254 32.4583C45.7137 33.135 46.3942 33.8194 47.0709 34.5038C48.0027 35.4473 48.0182 36.5918 47.1018 37.5353C46.9007 37.7441 46.7422 37.9258 46.9394 38.2158C47.1366 38.5058 47.0593 38.9737 47.6625 38.9698C49.0119 38.9543 49.8085 39.805 49.8123 41.1545C49.8162 42.1173 49.8201 43.0839 49.8123 44.0467C49.8046 45.3266 48.9849 46.2198 47.7166 46.1773C47.0902 46.1541 47.0709 46.5639 46.8659 46.9158C46.6533 47.2831 46.9278 47.4301 47.1173 47.6273C47.9989 48.5475 47.995 49.7037 47.0902 50.6239C46.4019 51.3238 45.7059 52.0198 45.0061 52.7081C44.0665 53.6322 42.8794 53.6593 41.9862 52.6965C41.6111 52.2905 41.325 52.4181 40.9229 52.5418C40.4975 52.6733 40.5826 52.9749 40.5787 53.2649C40.5594 54.6066 39.7319 55.4341 38.3979 55.4418C37.4506 55.4457 36.5033 55.4457 35.5598 55.4418C34.1562 55.4379 33.3403 54.6221 33.3326 53.2069C33.3326 52.8782 33.3442 52.6153 32.9421 52.449C32.5283 52.2789 32.2886 52.3369 31.9831 52.6501C31.1209 53.5471 30.0189 53.6438 29.1566 52.9439C29.0329 52.8434 28.9014 52.739 28.8086 52.6114C28.3678 52.0043 27.7878 51.8806 27.0531 51.8806C19.2309 51.9077 11.4086 51.8961 3.58634 51.8961C1.43647 51.8961 0.191406 50.6549 0.191406 48.5127C0.191406 34.1326 0.191406 19.7525 0.191406 5.37233C0.191406 3.2534 1.42487 2.0122 3.54767 2.00833C6.08421 2.00446 8.62074 2.00446 11.1573 2.0122C11.5014 2.0122 11.7334 1.96193 11.9306 1.61393C12.3289 0.914063 12.9978 0.562196 13.8021 0.562196C17.8389 0.554463 21.8757 0.554463 25.9125 0.562196C26.7399 0.562196 27.405 0.933396 27.8187 1.64873C27.9927 1.95033 28.1899 2.01606 28.5031 2.01606C31.0397 2.00446 33.5762 2.00833 36.1127 2.0122C38.3167 2.01606 39.5347 3.22633 39.5347 5.41486C39.5347 9.16553 39.5347 12.9162 39.5347 16.6669C39.5347 16.8447 39.5502 17.0265 39.5193 17.2005C39.4458 17.6258 39.1674 17.8771 38.7498 17.8849C38.3051 17.8926 38.0113 17.6413 37.9339 17.1889C37.903 17.0149 37.9185 16.8331 37.9185 16.6553C37.9185 12.9046 37.9185 9.15393 37.9185 5.40326C37.9185 4.1582 37.4081 3.64006 36.1746 3.64006C33.6922 3.6362 31.2098 3.64006 28.7274 3.64006C28.5689 3.64006 28.4065 3.64006 28.2093 3.64006C28.2093 4.30513 28.2093 4.93926 28.2093 5.63913C28.3833 5.64686 28.5689 5.66233 28.7583 5.66233C30.3127 5.6662 31.8671 5.66233 33.4215 5.66233C35.1267 5.66233 35.8382 6.36606 35.8382 8.05966C35.8382 15.0274 35.8382 21.9913 35.8382 28.959C35.8266 29.191 35.8266 29.423 35.8266 29.6975ZM27.0493 38.2467C26.8521 38.2467 26.6626 38.2467 26.4693 38.2467C24.7911 38.2467 23.113 38.2467 21.431 38.2467C21.0405 38.2467 20.6422 38.2583 20.2555 38.2119C19.8302 38.1578 19.5905 37.8755 19.5827 37.4425C19.575 37.0094 19.8109 36.7349 20.2323 36.6498C20.4218 36.6111 20.6229 36.6111 20.8162 36.6111C22.4054 36.6073 23.9946 36.6111 25.5838 36.6111C25.7771 36.6111 25.9666 36.6111 26.2063 36.6111C25.9821 35.6251 26.361 34.9253 27.0183 34.3143C27.6331 33.7421 28.2093 33.1311 28.8047 32.5357C29.8449 31.4994 30.943 31.4839 31.987 32.5009C32.1842 32.6942 32.3543 32.8295 32.625 32.6439C32.9034 32.4545 33.3867 32.5163 33.3326 31.9479C33.2785 31.3795 33.4177 30.8227 33.8391 30.4206C34.1291 30.1422 34.1987 29.8522 34.1987 29.4771C34.191 22.3663 34.1949 15.2555 34.1949 8.14473C34.1949 8.021 34.191 7.8934 34.1949 7.76966C34.2026 7.43326 34.0441 7.2902 33.7077 7.2902C31.9406 7.29406 30.1697 7.28633 28.4026 7.3018C28.2634 7.3018 28.0585 7.4178 28.0043 7.5338C27.5171 8.57006 26.6935 8.95673 25.5838 8.95286C21.8138 8.93353 18.0477 8.9258 14.2777 8.95673C13.0094 8.96833 12.093 8.53526 11.6174 7.2902C9.88127 7.2902 8.14901 7.2902 6.41674 7.2902C5.51967 7.2902 5.51967 7.2902 5.51967 8.16406C5.51967 15.0081 5.51967 21.8482 5.51581 28.6922C5.51581 28.9397 5.55447 29.2567 5.42301 29.4153C5.23354 29.6473 4.89714 29.9102 4.64581 29.8947C4.39447 29.8754 4.13927 29.5467 3.93821 29.3109C3.85314 29.2142 3.89567 29.0015 3.89567 28.8391C3.89567 21.8559 3.89181 14.8689 3.89567 7.88566C3.89567 6.42793 4.64967 5.67393 6.10741 5.6662C7.71594 5.65846 9.32061 5.66233 10.9291 5.66233C11.1225 5.66233 11.3119 5.66233 11.5246 5.66233C11.5246 4.96246 11.5246 4.32833 11.5246 3.66326C11.3235 3.65553 11.1495 3.64006 10.9755 3.64006C8.50861 3.64006 6.04167 3.64006 3.57861 3.64006C2.31034 3.64006 1.80381 4.15046 1.80381 5.43033C1.80381 19.7757 1.80381 34.121 1.80381 48.4663C1.80381 49.7578 2.32581 50.2798 3.62887 50.2798C11.0606 50.2798 18.4885 50.2798 25.9202 50.2798C26.0865 50.2798 26.2527 50.2605 26.2991 50.2566C26.2489 49.5645 26.2063 48.9303 26.1599 48.2459C26.0362 48.2459 25.8274 48.2459 25.6147 48.2459C19.1845 48.2459 12.7542 48.2459 6.32394 48.2459C4.59941 48.2459 3.89567 47.5383 3.89954 45.7983C3.90341 41.6726 3.90341 37.543 3.90727 33.4173C3.90727 33.2394 3.90341 33.0577 3.91887 32.8837C3.95754 32.4235 4.22434 32.1567 4.67287 32.1335C5.12914 32.1103 5.41141 32.3655 5.50421 32.8102C5.54287 32.9997 5.53127 33.2007 5.53127 33.3979C5.53127 37.5237 5.52741 41.6533 5.52741 45.779C5.52741 46.6142 5.53901 46.6258 6.35874 46.6258C13.0403 46.6258 19.7181 46.6258 26.3997 46.6258C26.5891 46.6258 26.7786 46.6258 26.9681 46.6258C26.9874 46.5523 27.0106 46.4827 27.0299 46.4093C26.8482 46.3435 26.6703 46.2198 26.4886 46.2159C24.8182 46.1695 24.099 45.4349 24.099 43.7529C24.099 43.0105 24.099 42.2681 24.099 41.5025C22.8771 41.5025 21.7365 41.5063 20.5919 41.5025C19.9346 41.4986 19.5711 41.1815 19.5866 40.6557C19.6021 40.153 19.9462 39.8862 20.5997 39.8862C21.7442 39.8823 22.8849 39.8939 24.0294 39.8746C24.2189 39.8707 24.4586 39.7895 24.5823 39.6619C25.0618 39.1631 25.6379 38.9157 26.3107 38.9698C26.825 39.0046 27.0183 38.7765 27.0493 38.2467ZM48.1961 42.589C48.1961 42.4266 48.1961 42.2681 48.1961 42.1057C48.1767 40.5281 48.4397 40.5435 46.7422 40.5706C46.2666 40.5783 45.9727 40.3618 45.8335 39.9055C45.7291 39.5653 45.6557 39.1941 45.4623 38.9041C44.8011 37.9219 44.9326 37.1293 45.8993 36.4449C46.2627 36.1858 46.1854 35.8881 45.8838 35.5942C45.3695 35.0993 44.8707 34.5889 44.3642 34.0823C43.4439 33.1582 43.5561 33.135 42.6435 34.063C42.5701 34.1403 42.4927 34.2177 42.4154 34.2873C42.1215 34.5579 41.8006 34.5966 41.4294 34.4381C40.8107 34.1674 40.1805 33.9199 39.5502 33.6686C39.179 33.5217 38.9663 33.2703 38.9625 32.8605C38.9586 32.5395 38.9547 32.2186 38.9586 31.8977C38.9625 31.4955 38.7653 31.3177 38.3631 31.3254C37.4158 31.337 36.4685 31.3331 35.525 31.3254C35.1461 31.3215 34.9605 31.4955 34.9605 31.8706C34.9605 32.1915 34.9527 32.5125 34.9605 32.8334C34.9682 33.3129 34.7285 33.5835 34.2915 33.7498C33.727 33.9663 33.1663 34.2022 32.6211 34.4613C32.1919 34.6623 31.8323 34.6275 31.5037 34.2873C31.2678 34.0437 31.0242 33.8078 30.7845 33.5681C30.5563 33.3361 30.3243 33.3167 30.0885 33.5526C29.3809 34.2602 28.6733 34.9678 27.9657 35.6754C27.7105 35.9306 27.7337 36.1703 27.985 36.4178C28.2402 36.6691 28.4877 36.9243 28.7429 37.1757C29.0638 37.4889 29.1102 37.8369 28.9285 38.2506C28.6849 38.8035 28.4683 39.3681 28.2518 39.9365C28.0971 40.3502 27.8303 40.5822 27.3702 40.5745C27.0145 40.5667 26.6549 40.5745 26.2991 40.5745C25.9086 40.5745 25.7114 40.7523 25.7153 41.1622C25.7269 42.1095 25.723 43.0569 25.7153 44.0042C25.7114 44.4141 25.9086 44.5881 26.3069 44.5842C26.6819 44.5765 27.057 44.5842 27.4321 44.5842C27.8535 44.5842 28.1281 44.7814 28.2866 45.1835C28.507 45.7481 28.7429 46.3049 28.9942 46.8578C29.1798 47.2715 29.1179 47.6157 28.797 47.9289C28.5186 48.2034 28.2441 48.4857 27.9657 48.7641C27.7337 48.9961 27.7182 49.2281 27.9541 49.4639C28.6617 50.1715 29.3693 50.8791 30.073 51.5867C30.3282 51.8419 30.5679 51.8187 30.8115 51.5674C31.0706 51.2967 31.3451 51.0377 31.6042 50.7709C31.9329 50.4306 32.2886 50.3765 32.7217 50.5775C33.2553 50.825 33.7966 51.0493 34.3457 51.2619C34.7439 51.4166 34.9566 51.6757 34.9605 52.1049C34.9643 52.4799 34.9721 52.855 34.9643 53.2301C34.9566 53.6554 35.1422 53.8449 35.5791 53.841C36.4917 53.8255 37.4003 53.8217 38.3129 53.841C38.8039 53.8526 38.9779 53.6361 38.9741 53.1682C38.9625 51.4166 38.8851 51.6641 40.4395 50.9951C42.1989 50.2373 41.9785 50.4577 43.065 51.5249C43.4014 51.8574 43.6566 51.8187 43.9621 51.4978C44.5421 50.8907 45.1453 50.3069 45.7407 49.7114C46.2937 49.1585 46.3014 49.0889 45.7562 48.5591C44.689 47.5267 44.7779 47.5151 45.3541 46.3783C45.4005 46.2817 45.4662 46.1889 45.4855 46.0845C45.6982 44.851 46.4213 44.3831 47.6431 44.5803C48.0414 44.6461 48.2231 44.3947 48.2115 43.9926C48.1845 43.517 48.1961 43.053 48.1961 42.589ZM19.8418 7.32113C21.7867 7.32113 23.7355 7.325 25.6805 7.32113C26.3339 7.32113 26.5389 7.10846 26.5427 6.45113C26.5466 5.32593 26.5466 4.20073 26.5427 3.07553C26.5389 2.38726 26.3301 2.1746 25.6534 2.1746C21.779 2.17073 17.9046 2.17073 14.0302 2.1746C13.3845 2.1746 13.1718 2.395 13.1679 3.04846C13.1641 4.15433 13.1641 5.26406 13.1679 6.36993C13.1679 7.13166 13.3535 7.31726 14.1114 7.32113C16.0215 7.325 17.9317 7.32113 19.8418 7.32113Z" fill="#018D86"/>
<path d="M12.2051 43.2501C11.4202 43.2501 10.6353 43.2617 9.85033 43.2462C8.69806 43.223 7.89766 42.4381 7.88219 41.282C7.86286 39.6928 7.85899 38.1036 7.88219 36.5144C7.89766 35.424 8.67873 34.5965 9.76913 34.5772C11.4975 34.5501 13.2298 34.6081 14.9582 34.6081C15.1167 34.6081 15.3217 34.5037 15.4299 34.38C15.8205 33.943 16.1762 33.4674 16.559 33.0189C16.9418 32.5704 17.3942 32.5085 17.7731 32.8294C18.1366 33.1349 18.1675 33.5796 17.8273 34.0204C17.3787 34.5965 16.7214 35.0992 16.5087 35.7488C16.2961 36.3945 16.5435 37.1833 16.5551 37.9141C16.5706 38.9658 16.5667 40.0214 16.559 41.0732C16.5474 42.4458 15.7586 43.2346 14.4014 43.2462C13.6667 43.254 12.9359 43.2501 12.2051 43.2501ZM13.9567 36.1973C12.5106 36.1973 11.1805 36.1857 9.85033 36.2166C9.73046 36.2205 9.51393 36.495 9.51006 36.6497C9.48299 38.1654 9.48299 39.685 9.51393 41.2008C9.51779 41.3477 9.78073 41.6068 9.92379 41.6106C11.4395 41.6416 12.9553 41.6377 14.4749 41.6145C14.6257 41.6106 14.8963 41.3902 14.8963 41.2665C14.9273 40.0988 14.9157 38.9272 14.9157 37.6009C14.2081 38.4632 13.6087 39.2094 12.9901 39.9402C12.5841 40.4197 12.1549 40.4584 11.6947 40.0485C11.2539 39.658 10.8286 39.2481 10.4149 38.8305C10.063 38.4786 10.0398 38.0069 10.3337 37.6821C10.643 37.3341 11.1263 37.3225 11.5246 37.6628C11.7605 37.8677 11.9847 38.0881 12.2322 38.3162C12.8083 37.6048 13.3458 36.9474 13.9567 36.1973Z" fill="#018D86"/>
<path d="M8.00595 16.9027C8.00595 16.1332 7.99822 15.3676 8.00595 14.5981C8.02142 13.4149 8.84502 12.572 10.0359 12.572C11.7489 12.5759 13.4618 12.6184 15.1709 12.6261C15.2985 12.6261 15.457 12.514 15.5459 12.4096C15.9094 11.992 16.2497 11.5551 16.6015 11.1259C17.0346 10.6 17.4754 10.4917 17.8853 10.8127C18.3029 11.1375 18.2951 11.6169 17.8505 12.1699C17.4947 12.6145 17.1197 13.0476 16.7717 13.5039C16.675 13.6315 16.5977 13.8132 16.6015 13.9717C16.617 15.7891 16.6866 17.6103 16.6673 19.4276C16.6557 20.4484 15.8011 21.2333 14.7765 21.2449C13.1525 21.2681 11.5246 21.272 9.90062 21.2449C8.82955 21.2295 8.02915 20.3904 8.00595 19.3116C7.99435 18.5112 8.00595 17.7069 8.00595 16.9027ZM15.0665 15.7659C15.0278 15.7543 14.9853 15.7427 14.9466 15.7311C14.3511 16.4619 13.7595 17.1965 13.1525 17.9196C12.7271 18.4261 12.2941 18.4648 11.8223 18.0395C11.3854 17.6451 10.9523 17.2468 10.5386 16.8253C10.179 16.4619 10.1713 16.0133 10.4806 15.6769C10.7822 15.3483 11.2501 15.3251 11.6329 15.6421C11.8803 15.8471 12.1046 16.0752 12.3714 16.3188C12.9282 15.6344 13.4734 14.9693 14.1037 14.196C12.6575 14.196 11.3467 14.1805 10.0359 14.2153C9.89675 14.2192 9.64928 14.5015 9.64542 14.66C9.61448 16.1564 9.61448 17.6567 9.64542 19.1569C9.64928 19.3193 9.91608 19.6171 10.0669 19.6209C11.5826 19.6557 13.0983 19.6557 14.6141 19.6248C14.7687 19.6209 15.0471 19.3696 15.051 19.2304C15.0819 18.0743 15.0665 16.922 15.0665 15.7659Z" fill="#018D86"/>
<path d="M12.2477 23.4374C13.1757 23.4374 14.0998 23.4451 15.0278 23.4296C15.1593 23.4258 15.3217 23.3291 15.4106 23.2286C15.8089 22.7723 16.1801 22.289 16.5745 21.8288C16.9302 21.4151 17.3865 21.3416 17.7499 21.62C18.1405 21.9178 18.1791 22.3934 17.8234 22.8496C17.4406 23.3407 17.0269 23.8124 16.6441 24.3074C16.5474 24.435 16.4701 24.6167 16.4739 24.7714C16.4933 26.5539 16.5629 28.3364 16.5474 30.119C16.5358 31.2867 15.6735 32.06 14.4942 32.0716C12.9785 32.0832 11.4589 32.0832 9.94314 32.0716C8.70581 32.0639 7.89381 31.2635 7.88221 30.03C7.86674 28.495 7.86674 26.9599 7.88221 25.4248C7.89381 24.1875 8.70967 23.3987 9.94701 23.391C10.7165 23.3832 11.4821 23.391 12.2515 23.391C12.2477 23.4026 12.2477 23.4219 12.2477 23.4374ZM13.9645 25.0034C12.5493 25.0034 11.281 25.0072 10.0127 24.9995C9.65701 24.9995 9.48687 25.1426 9.49074 25.5099C9.49847 26.9908 9.49461 28.4718 9.49074 29.9566C9.49074 30.2891 9.63767 30.4554 9.97021 30.4554C11.4705 30.4554 12.9707 30.467 14.4671 30.4399C14.6179 30.436 14.8925 30.2156 14.8963 30.088C14.9311 28.9164 14.9157 27.7448 14.9157 26.4495C14.7146 26.6738 14.5986 26.7975 14.4903 26.929C13.9915 27.536 13.5043 28.1508 12.9939 28.7502C12.5802 29.2374 12.1239 29.2567 11.6561 28.8275C11.2346 28.4408 10.8131 28.0542 10.411 27.6482C10.0591 27.2924 10.0359 26.8246 10.3298 26.4959C10.6391 26.144 11.1147 26.1324 11.5207 26.4727C11.7605 26.6738 11.9847 26.8942 12.2322 27.1184C12.8122 26.4147 13.3497 25.7574 13.9645 25.0034Z" fill="#018D86"/>
<path d="M25.5645 16.1101C23.8361 16.1101 22.1038 16.114 20.3754 16.1101C19.7103 16.1101 19.3507 15.8085 19.3623 15.2827C19.3739 14.78 19.7258 14.4939 20.3638 14.4939C23.8593 14.49 27.3547 14.49 30.8502 14.4939C31.4766 14.4939 31.8323 14.7955 31.8362 15.2981C31.8401 15.8085 31.4882 16.1063 30.8657 16.1101C29.0986 16.114 27.3315 16.1101 25.5645 16.1101Z" fill="#018D86"/>
<path d="M25.5877 19.3659C23.9134 19.3659 22.2353 19.3659 20.561 19.3659C20.3638 19.3659 20.1163 19.4123 19.9887 19.3156C19.7451 19.1262 19.4281 18.8594 19.4087 18.608C19.3933 18.3528 19.6717 18.0435 19.8882 17.827C19.9965 17.7187 20.2594 17.7419 20.4527 17.7419C23.8941 17.738 27.3354 17.738 30.7767 17.7419C30.9507 17.7419 31.1363 17.7535 31.3026 17.8115C31.6931 17.9391 31.8633 18.2368 31.8285 18.639C31.7937 19.0218 31.581 19.2654 31.2021 19.335C31.0126 19.3698 30.8115 19.3698 30.6182 19.3698C28.9401 19.3659 27.2619 19.3659 25.5877 19.3659Z" fill="#018D86"/>
<path d="M25.8467 30.6217C24.2382 30.6217 22.6335 30.6217 21.025 30.6217C20.8278 30.6217 20.5842 30.6759 20.4489 30.5792C20.1975 30.4013 19.9114 30.1616 19.8263 29.8871C19.7065 29.5159 19.9501 29.1911 20.3367 29.0673C20.5339 29.0016 20.7582 28.9939 20.9709 28.9939C24.2034 28.99 27.4359 28.99 30.6685 28.9939C30.8811 28.9939 31.1015 29.0016 31.3026 29.0635C31.6931 29.1833 31.8671 29.4849 31.8323 29.8909C31.8014 30.2737 31.5849 30.5251 31.2059 30.5869C30.9623 30.6256 30.7071 30.6217 30.4597 30.6217C28.9169 30.6217 27.3818 30.6217 25.8467 30.6217Z" fill="#018D86"/>
<path d="M25.8042 27.3697C24.1415 27.3697 22.4827 27.3736 20.8201 27.3697C20.1511 27.3697 19.7877 27.0681 19.7954 26.55C19.8031 26.0357 20.1705 25.7534 20.8471 25.7534C24.1493 25.7534 27.4553 25.7534 30.7574 25.7534C31.4689 25.7534 31.8401 26.0434 31.8323 26.577C31.8246 27.099 31.4727 27.3697 30.7845 27.3697C29.1257 27.3736 27.4669 27.3697 25.8042 27.3697Z" fill="#018D86"/>
<path d="M36.9247 37.8601C39.5231 37.8524 41.6459 39.9443 41.6614 42.5311C41.6769 45.1527 39.5579 47.2948 36.9557 47.2909C34.3689 47.2871 32.2461 45.172 32.2422 42.5891C32.2345 39.9945 34.3418 37.8679 36.9247 37.8601ZM36.9518 39.4803C35.2582 39.4764 33.8507 40.8916 33.8585 42.5891C33.8662 44.2633 35.2505 45.6515 36.9286 45.6708C38.6183 45.6901 40.0374 44.2865 40.0451 42.5852C40.0529 40.8877 38.6531 39.4841 36.9518 39.4803Z" fill="#018D86"/>
</svg>
